<svg width="188" height="228" viewBox="0 0 188 228" fill="none" xmlns="http://www.w3.org/2000/svg">
<rect x="2.70005" y="0.981662" width="182.835" height="376.958" rx="28.4682" fill="#4F5560" stroke="#232A38" stroke-width="1.96332"/>
<g clip-path="url(#clip0_249_9815)">
<rect x="10.3357" y="7.74121" width="167.935" height="363.429" rx="21.5301" fill="url(#paint0_linear_249_9815)"/>
<g filter="url(#filter0_d_249_9815)">
<rect x="20.8928" y="79.2419" width="146.836" height="48.6689" rx="5.16723" fill="white" shape-rendering="crispEdges"/>
<rect x="27.7825" y="87.3257" width="8.61206" height="8.61206" rx="4.30603" fill="#007B33"/>
<g clip-path="url(#clip1_249_9815)">
<path d="M32.0884 93.7848C33.2775 93.7848 34.2415 92.8209 34.2415 91.6318C34.2415 90.4427 33.2775 89.4788 32.0884 89.4788C30.8994 89.4788 29.9354 90.4427 29.9354 91.6318C29.9354 92.8209 30.8994 93.7848 32.0884 93.7848Z" stroke="white" stroke-width="0.430603" stroke-linecap="round" stroke-linejoin="round"/>
<path d="M32.0884 92.9235C32.8019 92.9235 33.3802 92.3451 33.3802 91.6317C33.3802 90.9182 32.8019 90.3398 32.0884 90.3398C31.375 90.3398 30.7966 90.9182 30.7966 91.6317C30.7966 92.3451 31.375 92.9235 32.0884 92.9235Z" stroke="white" stroke-width="0.430603" stroke-linecap="round" stroke-linejoin="round"/>
<path d="M32.0884 92.0624C32.3263 92.0624 32.519 91.8696 32.519 91.6318C32.519 91.394 32.3263 91.2012 32.0884 91.2012C31.8506 91.2012 31.6578 91.394 31.6578 91.6318C31.6578 91.8696 31.8506 92.0624 32.0884 92.0624Z" fill="white" stroke="white" stroke-width="0.430603" stroke-linecap="round" stroke-linejoin="round"/>
</g>
<path d="M41.0039 89.1209L42.308 93.0649H42.3594L43.661 89.1209H44.6592L42.8927 94.1316H41.7722L40.0082 89.1209H41.0039ZM45.28 94.1316V90.3736H46.1657V94.1316H45.28ZM45.7253 89.8402C45.585 89.8402 45.4643 89.7938 45.3632 89.7008C45.2621 89.6062 45.2115 89.4928 45.2115 89.3607C45.2115 89.227 45.2621 89.1136 45.3632 89.0206C45.4643 88.926 45.585 88.8787 45.7253 88.8787C45.8672 88.8787 45.9879 88.926 46.0874 89.0206C46.1885 89.1136 46.2391 89.227 46.2391 89.3607C46.2391 89.4928 46.1885 89.6062 46.0874 89.7008C45.9879 89.7938 45.8672 89.8402 45.7253 89.8402ZM48.953 90.3736V91.0587H46.7926V90.3736H48.953ZM47.326 89.4733H48.2116V93.0013C48.2116 93.1203 48.2296 93.2117 48.2655 93.2753C48.303 93.3373 48.3519 93.3797 48.4123 93.4025C48.4726 93.4253 48.5395 93.4368 48.6129 93.4368C48.6683 93.4368 48.7189 93.4327 48.7646 93.4245C48.8119 93.4164 48.8478 93.409 48.8722 93.4025L49.0215 94.0949C48.9742 94.1112 48.9065 94.1291 48.8184 94.1487C48.732 94.1683 48.6259 94.1797 48.5003 94.183C48.2785 94.1895 48.0787 94.1561 47.9009 94.0827C47.7231 94.0076 47.5821 93.8918 47.4777 93.7352C47.3749 93.5787 47.3243 93.3829 47.326 93.1481V89.4733ZM50.7751 94.2074C50.5369 94.2074 50.3225 94.165 50.1316 94.0802C49.9424 93.9938 49.7924 93.8665 49.6814 93.6985C49.5722 93.5305 49.5175 93.3234 49.5175 93.0771C49.5175 92.8651 49.5567 92.6897 49.635 92.5511C49.7133 92.4124 49.8201 92.3015 49.9555 92.2183C50.0908 92.1352 50.2433 92.0724 50.413 92.03C50.5842 91.9859 50.7612 91.9541 50.9439 91.9345C51.1641 91.9117 51.3427 91.8913 51.4797 91.8734C51.6167 91.8538 51.7162 91.8244 51.7782 91.7853C51.8418 91.7445 51.8736 91.6817 51.8736 91.5969V91.5822C51.8736 91.3979 51.819 91.2552 51.7097 91.1541C51.6004 91.0529 51.443 91.0024 51.2375 91.0024C51.0206 91.0024 50.8485 91.0497 50.7213 91.1443C50.5957 91.2389 50.5108 91.3506 50.4668 91.4795L49.6399 91.362C49.7051 91.1337 49.8127 90.9428 49.9628 90.7895C50.1129 90.6346 50.2964 90.5188 50.5133 90.4421C50.7302 90.3638 50.97 90.3247 51.2326 90.3247C51.4136 90.3247 51.5939 90.3459 51.7733 90.3883C51.9527 90.4307 52.1166 90.5008 52.2651 90.5987C52.4135 90.6949 52.5326 90.8262 52.6223 90.9926C52.7136 91.159 52.7593 91.3669 52.7593 91.6165V94.1316H51.9079V93.6154H51.8785C51.8247 93.7197 51.7488 93.8176 51.651 93.909C51.5547 93.9987 51.4332 94.0712 51.2864 94.1267C51.1413 94.1805 50.9708 94.2074 50.7751 94.2074ZM51.0051 93.5566C51.1828 93.5566 51.337 93.5216 51.4675 93.4514C51.598 93.3797 51.6983 93.2851 51.7684 93.1676C51.8402 93.0502 51.8761 92.9222 51.8761 92.7835V92.3407C51.8483 92.3635 51.801 92.3847 51.7341 92.4043C51.6689 92.4239 51.5955 92.441 51.514 92.4557C51.4324 92.4703 51.3517 92.4834 51.2717 92.4948C51.1918 92.5062 51.1225 92.516 51.0638 92.5242C50.9317 92.5421 50.8134 92.5715 50.709 92.6122C50.6046 92.653 50.5223 92.7101 50.4619 92.7835C50.4016 92.8553 50.3714 92.9482 50.3714 93.0624C50.3714 93.2255 50.4309 93.3487 50.55 93.4319C50.6691 93.515 50.8207 93.5566 51.0051 93.5566ZM53.6498 94.1316V90.3736H54.4964V91.0122H54.5404C54.6187 90.7969 54.7484 90.6289 54.9294 90.5082C55.1105 90.3858 55.3266 90.3247 55.5778 90.3247C55.8322 90.3247 56.0467 90.3867 56.2212 90.5106C56.3974 90.6329 56.5213 90.8001 56.5931 91.0122H56.6323C56.7154 90.8034 56.8557 90.637 57.0531 90.5131C57.2521 90.3875 57.4878 90.3247 57.7601 90.3247C58.1059 90.3247 58.3881 90.434 58.6067 90.6525C58.8252 90.8711 58.9345 91.19 58.9345 91.6091V94.1316H58.0464V91.7461C58.0464 91.5129 57.9844 91.3425 57.8605 91.2348C57.7365 91.1255 57.5848 91.0709 57.4054 91.0709C57.1917 91.0709 57.0245 91.1378 56.9038 91.2715C56.7848 91.4036 56.7252 91.5757 56.7252 91.7877V94.1316H55.8567V91.7095C55.8567 91.5154 55.798 91.3604 55.6805 91.2446C55.5647 91.1288 55.413 91.0709 55.2255 91.0709C55.0982 91.0709 54.9824 91.1035 54.878 91.1688C54.7736 91.2324 54.6905 91.3229 54.6285 91.4403C54.5665 91.5561 54.5355 91.6915 54.5355 91.8465V94.1316H53.6498ZM59.833 94.1316V90.3736H60.7187V94.1316H59.833ZM60.2783 89.8402C60.138 89.8402 60.0173 89.7938 59.9162 89.7008C59.8151 89.6062 59.7645 89.4928 59.7645 89.3607C59.7645 89.227 59.8151 89.1136 59.9162 89.0206C60.0173 88.926 60.138 88.8787 60.2783 88.8787C60.4202 88.8787 60.5409 88.926 60.6404 89.0206C60.7415 89.1136 60.7921 89.227 60.7921 89.3607C60.7921 89.4928 60.7415 89.6062 60.6404 89.7008C60.5409 89.7938 60.4202 89.8402 60.2783 89.8402ZM62.5151 91.9296V94.1316H61.6295V90.3736H62.476V91.0122H62.52C62.6065 90.8018 62.7443 90.6346 62.9335 90.5106C63.1243 90.3867 63.36 90.3247 63.6406 90.3247C63.8999 90.3247 64.1258 90.3801 64.3183 90.491C64.5124 90.602 64.6624 90.7626 64.7684 90.973C64.8761 91.1834 64.9291 91.4387 64.9275 91.7388V94.1316H64.0418V91.8758C64.0418 91.6246 63.9766 91.4281 63.8461 91.2862C63.7172 91.1443 63.5386 91.0733 63.3103 91.0733C63.1553 91.0733 63.0175 91.1076 62.8968 91.1761C62.7777 91.243 62.6839 91.34 62.6154 91.4672C62.5486 91.5945 62.5151 91.7486 62.5151 91.9296ZM69.2739 94.1316H67.5759V89.1209H69.3081C69.8056 89.1209 70.2329 89.2213 70.5901 89.4219C70.949 89.6209 71.2246 89.9071 71.4171 90.2806C71.6096 90.6541 71.7058 91.1011 71.7058 91.6214C71.7058 92.1433 71.6088 92.5919 71.4147 92.967C71.2222 93.3422 70.9441 93.63 70.5804 93.8307C70.2183 94.0313 69.7828 94.1316 69.2739 94.1316ZM68.4836 93.3462H69.2298C69.5789 93.3462 69.87 93.2826 70.1033 93.1554C70.3365 93.0265 70.5119 92.8349 70.6293 92.5804C70.7467 92.3244 70.8055 92.0047 70.8055 91.6214C70.8055 91.2381 70.7467 90.92 70.6293 90.6672C70.5119 90.4127 70.3381 90.2227 70.1082 90.0971C69.8798 89.9699 69.596 89.9063 69.2567 89.9063H68.4836V93.3462Z" fill="#263238"/>
<rect x="138.448" y="86.1316" width="22.3913" height="10.4448" rx="1.72241" fill="#E6F9EB"/>
<path d="M140.934 89.9407V89.4697H144.223V89.9407H142.844V93.854H142.313V89.9407H140.934ZM145.423 93.9311C145.214 93.9311 145.025 93.8918 144.855 93.8133C144.685 93.7334 144.551 93.6185 144.451 93.4687C144.351 93.3174 144.301 93.1347 144.301 92.9206C144.301 92.7322 144.338 92.5795 144.412 92.4625C144.486 92.344 144.586 92.2513 144.71 92.1842C144.834 92.1171 144.971 92.0672 145.121 92.0343C145.272 92.0001 145.424 91.973 145.577 91.953C145.777 91.9273 145.939 91.908 146.063 91.8952C146.188 91.8809 146.28 91.8574 146.337 91.8245C146.395 91.7917 146.424 91.7346 146.424 91.6533V91.6362C146.424 91.4249 146.367 91.2608 146.251 91.1438C146.137 91.0267 145.964 90.9682 145.731 90.9682C145.49 90.9682 145.301 91.021 145.164 91.1266C145.027 91.2323 144.93 91.345 144.875 91.4649L144.395 91.2936C144.481 91.0938 144.595 90.9383 144.738 90.8269C144.882 90.7142 145.039 90.6357 145.209 90.5915C145.38 90.5458 145.548 90.5229 145.714 90.5229C145.819 90.5229 145.941 90.5358 146.078 90.5615C146.216 90.5857 146.35 90.6364 146.478 90.7135C146.608 90.7905 146.716 90.9069 146.801 91.0624C146.887 91.218 146.93 91.4264 146.93 91.6875V93.854H146.424V93.4087H146.399C146.365 93.4801 146.307 93.5564 146.228 93.6378C146.148 93.7191 146.041 93.7884 145.909 93.8454C145.776 93.9025 145.614 93.9311 145.423 93.9311ZM145.5 93.4772C145.699 93.4772 145.868 93.438 146.005 93.3595C146.143 93.281 146.248 93.1797 146.317 93.0555C146.389 92.9313 146.424 92.8007 146.424 92.6637V92.2013C146.403 92.227 146.356 92.2506 146.283 92.272C146.212 92.2919 146.129 92.3098 146.035 92.3255C145.942 92.3398 145.851 92.3526 145.763 92.364C145.676 92.374 145.605 92.3826 145.551 92.3897C145.42 92.4068 145.297 92.4347 145.183 92.4732C145.07 92.5103 144.979 92.5667 144.909 92.6423C144.84 92.7165 144.806 92.8179 144.806 92.9463C144.806 93.1219 144.871 93.2546 145.001 93.3445C145.132 93.433 145.298 93.4772 145.5 93.4772ZM147.781 93.854V90.5658H148.269V91.0624H148.303C148.363 90.8997 148.472 90.7677 148.629 90.6664C148.786 90.5651 148.963 90.5144 149.159 90.5144C149.197 90.5144 149.243 90.5151 149.299 90.5165C149.354 90.518 149.396 90.5201 149.425 90.5229V91.0367C149.408 91.0325 149.369 91.026 149.307 91.0175C149.247 91.0075 149.184 91.0025 149.117 91.0025C148.957 91.0025 148.814 91.036 148.689 91.1031C148.564 91.1688 148.466 91.2601 148.393 91.3771C148.322 91.4927 148.286 91.6247 148.286 91.7732V93.854H147.781ZM151.18 95.1556C150.936 95.1556 150.726 95.1242 150.551 95.0614C150.375 95 150.229 94.9187 150.112 94.8174C149.996 94.7175 149.904 94.6104 149.836 94.4962L150.238 94.2137C150.284 94.2736 150.342 94.3421 150.411 94.4192C150.481 94.4977 150.577 94.5655 150.698 94.6225C150.821 94.6811 150.982 94.7103 151.18 94.7103C151.445 94.7103 151.665 94.6461 151.837 94.5176C152.01 94.3892 152.096 94.188 152.096 93.9139V93.246H152.053C152.016 93.306 151.963 93.3802 151.895 93.4687C151.828 93.5557 151.731 93.6335 151.604 93.702C151.478 93.7691 151.308 93.8026 151.094 93.8026C150.829 93.8026 150.591 93.7398 150.379 93.6142C150.17 93.4886 150.003 93.306 149.881 93.0662C149.759 92.8264 149.699 92.5353 149.699 92.1928C149.699 91.8559 149.758 91.5627 149.876 91.3129C149.995 91.0617 150.16 90.8676 150.371 90.7306C150.582 90.5922 150.826 90.5229 151.103 90.5229C151.317 90.5229 151.487 90.5586 151.612 90.63C151.739 90.6999 151.836 90.7798 151.904 90.8698C151.972 90.9582 152.025 91.031 152.062 91.0881H152.113V90.5658H152.601V93.9482C152.601 94.2308 152.537 94.4606 152.409 94.6375C152.282 94.8159 152.11 94.9465 151.895 95.0293C151.681 95.1135 151.443 95.1556 151.18 95.1556ZM151.163 93.3488C151.366 93.3488 151.537 93.3024 151.677 93.2096C151.816 93.1169 151.923 92.9834 151.996 92.8093C152.068 92.6352 152.105 92.4268 152.105 92.1842C152.105 91.9473 152.069 91.7382 151.998 91.5569C151.926 91.3757 151.821 91.2337 151.681 91.1309C151.541 91.0282 151.368 90.9768 151.163 90.9768C150.949 90.9768 150.77 91.031 150.628 91.1395C150.486 91.248 150.38 91.3935 150.309 91.5762C150.239 91.7589 150.204 91.9616 150.204 92.1842C150.204 92.4125 150.239 92.6145 150.311 92.79C150.384 92.9642 150.491 93.1012 150.632 93.2011C150.775 93.2995 150.952 93.3488 151.163 93.3488ZM154.834 93.9225C154.517 93.9225 154.244 93.8526 154.014 93.7127C153.786 93.5714 153.609 93.3745 153.485 93.1219C153.362 92.8678 153.301 92.5724 153.301 92.2356C153.301 91.8988 153.362 91.6019 153.485 91.345C153.609 91.0867 153.782 90.8855 154.003 90.7413C154.226 90.5957 154.486 90.5229 154.783 90.5229C154.954 90.5229 155.123 90.5515 155.29 90.6086C155.457 90.6657 155.609 90.7584 155.746 90.8869C155.883 91.0139 155.992 91.1823 156.073 91.3921C156.155 91.6019 156.195 91.8602 156.195 92.1671V92.3811H153.661V91.9444H155.682C155.682 91.7589 155.645 91.5933 155.57 91.4478C155.498 91.3022 155.393 91.1873 155.258 91.1031C155.124 91.0189 154.965 90.9768 154.783 90.9768C154.581 90.9768 154.407 91.0267 154.26 91.1266C154.115 91.2251 154.003 91.3536 153.924 91.512C153.846 91.6704 153.806 91.8402 153.806 92.0215V92.3126C153.806 92.561 153.849 92.7715 153.935 92.9442C154.022 93.1154 154.142 93.246 154.297 93.3359C154.451 93.4244 154.63 93.4687 154.834 93.4687C154.967 93.4687 155.086 93.4501 155.194 93.413C155.302 93.3745 155.395 93.3174 155.474 93.2417C155.552 93.1647 155.613 93.0691 155.656 92.9549L156.144 93.0919C156.093 93.2574 156.006 93.403 155.885 93.5286C155.764 93.6528 155.614 93.7498 155.435 93.8198C155.257 93.8883 155.057 93.9225 154.834 93.9225ZM158.323 90.5658V90.9939H156.619V90.5658H158.323ZM157.116 89.778H157.621V92.9121C157.621 93.0548 157.641 93.1618 157.683 93.2332C157.726 93.3031 157.78 93.3502 157.846 93.3745C157.913 93.3973 157.983 93.4087 158.057 93.4087C158.113 93.4087 158.159 93.4059 158.195 93.4002C158.23 93.393 158.259 93.3873 158.28 93.383L158.383 93.8369C158.349 93.8497 158.301 93.8626 158.239 93.8754C158.178 93.8897 158.1 93.8968 158.006 93.8968C157.863 93.8968 157.724 93.8661 157.587 93.8048C157.451 93.7434 157.338 93.6499 157.248 93.5243C157.16 93.3987 157.116 93.2403 157.116 93.0491V89.778Z" fill="#007B33"/>
<path d="M28.493 110.084C28.536 109.223 28.8374 108.56 29.3972 108.095C29.9656 107.621 30.7106 107.384 31.6321 107.384C32.2607 107.384 32.799 107.496 33.2468 107.72C33.6946 107.936 34.0305 108.233 34.2544 108.612C34.487 108.982 34.6032 109.404 34.6032 109.878C34.6032 110.42 34.4611 110.881 34.1769 111.26C33.9013 111.63 33.5698 111.88 33.1822 112.009V112.061C33.6817 112.216 34.0693 112.491 34.3449 112.887C34.6291 113.284 34.7712 113.792 34.7712 114.412C34.7712 114.929 34.6506 115.389 34.4094 115.794C34.1769 116.199 33.8281 116.517 33.3631 116.75C32.9066 116.974 32.3555 117.086 31.7096 117.086C30.7364 117.086 29.9441 116.84 29.3326 116.349C28.7212 115.859 28.3982 115.135 28.3638 114.179H30.1206C30.1379 114.601 30.28 114.941 30.5469 115.2C30.8225 115.45 31.1972 115.574 31.6708 115.574C32.11 115.574 32.4459 115.454 32.6784 115.213C32.9196 114.963 33.0401 114.644 33.0401 114.257C33.0401 113.74 32.8765 113.37 32.5492 113.146C32.222 112.922 31.7139 112.81 31.0249 112.81H30.6503V111.324H31.0249C32.2478 111.324 32.8593 110.915 32.8593 110.097C32.8593 109.727 32.7473 109.438 32.5234 109.232C32.3081 109.025 31.9938 108.922 31.5804 108.922C31.1756 108.922 30.8613 109.034 30.6374 109.257C30.4221 109.473 30.2972 109.748 30.2627 110.084H28.493ZM36.7687 114.98C37.5955 114.291 38.2543 113.719 38.7452 113.262C39.2361 112.797 39.6451 112.315 39.9724 111.815C40.2997 111.316 40.4633 110.825 40.4633 110.343C40.4633 109.903 40.3599 109.559 40.1533 109.309C39.9466 109.059 39.6279 108.935 39.1973 108.935C38.7667 108.935 38.4351 109.081 38.2026 109.374C37.9701 109.658 37.8495 110.05 37.8409 110.549H36.0841C36.1185 109.516 36.4242 108.732 37.0012 108.198C37.5869 107.664 38.3275 107.397 39.2232 107.397C40.2049 107.397 40.9585 107.66 41.4838 108.185C42.0092 108.702 42.2718 109.387 42.2718 110.239C42.2718 110.911 42.091 111.553 41.7293 112.164C41.3676 112.775 40.9542 113.309 40.4891 113.766C40.0241 114.214 39.4169 114.756 38.6677 115.394H42.4785V116.892H36.097V115.549L36.7687 114.98Z" fill="#263238"/>
<path d="M46.4725 114.321V116.299H45.9673V113.011H46.4554V113.524H46.4982C46.5753 113.357 46.6923 113.223 46.8493 113.122C47.0063 113.019 47.2089 112.968 47.4573 112.968C47.6799 112.968 47.8747 113.013 48.0417 113.105C48.2087 113.195 48.3386 113.332 48.4313 113.516C48.5241 113.698 48.5705 113.93 48.5705 114.209V116.299H48.0653V114.244C48.0653 113.985 47.9982 113.784 47.864 113.64C47.7299 113.494 47.5458 113.422 47.3117 113.422C47.1504 113.422 47.0063 113.457 46.8793 113.527C46.7537 113.596 46.6545 113.698 46.5817 113.833C46.5089 113.967 46.4725 114.13 46.4725 114.321ZM50.821 117.6C50.5769 117.6 50.3671 117.569 50.1916 117.506C50.016 117.445 49.8698 117.364 49.7527 117.262C49.6371 117.162 49.5451 117.055 49.4766 116.941L49.879 116.658C49.9247 116.718 49.9825 116.787 50.0524 116.864C50.1224 116.942 50.218 117.01 50.3393 117.067C50.462 117.126 50.6226 117.155 50.821 117.155C51.0864 117.155 51.3055 117.091 51.4782 116.962C51.6509 116.834 51.7372 116.633 51.7372 116.359V115.691H51.6944C51.6573 115.751 51.6045 115.825 51.536 115.913C51.4689 116.001 51.3719 116.078 51.2449 116.147C51.1193 116.214 50.9494 116.247 50.7353 116.247C50.4699 116.247 50.2315 116.185 50.0203 116.059C49.8105 115.933 49.6443 115.751 49.5215 115.511C49.4002 115.271 49.3396 114.98 49.3396 114.638C49.3396 114.301 49.3988 114.007 49.5172 113.758C49.6357 113.507 49.8005 113.312 50.0118 113.175C50.223 113.037 50.467 112.968 50.7439 112.968C50.958 112.968 51.1278 113.003 51.2534 113.075C51.3804 113.145 51.4775 113.225 51.5446 113.315C51.6131 113.403 51.6659 113.476 51.703 113.533H51.7544V113.011H52.2425V116.393C52.2425 116.676 52.1782 116.905 52.0498 117.082C51.9228 117.261 51.7515 117.391 51.536 117.474C51.3219 117.558 51.0836 117.6 50.821 117.6ZM50.8039 115.794C51.0065 115.794 51.1778 115.747 51.3176 115.654C51.4575 115.562 51.5638 115.428 51.6366 115.254C51.7094 115.08 51.7458 114.872 51.7458 114.629C51.7458 114.392 51.7101 114.183 51.6388 114.002C51.5674 113.821 51.4618 113.679 51.3219 113.576C51.1821 113.473 51.0094 113.422 50.8039 113.422C50.5898 113.422 50.4114 113.476 50.2687 113.584C50.1274 113.693 50.021 113.838 49.9497 114.021C49.8797 114.204 49.8448 114.406 49.8448 114.629C49.8448 114.857 49.8805 115.059 49.9518 115.235C50.0246 115.409 50.1316 115.546 50.2729 115.646C50.4157 115.744 50.5926 115.794 50.8039 115.794ZM54.7172 111.709L53.3043 116.958H52.8419L54.2548 111.709H54.7172ZM55.3161 116.299V113.011H55.8042V113.524H55.847C55.9155 113.349 56.0261 113.213 56.1788 113.115C56.3315 113.017 56.5149 112.968 56.729 112.968C56.9459 112.968 57.1265 113.017 57.2706 113.115C57.4162 113.213 57.5297 113.349 57.611 113.524H57.6453C57.7295 113.355 57.8558 113.22 58.0242 113.12C58.1926 113.018 58.3945 112.968 58.63 112.968C58.924 112.968 59.1645 113.06 59.3515 113.244C59.5384 113.427 59.6319 113.711 59.6319 114.098V116.299H59.1267V114.098C59.1267 113.855 59.0603 113.682 58.9276 113.578C58.7949 113.474 58.6386 113.422 58.4587 113.422C58.2275 113.422 58.0484 113.492 57.9214 113.631C57.7944 113.77 57.7309 113.945 57.7309 114.158V116.299H57.2171V114.047C57.2171 113.86 57.1564 113.709 57.0351 113.595C56.9138 113.479 56.7575 113.422 56.5663 113.422C56.435 113.422 56.3123 113.457 56.1981 113.527C56.0853 113.596 55.994 113.693 55.9241 113.818C55.8556 113.94 55.8213 114.082 55.8213 114.244V116.299H55.3161ZM60.6241 116.299V111.915H61.1551V115.828H63.1931V116.299H60.6241Z" fill="#263238"/>
<line x1="125.25" y1="133.497" x2="125.25" y2="157.18" stroke="#263238" stroke-width="0.301422" stroke-dasharray="0.86 0.86"/>
</g>
<g filter="url(#filter1_d_249_9815)">
<rect x="20.8928" y="133.078" width="146.836" height="48.6689" rx="5.16723" fill="white" shape-rendering="crispEdges"/>
<rect x="27.7825" y="141.162" width="8.61206" height="8.61206" rx="4.30603" fill="#FC1800"/>
<g clip-path="url(#clip2_249_9815)">
<path d="M33.1671 145.468H34.4482" stroke="white" stroke-width="0.430603" stroke-linecap="round" stroke-linejoin="round"/>
<path d="M29.731 145.468H31.012" stroke="white" stroke-width="0.430603" stroke-linecap="round" stroke-linejoin="round"/>
<path d="M32.0885 146.329C32.5641 146.329 32.9497 145.944 32.9497 145.468C32.9497 144.993 32.5641 144.607 32.0885 144.607C31.6129 144.607 31.2273 144.993 31.2273 145.468C31.2273 145.944 31.6129 146.329 32.0885 146.329Z" stroke="white" stroke-width="0.430603" stroke-linecap="round" stroke-linejoin="round"/>
</g>
<path d="M44.6225 144.648H43.7074C43.6813 144.498 43.6332 144.365 43.5631 144.249C43.493 144.132 43.4057 144.032 43.3013 143.951C43.1969 143.869 43.0778 143.808 42.9441 143.767C42.812 143.725 42.6693 143.704 42.5159 143.704C42.2436 143.704 42.0022 143.772 41.7917 143.909C41.5813 144.044 41.4166 144.243 41.2975 144.506C41.1785 144.767 41.1189 145.086 41.1189 145.463C41.1189 145.846 41.1785 146.169 41.2975 146.432C41.4182 146.693 41.583 146.89 41.7917 147.024C42.0022 147.156 42.2427 147.222 42.5135 147.222C42.6636 147.222 42.8038 147.202 42.9343 147.163C43.0664 147.122 43.1847 147.063 43.2891 146.984C43.3951 146.906 43.484 146.81 43.5558 146.696C43.6291 146.582 43.6797 146.451 43.7074 146.304L44.6225 146.309C44.5882 146.547 44.514 146.771 44.3998 146.98C44.2873 147.188 44.1397 147.373 43.957 147.533C43.7743 147.691 43.5606 147.815 43.316 147.904C43.0713 147.992 42.7998 148.037 42.5013 148.037C42.0609 148.037 41.6678 147.935 41.322 147.731C40.9762 147.527 40.7038 147.232 40.5048 146.847C40.3058 146.463 40.2063 146.001 40.2063 145.463C40.2063 144.923 40.3067 144.461 40.5073 144.078C40.7079 143.693 40.9811 143.399 41.3269 143.195C41.6727 142.991 42.0641 142.889 42.5013 142.889C42.7802 142.889 43.0395 142.928 43.2793 143.006C43.5191 143.085 43.7327 143.2 43.9203 143.351C44.1079 143.501 44.262 143.686 44.3827 143.904C44.505 144.121 44.585 144.369 44.6225 144.648ZM47.0538 148.041C46.6868 148.041 46.3687 147.961 46.0996 147.799C45.8305 147.638 45.6217 147.412 45.4733 147.121C45.3265 146.831 45.2531 146.492 45.2531 146.104C45.2531 145.716 45.3265 145.375 45.4733 145.083C45.6217 144.792 45.8305 144.565 46.0996 144.403C46.3687 144.242 46.6868 144.161 47.0538 144.161C47.4208 144.161 47.7388 144.242 48.008 144.403C48.2771 144.565 48.4851 144.792 48.6318 145.083C48.7803 145.375 48.8545 145.716 48.8545 146.104C48.8545 146.492 48.7803 146.831 48.6318 147.121C48.4851 147.412 48.2771 147.638 48.008 147.799C47.7388 147.961 47.4208 148.041 47.0538 148.041ZM47.0587 147.332C47.2577 147.332 47.424 147.277 47.5578 147.168C47.6915 147.057 47.791 146.909 47.8563 146.723C47.9231 146.537 47.9566 146.33 47.9566 146.101C47.9566 145.871 47.9231 145.663 47.8563 145.477C47.791 145.29 47.6915 145.141 47.5578 145.03C47.424 144.919 47.2577 144.863 47.0587 144.863C46.8548 144.863 46.6852 144.919 46.5498 145.03C46.416 145.141 46.3157 145.29 46.2489 145.477C46.1836 145.663 46.151 145.871 46.151 146.101C46.151 146.33 46.1836 146.537 46.2489 146.723C46.3157 146.909 46.416 147.057 46.5498 147.168C46.6852 147.277 46.8548 147.332 47.0587 147.332ZM49.6062 147.968V144.21H50.465V144.836H50.5041C50.5726 144.619 50.6901 144.452 50.8564 144.335C51.0244 144.216 51.2161 144.156 51.4314 144.156C51.4803 144.156 51.535 144.159 51.5953 144.164C51.6573 144.167 51.7087 144.173 51.7494 144.181V144.995C51.7119 144.982 51.6524 144.971 51.5708 144.961C51.4909 144.95 51.4134 144.944 51.3384 144.944C51.1769 144.944 51.0318 144.979 50.9029 145.049C50.7757 145.118 50.6754 145.213 50.602 145.335C50.5286 145.458 50.4919 145.599 50.4919 145.759V147.968H49.6062ZM54.4162 144.21V144.895H52.2559V144.21H54.4162ZM52.7892 143.31H53.6749V146.838C53.6749 146.957 53.6929 147.048 53.7287 147.112C53.7663 147.174 53.8152 147.216 53.8755 147.239C53.9359 147.262 54.0028 147.273 54.0762 147.273C54.1316 147.273 54.1822 147.269 54.2279 147.261C54.2752 147.253 54.311 147.245 54.3355 147.239L54.4847 147.931C54.4374 147.948 54.3698 147.966 54.2817 147.985C54.1952 148.005 54.0892 148.016 53.9636 148.019C53.7418 148.026 53.542 147.992 53.3642 147.919C53.1864 147.844 53.0453 147.728 52.9409 147.572C52.8382 147.415 52.7876 147.219 52.7892 146.984V143.31ZM55.157 147.968V144.21H56.0426V147.968H55.157ZM55.6022 143.677C55.462 143.677 55.3413 143.63 55.2401 143.537C55.139 143.443 55.0884 143.329 55.0884 143.197C55.0884 143.063 55.139 142.95 55.2401 142.857C55.3413 142.762 55.462 142.715 55.6022 142.715C55.7441 142.715 55.8648 142.762 55.9643 142.857C56.0655 142.95 56.116 143.063 56.116 143.197C56.116 143.329 56.0655 143.443 55.9643 143.537C55.8648 143.63 55.7441 143.677 55.6022 143.677ZM59.9236 145.203L59.1162 145.291C59.0933 145.21 59.0534 145.133 58.9963 145.061C58.9408 144.99 58.8658 144.932 58.7712 144.888C58.6766 144.844 58.5608 144.822 58.4238 144.822C58.2395 144.822 58.0845 144.862 57.9589 144.942C57.835 145.021 57.7738 145.125 57.7754 145.252C57.7738 145.362 57.8138 145.45 57.8953 145.519C57.9785 145.587 58.1155 145.644 58.3063 145.688L58.9474 145.825C59.3029 145.901 59.5672 146.023 59.7401 146.189C59.9146 146.356 60.0027 146.573 60.0043 146.843C60.0027 147.079 59.9333 147.288 59.7963 147.469C59.6609 147.648 59.4726 147.789 59.2312 147.89C58.9898 147.991 58.7125 148.041 58.3993 148.041C57.9394 148.041 57.5691 147.945 57.2886 147.753C57.008 147.559 56.8408 147.289 56.787 146.943L57.6507 146.86C57.6898 147.029 57.773 147.157 57.9002 147.244C58.0274 147.33 58.193 147.373 58.3969 147.373C58.6073 147.373 58.7761 147.33 58.9033 147.244C59.0322 147.157 59.0966 147.051 59.0966 146.923C59.0966 146.816 59.055 146.727 58.9718 146.657C58.8903 146.587 58.763 146.533 58.5902 146.495L57.9491 146.361C57.5887 146.286 57.322 146.159 57.1491 145.981C56.9762 145.802 56.8906 145.575 56.8922 145.301C56.8906 145.07 56.9534 144.869 57.0806 144.699C57.2094 144.528 57.3881 144.396 57.6164 144.303C57.8464 144.208 58.1114 144.161 58.4115 144.161C58.8519 144.161 59.1985 144.255 59.4514 144.442C59.7058 144.63 59.8632 144.884 59.9236 145.203ZM62.3738 148.041C62.0068 148.041 61.6888 147.961 61.4197 147.799C61.1505 147.638 60.9417 147.412 60.7933 147.121C60.6465 146.831 60.5731 146.492 60.5731 146.104C60.5731 145.716 60.6465 145.375 60.7933 145.083C60.9417 144.792 61.1505 144.565 61.4197 144.403C61.6888 144.242 62.0068 144.161 62.3738 144.161C62.7408 144.161 63.0589 144.242 63.328 144.403C63.5971 144.565 63.8051 144.792 63.9519 145.083C64.1003 145.375 64.1745 145.716 64.1745 146.104C64.1745 146.492 64.1003 146.831 63.9519 147.121C63.8051 147.412 63.5971 147.638 63.328 147.799C63.0589 147.961 62.7408 148.041 62.3738 148.041ZM62.3787 147.332C62.5777 147.332 62.7441 147.277 62.8778 147.168C63.0116 147.057 63.1111 146.909 63.1763 146.723C63.2432 146.537 63.2766 146.33 63.2766 146.101C63.2766 145.871 63.2432 145.663 63.1763 145.477C63.1111 145.29 63.0116 145.141 62.8778 145.03C62.7441 144.919 62.5777 144.863 62.3787 144.863C62.1748 144.863 62.0052 144.919 61.8698 145.03C61.7361 145.141 61.6358 145.29 61.5689 145.477C61.5037 145.663 61.471 145.871 61.471 146.101C61.471 146.33 61.5037 146.537 61.5689 146.723C61.6358 146.909 61.7361 147.057 61.8698 147.168C62.0052 147.277 62.1748 147.332 62.3787 147.332ZM65.8119 142.957V147.968H64.9263V142.957H65.8119ZM68.6518 145.463C68.6518 144.851 68.7326 144.289 68.894 143.777C69.0571 143.263 69.2994 142.789 69.6207 142.353H70.455C70.331 142.515 70.2152 142.713 70.1076 142.948C69.9999 143.181 69.9061 143.437 69.8262 143.716C69.7479 143.993 69.6859 144.281 69.6403 144.579C69.5962 144.878 69.5742 145.172 69.5742 145.463C69.5742 145.849 69.6125 146.241 69.6892 146.637C69.7675 147.033 69.8727 147.401 70.0048 147.74C70.1385 148.078 70.2886 148.355 70.455 148.57H69.6207C69.2994 148.134 69.0571 147.661 68.894 147.148C68.7326 146.635 68.6518 146.073 68.6518 145.463ZM71.8257 147.968H70.8568L72.6208 142.957H73.7414L75.5078 147.968H74.539L73.2007 143.985H73.1615L71.8257 147.968ZM71.8575 146.003H74.4998V146.732H71.8575V146.003ZM76.1678 142.957H77.2786L78.7661 146.588H78.8248L80.3124 142.957H81.4231V147.968H80.5521V144.526H80.5056L79.1209 147.953H78.4701L77.0853 144.518H77.0388V147.968H76.1678V142.957ZM83.9529 145.463C83.9529 146.073 83.8714 146.635 83.7082 147.148C83.5468 147.661 83.3054 148.134 82.984 148.57H82.1498C82.2753 148.408 82.3912 148.211 82.4972 147.978C82.6048 147.745 82.6978 147.488 82.7761 147.21C82.856 146.931 82.918 146.642 82.962 146.343C83.0077 146.045 83.0305 145.751 83.0305 145.463C83.0305 145.076 82.9914 144.685 82.9131 144.288C82.8364 143.892 82.7312 143.524 82.5975 143.185C82.4654 142.846 82.3161 142.568 82.1498 142.353H82.984C83.3054 142.789 83.5468 143.263 83.7082 143.777C83.8714 144.289 83.9529 144.851 83.9529 145.463Z" fill="#263238"/>
<rect x="128.949" y="139.968" width="31.8896" height="10.4448" rx="1.72241" fill="#FFF3E0"/>
<path d="M132.925 147.69V143.306H135.571V143.777H133.456V145.259H135.434V145.729H133.456V147.219H135.605V147.69H132.925ZM136.893 143.306V147.69H136.388V143.306H136.893ZM139.126 147.759C138.809 147.759 138.536 147.689 138.306 147.549C138.078 147.408 137.902 147.211 137.778 146.958C137.655 146.704 137.593 146.409 137.593 146.072C137.593 145.735 137.655 145.438 137.778 145.181C137.902 144.923 138.074 144.722 138.296 144.578C138.518 144.432 138.778 144.359 139.075 144.359C139.246 144.359 139.415 144.388 139.582 144.445C139.749 144.502 139.901 144.595 140.038 144.723C140.175 144.85 140.284 145.019 140.366 145.229C140.447 145.438 140.488 145.697 140.488 146.003V146.218H137.953V145.781H139.974C139.974 145.595 139.937 145.43 139.863 145.284C139.79 145.139 139.686 145.024 139.55 144.94C139.416 144.855 139.258 144.813 139.075 144.813C138.874 144.813 138.7 144.863 138.553 144.963C138.407 145.062 138.295 145.19 138.216 145.348C138.138 145.507 138.099 145.677 138.099 145.858V146.149C138.099 146.397 138.142 146.608 138.227 146.781C138.314 146.952 138.435 147.082 138.589 147.172C138.743 147.261 138.922 147.305 139.126 147.305C139.259 147.305 139.379 147.287 139.486 147.249C139.594 147.211 139.688 147.154 139.766 147.078C139.845 147.001 139.906 146.905 139.948 146.791L140.436 146.928C140.385 147.094 140.299 147.239 140.177 147.365C140.056 147.489 139.906 147.586 139.728 147.656C139.549 147.725 139.349 147.759 139.126 147.759ZM143.774 144.402L142.558 147.69H142.044L140.828 144.402H141.376L142.284 147.023H142.318L143.226 144.402H143.774ZM145.237 147.767C145.029 147.767 144.84 147.728 144.67 147.65C144.5 147.57 144.365 147.455 144.265 147.305C144.166 147.154 144.116 146.971 144.116 146.757C144.116 146.569 144.153 146.416 144.227 146.299C144.301 146.18 144.4 146.088 144.525 146.021C144.649 145.954 144.786 145.904 144.936 145.871C145.087 145.837 145.239 145.809 145.392 145.789C145.591 145.764 145.753 145.744 145.877 145.732C146.003 145.717 146.094 145.694 146.152 145.661C146.21 145.628 146.239 145.571 146.239 145.49V145.473C146.239 145.261 146.181 145.097 146.066 144.98C145.952 144.863 145.778 144.805 145.546 144.805C145.304 144.805 145.115 144.857 144.978 144.963C144.841 145.069 144.745 145.181 144.689 145.301L144.21 145.13C144.295 144.93 144.41 144.775 144.552 144.663C144.697 144.551 144.853 144.472 145.023 144.428C145.195 144.382 145.363 144.359 145.529 144.359C145.634 144.359 145.755 144.372 145.892 144.398C146.031 144.422 146.164 144.473 146.293 144.55C146.423 144.627 146.53 144.743 146.616 144.899C146.702 145.054 146.745 145.263 146.745 145.524V147.69H146.239V147.245H146.214C146.179 147.317 146.122 147.393 146.042 147.474C145.962 147.556 145.856 147.625 145.723 147.682C145.591 147.739 145.429 147.767 145.237 147.767ZM145.314 147.314C145.514 147.314 145.683 147.274 145.82 147.196C145.958 147.117 146.062 147.016 146.132 146.892C146.204 146.768 146.239 146.637 146.239 146.5V146.038C146.218 146.063 146.171 146.087 146.098 146.108C146.027 146.128 145.944 146.146 145.85 146.162C145.757 146.176 145.666 146.189 145.578 146.2C145.491 146.21 145.42 146.219 145.366 146.226C145.235 146.243 145.112 146.271 144.998 146.31C144.885 146.347 144.794 146.403 144.724 146.479C144.655 146.553 144.621 146.654 144.621 146.783C144.621 146.958 144.686 147.091 144.816 147.181C144.947 147.269 145.113 147.314 145.314 147.314ZM149.026 144.402V144.83H147.322V144.402H149.026ZM147.818 143.614H148.323V146.748C148.323 146.891 148.344 146.998 148.386 147.07C148.428 147.14 148.483 147.187 148.548 147.211C148.615 147.234 148.686 147.245 148.76 147.245C148.816 147.245 148.862 147.242 148.897 147.237C148.933 147.229 148.961 147.224 148.983 147.219L149.086 147.673C149.051 147.686 149.004 147.699 148.942 147.712C148.881 147.726 148.803 147.733 148.709 147.733C148.566 147.733 148.426 147.703 148.289 147.641C148.154 147.58 148.041 147.486 147.951 147.361C147.862 147.235 147.818 147.077 147.818 146.885V143.614ZM151.058 147.759C150.741 147.759 150.468 147.689 150.238 147.549C150.01 147.408 149.833 147.211 149.709 146.958C149.586 146.704 149.525 146.409 149.525 146.072C149.525 145.735 149.586 145.438 149.709 145.181C149.833 144.923 150.006 144.722 150.227 144.578C150.45 144.432 150.71 144.359 151.007 144.359C151.178 144.359 151.347 144.388 151.514 144.445C151.681 144.502 151.833 144.595 151.97 144.723C152.107 144.85 152.216 145.019 152.297 145.229C152.379 145.438 152.419 145.697 152.419 146.003V146.218H149.885V145.781H151.906C151.906 145.595 151.869 145.43 151.794 145.284C151.722 145.139 151.617 145.024 151.482 144.94C151.348 144.855 151.189 144.813 151.007 144.813C150.805 144.813 150.631 144.863 150.484 144.963C150.339 145.062 150.227 145.19 150.148 145.348C150.07 145.507 150.03 145.677 150.03 145.858V146.149C150.03 146.397 150.073 146.608 150.159 146.781C150.246 146.952 150.366 147.082 150.521 147.172C150.675 147.261 150.854 147.305 151.058 147.305C151.191 147.305 151.311 147.287 151.418 147.249C151.526 147.211 151.62 147.154 151.698 147.078C151.777 147.001 151.837 146.905 151.88 146.791L152.368 146.928C152.317 147.094 152.23 147.239 152.109 147.365C151.988 147.489 151.838 147.586 151.659 147.656C151.481 147.725 151.281 147.759 151.058 147.759ZM154.359 147.759C154.085 147.759 153.843 147.69 153.633 147.551C153.423 147.411 153.259 147.214 153.14 146.96C153.022 146.705 152.963 146.403 152.963 146.055C152.963 145.709 153.022 145.41 153.14 145.156C153.259 144.902 153.424 144.705 153.635 144.567C153.846 144.429 154.09 144.359 154.367 144.359C154.581 144.359 154.75 144.395 154.875 144.466C155 144.536 155.096 144.616 155.161 144.706C155.228 144.795 155.281 144.867 155.318 144.925H155.36V143.306H155.866V147.69H155.378V147.185H155.318C155.281 147.245 155.228 147.321 155.159 147.412C155.091 147.502 154.993 147.583 154.866 147.654C154.739 147.724 154.57 147.759 154.359 147.759ZM154.427 147.305C154.63 147.305 154.801 147.252 154.941 147.147C155.081 147.04 155.187 146.892 155.26 146.704C155.333 146.514 155.369 146.295 155.369 146.046C155.369 145.801 155.333 145.586 155.262 145.402C155.191 145.216 155.085 145.072 154.945 144.969C154.805 144.865 154.633 144.813 154.427 144.813C154.213 144.813 154.035 144.868 153.892 144.978C153.751 145.087 153.644 145.234 153.573 145.421C153.503 145.607 153.468 145.815 153.468 146.046C153.468 146.28 153.504 146.493 153.575 146.684C153.648 146.874 153.755 147.025 153.896 147.138C154.039 147.249 154.216 147.305 154.427 147.305Z" fill="#FC1800"/>
<path d="M29.0355 168.817C29.8623 168.128 30.5211 167.555 31.012 167.099C31.5029 166.633 31.912 166.151 32.2392 165.652C32.5665 165.152 32.7301 164.661 32.7301 164.179C32.7301 163.74 32.6268 163.395 32.4201 163.146C32.2134 162.896 31.8947 162.771 31.4641 162.771C31.0335 162.771 30.702 162.917 30.4694 163.21C30.2369 163.494 30.1163 163.886 30.1077 164.386H28.3509C28.3853 163.352 28.691 162.569 29.2681 162.035C29.8537 161.501 30.5943 161.234 31.49 161.234C32.4717 161.234 33.2253 161.496 33.7506 162.022C34.276 162.538 34.5386 163.223 34.5386 164.076C34.5386 164.747 34.3578 165.389 33.9961 166C33.6344 166.612 33.221 167.146 32.7559 167.602C32.2909 168.05 31.6837 168.593 30.9345 169.23H34.7453V170.728H28.3638V169.385L29.0355 168.817ZM36.4533 168.817C37.2801 168.128 37.9389 167.555 38.4298 167.099C38.9207 166.633 39.3298 166.151 39.657 165.652C39.9843 165.152 40.1479 164.661 40.1479 164.179C40.1479 163.74 40.0446 163.395 39.8379 163.146C39.6312 162.896 39.3125 162.771 38.8819 162.771C38.4513 162.771 38.1198 162.917 37.8872 163.21C37.6547 163.494 37.5341 163.886 37.5255 164.386H35.7687C35.8031 163.352 36.1088 162.569 36.6859 162.035C37.2715 161.501 38.0121 161.234 38.9078 161.234C39.8895 161.234 40.6431 161.496 41.1684 162.022C41.6938 162.538 41.9564 163.223 41.9564 164.076C41.9564 164.747 41.7756 165.389 41.4139 166C41.0522 166.612 40.6388 167.146 40.1737 167.602C39.7087 168.05 39.1015 168.593 38.3523 169.23H42.1631V170.728H35.7816V169.385L36.4533 168.817Z" fill="#263238"/>
<path d="M44.9673 171.368V166.847H45.4725V168.791C45.4725 168.969 45.5096 169.126 45.5838 169.262C45.6595 169.396 45.7651 169.501 45.9007 169.577C46.0377 169.652 46.1975 169.69 46.3802 169.69C46.5629 169.69 46.722 169.652 46.8576 169.577C46.9946 169.499 47.1002 169.394 47.1744 169.26C47.2501 169.124 47.2879 168.968 47.2879 168.791V166.847H47.7931V170.135H47.2879V169.647H47.2622C47.1737 169.82 47.0503 169.952 46.8919 170.043C46.7334 170.133 46.5629 170.178 46.3802 170.178C46.1975 170.178 46.027 170.133 45.8686 170.043C45.7116 169.952 45.5881 169.82 45.4982 169.647H45.4725V171.368H44.9673ZM50.0447 171.437C49.8006 171.437 49.5908 171.405 49.4153 171.343C49.2398 171.281 49.0935 171.2 48.9764 171.099C48.8608 170.999 48.7688 170.892 48.7003 170.777L49.1027 170.495C49.1484 170.555 49.2062 170.623 49.2761 170.7C49.3461 170.779 49.4417 170.847 49.563 170.904C49.6858 170.962 49.8463 170.992 50.0447 170.992C50.3101 170.992 50.5292 170.927 50.7019 170.799C50.8746 170.67 50.9609 170.469 50.9609 170.195V169.527H50.9181C50.881 169.587 50.8282 169.661 50.7597 169.75C50.6926 169.837 50.5956 169.915 50.4686 169.983C50.343 170.05 50.1731 170.084 49.9591 170.084C49.6936 170.084 49.4553 170.021 49.244 169.895C49.0342 169.77 48.868 169.587 48.7452 169.347C48.6239 169.108 48.5633 168.817 48.5633 168.474C48.5633 168.137 48.6225 167.844 48.741 167.594C48.8594 167.343 49.0243 167.149 49.2355 167.012C49.4467 166.873 49.6907 166.804 49.9676 166.804C50.1817 166.804 50.3515 166.84 50.4771 166.911C50.6041 166.981 50.7012 167.061 50.7683 167.151C50.8368 167.239 50.8896 167.312 50.9267 167.369H50.9781V166.847H51.4662V170.229C51.4662 170.512 51.4019 170.742 51.2735 170.919C51.1465 171.097 50.9752 171.228 50.7597 171.311C50.5456 171.395 50.3073 171.437 50.0447 171.437ZM50.0276 169.63C50.2302 169.63 50.4015 169.584 50.5414 169.491C50.6812 169.398 50.7875 169.265 50.8603 169.091C50.9331 168.916 50.9695 168.708 50.9695 168.465C50.9695 168.229 50.9338 168.019 50.8625 167.838C50.7911 167.657 50.6855 167.515 50.5456 167.412C50.4058 167.309 50.2331 167.258 50.0276 167.258C49.8135 167.258 49.6351 167.312 49.4924 167.421C49.3511 167.529 49.2448 167.675 49.1734 167.857C49.1035 168.04 49.0685 168.243 49.0685 168.465C49.0685 168.694 49.1042 168.896 49.1755 169.071C49.2483 169.245 49.3554 169.382 49.4966 169.482C49.6394 169.581 49.8163 169.63 50.0276 169.63ZM53.9409 165.545L52.528 170.795H52.0656L53.4785 165.545H53.9409ZM55.7814 170.204C55.5074 170.204 55.2655 170.135 55.0557 169.996C54.8459 169.856 54.6818 169.659 54.5633 169.405C54.4449 169.15 54.3857 168.848 54.3857 168.5C54.3857 168.154 54.4449 167.855 54.5633 167.601C54.6818 167.347 54.8466 167.15 55.0579 167.012C55.2691 166.873 55.5131 166.804 55.79 166.804C56.0041 166.804 56.1732 166.84 56.2974 166.911C56.423 166.981 56.5186 167.061 56.5842 167.151C56.6513 167.239 56.7034 167.312 56.7405 167.369H56.7833V165.751H57.2886V170.135H56.8005V169.63H56.7405C56.7034 169.69 56.6506 169.766 56.5821 169.857C56.5136 169.947 56.4158 170.028 56.2888 170.099C56.1618 170.169 55.9927 170.204 55.7814 170.204ZM55.85 169.75C56.0526 169.75 56.2239 169.697 56.3637 169.591C56.5036 169.484 56.6099 169.337 56.6827 169.148C56.7555 168.959 56.7919 168.739 56.7919 168.491C56.7919 168.246 56.7562 168.031 56.6849 167.847C56.6135 167.661 56.5079 167.517 56.368 167.414C56.2282 167.31 56.0555 167.258 55.85 167.258C55.6359 167.258 55.4575 167.313 55.3148 167.423C55.1735 167.531 55.0671 167.679 54.9958 167.866C54.9258 168.052 54.8909 168.26 54.8909 168.491C54.8909 168.725 54.9266 168.938 54.9979 169.129C55.0707 169.319 55.1777 169.47 55.319 169.583C55.4618 169.694 55.6387 169.75 55.85 169.75ZM58.3525 170.135V165.751H58.8834V169.664H60.9215V170.135H58.3525Z" fill="#263238"/>
<line x1="125.25" y1="187.334" x2="125.25" y2="211.017" stroke="#263238" stroke-width="0.301422" stroke-dasharray="0.86 0.86"/>
</g>
<g filter="url(#filter2_d_249_9815)">
<rect x="20.8928" y="186.914" width="146.836" height="48.6689" rx="5.16723" fill="white" shape-rendering="crispEdges"/>
<rect x="27.7825" y="194.998" width="8.61206" height="8.61206" rx="4.30603" fill="#FC1800"/>
<g clip-path="url(#clip3_249_9815)">
<path d="M32.0884 201.457C33.2775 201.457 34.2415 200.493 34.2415 199.304C34.2415 198.115 33.2775 197.151 32.0884 197.151C30.8994 197.151 29.9354 198.115 29.9354 199.304C29.9354 200.493 30.8994 201.457 32.0884 201.457Z" stroke="white" stroke-width="0.430603" stroke-linecap="round" stroke-linejoin="round"/>
<path d="M32.0884 200.596C32.8019 200.596 33.3802 200.017 33.3802 199.304C33.3802 198.591 32.8019 198.012 32.0884 198.012C31.375 198.012 30.7966 198.591 30.7966 199.304C30.7966 200.017 31.375 200.596 32.0884 200.596Z" stroke="white" stroke-width="0.430603" stroke-linecap="round" stroke-linejoin="round"/>
<path d="M32.0884 199.735C32.3263 199.735 32.519 199.542 32.519 199.304C32.519 199.066 32.3263 198.874 32.0884 198.874C31.8506 198.874 31.6578 199.066 31.6578 199.304C31.6578 199.542 31.8506 199.735 32.0884 199.735Z" fill="white" stroke="white" stroke-width="0.430603" stroke-linecap="round" stroke-linejoin="round"/>
</g>
<path d="M43.6903 198.393C43.6495 198.261 43.5933 198.143 43.5215 198.039C43.4514 197.933 43.3665 197.842 43.2671 197.767C43.1692 197.692 43.0566 197.636 42.9294 197.598C42.8022 197.559 42.6636 197.54 42.5135 197.54C42.2444 197.54 42.0046 197.607 41.7942 197.743C41.5838 197.878 41.4182 198.077 41.2975 198.34C41.1785 198.601 41.1189 198.919 41.1189 199.294C41.1189 199.672 41.1785 199.993 41.2975 200.255C41.4166 200.518 41.5822 200.718 41.7942 200.855C42.0062 200.99 42.2525 201.058 42.5331 201.058C42.7875 201.058 43.0077 201.009 43.1937 200.911C43.3812 200.813 43.5256 200.674 43.6267 200.495C43.7278 200.314 43.7784 200.102 43.7784 199.859L43.9839 199.891H42.6236V199.181H44.6567V199.783C44.6567 200.212 44.5654 200.583 44.3827 200.896C44.2 201.209 43.9488 201.451 43.6292 201.62C43.3095 201.788 42.9425 201.872 42.5282 201.872C42.0666 201.872 41.6613 201.769 41.3122 201.562C40.9648 201.353 40.6932 201.057 40.4975 200.674C40.3034 200.289 40.2063 199.832 40.2063 199.304C40.2063 198.899 40.2634 198.538 40.3776 198.22C40.4934 197.902 40.6549 197.632 40.862 197.41C41.0692 197.186 41.3122 197.017 41.5911 196.901C41.87 196.784 42.1734 196.725 42.5013 196.725C42.7785 196.725 43.0371 196.766 43.2768 196.847C43.5166 196.927 43.7295 197.041 43.9154 197.19C44.103 197.338 44.2571 197.514 44.3778 197.718C44.4985 197.922 44.5776 198.147 44.6151 198.393H43.6903ZM46.381 196.793V201.804H45.4953V196.793H46.381ZM49.6869 200.223V198.046H50.5726V201.804H49.7139V201.136H49.6747C49.5899 201.346 49.4504 201.519 49.2563 201.652C49.0639 201.786 48.8266 201.853 48.5444 201.853C48.2981 201.853 48.0803 201.798 47.8911 201.689C47.7036 201.578 47.5568 201.417 47.4508 201.207C47.3447 200.995 47.2917 200.739 47.2917 200.439V198.046H48.1774V200.302C48.1774 200.54 48.2426 200.729 48.3731 200.869C48.5036 201.01 48.6749 201.08 48.8869 201.08C49.0174 201.08 49.1438 201.048 49.2661 200.984C49.3885 200.921 49.4888 200.826 49.5671 200.701C49.647 200.573 49.6869 200.414 49.6869 200.223ZM53.1226 201.877C52.7475 201.877 52.4253 201.795 52.1562 201.63C51.8887 201.466 51.6824 201.238 51.5372 200.948C51.3937 200.656 51.3219 200.32 51.3219 199.94C51.3219 199.558 51.3953 199.221 51.5421 198.929C51.6889 198.636 51.896 198.407 52.1635 198.244C52.4327 198.079 52.7507 197.997 53.1177 197.997C53.4227 197.997 53.6927 198.053 53.9275 198.166C54.164 198.277 54.3524 198.434 54.4927 198.638C54.633 198.84 54.7129 199.077 54.7325 199.348H53.8859C53.8517 199.167 53.7701 199.016 53.6413 198.895C53.5141 198.773 53.3436 198.711 53.1299 198.711C52.9489 198.711 52.7899 198.76 52.6528 198.858C52.5158 198.954 52.409 199.093 52.3323 199.274C52.2573 199.455 52.2198 199.672 52.2198 199.925C52.2198 200.181 52.2573 200.401 52.3323 200.586C52.4074 200.768 52.5126 200.909 52.648 201.009C52.785 201.107 52.9456 201.156 53.1299 201.156C53.2604 201.156 53.377 201.131 53.4798 201.082C53.5842 201.032 53.6715 200.959 53.7416 200.864C53.8117 200.77 53.8598 200.655 53.8859 200.519H54.7325C54.7113 200.785 54.633 201.021 54.4976 201.227C54.3622 201.43 54.1779 201.59 53.9447 201.706C53.7114 201.82 53.4374 201.877 53.1226 201.877ZM57.0989 201.877C56.732 201.877 56.4139 201.797 56.1448 201.635C55.8756 201.474 55.6669 201.248 55.5184 200.957C55.3716 200.667 55.2982 200.328 55.2982 199.94C55.2982 199.551 55.3716 199.211 55.5184 198.919C55.6669 198.627 55.8756 198.401 56.1448 198.239C56.4139 198.078 56.732 197.997 57.0989 197.997C57.4659 197.997 57.784 198.078 58.0531 198.239C58.3222 198.401 58.5302 198.627 58.677 198.919C58.8254 199.211 58.8996 199.551 58.8996 199.94C58.8996 200.328 58.8254 200.667 58.677 200.957C58.5302 201.248 58.3222 201.474 58.0531 201.635C57.784 201.797 57.4659 201.877 57.0989 201.877ZM57.1038 201.168C57.3028 201.168 57.4692 201.113 57.6029 201.004C57.7367 200.893 57.8362 200.745 57.9014 200.559C57.9683 200.373 58.0017 200.166 58.0017 199.937C58.0017 199.707 57.9683 199.499 57.9014 199.313C57.8362 199.126 57.7367 198.976 57.6029 198.866C57.4692 198.755 57.3028 198.699 57.1038 198.699C56.9 198.699 56.7303 198.755 56.5949 198.866C56.4612 198.976 56.3609 199.126 56.294 199.313C56.2288 199.499 56.1961 199.707 56.1961 199.937C56.1961 200.166 56.2288 200.373 56.294 200.559C56.3609 200.745 56.4612 200.893 56.5949 201.004C56.7303 201.113 56.9 201.168 57.1038 201.168ZM62.6215 199.039L61.8142 199.127C61.7913 199.046 61.7514 198.969 61.6943 198.897C61.6388 198.826 61.5638 198.768 61.4692 198.724C61.3746 198.68 61.2588 198.658 61.1218 198.658C60.9375 198.658 60.7825 198.698 60.6569 198.778C60.533 198.857 60.4718 198.961 60.4734 199.088C60.4718 199.198 60.5118 199.286 60.5933 199.355C60.6765 199.423 60.8135 199.48 61.0043 199.524L61.6454 199.661C62.0009 199.737 62.2652 199.859 62.4381 200.025C62.6126 200.192 62.7007 200.409 62.7023 200.679C62.7007 200.915 62.6313 201.124 62.4943 201.305C62.3589 201.484 62.1706 201.625 61.9292 201.726C61.6878 201.827 61.4105 201.877 61.0973 201.877C60.6374 201.877 60.2671 201.781 59.9866 201.589C59.706 201.395 59.5388 201.125 59.485 200.779L60.3487 200.696C60.3878 200.865 60.471 200.993 60.5982 201.08C60.7254 201.166 60.891 201.209 61.0949 201.209C61.3053 201.209 61.4741 201.166 61.6013 201.08C61.7302 200.993 61.7946 200.886 61.7946 200.759C61.7946 200.652 61.753 200.563 61.6698 200.493C61.5883 200.422 61.461 200.369 61.2881 200.331L60.6471 200.197C60.2867 200.122 60.02 199.995 59.8471 199.817C59.6742 199.638 59.5886 199.411 59.5902 199.137C59.5886 198.906 59.6514 198.705 59.7786 198.535C59.9074 198.364 60.086 198.232 60.3144 198.139C60.5444 198.044 60.8094 197.997 61.1095 197.997C61.5499 197.997 61.8965 198.091 62.1494 198.278C62.4038 198.466 62.5612 198.72 62.6215 199.039ZM65.0963 201.877C64.7195 201.877 64.3941 201.799 64.1201 201.642C63.8477 201.484 63.6381 201.261 63.4913 200.972C63.3445 200.682 63.2711 200.34 63.2711 199.947C63.2711 199.56 63.3445 199.221 63.4913 198.929C63.6397 198.636 63.8469 198.407 64.1128 198.244C64.3786 198.079 64.691 197.997 65.0498 197.997C65.2814 197.997 65.5 198.035 65.7055 198.11C65.9126 198.183 66.0953 198.297 66.2535 198.452C66.4134 198.607 66.539 198.804 66.6303 199.044C66.7217 199.282 66.7673 199.566 66.7673 199.896V200.167H63.687V199.57H65.9184C65.9167 199.401 65.88 199.25 65.8083 199.118C65.7365 198.984 65.6362 198.879 65.5073 198.802C65.3801 198.725 65.2317 198.687 65.062 198.687C64.881 198.687 64.722 198.731 64.585 198.819C64.4479 198.906 64.3411 199.02 64.2644 199.162C64.1894 199.302 64.1511 199.456 64.1495 199.624V200.145C64.1495 200.364 64.1894 200.551 64.2693 200.708C64.3493 200.863 64.461 200.982 64.6045 201.065C64.7481 201.147 64.9161 201.187 65.1085 201.187C65.2374 201.187 65.354 201.169 65.4584 201.134C65.5628 201.096 65.6533 201.041 65.73 200.97C65.8066 200.898 65.8645 200.809 65.9037 200.703L66.7306 200.796C66.6784 201.015 66.5789 201.205 66.4321 201.368C66.287 201.53 66.101 201.656 65.8743 201.745C65.6476 201.833 65.3883 201.877 65.0963 201.877ZM69.4457 199.299C69.4457 198.687 69.5265 198.125 69.688 197.613C69.8511 197.099 70.0933 196.624 70.4146 196.189H71.2489C71.1249 196.35 71.0091 196.549 70.9015 196.784C70.7938 197.017 70.7 197.273 70.6201 197.552C70.5418 197.829 70.4798 198.117 70.4342 198.415C70.3901 198.714 70.3681 199.008 70.3681 199.299C70.3681 199.685 70.4064 200.077 70.4831 200.473C70.5614 200.869 70.6666 201.237 70.7987 201.576C70.9325 201.914 71.0825 202.191 71.2489 202.406H70.4146C70.0933 201.97 69.8511 201.496 69.688 200.984C69.5265 200.471 69.4457 199.909 69.4457 199.299ZM71.9762 201.804V196.793H75.1861V197.554H72.8838V198.915H74.9659V199.675H72.8838V201.804H71.9762ZM77.0217 201.88C76.7835 201.88 76.569 201.837 76.3782 201.753C76.189 201.666 76.0389 201.539 75.928 201.371C75.8187 201.203 75.7641 200.996 75.7641 200.749C75.7641 200.537 75.8033 200.362 75.8815 200.223C75.9598 200.085 76.0667 199.974 76.2021 199.891C76.3374 199.808 76.4899 199.745 76.6596 199.702C76.8308 199.658 77.0078 199.626 77.1905 199.607C77.4107 199.584 77.5893 199.564 77.7263 199.546C77.8633 199.526 77.9628 199.497 78.0248 199.458C78.0884 199.417 78.1202 199.354 78.1202 199.269V199.255C78.1202 199.07 78.0656 198.928 77.9563 198.826C77.847 198.725 77.6896 198.675 77.4841 198.675C77.2671 198.675 77.0951 198.722 76.9678 198.817C76.8422 198.911 76.7574 199.023 76.7134 199.152L75.8864 199.034C75.9517 198.806 76.0593 198.615 76.2094 198.462C76.3594 198.307 76.5429 198.191 76.7599 198.114C76.9768 198.036 77.2166 197.997 77.4792 197.997C77.6602 197.997 77.8405 198.018 78.0199 198.061C78.1993 198.103 78.3632 198.173 78.5116 198.271C78.6601 198.367 78.7791 198.499 78.8689 198.665C78.9602 198.831 79.0059 199.039 79.0059 199.289V201.804H78.1544V201.288H78.1251C78.0713 201.392 77.9954 201.49 77.8975 201.581C77.8013 201.671 77.6798 201.744 77.533 201.799C77.3878 201.853 77.2174 201.88 77.0217 201.88ZM77.2516 201.229C77.4294 201.229 77.5836 201.194 77.7141 201.124C77.8445 201.052 77.9449 200.957 78.015 200.84C78.0868 200.723 78.1226 200.595 78.1226 200.456V200.013C78.0949 200.036 78.0476 200.057 77.9807 200.077C77.9155 200.096 77.8421 200.113 77.7605 200.128C77.679 200.143 77.5982 200.156 77.5183 200.167C77.4384 200.179 77.3691 200.188 77.3104 200.197C77.1782 200.214 77.06 200.244 76.9556 200.285C76.8512 200.325 76.7688 200.382 76.7085 200.456C76.6481 200.528 76.618 200.621 76.618 200.735C76.618 200.898 76.6775 201.021 76.7966 201.104C76.9156 201.187 77.0673 201.229 77.2516 201.229ZM82.8666 199.039L82.0592 199.127C82.0364 199.046 81.9964 198.969 81.9393 198.897C81.8839 198.826 81.8089 198.768 81.7143 198.724C81.6197 198.68 81.5039 198.658 81.3668 198.658C81.1825 198.658 81.0276 198.698 80.902 198.778C80.778 198.857 80.7169 198.961 80.7185 199.088C80.7169 199.198 80.7568 199.286 80.8384 199.355C80.9216 199.423 81.0586 199.48 81.2494 199.524L81.8904 199.661C82.246 199.737 82.5102 199.859 82.6831 200.025C82.8576 200.192 82.9457 200.409 82.9473 200.679C82.9457 200.915 82.8764 201.124 82.7394 201.305C82.604 201.484 82.4156 201.625 82.1742 201.726C81.9328 201.827 81.6555 201.877 81.3424 201.877C80.8824 201.877 80.5122 201.781 80.2316 201.589C79.9511 201.395 79.7839 201.125 79.7301 200.779L80.5937 200.696C80.6329 200.865 80.716 200.993 80.8433 201.08C80.9705 201.166 81.136 201.209 81.3399 201.209C81.5503 201.209 81.7192 201.166 81.8464 201.08C81.9752 200.993 82.0397 200.886 82.0397 200.759C82.0397 200.652 81.9981 200.563 81.9149 200.493C81.8333 200.422 81.7061 200.369 81.5332 200.331L80.8922 200.197C80.5317 200.122 80.2651 199.995 80.0922 199.817C79.9193 199.638 79.8336 199.411 79.8353 199.137C79.8336 198.906 79.8964 198.705 80.0237 198.535C80.1525 198.364 80.3311 198.232 80.5595 198.139C80.7894 198.044 81.0545 197.997 81.3546 197.997C81.795 197.997 82.1416 198.091 82.3944 198.278C82.6489 198.466 82.8063 198.72 82.8666 199.039ZM85.5542 198.046V198.731H83.3939V198.046H85.5542ZM83.9272 197.146H84.8129V200.674C84.8129 200.793 84.8308 200.884 84.8667 200.948C84.9042 201.01 84.9532 201.052 85.0135 201.075C85.0739 201.098 85.1407 201.109 85.2141 201.109C85.2696 201.109 85.3201 201.105 85.3658 201.097C85.4131 201.089 85.449 201.081 85.4735 201.075L85.6227 201.767C85.5754 201.784 85.5077 201.802 85.4196 201.821C85.3332 201.841 85.2272 201.852 85.1016 201.855C84.8798 201.862 84.68 201.828 84.5022 201.755C84.3244 201.68 84.1833 201.564 84.0789 201.408C83.9761 201.251 83.9256 201.055 83.9272 200.82V197.146ZM86.2949 201.804V198.046H87.1806V201.804H86.2949ZM86.7402 197.513C86.5999 197.513 86.4792 197.466 86.3781 197.373C86.277 197.279 86.2264 197.165 86.2264 197.033C86.2264 196.899 86.277 196.786 86.3781 196.693C86.4792 196.598 86.5999 196.551 86.7402 196.551C86.8821 196.551 87.0028 196.598 87.1023 196.693C87.2034 196.786 87.254 196.899 87.254 197.033C87.254 197.165 87.2034 197.279 87.1023 197.373C87.0028 197.466 86.8821 197.513 86.7402 197.513ZM88.977 199.602V201.804H88.0913V198.046H88.9379V198.685H88.9819C89.0684 198.474 89.2062 198.307 89.3954 198.183C89.5862 198.059 89.8219 197.997 90.1025 197.997C90.3618 197.997 90.5877 198.052 90.7802 198.163C90.9743 198.274 91.1243 198.435 91.2303 198.645C91.338 198.856 91.391 199.111 91.3894 199.411V201.804H90.5037V199.548C90.5037 199.297 90.4385 199.1 90.308 198.959C90.1791 198.817 90.0005 198.746 89.7722 198.746C89.6172 198.746 89.4794 198.78 89.3587 198.848C89.2396 198.915 89.1458 199.012 89.0773 199.14C89.0105 199.267 88.977 199.421 88.977 199.602ZM93.9241 203.291C93.606 203.291 93.3328 203.248 93.1044 203.162C92.8761 203.077 92.6926 202.963 92.554 202.819C92.4153 202.676 92.3191 202.517 92.2653 202.342L93.0628 202.149C93.0987 202.222 93.1509 202.295 93.2194 202.367C93.2879 202.44 93.3801 202.5 93.4959 202.548C93.6133 202.597 93.7609 202.621 93.9387 202.621C94.1899 202.621 94.3979 202.56 94.5626 202.438C94.7274 202.317 94.8097 202.118 94.8097 201.841V201.129H94.7657C94.72 201.22 94.6531 201.314 94.5651 201.41C94.4786 201.506 94.3636 201.587 94.2201 201.652C94.0782 201.718 93.8996 201.75 93.6843 201.75C93.3956 201.75 93.1338 201.682 92.8989 201.547C92.6657 201.41 92.4797 201.206 92.3411 200.935C92.2041 200.663 92.1356 200.322 92.1356 199.913C92.1356 199.5 92.2041 199.152 92.3411 198.868C92.4797 198.583 92.6665 198.366 92.9014 198.22C93.1362 198.071 93.398 197.997 93.6867 197.997C93.9069 197.997 94.088 198.035 94.2299 198.11C94.3734 198.183 94.4876 198.272 94.5724 198.376C94.6572 198.479 94.7216 198.576 94.7657 198.667H94.8146V198.046H95.6881V201.865C95.6881 202.186 95.6114 202.452 95.4581 202.663C95.3048 202.873 95.0952 203.031 94.8293 203.135C94.5634 203.239 94.2617 203.291 93.9241 203.291ZM93.9314 201.055C94.119 201.055 94.2788 201.01 94.4109 200.918C94.543 200.827 94.6434 200.696 94.7119 200.524C94.7804 200.353 94.8146 200.148 94.8146 199.908C94.8146 199.671 94.7804 199.464 94.7119 199.286C94.645 199.109 94.5455 198.971 94.4134 198.873C94.2829 198.773 94.1222 198.724 93.9314 198.724C93.734 198.724 93.5693 198.775 93.4372 198.878C93.3051 198.981 93.2056 199.122 93.1387 199.301C93.0718 199.479 93.0384 199.681 93.0384 199.908C93.0384 200.138 93.0718 200.339 93.1387 200.512C93.2072 200.683 93.3075 200.817 93.4396 200.913C93.5734 201.008 93.7373 201.055 93.9314 201.055ZM98.1763 199.761C98.1763 200.371 98.0947 200.933 97.9316 201.447C97.7701 201.959 97.5287 202.433 97.2074 202.868H96.3731C96.4987 202.707 96.6145 202.509 96.7205 202.276C96.8282 202.043 96.9211 201.787 96.9994 201.508C97.0794 201.229 97.1413 200.94 97.1854 200.642C97.231 200.343 97.2539 200.05 97.2539 199.761C97.2539 199.374 97.2147 198.983 97.1364 198.587C97.0598 198.19 96.9546 197.823 96.8208 197.483C96.6887 197.144 96.5395 196.867 96.3731 196.651H97.2074C97.5287 197.087 97.7701 197.562 97.9316 198.075C98.0947 198.587 98.1763 199.149 98.1763 199.761Z" fill="#263238"/>
<rect x="120.949" y="193.804" width="39.8896" height="10.4448" rx="1.72241" fill="#FFF3E0"/>
<path d="M127.323 198.238C127.297 198.021 127.193 197.853 127.01 197.733C126.827 197.613 126.603 197.553 126.338 197.553C126.144 197.553 125.974 197.584 125.828 197.647C125.684 197.71 125.571 197.796 125.49 197.906C125.41 198.016 125.37 198.141 125.37 198.281C125.37 198.398 125.398 198.499 125.454 198.583C125.511 198.666 125.583 198.735 125.672 198.79C125.76 198.845 125.853 198.89 125.95 198.925C126.047 198.96 126.137 198.987 126.218 199.009L126.663 199.129C126.777 199.159 126.904 199.2 127.044 199.253C127.185 199.306 127.32 199.378 127.449 199.469C127.579 199.559 127.686 199.675 127.77 199.816C127.854 199.957 127.896 200.131 127.896 200.336C127.896 200.573 127.834 200.787 127.71 200.978C127.587 201.17 127.407 201.322 127.171 201.434C126.935 201.547 126.649 201.603 126.312 201.603C125.998 201.603 125.726 201.553 125.496 201.451C125.268 201.35 125.088 201.209 124.957 201.028C124.827 200.846 124.754 200.636 124.736 200.396H125.284C125.299 200.562 125.354 200.699 125.451 200.807C125.55 200.914 125.674 200.994 125.824 201.047C125.975 201.098 126.138 201.124 126.312 201.124C126.515 201.124 126.697 201.091 126.858 201.025C127.019 200.958 127.147 200.866 127.241 200.747C127.335 200.627 127.382 200.487 127.382 200.328C127.382 200.182 127.342 200.064 127.26 199.972C127.179 199.881 127.072 199.807 126.939 199.75C126.807 199.692 126.663 199.642 126.509 199.6L125.97 199.446C125.627 199.347 125.356 199.206 125.156 199.024C124.956 198.841 124.856 198.602 124.856 198.307C124.856 198.061 124.923 197.847 125.055 197.664C125.19 197.48 125.369 197.338 125.595 197.236C125.822 197.133 126.075 197.082 126.355 197.082C126.637 197.082 126.889 197.133 127.108 197.234C127.328 197.334 127.502 197.471 127.631 197.645C127.761 197.819 127.829 198.017 127.836 198.238H127.323ZM129.135 197.142V201.526H128.63V197.142H129.135ZM129.989 201.526V198.238H130.494V201.526H129.989ZM130.246 197.69C130.148 197.69 130.063 197.657 129.991 197.589C129.921 197.522 129.886 197.442 129.886 197.348C129.886 197.253 129.921 197.173 129.991 197.106C130.063 197.039 130.148 197.005 130.246 197.005C130.344 197.005 130.429 197.039 130.499 197.106C130.57 197.173 130.606 197.253 130.606 197.348C130.606 197.442 130.57 197.522 130.499 197.589C130.429 197.657 130.344 197.69 130.246 197.69ZM132.676 202.828C132.432 202.828 132.222 202.797 132.047 202.734C131.871 202.672 131.725 202.591 131.608 202.49C131.492 202.39 131.4 202.283 131.332 202.169L131.734 201.886C131.78 201.946 131.837 202.014 131.907 202.092C131.977 202.17 132.073 202.238 132.194 202.295C132.317 202.353 132.478 202.383 132.676 202.383C132.941 202.383 133.16 202.318 133.333 202.19C133.506 202.062 133.592 201.86 133.592 201.586V200.918H133.549C133.512 200.978 133.459 201.053 133.391 201.141C133.324 201.228 133.227 201.306 133.1 201.374C132.974 201.441 132.804 201.475 132.59 201.475C132.325 201.475 132.086 201.412 131.875 201.287C131.665 201.161 131.499 200.978 131.376 200.739C131.255 200.499 131.195 200.208 131.195 199.865C131.195 199.528 131.254 199.235 131.372 198.985C131.491 198.734 131.655 198.54 131.867 198.403C132.078 198.265 132.322 198.195 132.599 198.195C132.813 198.195 132.983 198.231 133.108 198.302C133.235 198.372 133.332 198.452 133.4 198.542C133.468 198.631 133.521 198.703 133.558 198.76H133.609V198.238H134.097V201.621C134.097 201.903 134.033 202.133 133.905 202.31C133.778 202.488 133.606 202.619 133.391 202.702C133.177 202.786 132.939 202.828 132.676 202.828ZM132.659 201.021C132.861 201.021 133.033 200.975 133.173 200.882C133.312 200.789 133.419 200.656 133.492 200.482C133.564 200.308 133.601 200.099 133.601 199.857C133.601 199.62 133.565 199.411 133.494 199.229C133.422 199.048 133.317 198.906 133.177 198.803C133.037 198.701 132.864 198.649 132.659 198.649C132.445 198.649 132.266 198.703 132.124 198.812C131.982 198.92 131.876 199.066 131.805 199.249C131.735 199.431 131.7 199.634 131.7 199.857C131.7 200.085 131.735 200.287 131.807 200.462C131.88 200.637 131.987 200.774 132.128 200.873C132.271 200.972 132.448 201.021 132.659 201.021ZM135.456 199.548V201.526H134.951V197.142H135.456V198.752H135.499C135.576 198.582 135.692 198.447 135.846 198.347C136.002 198.246 136.209 198.195 136.467 198.195C136.691 198.195 136.887 198.24 137.056 198.33C137.224 198.419 137.355 198.555 137.447 198.739C137.542 198.922 137.589 199.154 137.589 199.437V201.526H137.083V199.471C137.083 199.21 137.016 199.008 136.88 198.865C136.746 198.721 136.56 198.649 136.321 198.649C136.156 198.649 136.007 198.684 135.876 198.754C135.746 198.824 135.643 198.926 135.568 199.06C135.494 199.194 135.456 199.357 135.456 199.548ZM139.872 198.238V198.666H138.168V198.238H139.872ZM138.664 197.45H139.17V200.584C139.17 200.727 139.19 200.834 139.232 200.906C139.275 200.975 139.329 201.023 139.394 201.047C139.462 201.07 139.532 201.081 139.606 201.081C139.662 201.081 139.708 201.078 139.743 201.073C139.779 201.065 139.808 201.06 139.829 201.055L139.932 201.509C139.898 201.522 139.85 201.535 139.788 201.548C139.727 201.562 139.649 201.569 139.555 201.569C139.412 201.569 139.272 201.538 139.135 201.477C139 201.416 138.887 201.322 138.797 201.197C138.709 201.071 138.664 200.913 138.664 200.721V197.45ZM140.886 202.759C140.801 202.759 140.724 202.752 140.657 202.738C140.59 202.725 140.544 202.712 140.518 202.7L140.646 202.254C140.769 202.286 140.878 202.297 140.972 202.288C141.066 202.28 141.15 202.238 141.222 202.162C141.297 202.088 141.364 201.967 141.426 201.8L141.52 201.543L140.304 198.238H140.852L141.76 200.858H141.794L142.702 198.238H143.25L141.854 202.006C141.791 202.176 141.713 202.316 141.621 202.428C141.528 202.54 141.42 202.624 141.297 202.678C141.176 202.732 141.039 202.759 140.886 202.759ZM145.975 199.548V201.526H145.47V197.142H145.975V198.752H146.018C146.095 198.582 146.211 198.447 146.365 198.347C146.52 198.246 146.727 198.195 146.986 198.195C147.21 198.195 147.406 198.24 147.574 198.33C147.743 198.419 147.873 198.555 147.966 198.739C148.06 198.922 148.107 199.154 148.107 199.437V201.526H147.602V199.471C147.602 199.21 147.534 199.008 147.399 198.865C147.265 198.721 147.078 198.649 146.84 198.649C146.674 198.649 146.526 198.684 146.395 198.754C146.265 198.824 146.162 198.926 146.086 199.06C146.012 199.194 145.975 199.357 145.975 199.548ZM148.961 201.526V198.238H149.466V201.526H148.961ZM149.217 197.69C149.119 197.69 149.034 197.657 148.963 197.589C148.893 197.522 148.858 197.442 148.858 197.348C148.858 197.253 148.893 197.173 148.963 197.106C149.034 197.039 149.119 197.005 149.217 197.005C149.316 197.005 149.4 197.039 149.47 197.106C149.541 197.173 149.577 197.253 149.577 197.348C149.577 197.442 149.541 197.522 149.47 197.589C149.4 197.657 149.316 197.69 149.217 197.69ZM151.647 202.828C151.403 202.828 151.194 202.797 151.018 202.734C150.842 202.672 150.696 202.591 150.579 202.49C150.464 202.39 150.371 202.283 150.303 202.169L150.705 201.886C150.751 201.946 150.809 202.014 150.879 202.092C150.949 202.17 151.044 202.238 151.166 202.295C151.288 202.353 151.449 202.383 151.647 202.383C151.913 202.383 152.132 202.318 152.305 202.19C152.477 202.062 152.564 201.86 152.564 201.586V200.918H152.521C152.484 200.978 152.431 201.053 152.362 201.141C152.295 201.228 152.198 201.306 152.071 201.374C151.946 201.441 151.776 201.475 151.562 201.475C151.296 201.475 151.058 201.412 150.847 201.287C150.637 201.161 150.471 200.978 150.348 200.739C150.227 200.499 150.166 200.208 150.166 199.865C150.166 199.528 150.225 199.235 150.344 198.985C150.462 198.734 150.627 198.54 150.838 198.403C151.049 198.265 151.293 198.195 151.57 198.195C151.784 198.195 151.954 198.231 152.08 198.302C152.207 198.372 152.304 198.452 152.371 198.542C152.439 198.631 152.492 198.703 152.529 198.76H152.581V198.238H153.069V201.621C153.069 201.903 153.005 202.133 152.876 202.31C152.749 202.488 152.578 202.619 152.362 202.702C152.148 202.786 151.91 202.828 151.647 202.828ZM151.63 201.021C151.833 201.021 152.004 200.975 152.144 200.882C152.284 200.789 152.39 200.656 152.463 200.482C152.536 200.308 152.572 200.099 152.572 199.857C152.572 199.62 152.537 199.411 152.465 199.229C152.394 199.048 152.288 198.906 152.148 198.803C152.008 198.701 151.836 198.649 151.63 198.649C151.416 198.649 151.238 198.703 151.095 198.812C150.954 198.92 150.847 199.066 150.776 199.249C150.706 199.431 150.671 199.634 150.671 199.857C150.671 200.085 150.707 200.287 150.778 200.462C150.851 200.637 150.958 200.774 151.099 200.873C151.242 200.972 151.419 201.021 151.63 201.021ZM154.428 199.548V201.526H153.923V197.142H154.428V198.752H154.471C154.548 198.582 154.663 198.447 154.817 198.347C154.973 198.246 155.18 198.195 155.438 198.195C155.662 198.195 155.859 198.24 156.027 198.33C156.195 198.419 156.326 198.555 156.419 198.739C156.513 198.922 156.56 199.154 156.56 199.437V201.526H156.055V199.471C156.055 199.21 155.987 199.008 155.851 198.865C155.717 198.721 155.531 198.649 155.293 198.649C155.127 198.649 154.979 198.684 154.847 198.754C154.718 198.824 154.615 198.926 154.539 199.06C154.465 199.194 154.428 199.357 154.428 199.548Z" fill="#FC1800"/>
<path d="M28.2475 216.943V215.276H31.3608V224.694H29.5006V216.943H28.2475ZM33.1474 219.862C33.1474 218.372 33.4144 217.205 33.9483 216.361C34.4909 215.517 35.3865 215.095 36.6353 215.095C37.884 215.095 38.7754 215.517 39.3093 216.361C39.8519 217.205 40.1232 218.372 40.1232 219.862C40.1232 221.361 39.8519 222.536 39.3093 223.389C38.7754 224.241 37.884 224.668 36.6353 224.668C35.3865 224.668 34.4909 224.241 33.9483 223.389C33.4144 222.536 33.1474 221.361 33.1474 219.862ZM38.3405 219.862C38.3405 219.225 38.2974 218.691 38.2113 218.26C38.1338 217.821 37.9702 217.464 37.7204 217.188C37.4793 216.913 37.1176 216.775 36.6353 216.775C36.153 216.775 35.787 216.913 35.5373 217.188C35.2961 217.464 35.1325 217.821 35.0464 218.26C34.9689 218.691 34.9301 219.225 34.9301 219.862C34.9301 220.517 34.9689 221.068 35.0464 221.516C35.1239 221.955 35.2875 222.312 35.5373 222.588C35.787 222.855 36.153 222.988 36.6353 222.988C37.1176 222.988 37.4836 222.855 37.7333 222.588C37.9831 222.312 38.1467 221.955 38.2242 221.516C38.3017 221.068 38.3405 220.517 38.3405 219.862ZM47.8286 216.839H43.6432V219.048C43.824 218.824 44.0824 218.644 44.4182 218.506C44.7541 218.359 45.1115 218.286 45.4904 218.286C46.1794 218.286 46.7435 218.437 47.1827 218.738C47.6219 219.04 47.9406 219.427 48.1386 219.901C48.3367 220.366 48.4358 220.866 48.4358 221.399C48.4358 222.39 48.1516 223.186 47.5832 223.789C47.0234 224.392 46.2225 224.694 45.1804 224.694C44.1986 224.694 43.4149 224.448 42.8293 223.957C42.2437 223.466 41.9121 222.825 41.8346 222.032H43.5915C43.669 222.377 43.8412 222.653 44.1082 222.859C44.3838 223.066 44.7326 223.169 45.1546 223.169C45.6627 223.169 46.0459 223.01 46.3043 222.691C46.5626 222.373 46.6918 221.951 46.6918 221.425C46.6918 220.891 46.5583 220.487 46.2914 220.211C46.033 219.927 45.6498 219.785 45.1417 219.785C44.7799 219.785 44.4785 219.875 44.2374 220.056C43.9962 220.237 43.824 220.478 43.7207 220.779H41.9896V215.25H47.8286V216.839Z" fill="#263238"/>
<path d="M51.9673 223.971V220.683H52.4554V221.197H52.4982C52.5667 221.021 52.6773 220.885 52.83 220.788C52.9827 220.689 53.1661 220.64 53.3802 220.64C53.5971 220.64 53.7777 220.689 53.9218 220.788C54.0674 220.885 54.1809 221.021 54.2622 221.197H54.2965C54.3807 221.027 54.507 220.892 54.6754 220.792C54.8438 220.691 55.0457 220.64 55.2812 220.64C55.5752 220.64 55.8157 220.732 56.0027 220.916C56.1896 221.099 56.2831 221.384 56.2831 221.77V223.971H55.7779V221.77C55.7779 221.528 55.7115 221.354 55.5788 221.25C55.4461 221.146 55.2898 221.094 55.11 221.094C54.8788 221.094 54.6996 221.164 54.5726 221.304C54.4456 221.442 54.3821 221.618 54.3821 221.83V223.971H53.8683V221.719C53.8683 221.532 53.8076 221.382 53.6863 221.267C53.565 221.152 53.4088 221.094 53.2175 221.094C53.0862 221.094 52.9635 221.129 52.8493 221.199C52.7365 221.269 52.6452 221.366 52.5753 221.49C52.5068 221.613 52.4725 221.755 52.4725 221.916V223.971H51.9673ZM58.5341 225.273C58.2901 225.273 58.0803 225.241 57.9047 225.179C57.7292 225.117 57.5829 225.036 57.4659 224.935C57.3503 224.835 57.2582 224.728 57.1897 224.613L57.5922 224.331C57.6379 224.391 57.6957 224.459 57.7656 224.536C57.8355 224.615 57.9312 224.683 58.0525 224.74C58.1752 224.798 58.3358 224.828 58.5341 224.828C58.7996 224.828 59.0187 224.763 59.1914 224.635C59.364 224.506 59.4504 224.305 59.4504 224.031V223.363H59.4076C59.3705 223.423 59.3177 223.497 59.2492 223.586C59.1821 223.673 59.085 223.751 58.958 223.819C58.8324 223.886 58.6626 223.92 58.4485 223.92C58.183 223.92 57.9447 223.857 57.7335 223.731C57.5237 223.606 57.3574 223.423 57.2347 223.183C57.1134 222.944 57.0527 222.652 57.0527 222.31C57.0527 221.973 57.1119 221.68 57.2304 221.43C57.3489 221.179 57.5137 220.985 57.7249 220.848C57.9361 220.709 58.1802 220.64 58.4571 220.64C58.6711 220.64 58.841 220.676 58.9666 220.747C59.0936 220.817 59.1906 220.897 59.2577 220.987C59.3262 221.075 59.379 221.148 59.4161 221.205H59.4675V220.683H59.9556V224.065C59.9556 224.348 59.8914 224.578 59.7629 224.755C59.6359 224.933 59.4647 225.064 59.2492 225.146C59.0351 225.231 58.7967 225.273 58.5341 225.273ZM58.517 223.466C58.7197 223.466 58.8909 223.42 59.0308 223.327C59.1707 223.234 59.277 223.101 59.3498 222.926C59.4226 222.752 59.459 222.544 59.459 222.301C59.459 222.064 59.4233 221.855 59.3519 221.674C59.2806 221.493 59.1749 221.351 59.0351 221.248C58.8952 221.145 58.7225 221.094 58.517 221.094C58.3029 221.094 58.1245 221.148 57.9818 221.257C57.8405 221.365 57.7342 221.511 57.6628 221.693C57.5929 221.876 57.5579 222.079 57.5579 222.301C57.5579 222.53 57.5936 222.732 57.665 222.907C57.7378 223.081 57.8448 223.218 57.9861 223.318C58.1288 223.417 58.3058 223.466 58.517 223.466ZM62.4304 219.381L61.0174 224.631H60.555L61.968 219.381H62.4304ZM64.2709 224.04C63.9969 224.04 63.755 223.97 63.5452 223.832C63.3354 223.692 63.1712 223.495 63.0528 223.241C62.9343 222.986 62.8751 222.684 62.8751 222.336C62.8751 221.99 62.9343 221.691 63.0528 221.437C63.1712 221.182 63.3361 220.986 63.5473 220.848C63.7585 220.709 64.0026 220.64 64.2795 220.64C64.4935 220.64 64.6627 220.676 64.7868 220.747C64.9124 220.817 65.008 220.897 65.0737 220.987C65.1408 221.075 65.1929 221.148 65.23 221.205H65.2728V219.587H65.778V223.971H65.2899V223.466H65.23C65.1929 223.526 65.1401 223.602 65.0715 223.693C65.003 223.783 64.9053 223.863 64.7783 223.935C64.6512 224.005 64.4821 224.04 64.2709 224.04ZM64.3394 223.586C64.5421 223.586 64.7133 223.533 64.8532 223.427C64.9931 223.32 65.0994 223.173 65.1722 222.984C65.245 222.794 65.2813 222.575 65.2813 222.327C65.2813 222.082 65.2457 221.867 65.1743 221.683C65.1029 221.497 64.9973 221.353 64.8575 221.25C64.7176 221.146 64.5449 221.094 64.3394 221.094C64.1253 221.094 63.9469 221.149 63.8042 221.259C63.6629 221.367 63.5566 221.515 63.4852 221.702C63.4153 221.887 63.3803 222.096 63.3803 222.327C63.3803 222.561 63.416 222.774 63.4874 222.965C63.5602 223.155 63.6672 223.306 63.8085 223.419C63.9512 223.53 64.1282 223.586 64.3394 223.586ZM66.842 223.971V219.587H67.3729V223.5H69.4109V223.971H66.842Z" fill="#263238"/>
</g>
<g clip-path="url(#clip4_249_9815)">
<mask id="path-35-inside-1_249_9815" fill="white">
<path d="M10.0865 7.92139H180.104V63.3931H10.0865V7.92139Z"/>
</mask>
<path d="M10.0865 7.92139H180.104V63.3931H10.0865V7.92139Z" fill="white"/>
<path d="M27.2067 43.352L26.7453 42.891L24.232 45.4034C24.1915 45.4437 24.1593 45.4916 24.1374 45.5443C24.1154 45.597 24.1041 45.6536 24.1041 45.7107C24.1041 45.7678 24.1154 45.8244 24.1374 45.8771C24.1593 45.9298 24.1915 45.9777 24.232 46.018L26.7453 48.5317L27.2063 48.0707L24.8474 45.7114L27.2067 43.352Z" fill="black"/>
<rect x="29.1426" y="39.6191" width="131.917" height="12.1774" rx="5.21889" fill="white"/>
<path d="M45.6398 41.6968V49.7078H44.3258V44.2211L41.8822 49.7078H40.9716L38.5164 44.2211V49.7078H37.2024V41.6968H38.6202L41.4326 47.9788L44.2336 41.6968H45.6398ZM53.2053 46.3766C53.2053 46.6148 53.1899 46.83 53.1592 47.0221H48.3065C48.3449 47.5292 48.5332 47.9365 48.8713 48.2439C49.2094 48.5513 49.6243 48.705 50.1161 48.705C50.8231 48.705 51.3226 48.4091 51.6146 47.8174H53.0324C52.8403 48.4014 52.4906 48.8817 51.9834 49.2582C51.484 49.6271 50.8615 49.8115 50.1161 49.8115C49.5091 49.8115 48.9635 49.677 48.4794 49.4081C48.0029 49.1314 47.6264 48.7472 47.3498 48.2554C47.0808 47.7559 46.9463 47.1796 46.9463 46.5264C46.9463 45.8733 47.077 45.3008 47.3382 44.809C47.6072 44.3095 47.9799 43.9253 48.4563 43.6563C48.9404 43.3874 49.4937 43.2529 50.1161 43.2529C50.7155 43.2529 51.2496 43.3835 51.7183 43.6448C52.1871 43.906 52.5521 44.2749 52.8134 44.7513C53.0746 45.2201 53.2053 45.7618 53.2053 46.3766ZM51.8336 45.9616C51.8259 45.4775 51.653 45.0894 51.3149 44.7974C50.9768 44.5054 50.558 44.3594 50.0585 44.3594C49.6051 44.3594 49.2171 44.5054 48.8943 44.7974C48.5716 45.0818 48.3795 45.4698 48.318 45.9616H51.8336ZM56.0488 44.4286V47.9442C56.0488 48.1824 56.1026 48.3553 56.2102 48.4629C56.3255 48.5628 56.5176 48.6127 56.7865 48.6127H57.5934V49.7078H56.556C55.9643 49.7078 55.5109 49.5694 55.1959 49.2928C54.8808 49.0162 54.7233 48.5666 54.7233 47.9442V44.4286H53.974V43.3566H54.7233V41.7775H56.0488V43.3566H57.5934V44.4286H56.0488ZM58.3839 46.5034C58.3839 45.8656 58.5145 45.3008 58.7758 44.809C59.0447 44.3172 59.4059 43.9368 59.8593 43.6678C60.3204 43.3912 60.8275 43.2529 61.3808 43.2529C61.8803 43.2529 62.3145 43.3528 62.6833 43.5526C63.0598 43.7447 63.3595 43.9867 63.5824 44.2787V43.3566H64.9079V49.7078H63.5824V48.7626C63.3595 49.0623 63.056 49.312 62.6718 49.5118C62.2876 49.7116 61.8495 49.8115 61.3577 49.8115C60.8122 49.8115 60.3127 49.6732 59.8593 49.3965C59.4059 49.1122 59.0447 48.7203 58.7758 48.2208C58.5145 47.7137 58.3839 47.1412 58.3839 46.5034ZM63.5824 46.5264C63.5824 46.0884 63.4902 45.708 63.3057 45.3853C63.129 45.0625 62.8946 44.8166 62.6026 44.6476C62.3106 44.4785 61.9955 44.394 61.6574 44.394C61.3193 44.394 61.0043 44.4785 60.7123 44.6476C60.4202 44.809 60.182 45.051 59.9976 45.3738C59.8209 45.6888 59.7325 46.0654 59.7325 46.5034C59.7325 46.9414 59.8209 47.3256 59.9976 47.656C60.182 47.9865 60.4202 48.24 60.7123 48.4168C61.0119 48.5858 61.327 48.6704 61.6574 48.6704C61.9955 48.6704 62.3106 48.5858 62.6026 48.4168C62.8946 48.2477 63.129 48.0018 63.3057 47.6791C63.4902 47.3487 63.5824 46.9644 63.5824 46.5264ZM67.9653 44.3018C68.1881 43.9944 68.4917 43.7447 68.8759 43.5526C69.2678 43.3528 69.702 43.2529 70.1784 43.2529C70.7394 43.2529 71.2465 43.3874 71.6999 43.6563C72.1533 43.9253 72.5106 44.3095 72.7719 44.809C73.0331 45.3008 73.1638 45.8656 73.1638 46.5034C73.1638 47.1412 73.0331 47.7137 72.7719 48.2208C72.5106 48.7203 72.1494 49.1122 71.6884 49.3965C71.235 49.6732 70.7317 49.8115 70.1784 49.8115C69.6866 49.8115 69.2486 49.7154 68.8644 49.5233C68.4878 49.3312 68.1881 49.0853 67.9653 48.7856V49.7078H66.6513V41.1781H67.9653V44.3018ZM71.8267 46.5034C71.8267 46.0654 71.7345 45.6888 71.5501 45.3738C71.3733 45.051 71.1351 44.809 70.8354 44.6476C70.5434 44.4785 70.2283 44.394 69.8902 44.394C69.5598 44.394 69.2447 44.4785 68.945 44.6476C68.653 44.8166 68.4148 45.0625 68.2304 45.3853C68.0537 45.708 67.9653 46.0884 67.9653 46.5264C67.9653 46.9644 68.0537 47.3487 68.2304 47.6791C68.4148 48.0018 68.653 48.2477 68.945 48.4168C69.2447 48.5858 69.5598 48.6704 69.8902 48.6704C70.2283 48.6704 70.5434 48.5858 70.8354 48.4168C71.1351 48.24 71.3733 47.9865 71.5501 47.656C71.7345 47.3256 71.8267 46.9414 71.8267 46.5034ZM77.2355 49.8115C76.6361 49.8115 76.0943 49.677 75.6102 49.4081C75.1261 49.1314 74.7457 48.7472 74.4691 48.2554C74.1925 47.7559 74.0541 47.1796 74.0541 46.5264C74.0541 45.8809 74.1963 45.3084 74.4806 44.809C74.7649 44.3095 75.153 43.9253 75.6448 43.6563C76.1366 43.3874 76.686 43.2529 77.2931 43.2529C77.9002 43.2529 78.4496 43.3874 78.9414 43.6563C79.4332 43.9253 79.8213 44.3095 80.1056 44.809C80.3899 45.3084 80.5321 45.8809 80.5321 46.5264C80.5321 47.1719 80.3861 47.7444 80.0941 48.2439C79.8021 48.7434 79.4025 49.1314 78.8953 49.4081C78.3958 49.677 77.8425 49.8115 77.2355 49.8115ZM77.2355 48.6704C77.5736 48.6704 77.8886 48.5897 78.1807 48.4283C78.4803 48.2669 78.7224 48.0249 78.9068 47.7021C79.0913 47.3794 79.1835 46.9875 79.1835 46.5264C79.1835 46.0654 79.0951 45.6773 78.9184 45.3622C78.7416 45.0395 78.5072 44.7974 78.2152 44.6361C77.9232 44.4747 77.6082 44.394 77.2701 44.394C76.9319 44.394 76.6169 44.4747 76.3249 44.6361C76.0405 44.7974 75.8139 45.0395 75.6448 45.3622C75.4757 45.6773 75.3912 46.0654 75.3912 46.5264C75.3912 47.2103 75.5641 47.7406 75.9099 48.1171C76.2634 48.4859 76.7052 48.6704 77.2355 48.6704ZM83.1625 41.1781V49.7078H81.8485V41.1781H83.1625ZM85.5736 42.5152C85.3354 42.5152 85.1356 42.4345 84.9743 42.2731C84.8129 42.1117 84.7322 41.9119 84.7322 41.6737C84.7322 41.4355 84.8129 41.2357 84.9743 41.0743C85.1356 40.913 85.3354 40.8323 85.5736 40.8323C85.8042 40.8323 86.0001 40.913 86.1615 41.0743C86.3229 41.2357 86.4036 41.4355 86.4036 41.6737C86.4036 41.9119 86.3229 42.1117 86.1615 42.2731C86.0001 42.4345 85.8042 42.5152 85.5736 42.5152ZM86.2191 43.3566V49.7078H84.9051V43.3566H86.2191ZM90.267 49.8115C89.7676 49.8115 89.318 49.7231 88.9184 49.5464C88.5265 49.362 88.2153 49.1161 87.9848 48.8087C87.7543 48.4936 87.6313 48.144 87.6159 47.7598H88.9761C88.9991 48.0287 89.1259 48.2554 89.3564 48.4398C89.5947 48.6166 89.8905 48.705 90.244 48.705C90.6128 48.705 90.8972 48.6358 91.097 48.4975C91.3044 48.3515 91.4082 48.167 91.4082 47.9442C91.4082 47.706 91.2929 47.5292 91.0624 47.414C90.8395 47.2987 90.4822 47.1719 89.9904 47.0336C89.514 46.903 89.1259 46.7762 88.8262 46.6532C88.5265 46.5303 88.2653 46.342 88.0424 46.0884C87.8273 45.8348 87.7197 45.5006 87.7197 45.0856C87.7197 44.7475 87.8196 44.4401 88.0194 44.1635C88.2192 43.8792 88.5035 43.6563 88.8723 43.4949C89.2489 43.3336 89.6792 43.2529 90.1633 43.2529C90.8856 43.2529 91.4658 43.4373 91.9038 43.8062C92.3495 44.1673 92.5877 44.663 92.6185 45.2931H91.3044C91.2814 45.0088 91.1661 44.7821 90.9586 44.613C90.7512 44.444 90.4707 44.3594 90.1172 44.3594C89.7714 44.3594 89.5063 44.4247 89.3219 44.5554C89.1374 44.686 89.0452 44.8589 89.0452 45.0741C89.0452 45.2431 89.1067 45.3853 89.2297 45.5006C89.3526 45.6158 89.5025 45.708 89.6792 45.7772C89.8559 45.8387 90.1172 45.9194 90.463 46.0193C90.9241 46.1422 91.3006 46.269 91.5926 46.3996C91.8923 46.5226 92.1497 46.707 92.3649 46.9529C92.5801 47.1988 92.6915 47.5254 92.6992 47.9327C92.6992 48.2938 92.5993 48.6166 92.3995 48.9009C92.1997 49.1852 91.9154 49.4081 91.5465 49.5694C91.1853 49.7308 90.7588 49.8115 90.267 49.8115ZM101.825 43.2529C102.324 43.2529 102.77 43.3566 103.162 43.5641C103.561 43.7716 103.873 44.0789 104.095 44.4862C104.326 44.8935 104.441 45.3853 104.441 45.9616V49.7078H103.139V46.1576C103.139 45.5889 102.997 45.1548 102.712 44.8551C102.428 44.5477 102.04 44.394 101.548 44.394C101.056 44.394 100.664 44.5477 100.372 44.8551C100.088 45.1548 99.9458 45.5889 99.9458 46.1576V49.7078H98.6433V46.1576C98.6433 45.5889 98.5011 45.1548 98.2168 44.8551C97.9325 44.5477 97.5444 44.394 97.0526 44.394C96.5608 44.394 96.1689 44.5477 95.8769 44.8551C95.5926 45.1548 95.4504 45.5889 95.4504 46.1576V49.7078H94.1364V43.3566H95.4504V44.0828C95.6656 43.8215 95.9384 43.6179 96.2688 43.4719C96.5992 43.3259 96.9527 43.2529 97.3293 43.2529C97.8364 43.2529 98.2898 43.3605 98.6894 43.5756C99.089 43.7908 99.3964 44.102 99.6115 44.5093C99.8036 44.1251 100.103 43.8215 100.511 43.5987C100.918 43.3681 101.356 43.2529 101.825 43.2529ZM109.811 42.5152C109.573 42.5152 109.373 42.4345 109.211 42.2731C109.05 42.1117 108.969 41.9119 108.969 41.6737C108.969 41.4355 109.05 41.2357 109.211 41.0743C109.373 40.913 109.573 40.8323 109.811 40.8323C110.041 40.8323 110.237 40.913 110.399 41.0743C110.56 41.2357 110.641 41.4355 110.641 41.6737C110.641 41.9119 110.56 42.1117 110.399 42.2731C110.237 42.4345 110.041 42.5152 109.811 42.5152ZM110.456 43.3566V49.7078H109.142V43.3566H110.456ZM115.403 43.2529C115.903 43.2529 116.348 43.3566 116.74 43.5641C117.14 43.7716 117.451 44.0789 117.674 44.4862C117.897 44.8935 118.008 45.3853 118.008 45.9616V49.7078H116.706V46.1576C116.706 45.5889 116.564 45.1548 116.279 44.8551C115.995 44.5477 115.607 44.394 115.115 44.394C114.623 44.394 114.231 44.5477 113.939 44.8551C113.655 45.1548 113.513 45.5889 113.513 46.1576V49.7078H112.199V43.3566H113.513V44.0828C113.728 43.8215 114.001 43.6179 114.331 43.4719C114.669 43.3259 115.027 43.2529 115.403 43.2529ZM122.007 49.8115C121.508 49.8115 121.058 49.7231 120.659 49.5464C120.267 49.362 119.955 49.1161 119.725 48.8087C119.494 48.4936 119.371 48.144 119.356 47.7598H120.716C120.739 48.0287 120.866 48.2554 121.097 48.4398C121.335 48.6166 121.631 48.705 121.984 48.705C122.353 48.705 122.637 48.6358 122.837 48.4975C123.045 48.3515 123.148 48.167 123.148 47.9442C123.148 47.706 123.033 47.5292 122.802 47.414C122.58 47.2987 122.222 47.1719 121.73 47.0336C121.254 46.903 120.866 46.7762 120.566 46.6532C120.267 46.5303 120.005 46.342 119.782 46.0884C119.567 45.8348 119.46 45.5006 119.46 45.0856C119.46 44.7475 119.56 44.4401 119.759 44.1635C119.959 43.8792 120.244 43.6563 120.612 43.4949C120.989 43.3336 121.419 43.2529 121.903 43.2529C122.626 43.2529 123.206 43.4373 123.644 43.8062C124.09 44.1673 124.328 44.663 124.359 45.2931H123.045C123.021 45.0088 122.906 44.7821 122.699 44.613C122.491 44.444 122.211 44.3594 121.857 44.3594C121.511 44.3594 121.246 44.4247 121.062 44.5554C120.878 44.686 120.785 44.8589 120.785 45.0741C120.785 45.2431 120.847 45.3853 120.97 45.5006C121.093 45.6158 121.243 45.708 121.419 45.7772C121.596 45.8387 121.857 45.9194 122.203 46.0193C122.664 46.1422 123.041 46.269 123.333 46.3996C123.632 46.5226 123.89 46.707 124.105 46.9529C124.32 47.1988 124.432 47.5254 124.439 47.9327C124.439 48.2938 124.339 48.6166 124.14 48.9009C123.94 49.1852 123.655 49.4081 123.287 49.5694C122.925 49.7308 122.499 49.8115 122.007 49.8115ZM126.545 42.5152C126.307 42.5152 126.107 42.4345 125.946 42.2731C125.784 42.1117 125.704 41.9119 125.704 41.6737C125.704 41.4355 125.784 41.2357 125.946 41.0743C126.107 40.913 126.307 40.8323 126.545 40.8323C126.776 40.8323 126.971 40.913 127.133 41.0743C127.294 41.2357 127.375 41.4355 127.375 41.6737C127.375 41.9119 127.294 42.1117 127.133 42.2731C126.971 42.4345 126.776 42.5152 126.545 42.5152ZM127.191 43.3566V49.7078H125.876V43.3566H127.191ZM131.492 43.2529C131.984 43.2529 132.418 43.3528 132.795 43.5526C133.179 43.7447 133.478 43.9867 133.694 44.2787V43.3566H135.019V49.8115C135.019 50.3955 134.896 50.9142 134.65 51.3676C134.404 51.8287 134.047 52.1898 133.578 52.4511C133.117 52.7124 132.564 52.843 131.918 52.843C131.058 52.843 130.343 52.6394 129.775 52.2321C129.206 51.8325 128.883 51.2869 128.806 50.5953H130.109C130.209 50.9257 130.42 51.1909 130.743 51.3906C131.073 51.5981 131.465 51.7019 131.918 51.7019C132.449 51.7019 132.875 51.5405 133.198 51.2177C133.528 50.895 133.694 50.4263 133.694 49.8115V48.7511C133.471 49.0507 133.167 49.3043 132.783 49.5118C132.406 49.7116 131.976 49.8115 131.492 49.8115C130.939 49.8115 130.432 49.6732 129.97 49.3965C129.517 49.1122 129.156 48.7203 128.887 48.2208C128.626 47.7137 128.495 47.1412 128.495 46.5034C128.495 45.8656 128.626 45.3008 128.887 44.809C129.156 44.3172 129.517 43.9368 129.97 43.6678C130.432 43.3912 130.939 43.2529 131.492 43.2529ZM133.694 46.5264C133.694 46.0884 133.601 45.708 133.417 45.3853C133.24 45.0625 133.006 44.8166 132.714 44.6476C132.422 44.4785 132.107 44.394 131.769 44.394C131.431 44.394 131.115 44.4785 130.823 44.6476C130.531 44.809 130.293 45.051 130.109 45.3738C129.932 45.6888 129.844 46.0654 129.844 46.5034C129.844 46.9414 129.932 47.3256 130.109 47.656C130.293 47.9865 130.531 48.24 130.823 48.4168C131.123 48.5858 131.438 48.6704 131.769 48.6704C132.107 48.6704 132.422 48.5858 132.714 48.4168C133.006 48.2477 133.24 48.0018 133.417 47.6791C133.601 47.3487 133.694 46.9644 133.694 46.5264ZM140.048 43.2529C140.532 43.2529 140.962 43.3566 141.339 43.5641C141.723 43.7716 142.022 44.0789 142.238 44.4862C142.46 44.8935 142.572 45.3853 142.572 45.9616V49.7078H141.269V46.1576C141.269 45.5889 141.127 45.1548 140.843 44.8551C140.559 44.5477 140.17 44.394 139.679 44.394C139.187 44.394 138.795 44.5477 138.503 44.8551C138.219 45.1548 138.076 45.5889 138.076 46.1576V49.7078H136.762V41.1781H138.076V44.0943C138.299 43.8254 138.58 43.6179 138.918 43.4719C139.264 43.3259 139.64 43.2529 140.048 43.2529ZM145.798 44.4286V47.9442C145.798 48.1824 145.852 48.3553 145.96 48.4629C146.075 48.5628 146.267 48.6127 146.536 48.6127H147.343V49.7078H146.306C145.714 49.7078 145.261 49.5694 144.945 49.2928C144.63 49.0162 144.473 48.5666 144.473 47.9442V44.4286H143.724V43.3566H144.473V41.7775H145.798V43.3566H147.343V44.4286H145.798ZM150.877 49.8115C150.377 49.8115 149.928 49.7231 149.528 49.5464C149.136 49.362 148.825 49.1161 148.595 48.8087C148.364 48.4936 148.241 48.144 148.226 47.7598H149.586C149.609 48.0287 149.736 48.2554 149.966 48.4398C150.204 48.6166 150.5 48.705 150.854 48.705C151.223 48.705 151.507 48.6358 151.707 48.4975C151.914 48.3515 152.018 48.167 152.018 47.9442C152.018 47.706 151.903 47.5292 151.672 47.414C151.449 47.2987 151.092 47.1719 150.6 47.0336C150.124 46.903 149.736 46.7762 149.436 46.6532C149.136 46.5303 148.875 46.342 148.652 46.0884C148.437 45.8348 148.329 45.5006 148.329 45.0856C148.329 44.7475 148.429 44.4401 148.629 44.1635C148.829 43.8792 149.113 43.6563 149.482 43.4949C149.859 43.3336 150.289 43.2529 150.773 43.2529C151.495 43.2529 152.076 43.4373 152.514 43.8062C152.959 44.1673 153.197 44.663 153.228 45.2931H151.914C151.891 45.0088 151.776 44.7821 151.568 44.613C151.361 44.444 151.08 44.3594 150.727 44.3594C150.381 44.3594 150.116 44.4247 149.932 44.5554C149.747 44.686 149.655 44.8589 149.655 45.0741C149.655 45.2431 149.716 45.3853 149.839 45.5006C149.962 45.6158 150.112 45.708 150.289 45.7772C150.466 45.8387 150.727 45.9194 151.073 46.0193C151.534 46.1422 151.91 46.269 152.202 46.3996C152.502 46.5226 152.759 46.707 152.975 46.9529C153.19 47.1988 153.301 47.5254 153.309 47.9327C153.309 48.2938 153.209 48.6166 153.009 48.9009C152.809 49.1852 152.525 49.4081 152.156 49.5694C151.795 49.7308 151.369 49.8115 150.877 49.8115Z" fill="black"/>
<g clip-path="url(#clip5_249_9815)">
<g clip-path="url(#clip6_249_9815)">
<path fill-rule="evenodd" clip-rule="evenodd" d="M164.686 15.8164H171.132C171.675 15.8164 171.872 15.8729 172.07 15.9791C172.269 16.0852 172.424 16.2409 172.53 16.4394C172.637 16.6378 172.693 16.8347 172.693 17.3775V19.2568C172.693 19.7996 172.637 19.9964 172.53 20.1949C172.424 20.3933 172.269 20.5491 172.07 20.6552C171.872 20.7613 171.675 20.8179 171.132 20.8179H164.686C164.143 20.8179 163.947 20.7613 163.748 20.6552C163.55 20.5491 163.394 20.3933 163.288 20.1949C163.182 19.9964 163.125 19.7996 163.125 19.2568V17.3775C163.125 16.8347 163.182 16.6378 163.288 16.4394C163.394 16.2409 163.55 16.0852 163.748 15.9791C163.947 15.8729 164.143 15.8164 164.686 15.8164ZM164.686 16.2513C164.257 16.2513 164.107 16.2803 163.953 16.3626C163.831 16.4282 163.737 16.5218 163.671 16.6445C163.589 16.7984 163.56 16.9483 163.56 17.3775V19.2568C163.56 19.686 163.589 19.8359 163.671 19.9898C163.737 20.1125 163.831 20.2061 163.953 20.2717C164.107 20.354 164.257 20.383 164.686 20.383H171.132C171.561 20.383 171.711 20.354 171.865 20.2717C171.988 20.2061 172.081 20.1125 172.147 19.9898C172.229 19.8359 172.258 19.686 172.258 19.2568V17.3775C172.258 16.9483 172.229 16.7984 172.147 16.6445C172.081 16.5218 171.988 16.4282 171.865 16.3626C171.711 16.2803 171.561 16.2513 171.132 16.2513H164.686ZM173.78 18.291C173.78 18.8288 173.128 19.1609 173.128 19.1609V17.4212C173.128 17.4212 173.78 17.7532 173.78 18.291Z" fill="black"/>
<rect x="163.995" y="16.6501" width="7.82836" height="3.3343" rx="0.695854" fill="black"/>
<path fill-rule="evenodd" clip-rule="evenodd" d="M150.784 16.4279C150.774 16.4783 150.774 16.5389 150.774 16.6602V20.009C150.774 20.1302 150.774 20.1908 150.784 20.2413C150.825 20.4483 150.987 20.6101 151.194 20.6513C151.244 20.6613 151.305 20.6613 151.426 20.6613C151.547 20.6613 151.608 20.6613 151.658 20.6513C151.865 20.6101 152.027 20.4483 152.068 20.2413C152.078 20.1908 152.078 20.1302 152.078 20.009V16.6602C152.078 16.5389 152.078 16.4783 152.068 16.4279C152.027 16.2209 151.865 16.059 151.658 16.0178C151.608 16.0078 151.547 16.0078 151.426 16.0078C151.305 16.0078 151.244 16.0078 151.194 16.0178C150.987 16.059 150.825 16.2209 150.784 16.4279ZM148.73 17.7039C148.73 17.5827 148.73 17.522 148.74 17.4716C148.781 17.2646 148.943 17.1028 149.15 17.0616C149.2 17.0516 149.261 17.0516 149.382 17.0516C149.503 17.0516 149.564 17.0516 149.614 17.0616C149.821 17.1028 149.983 17.2646 150.024 17.4716C150.034 17.522 150.034 17.5827 150.034 17.7039V20.0089C150.034 20.1302 150.034 20.1908 150.024 20.2412C149.983 20.4483 149.821 20.6101 149.614 20.6513C149.564 20.6613 149.503 20.6613 149.382 20.6613C149.261 20.6613 149.2 20.6613 149.15 20.6513C148.943 20.6101 148.781 20.4483 148.74 20.2412C148.73 20.1908 148.73 20.1302 148.73 20.0089V17.7039ZM146.739 18.4719C146.729 18.5224 146.729 18.583 146.729 18.7042V20.009C146.729 20.1302 146.729 20.1908 146.739 20.2412C146.78 20.4483 146.942 20.6101 147.149 20.6513C147.2 20.6613 147.26 20.6613 147.381 20.6613C147.503 20.6613 147.563 20.6613 147.614 20.6513C147.821 20.6101 147.983 20.4483 148.024 20.2412C148.034 20.1908 148.034 20.1302 148.034 20.009V18.7042C148.034 18.583 148.034 18.5224 148.024 18.4719C147.983 18.2649 147.821 18.1031 147.614 18.0619C147.563 18.0519 147.503 18.0519 147.381 18.0519C147.26 18.0519 147.2 18.0519 147.149 18.0619C146.942 18.1031 146.78 18.2649 146.739 18.4719ZM144.652 19.3418C144.641 19.3922 144.641 19.4528 144.641 19.574V20.009C144.641 20.1302 144.641 20.1908 144.652 20.2412C144.693 20.4483 144.855 20.6101 145.062 20.6513C145.112 20.6613 145.173 20.6613 145.294 20.6613C145.415 20.6613 145.476 20.6613 145.526 20.6513C145.733 20.6101 145.895 20.4483 145.936 20.2412C145.946 20.1908 145.946 20.1302 145.946 20.009V19.574C145.946 19.4528 145.946 19.3922 145.936 19.3418C145.895 19.1347 145.733 18.9729 145.526 18.9317C145.476 18.9217 145.415 18.9217 145.294 18.9217C145.173 18.9217 145.112 18.9217 145.062 18.9317C144.855 18.9729 144.693 19.1347 144.652 19.3418Z" fill="black"/>
<path fill-rule="evenodd" clip-rule="evenodd" d="M157.602 16.9196C158.574 16.9196 159.508 17.293 160.213 17.9626C160.266 18.0143 160.35 18.0136 160.403 17.9611L160.91 17.4495C160.936 17.4229 160.951 17.3868 160.951 17.3493C160.95 17.3118 160.935 17.2759 160.909 17.2495C159.06 15.478 156.144 15.478 154.295 17.2495C154.268 17.2758 154.253 17.3117 154.253 17.3493C154.253 17.3868 154.268 17.4229 154.294 17.4495L154.801 17.9611C154.853 18.0137 154.938 18.0144 154.991 17.9626C155.695 17.293 156.63 16.9196 157.602 16.9196ZM157.602 18.584C158.136 18.584 158.651 18.7825 159.047 19.1408C159.1 19.1917 159.184 19.1906 159.237 19.1384L159.743 18.6267C159.77 18.5999 159.784 18.5635 159.784 18.5257C159.784 18.4878 159.768 18.4517 159.741 18.4254C158.536 17.3044 156.669 17.3044 155.464 18.4254C155.437 18.4517 155.421 18.4878 155.421 18.5257C155.421 18.5635 155.435 18.5999 155.462 18.6267L155.968 19.1384C156.021 19.1906 156.105 19.1917 156.158 19.1408C156.554 18.7827 157.068 18.5843 157.602 18.584ZM158.575 19.8051C158.602 19.7785 158.617 19.7419 158.616 19.704C158.616 19.6661 158.599 19.6301 158.571 19.6047C158.012 19.1315 157.192 19.1315 156.633 19.6047C156.605 19.6301 156.588 19.666 156.588 19.704C156.587 19.7419 156.602 19.7785 156.629 19.8051L157.505 20.6891C157.53 20.715 157.565 20.7297 157.602 20.7297C157.639 20.7297 157.674 20.715 157.699 20.6891L158.575 19.8051Z" fill="black"/>
</g>
<path d="M24.918 15.6328C25.1125 15.6344 25.3071 15.6714 25.5017 15.744C25.6963 15.8166 25.8739 15.9371 26.0346 16.1054C26.1952 16.2722 26.3241 16.5 26.4214 16.7888C26.5187 17.0776 26.5674 17.4398 26.5674 17.8753C26.5674 18.2969 26.5272 18.6715 26.4469 18.9989C26.3682 19.3248 26.2539 19.5997 26.1041 19.8236C25.9558 20.0475 25.7751 20.2174 25.562 20.3333C25.3504 20.4491 25.111 20.507 24.8438 20.507C24.5782 20.507 24.3411 20.4545 24.1326 20.3495C23.9257 20.2429 23.7558 20.0954 23.623 19.907C23.4917 19.717 23.4075 19.497 23.3704 19.2468H23.9357C23.9867 19.4645 24.0878 19.6444 24.2392 19.7865C24.3921 19.9271 24.5936 19.9973 24.8438 19.9973C25.2098 19.9973 25.4987 19.8375 25.7102 19.5178C25.9234 19.1981 26.0299 18.7464 26.0299 18.1626H25.9929C25.9064 18.2923 25.8037 18.4043 25.6848 18.4985C25.5658 18.5927 25.4338 18.6653 25.2886 18.7162C25.1434 18.7672 24.989 18.7927 24.8253 18.7927C24.5535 18.7927 24.304 18.7255 24.077 18.5912C23.8515 18.4552 23.6708 18.2691 23.5349 18.0328C23.4006 17.795 23.3334 17.5232 23.3334 17.2174C23.3334 16.927 23.3982 16.6614 23.528 16.4205C23.6592 16.178 23.843 15.9849 24.0793 15.8413C24.3172 15.6977 24.5967 15.6282 24.918 15.6328ZM24.918 16.1425C24.7234 16.1425 24.5481 16.1911 24.3921 16.2884C24.2376 16.3842 24.1149 16.5139 24.0237 16.6776C23.9342 16.8398 23.8894 17.0197 23.8894 17.2174C23.8894 17.4151 23.9326 17.595 24.0191 17.7572C24.1071 17.9178 24.2268 18.046 24.3782 18.1417C24.5311 18.2359 24.7048 18.283 24.8994 18.283C25.0461 18.283 25.1828 18.2545 25.3095 18.1973C25.4361 18.1386 25.5465 18.0591 25.6407 17.9587C25.7365 17.8568 25.8114 17.7417 25.8655 17.6135C25.9195 17.4838 25.9465 17.3487 25.9465 17.2081C25.9465 17.0228 25.9017 16.849 25.8122 16.6869C25.7241 16.5247 25.6021 16.3934 25.4461 16.2931C25.2917 16.1927 25.1156 16.1425 24.918 16.1425ZM27.8144 19.8352C27.7001 19.8352 27.602 19.7943 27.5202 19.7124C27.4383 19.6305 27.3974 19.5325 27.3974 19.4182C27.3974 19.3039 27.4383 19.2058 27.5202 19.124C27.602 19.0421 27.7001 19.0012 27.8144 19.0012C27.9287 19.0012 28.0267 19.0421 28.1086 19.124C28.1904 19.2058 28.2314 19.3039 28.2314 19.4182C28.2314 19.4939 28.2121 19.5634 28.1735 19.6267C28.1364 19.69 28.0862 19.741 28.0229 19.7796C27.9611 19.8166 27.8916 19.8352 27.8144 19.8352ZM27.8144 17.4352C27.7001 17.4352 27.602 17.3942 27.5202 17.3124C27.4383 17.2305 27.3974 17.1324 27.3974 17.0182C27.3974 16.9039 27.4383 16.8058 27.5202 16.7239C27.602 16.6421 27.7001 16.6012 27.8144 16.6012C27.9287 16.6012 28.0267 16.6421 28.1086 16.7239C28.1904 16.8058 28.2314 16.9039 28.2314 17.0182C28.2314 17.0938 28.2121 17.1633 28.1735 17.2267C28.1364 17.29 28.0862 17.3409 28.0229 17.3796C27.9611 17.4166 27.8916 17.4352 27.8144 17.4352ZM29.0202 19.4692V18.9966L31.1052 15.6977H31.4481V16.4297H31.2164L29.6411 18.9224V18.9595H32.4489V19.4692H29.0202ZM31.2535 20.4421V19.3255V19.1054V15.6977H31.8002V20.4421H31.2535ZM34.8495 15.6977V20.4421H34.275V16.3H34.2472L33.0889 17.0691V16.4853L34.275 15.6977H34.8495Z" fill="black"/>
</g>
</g>
<path d="M180.104 62.9582H10.0865V63.828H180.104V62.9582Z" fill="black" mask="url(#path-35-inside-1_249_9815)"/>
</g>
<path d="M-0.00012207 60.6168C-0.00012207 60.3457 0.21963 60.126 0.490709 60.126H1.71779V74.3601H0.490709C0.219631 74.3601 -0.00012207 74.1403 -0.00012207 73.8692V60.6168Z" fill="#232A38"/>
<path d="M0.490967 87.8578C0.490967 87.5867 0.710719 87.3669 0.981798 87.3669H1.71804V115.835H0.981798C0.710719 115.835 0.490967 115.615 0.490967 115.344V87.8578Z" fill="#232A38"/>
<path d="M0.490967 123.935C0.490967 123.664 0.710719 123.444 0.981798 123.444H1.71804V151.912H0.981798C0.710719 151.912 0.490967 151.693 0.490967 151.421V123.935Z" fill="#232A38"/>
<path d="M187.743 141.604C187.743 141.875 187.523 142.095 187.252 142.095L186.516 142.095L186.516 96.9385L187.252 96.9385C187.523 96.9385 187.743 97.1583 187.743 97.4294L187.743 141.604Z" fill="#232A38"/>
<path fill-rule="evenodd" clip-rule="evenodd" d="M4.6626 29.939C4.6626 15.1652 16.6391 3.18872 31.4129 3.18872H156.575C171.349 3.18872 183.325 15.1652 183.325 29.939V349.225C183.325 363.998 171.349 375.975 156.575 375.975H31.4129C16.6391 375.975 4.6626 363.998 4.6626 349.225V29.939ZM10.5528 29.6933C10.5528 18.308 19.7824 9.07838 31.1677 9.07838H49.0831V13.7407C49.0831 18.6201 53.0386 22.5757 57.918 22.5757H129.825C134.704 22.5757 138.66 18.6201 138.66 13.7407V9.07838H156.82C168.206 9.07838 177.435 18.308 177.435 29.6933V349.224C177.435 360.61 168.206 369.839 156.82 369.839H31.1677C19.7824 369.839 10.5528 360.61 10.5528 349.224V29.6933Z" fill="#232A38"/>
<rect x="83.6866" y="12.2703" width="20.8603" height="3.43582" rx="1.71791" fill="#4F5560"/>
<circle cx="112.646" cy="13.9882" r="1.71791" fill="#4F5560"/>
<defs>
<filter id="filter0_d_249_9815" x="18.3092" y="76.6583" width="155.448" height="86.5498" filterUnits="userSpaceOnUse" color-interpolation-filters="sRGB">
<feFlood flood-opacity="0" result="BackgroundImageFix"/>
<feColorMatrix in="SourceAlpha" type="matrix" values="0 0 0 0 0 0 0 0 0 0 0 0 0 0 0 0 0 0 127 0" result="hardAlpha"/>
<feOffset dx="1.72241" dy="1.72241"/>
<feGaussianBlur stdDeviation="2.15301"/>
<feComposite in2="hardAlpha" operator="out"/>
<feColorMatrix type="matrix" values="0 0 0 0 0.85098 0 0 0 0 0.85098 0 0 0 0 0.85098 0 0 0 0.1 0"/>
<feBlend mode="normal" in2="BackgroundImageFix" result="effect1_dropShadow_249_9815"/>
<feBlend mode="normal" in="SourceGraphic" in2="effect1_dropShadow_249_9815" result="shape"/>
</filter>
<filter id="filter1_d_249_9815" x="18.3092" y="130.495" width="155.448" height="86.5513" filterUnits="userSpaceOnUse" color-interpolation-filters="sRGB">
<feFlood flood-opacity="0" result="BackgroundImageFix"/>
<feColorMatrix in="SourceAlpha" type="matrix" values="0 0 0 0 0 0 0 0 0 0 0 0 0 0 0 0 0 0 127 0" result="hardAlpha"/>
<feOffset dx="1.72241" dy="1.72241"/>
<feGaussianBlur stdDeviation="2.15301"/>
<feComposite in2="hardAlpha" operator="out"/>
<feColorMatrix type="matrix" values="0 0 0 0 0.85098 0 0 0 0 0.85098 0 0 0 0 0.85098 0 0 0 0.1 0"/>
<feBlend mode="normal" in2="BackgroundImageFix" result="effect1_dropShadow_249_9815"/>
<feBlend mode="normal" in="SourceGraphic" in2="effect1_dropShadow_249_9815" result="shape"/>
</filter>
<filter id="filter2_d_249_9815" x="18.3092" y="184.331" width="155.448" height="57.281" filterUnits="userSpaceOnUse" color-interpolation-filters="sRGB">
<feFlood flood-opacity="0" result="BackgroundImageFix"/>
<feColorMatrix in="SourceAlpha" type="matrix" values="0 0 0 0 0 0 0 0 0 0 0 0 0 0 0 0 0 0 127 0" result="hardAlpha"/>
<feOffset dx="1.72241" dy="1.72241"/>
<feGaussianBlur stdDeviation="2.15301"/>
<feComposite in2="hardAlpha" operator="out"/>
<feColorMatrix type="matrix" values="0 0 0 0 0.85098 0 0 0 0 0.85098 0 0 0 0 0.85098 0 0 0 0.1 0"/>
<feBlend mode="normal" in2="BackgroundImageFix" result="effect1_dropShadow_249_9815"/>
<feBlend mode="normal" in="SourceGraphic" in2="effect1_dropShadow_249_9815" result="shape"/>
</filter>
<linearGradient id="paint0_linear_249_9815" x1="104.638" y1="-25.1999" x2="94.3032" y2="496.691" gradientUnits="userSpaceOnUse">
<stop stop-color="#F5F5F5"/>
<stop offset="1" stop-color="#F1F1F1"/>
</linearGradient>
<clipPath id="clip0_249_9815">
<rect x="10.3357" y="7.74121" width="167.935" height="363.429" rx="21.5301" fill="white"/>
</clipPath>
<clipPath id="clip1_249_9815">
<rect width="5.16723" height="5.16723" fill="white" transform="translate(29.5049 89.0481)"/>
</clipPath>
<clipPath id="clip2_249_9815">
<rect width="5.16723" height="5.16723" fill="white" transform="translate(29.5049 142.885)"/>
</clipPath>
<clipPath id="clip3_249_9815">
<rect width="5.16723" height="5.16723" fill="white" transform="translate(29.5049 196.72)"/>
</clipPath>
<clipPath id="clip4_249_9815">
<path d="M10.0865 7.92139H180.104V63.3931H10.0865V7.92139Z" fill="white"/>
</clipPath>
<clipPath id="clip5_249_9815">
<rect width="169.614" height="19.136" fill="white" transform="translate(10.0865 7.92139)"/>
</clipPath>
<clipPath id="clip6_249_9815">
<rect width="29.5738" height="5.65382" fill="white" transform="translate(144.641 15.5728)"/>
</clipPath>
</defs>
</svg>
