<svg width="575" height="783" viewBox="0 0 575 783" fill="none" xmlns="http://www.w3.org/2000/svg">
<mask id="path-1-inside-1_406_6669" fill="white">
<rect x="0.617188" y="0.988708" width="574.066" height="781.049" rx="3"/>
</mask>
<rect x="0.617188" y="0.988708" width="574.066" height="781.049" rx="3" fill="#F5F5F5" stroke="black" stroke-width="6.46445" mask="url(#path-1-inside-1_406_6669)"/>
<path d="M178.276 60.9406C178.276 62.0785 178.002 63.1454 177.453 64.1411C176.925 65.1368 176.081 65.9395 174.923 66.5491C173.785 67.1588 172.342 67.4636 170.595 67.4636H167.028V75.6326H162.761V54.3566H170.595C172.241 54.3566 173.643 54.6411 174.801 55.2101C175.959 55.7791 176.823 56.5614 177.392 57.5571C177.981 58.5529 178.276 59.6807 178.276 60.9406ZM170.412 64.0192C171.59 64.0192 172.464 63.755 173.033 63.2267C173.602 62.678 173.887 61.916 173.887 60.9406C173.887 58.8678 172.728 57.8315 170.412 57.8315H167.028V64.0192H170.412ZM185.573 53.0764V75.6326H181.306V53.0764H185.573ZM188.692 67.1283C188.692 65.4213 189.027 63.9074 189.698 62.5866C190.389 61.2657 191.313 60.2497 192.472 59.5384C193.65 58.8272 194.961 58.4716 196.404 58.4716C197.664 58.4716 198.761 58.7256 199.696 59.2336C200.651 59.7416 201.413 60.3817 201.982 61.1539V58.7459H206.28V75.6326H201.982V73.1636C201.433 73.9561 200.671 74.6165 199.696 75.1449C198.741 75.6529 197.633 75.9069 196.373 75.9069C194.951 75.9069 193.65 75.5411 192.472 74.8096C191.313 74.078 190.389 73.0518 189.698 71.7309C189.027 70.3898 188.692 68.8555 188.692 67.1283ZM201.982 67.1892C201.982 66.1529 201.779 65.2689 201.372 64.5374C200.966 63.7855 200.417 63.2165 199.726 62.8304C199.035 62.424 198.294 62.2208 197.501 62.2208C196.709 62.2208 195.977 62.4138 195.306 62.7999C194.636 63.186 194.087 63.755 193.66 64.5069C193.254 65.2384 193.051 66.1122 193.051 67.1283C193.051 68.1443 193.254 69.0384 193.66 69.8106C194.087 70.5625 194.636 71.1416 195.306 71.5481C195.997 71.9545 196.729 72.1577 197.501 72.1577C198.294 72.1577 199.035 71.9646 199.726 71.5785C200.417 71.1721 200.966 70.6031 201.372 69.8716C201.779 69.1197 201.982 68.2256 201.982 67.1892ZM216.91 75.9069C215.528 75.9069 214.288 75.663 213.191 75.1753C212.093 74.6673 211.22 73.9866 210.569 73.1331C209.939 72.2796 209.594 71.3347 209.533 70.2983H213.831C213.912 70.9486 214.227 71.4871 214.776 71.9138C215.345 72.3406 216.046 72.5539 216.879 72.5539C217.692 72.5539 218.322 72.3914 218.769 72.0662C219.236 71.7411 219.47 71.3245 219.47 70.8165C219.47 70.2678 219.185 69.8614 218.616 69.5973C218.068 69.3128 217.184 69.0079 215.965 68.6828C214.705 68.378 213.668 68.063 212.856 67.7379C212.063 67.4128 211.372 66.9149 210.783 66.2443C210.214 65.5737 209.929 64.6694 209.929 63.5315C209.929 62.5967 210.193 61.7432 210.722 60.971C211.27 60.1989 212.043 59.5892 213.038 59.1422C214.054 58.6951 215.243 58.4716 216.605 58.4716C218.616 58.4716 220.222 58.9796 221.421 59.9956C222.62 60.9914 223.28 62.3427 223.402 64.0497H219.318C219.257 63.3791 218.972 62.8507 218.464 62.4646C217.976 62.0582 217.316 61.855 216.483 61.855C215.711 61.855 215.111 61.9972 214.684 62.2817C214.278 62.5662 214.075 62.9625 214.075 63.4705C214.075 64.0395 214.359 64.4764 214.928 64.7812C215.497 65.0657 216.381 65.3604 217.58 65.6652C218.799 65.97 219.805 66.285 220.598 66.6101C221.39 66.9352 222.071 67.4432 222.64 68.1342C223.229 68.8047 223.534 69.6989 223.554 70.8165C223.554 71.7919 223.28 72.6657 222.731 73.4379C222.203 74.2101 221.431 74.8197 220.415 75.2668C219.419 75.6935 218.251 75.9069 216.91 75.9069ZM248.029 58.5021C250.101 58.5021 251.768 59.1422 253.027 60.4224C254.308 61.6823 254.948 63.4502 254.948 65.7261V75.6326H250.68V66.3053C250.68 64.9844 250.345 63.9785 249.675 63.2876C249.004 62.5764 248.09 62.2208 246.931 62.2208C245.773 62.2208 244.848 62.5764 244.157 63.2876C243.487 63.9785 243.152 64.9844 243.152 66.3053V75.6326H238.884V66.3053C238.884 64.9844 238.549 63.9785 237.878 63.2876C237.208 62.5764 236.293 62.2208 235.135 62.2208C233.956 62.2208 233.022 62.5764 232.331 63.2876C231.66 63.9785 231.325 64.9844 231.325 66.3053V75.6326H227.057V58.7459H231.325V60.7882C231.873 60.0769 232.575 59.5181 233.428 59.1117C234.302 58.7053 235.257 58.5021 236.293 58.5021C237.614 58.5021 238.793 58.7866 239.829 59.3555C240.865 59.9042 241.668 60.6967 242.237 61.7331C242.786 60.7577 243.578 59.9753 244.615 59.386C245.671 58.7967 246.809 58.5021 248.029 58.5021ZM257.9 67.1283C257.9 65.4213 258.235 63.9074 258.906 62.5866C259.597 61.2657 260.521 60.2497 261.68 59.5384C262.858 58.8272 264.169 58.4716 265.612 58.4716C266.872 58.4716 267.969 58.7256 268.904 59.2336C269.859 59.7416 270.621 60.3817 271.19 61.1539V58.7459H275.488V75.6326H271.19V73.1636C270.641 73.9561 269.879 74.6165 268.904 75.1449C267.949 75.6529 266.841 75.9069 265.581 75.9069C264.159 75.9069 262.858 75.5411 261.68 74.8096C260.521 74.078 259.597 73.0518 258.906 71.7309C258.235 70.3898 257.9 68.8555 257.9 67.1283ZM271.19 67.1892C271.19 66.1529 270.987 65.2689 270.58 64.5374C270.174 63.7855 269.625 63.2165 268.934 62.8304C268.243 62.424 267.502 62.2208 266.709 62.2208C265.917 62.2208 265.185 62.4138 264.514 62.7999C263.844 63.186 263.295 63.755 262.868 64.5069C262.462 65.2384 262.259 66.1122 262.259 67.1283C262.259 68.1443 262.462 69.0384 262.868 69.8106C263.295 70.5625 263.844 71.1416 264.514 71.5481C265.205 71.9545 265.937 72.1577 266.709 72.1577C267.502 72.1577 268.243 71.9646 268.934 71.5785C269.625 71.1721 270.174 70.6031 270.58 69.8716C270.987 69.1197 271.19 68.2256 271.19 67.1892ZM281.82 56.7341C281.068 56.7341 280.438 56.5005 279.93 56.0331C279.442 55.5454 279.198 54.9459 279.198 54.2347C279.198 53.5234 279.442 52.9341 279.93 52.4668C280.438 51.9791 281.068 51.7352 281.82 51.7352C282.572 51.7352 283.191 51.9791 283.679 52.4668C284.187 52.9341 284.441 53.5234 284.441 54.2347C284.441 54.9459 284.187 55.5454 283.679 56.0331C283.191 56.5005 282.572 56.7341 281.82 56.7341ZM283.923 58.7459V75.6326H279.656V58.7459H283.923ZM303.989 79.3818L300.758 75.5106C299.864 75.7342 298.95 75.8459 298.015 75.8459C296.024 75.8459 294.195 75.3785 292.528 74.4438C290.862 73.509 289.541 72.2186 288.566 70.5727C287.59 68.9063 287.103 67.0267 287.103 64.9336C287.103 62.8609 287.59 61.0015 288.566 59.3555C289.541 57.6892 290.862 56.3887 292.528 55.4539C294.195 54.5192 296.024 54.0518 298.015 54.0518C300.027 54.0518 301.856 54.5192 303.502 55.4539C305.168 56.3887 306.479 57.6892 307.434 59.3555C308.409 61.0015 308.897 62.8609 308.897 64.9336C308.897 66.8235 308.49 68.5507 307.678 70.1154C306.885 71.6598 305.798 72.9197 304.416 73.8951L309.293 79.3818H303.989ZM291.492 64.9336C291.492 66.3561 291.766 67.6058 292.315 68.6828C292.864 69.7598 293.626 70.593 294.601 71.1823C295.597 71.7513 296.735 72.0358 298.015 72.0358C299.295 72.0358 300.423 71.7513 301.398 71.1823C302.374 70.593 303.136 69.7598 303.685 68.6828C304.233 67.6058 304.508 66.3561 304.508 64.9336C304.508 63.5112 304.233 62.2716 303.685 61.2149C303.136 60.1379 302.374 59.3149 301.398 58.7459C300.423 58.1769 299.295 57.8924 298.015 57.8924C296.735 57.8924 295.597 58.1769 294.601 58.7459C293.626 59.3149 292.864 60.1379 292.315 61.2149C291.766 62.2716 291.492 63.5112 291.492 64.9336Z" fill="black"/>
<path d="M170.108 97.0011C170.907 97.1501 171.564 97.5498 172.079 98.2C172.594 98.8503 172.851 99.5954 172.851 100.435C172.851 101.194 172.662 101.865 172.282 102.447C171.916 103.016 171.381 103.463 170.677 103.788C169.972 104.113 169.139 104.276 168.177 104.276H162.061V90.092H167.913C168.875 90.092 169.701 90.2478 170.392 90.5594C171.097 90.871 171.625 91.3045 171.977 91.8599C172.343 92.4154 172.526 93.0453 172.526 93.7498C172.526 94.5761 172.303 95.2671 171.855 95.8225C171.422 96.3779 170.839 96.7708 170.108 97.0011ZM164.906 95.9444H167.507C168.184 95.9444 168.706 95.7954 169.072 95.4974C169.437 95.1858 169.62 94.7455 169.62 94.1765C169.62 93.6075 169.437 93.1672 169.072 92.8556C168.706 92.5441 168.184 92.3883 167.507 92.3883H164.906V95.9444ZM167.771 101.959C168.462 101.959 168.997 101.797 169.376 101.472C169.769 101.147 169.966 100.686 169.966 100.09C169.966 99.4802 169.762 99.0061 169.356 98.6674C168.95 98.3152 168.401 98.1391 167.71 98.1391H164.906V101.959H167.771ZM177.963 89.2385V104.276H175.119V89.2385H177.963ZM185.773 104.459C184.689 104.459 183.714 104.222 182.847 103.748C181.98 103.26 181.296 102.576 180.795 101.695C180.307 100.815 180.063 99.7986 180.063 98.6471C180.063 97.4956 180.314 96.4795 180.815 95.599C181.33 94.7184 182.027 94.041 182.908 93.5669C183.789 93.0792 184.771 92.8353 185.855 92.8353C186.938 92.8353 187.92 93.0792 188.801 93.5669C189.682 94.041 190.373 94.7184 190.874 95.599C191.389 96.4795 191.646 97.4956 191.646 98.6471C191.646 99.7986 191.382 100.815 190.853 101.695C190.339 102.576 189.634 103.26 188.74 103.748C187.859 104.222 186.871 104.459 185.773 104.459ZM185.773 101.98C186.288 101.98 186.769 101.858 187.216 101.614C187.677 101.357 188.042 100.977 188.313 100.476C188.584 99.9747 188.72 99.3651 188.72 98.6471C188.72 97.5769 188.435 96.7572 187.866 96.1883C187.311 95.6057 186.627 95.3145 185.814 95.3145C185.001 95.3145 184.317 95.6057 183.761 96.1883C183.22 96.7572 182.949 97.5769 182.949 98.6471C182.949 99.7173 183.213 100.544 183.741 101.126C184.283 101.695 184.96 101.98 185.773 101.98ZM198.732 104.459C197.648 104.459 196.673 104.222 195.806 103.748C194.939 103.26 194.254 102.576 193.753 101.695C193.265 100.815 193.022 99.7986 193.022 98.6471C193.022 97.4956 193.272 96.4795 193.773 95.599C194.288 94.7184 194.986 94.041 195.867 93.5669C196.747 93.0792 197.729 92.8353 198.813 92.8353C199.897 92.8353 200.879 93.0792 201.76 93.5669C202.64 94.041 203.331 94.7184 203.832 95.599C204.347 96.4795 204.604 97.4956 204.604 98.6471C204.604 99.7986 204.34 100.815 203.812 101.695C203.297 102.576 202.593 103.26 201.699 103.748C200.818 104.222 199.829 104.459 198.732 104.459ZM198.732 101.98C199.247 101.98 199.727 101.858 200.175 101.614C200.635 101.357 201.001 100.977 201.272 100.476C201.543 99.9747 201.678 99.3651 201.678 98.6471C201.678 97.5769 201.394 96.7572 200.825 96.1883C200.269 95.6057 199.585 95.3145 198.772 95.3145C197.96 95.3145 197.275 95.6057 196.72 96.1883C196.178 96.7572 195.907 97.5769 195.907 98.6471C195.907 99.7173 196.171 100.544 196.7 101.126C197.242 101.695 197.919 101.98 198.732 101.98ZM205.96 98.6064C205.96 97.4685 206.183 96.4592 206.63 95.5786C207.091 94.6981 207.714 94.0207 208.5 93.5466C209.286 93.0724 210.159 92.8353 211.121 92.8353C211.853 92.8353 212.551 92.9979 213.214 93.323C213.878 93.6346 214.406 94.0546 214.799 94.5829V89.2385H217.685V104.276H214.799V102.61C214.447 103.165 213.953 103.612 213.316 103.951C212.679 104.29 211.941 104.459 211.101 104.459C210.153 104.459 209.286 104.215 208.5 103.727C207.714 103.24 207.091 102.555 206.63 101.675C206.183 100.781 205.96 99.758 205.96 98.6064ZM214.82 98.6471C214.82 97.9562 214.684 97.3669 214.413 96.8792C214.142 96.3779 213.777 95.9986 213.316 95.7412C212.855 95.4703 212.361 95.3348 211.833 95.3348C211.304 95.3348 210.816 95.4635 210.369 95.7209C209.922 95.9783 209.557 96.3576 209.272 96.8589C209.001 97.3466 208.866 97.9291 208.866 98.6064C208.866 99.2838 209.001 99.8799 209.272 100.395C209.557 100.896 209.922 101.282 210.369 101.553C210.83 101.824 211.318 101.959 211.833 101.959C212.361 101.959 212.855 101.831 213.316 101.573C213.777 101.302 214.142 100.923 214.413 100.435C214.684 99.9341 214.82 99.338 214.82 98.6471ZM228.15 94.7658C228.516 94.1697 228.99 93.7023 229.573 93.3637C230.169 93.025 230.846 92.8556 231.605 92.8556V95.8428H230.853C229.959 95.8428 229.282 96.0528 228.821 96.4728C228.374 96.8927 228.15 97.6243 228.15 98.6674V104.276H225.306V93.0182H228.15V94.7658ZM243.986 98.4032C243.986 98.8097 243.959 99.1754 243.905 99.5006H235.675C235.743 100.313 236.027 100.95 236.529 101.411C237.03 101.871 237.646 102.102 238.378 102.102C239.435 102.102 240.186 101.648 240.634 100.74H243.702C243.377 101.824 242.754 102.718 241.832 103.422C240.911 104.113 239.78 104.459 238.439 104.459C237.355 104.459 236.38 104.222 235.513 103.748C234.659 103.26 233.989 102.576 233.501 101.695C233.027 100.815 232.79 99.7986 232.79 98.6471C232.79 97.482 233.027 96.4592 233.501 95.5786C233.975 94.6981 234.639 94.0207 235.492 93.5466C236.346 93.0724 237.328 92.8353 238.439 92.8353C239.509 92.8353 240.464 93.0656 241.304 93.5262C242.158 93.9868 242.815 94.6439 243.275 95.4974C243.749 96.3373 243.986 97.3059 243.986 98.4032ZM241.04 97.5904C241.026 96.8589 240.762 96.2763 240.247 95.8428C239.733 95.3958 239.103 95.1722 238.358 95.1722C237.653 95.1722 237.057 95.389 236.569 95.8225C236.095 96.2425 235.804 96.8318 235.696 97.5904L241.04 97.5904ZM248.908 94.6439C249.274 94.1291 249.775 93.7023 250.412 93.3637C251.062 93.0114 251.8 92.8353 252.627 92.8353C253.589 92.8353 254.456 93.0724 255.228 93.5466C256.013 94.0207 256.63 94.6981 257.077 95.5786C257.538 96.4457 257.768 97.4549 257.768 98.6064C257.768 99.758 257.538 100.781 257.077 101.675C256.63 102.555 256.013 103.24 255.228 103.727C254.456 104.215 253.589 104.459 252.627 104.459C251.8 104.459 251.069 104.29 250.432 103.951C249.809 103.612 249.301 103.185 248.908 102.671V109.641L246.063 109.641V93.0182H248.908V94.6439ZM254.862 98.6064C254.862 97.9291 254.72 97.3466 254.435 96.8589C254.164 96.3576 253.798 95.9783 253.338 95.7209C252.891 95.4635 252.403 95.3348 251.875 95.3348C251.36 95.3348 250.872 95.4703 250.412 95.7412C249.965 95.9986 249.599 96.3779 249.314 96.8792C249.043 97.3804 248.908 97.9697 248.908 98.6471C248.908 99.3245 249.043 99.9138 249.314 100.415C249.599 100.916 249.965 101.302 250.412 101.573C250.872 101.831 251.36 101.959 251.875 101.959C252.403 101.959 252.891 101.824 253.338 101.553C253.798 101.282 254.164 100.896 254.435 100.395C254.72 99.8934 254.862 99.2974 254.862 98.6064ZM264.834 104.459C263.75 104.459 262.775 104.222 261.908 103.748C261.041 103.26 260.357 102.576 259.855 101.695C259.368 100.815 259.124 99.7986 259.124 98.6471C259.124 97.4956 259.375 96.4795 259.876 95.599C260.391 94.7184 261.088 94.041 261.969 93.5669C262.849 93.0792 263.832 92.8353 264.915 92.8353C265.999 92.8353 266.981 93.0792 267.862 93.5669C268.742 94.041 269.433 94.7184 269.935 95.599C270.449 96.4795 270.707 97.4956 270.707 98.6471C270.707 99.7986 270.443 100.815 269.914 101.695C269.4 102.576 268.695 103.26 267.801 103.748C266.92 104.222 265.931 104.459 264.834 104.459ZM264.834 101.98C265.349 101.98 265.83 101.858 266.277 101.614C266.737 101.357 267.103 100.977 267.374 100.476C267.645 99.9747 267.781 99.3651 267.781 98.6471C267.781 97.5769 267.496 96.7572 266.927 96.1883C266.372 95.6057 265.688 95.3145 264.875 95.3145C264.062 95.3145 263.378 95.6057 262.822 96.1883C262.28 96.7572 262.01 97.5769 262.01 98.6471C262.01 99.7173 262.274 100.544 262.802 101.126C263.344 101.695 264.021 101.98 264.834 101.98ZM275.639 94.7658C276.004 94.1697 276.479 93.7023 277.061 93.3637C277.657 93.025 278.335 92.8556 279.093 92.8556V95.8428H278.341C277.447 95.8428 276.77 96.0528 276.309 96.4728C275.862 96.8927 275.639 97.6243 275.639 98.6674V104.276H272.794V93.0182H275.639V94.7658ZM284.322 95.3551V100.801C284.322 101.18 284.41 101.458 284.586 101.634C284.775 101.797 285.087 101.878 285.521 101.878H286.841V104.276H285.053C282.655 104.276 281.456 103.111 281.456 100.781V95.3551H280.115V93.0182H281.456V90.2342H284.322V93.0182H286.841V95.3551H284.322ZM296.575 94.7658C296.94 94.1697 297.415 93.7023 297.997 93.3637C298.593 93.025 299.271 92.8556 300.029 92.8556V95.8428H299.277C298.383 95.8428 297.706 96.0528 297.245 96.4728C296.798 96.8927 296.575 97.6243 296.575 98.6674V104.276H293.73V93.0182H296.575V94.7658ZM312.411 98.4032C312.411 98.8097 312.384 99.1754 312.329 99.5006H304.099C304.167 100.313 304.452 100.95 304.953 101.411C305.454 101.871 306.071 102.102 306.802 102.102C307.859 102.102 308.611 101.648 309.058 100.74H312.126C311.801 101.824 311.178 102.718 310.257 103.422C309.335 104.113 308.204 104.459 306.863 104.459C305.779 104.459 304.804 104.222 303.937 103.748C303.083 103.26 302.413 102.576 301.925 101.695C301.451 100.815 301.214 99.7986 301.214 98.6471C301.214 97.482 301.451 96.4592 301.925 95.5786C302.399 94.6981 303.063 94.0207 303.917 93.5466C304.77 93.0724 305.752 92.8353 306.863 92.8353C307.933 92.8353 308.888 93.0656 309.728 93.5262C310.582 93.9868 311.239 94.6439 311.699 95.4974C312.174 96.3373 312.411 97.3059 312.411 98.4032ZM309.464 97.5904C309.451 96.8589 309.186 96.2763 308.672 95.8428C308.157 95.3958 307.527 95.1722 306.782 95.1722C306.077 95.1722 305.481 95.389 304.994 95.8225C304.519 96.2425 304.228 96.8318 304.12 97.5904H309.464ZM318.795 104.459C317.874 104.459 317.048 104.296 316.316 103.971C315.585 103.632 315.002 103.179 314.568 102.61C314.149 102.041 313.918 101.411 313.878 100.72H316.743C316.797 101.153 317.007 101.512 317.373 101.797C317.752 102.081 318.219 102.224 318.775 102.224C319.317 102.224 319.737 102.115 320.035 101.898C320.346 101.682 320.502 101.404 320.502 101.065C320.502 100.699 320.313 100.429 319.933 100.252C319.567 100.063 318.978 99.8596 318.165 99.6428C317.325 99.4396 316.634 99.2296 316.093 99.0129C315.564 98.7961 315.104 98.4642 314.711 98.0171C314.331 97.5701 314.142 96.9672 314.142 96.2086C314.142 95.5854 314.318 95.0164 314.67 94.5016C315.036 93.9868 315.551 93.5804 316.214 93.2824C316.892 92.9843 317.684 92.8353 318.592 92.8353C319.933 92.8353 321.003 93.174 321.803 93.8514C322.602 94.5152 323.042 95.4161 323.124 96.554H320.401C320.36 96.107 320.17 95.7548 319.832 95.4974C319.506 95.2264 319.066 95.0909 318.511 95.0909C317.996 95.0909 317.596 95.1858 317.312 95.3754C317.041 95.5651 316.905 95.8293 316.905 96.1679C316.905 96.5473 317.095 96.8385 317.474 97.0417C317.854 97.2314 318.443 97.4278 319.242 97.631C320.055 97.8343 320.726 98.0442 321.254 98.261C321.782 98.4777 322.236 98.8164 322.616 99.277C323.008 99.7241 323.212 100.32 323.225 101.065C323.225 101.716 323.042 102.298 322.677 102.813C322.324 103.328 321.809 103.734 321.132 104.032C320.468 104.317 319.689 104.459 318.795 104.459ZM336.188 93.0182V104.276H333.323V102.854C332.957 103.341 332.476 103.727 331.88 104.012C331.298 104.283 330.661 104.418 329.97 104.418C329.09 104.418 328.311 104.235 327.633 103.87C326.956 103.49 326.421 102.942 326.028 102.224C325.649 101.492 325.459 100.625 325.459 99.6225V93.0182H328.304V99.2161C328.304 100.11 328.527 100.801 328.974 101.289C329.421 101.763 330.031 102 330.803 102C331.589 102 332.205 101.763 332.652 101.289C333.1 100.801 333.323 100.11 333.323 99.2161V93.0182H336.188ZM341.84 89.2385V104.276H338.995V89.2385H341.84ZM347.963 95.3551V100.801C347.963 101.18 348.051 101.458 348.227 101.634C348.417 101.797 348.729 101.878 349.162 101.878L350.483 101.878V104.276L348.695 104.276C346.297 104.276 345.098 103.111 345.098 100.781V95.3551H343.757V93.0182H345.098V90.2342H347.963V93.0182H350.483V95.3551H347.963ZM356.837 104.459C355.916 104.459 355.09 104.296 354.358 103.971C353.627 103.632 353.044 103.179 352.611 102.61C352.191 102.041 351.96 101.411 351.92 100.72H354.785C354.839 101.153 355.049 101.512 355.415 101.797C355.794 102.081 356.262 102.224 356.817 102.224C357.359 102.224 357.779 102.115 358.077 101.898C358.388 101.682 358.544 101.404 358.544 101.065C358.544 100.699 358.355 100.429 357.975 100.252C357.61 100.063 357.02 99.8596 356.207 99.6428C355.367 99.4396 354.677 99.2296 354.135 99.0129C353.606 98.7961 353.146 98.4642 352.753 98.0171C352.373 97.5701 352.184 96.9672 352.184 96.2086C352.184 95.5854 352.36 95.0164 352.712 94.5016C353.078 93.9868 353.593 93.5804 354.257 93.2824C354.934 92.9843 355.726 92.8353 356.634 92.8353C357.975 92.8353 359.046 93.174 359.845 93.8514C360.644 94.5152 361.084 95.4161 361.166 96.554L358.443 96.554C358.402 96.107 358.212 95.7548 357.874 95.4974C357.549 95.2264 357.108 95.0909 356.553 95.0909C356.038 95.0909 355.638 95.1858 355.354 95.3754C355.083 95.5651 354.947 95.8293 354.947 96.1679C354.947 96.5473 355.137 96.8385 355.516 97.0417C355.896 97.2314 356.485 97.4278 357.284 97.631C358.097 97.8343 358.768 98.0442 359.296 98.261C359.824 98.4777 360.278 98.8164 360.658 99.277C361.051 99.7241 361.254 100.32 361.267 101.065C361.267 101.716 361.084 102.298 360.719 102.813C360.366 103.328 359.852 103.734 359.174 104.032C358.51 104.317 357.731 104.459 356.837 104.459Z" fill="#51535A"/>
<path d="M70.0803 179.247V189.885H67.9466V179.247H70.0803ZM76.8673 181.319C77.8732 181.319 78.686 181.639 79.3058 182.28C79.9256 182.91 80.2355 183.793 80.2355 184.931V189.885H78.1018V185.221C78.1018 184.55 77.9341 184.037 77.5988 183.682C77.2635 183.316 76.8063 183.133 76.2272 183.133C75.6379 183.133 75.1705 183.316 74.825 183.682C74.4897 184.037 74.3221 184.55 74.3221 185.221V189.885H72.1884V181.441H74.3221V182.493C74.6066 182.127 74.9673 181.843 75.4042 181.639C75.8512 181.426 76.3389 181.319 76.8673 181.319ZM85.7851 187.919L87.9188 181.441H90.1896L87.0653 189.885H84.4744L81.3653 181.441H83.6514L85.7851 187.919ZM99.237 185.48C99.237 185.785 99.2167 186.059 99.176 186.303H93.0036C93.0544 186.913 93.2677 187.39 93.6437 187.736C94.0196 188.081 94.4819 188.254 95.0306 188.254C95.8231 188.254 96.387 187.914 96.7223 187.233H99.0236C98.7798 188.046 98.3124 188.716 97.6215 189.245C96.9306 189.763 96.0822 190.022 95.0763 190.022C94.2635 190.022 93.5319 189.844 92.8816 189.488C92.2415 189.123 91.7386 188.61 91.3728 187.949C91.0172 187.289 90.8394 186.527 90.8394 185.663C90.8394 184.789 91.0172 184.022 91.3728 183.362C91.7284 182.701 92.2263 182.193 92.8664 181.838C93.5065 181.482 94.2431 181.304 95.0763 181.304C95.879 181.304 96.5953 181.477 97.2252 181.822C97.8653 182.168 98.3581 182.661 98.7036 183.301C99.0592 183.931 99.237 184.657 99.237 185.48ZM97.0271 184.87C97.0169 184.322 96.8188 183.885 96.4327 183.56C96.0466 183.224 95.5742 183.057 95.0153 183.057C94.487 183.057 94.0399 183.219 93.6742 183.545C93.3185 183.86 93.1001 184.301 93.0188 184.87H97.0271ZM104.025 190.022C103.335 190.022 102.715 189.9 102.166 189.656C101.617 189.402 101.18 189.062 100.855 188.635C100.54 188.208 100.368 187.736 100.337 187.218H102.486C102.527 187.543 102.684 187.812 102.959 188.025C103.243 188.239 103.594 188.345 104.01 188.345C104.417 188.345 104.732 188.264 104.955 188.101C105.189 187.939 105.306 187.731 105.306 187.477C105.306 187.202 105.163 186.999 104.879 186.867C104.605 186.725 104.163 186.572 103.553 186.41C102.923 186.257 102.405 186.1 101.998 185.937C101.602 185.775 101.257 185.526 100.962 185.191C100.678 184.855 100.535 184.403 100.535 183.834C100.535 183.367 100.667 182.94 100.932 182.554C101.206 182.168 101.592 181.863 102.09 181.639C102.598 181.416 103.192 181.304 103.873 181.304C104.879 181.304 105.682 181.558 106.281 182.066C106.88 182.564 107.211 183.24 107.272 184.093H105.229C105.199 183.758 105.057 183.494 104.803 183.301C104.559 183.097 104.229 182.996 103.812 182.996C103.426 182.996 103.126 183.067 102.913 183.209C102.71 183.351 102.608 183.55 102.608 183.804C102.608 184.088 102.75 184.307 103.035 184.459C103.319 184.601 103.761 184.749 104.361 184.901C104.97 185.053 105.473 185.211 105.87 185.373C106.266 185.536 106.606 185.79 106.891 186.135C107.185 186.471 107.338 186.918 107.348 187.477C107.348 187.964 107.211 188.401 106.936 188.787C106.672 189.173 106.286 189.478 105.778 189.702C105.28 189.915 104.696 190.022 104.025 190.022ZM111.584 183.194V187.278C111.584 187.563 111.65 187.771 111.782 187.903C111.924 188.025 112.158 188.086 112.483 188.086H113.473V189.885H112.132C110.334 189.885 109.435 189.011 109.435 187.263V183.194H108.429V181.441H109.435V179.353H111.584V181.441H113.473V183.194H111.584ZM116.09 180.435C115.714 180.435 115.399 180.319 115.145 180.085C114.901 179.841 114.779 179.541 114.779 179.186C114.779 178.83 114.901 178.535 115.145 178.302C115.399 178.058 115.714 177.936 116.09 177.936C116.466 177.936 116.776 178.058 117.02 178.302C117.274 178.535 117.401 178.83 117.401 179.186C117.401 179.541 117.274 179.841 117.02 180.085C116.776 180.319 116.466 180.435 116.09 180.435ZM117.142 181.441V189.885H115.008V181.441H117.142ZM122.557 181.304C123.187 181.304 123.741 181.431 124.218 181.685C124.696 181.929 125.072 182.249 125.346 182.645V181.441H127.495V189.946C127.495 190.728 127.338 191.424 127.023 192.034C126.708 192.653 126.235 193.141 125.605 193.497C124.975 193.862 124.213 194.045 123.319 194.045C122.12 194.045 121.135 193.766 120.362 193.207C119.6 192.648 119.169 191.886 119.067 190.921H121.185C121.297 191.307 121.536 191.612 121.902 191.835C122.278 192.069 122.73 192.186 123.258 192.186C123.878 192.186 124.381 191.998 124.767 191.622C125.153 191.256 125.346 190.697 125.346 189.946V188.635C125.072 189.031 124.691 189.361 124.203 189.626C123.726 189.89 123.177 190.022 122.557 190.022C121.846 190.022 121.196 189.839 120.606 189.473C120.017 189.107 119.55 188.594 119.204 187.934C118.869 187.263 118.701 186.496 118.701 185.633C118.701 184.779 118.869 184.022 119.204 183.362C119.55 182.701 120.012 182.193 120.591 181.838C121.18 181.482 121.836 181.304 122.557 181.304ZM125.346 185.663C125.346 185.145 125.245 184.703 125.041 184.337C124.838 183.961 124.564 183.677 124.218 183.484C123.873 183.28 123.502 183.179 123.106 183.179C122.71 183.179 122.344 183.275 122.008 183.468C121.673 183.661 121.399 183.946 121.185 184.322C120.982 184.688 120.881 185.124 120.881 185.633C120.881 186.141 120.982 186.588 121.185 186.974C121.399 187.35 121.673 187.639 122.008 187.842C122.354 188.046 122.72 188.147 123.106 188.147C123.502 188.147 123.873 188.051 124.218 187.858C124.564 187.654 124.838 187.37 125.041 187.004C125.245 186.628 125.346 186.181 125.346 185.663ZM129.03 185.633C129.03 184.779 129.198 184.022 129.533 183.362C129.879 182.701 130.341 182.193 130.92 181.838C131.509 181.482 132.165 181.304 132.886 181.304C133.516 181.304 134.065 181.431 134.532 181.685C135.01 181.939 135.391 182.259 135.675 182.645V181.441H137.824V189.885H135.675V188.65C135.401 189.046 135.02 189.377 134.532 189.641C134.055 189.895 133.501 190.022 132.871 190.022C132.16 190.022 131.509 189.839 130.92 189.473C130.341 189.107 129.879 188.594 129.533 187.934C129.198 187.263 129.03 186.496 129.03 185.633ZM135.675 185.663C135.675 185.145 135.574 184.703 135.37 184.337C135.167 183.961 134.893 183.677 134.547 183.484C134.202 183.28 133.831 183.179 133.435 183.179C133.039 183.179 132.673 183.275 132.338 183.468C132.002 183.661 131.728 183.946 131.515 184.322C131.311 184.688 131.21 185.124 131.21 185.633C131.21 186.141 131.311 186.588 131.515 186.974C131.728 187.35 132.002 187.639 132.338 187.842C132.683 188.046 133.049 188.147 133.435 188.147C133.831 188.147 134.202 188.051 134.547 187.858C134.893 187.654 135.167 187.37 135.37 187.004C135.574 186.628 135.675 186.181 135.675 185.663ZM142.392 183.194V187.278C142.392 187.563 142.458 187.771 142.59 187.903C142.733 188.025 142.966 188.086 143.292 188.086H144.282V189.885H142.941C141.143 189.885 140.243 189.011 140.243 187.263V183.194H139.238V181.441H140.243V179.353H142.392V181.441H144.282V183.194H142.392ZM146.899 180.435C146.523 180.435 146.208 180.319 145.954 180.085C145.71 179.841 145.588 179.541 145.588 179.186C145.588 178.83 145.71 178.535 145.954 178.302C146.208 178.058 146.523 177.936 146.899 177.936C147.275 177.936 147.585 178.058 147.829 178.302C148.083 178.535 148.21 178.83 148.21 179.186C148.21 179.541 148.083 179.841 147.829 180.085C147.585 180.319 147.275 180.435 146.899 180.435ZM147.951 181.441V189.885H145.817V181.441H147.951ZM153.808 190.022C152.995 190.022 152.263 189.844 151.613 189.488C150.963 189.123 150.45 188.61 150.074 187.949C149.708 187.289 149.525 186.527 149.525 185.663C149.525 184.799 149.713 184.037 150.089 183.377C150.475 182.716 150.998 182.208 151.659 181.853C152.319 181.487 153.056 181.304 153.869 181.304C154.682 181.304 155.418 181.487 156.079 181.853C156.739 182.208 157.257 182.716 157.633 183.377C158.019 184.037 158.212 184.799 158.212 185.663C158.212 186.527 158.014 187.289 157.618 187.949C157.232 188.61 156.704 189.123 156.033 189.488C155.373 189.844 154.631 190.022 153.808 190.022ZM153.808 188.162C154.194 188.162 154.555 188.071 154.89 187.888C155.235 187.695 155.51 187.411 155.713 187.035C155.916 186.659 156.018 186.201 156.018 185.663C156.018 184.86 155.804 184.246 155.378 183.819C154.961 183.382 154.448 183.164 153.838 183.164C153.229 183.164 152.716 183.382 152.299 183.819C151.893 184.246 151.689 184.86 151.689 185.663C151.689 186.466 151.887 187.085 152.284 187.522C152.69 187.949 153.198 188.162 153.808 188.162ZM164.456 181.319C165.462 181.319 166.275 181.639 166.895 182.28C167.515 182.91 167.825 183.793 167.825 184.931V189.885H165.691V185.221C165.691 184.55 165.523 184.037 165.188 183.682C164.853 183.316 164.395 183.133 163.816 183.133C163.227 183.133 162.76 183.316 162.414 183.682C162.079 184.037 161.911 184.55 161.911 185.221V189.885H159.778V181.441H161.911V182.493C162.196 182.127 162.556 181.843 162.993 181.639C163.44 181.426 163.928 181.319 164.456 181.319Z" fill="black"/>
<path d="M269.025 189.887L266.678 185.741H265.672V189.887H263.538V179.249H267.531C268.354 179.249 269.055 179.396 269.634 179.691C270.213 179.975 270.645 180.367 270.93 180.864C271.224 181.352 271.372 181.901 271.372 182.51C271.372 183.211 271.168 183.846 270.762 184.415C270.356 184.974 269.751 185.36 268.948 185.574L271.494 189.887H269.025ZM265.672 184.141H267.455C268.034 184.141 268.466 184.004 268.75 183.73C269.035 183.445 269.177 183.054 269.177 182.556C269.177 182.068 269.035 181.692 268.75 181.428C268.466 181.154 268.034 181.017 267.455 181.017H265.672V184.141ZM281.15 185.482C281.15 185.787 281.13 186.061 281.089 186.305H274.917C274.968 186.915 275.181 187.392 275.557 187.738C275.933 188.083 276.395 188.256 276.944 188.256C277.737 188.256 278.3 187.916 278.636 187.235H280.937C280.693 188.048 280.226 188.718 279.535 189.247C278.844 189.765 277.996 190.024 276.99 190.024C276.177 190.024 275.445 189.846 274.795 189.491C274.155 189.125 273.652 188.612 273.286 187.951C272.931 187.291 272.753 186.529 272.753 185.665C272.753 184.791 272.931 184.024 273.286 183.364C273.642 182.703 274.14 182.195 274.78 181.84C275.42 181.484 276.157 181.306 276.99 181.306C277.792 181.306 278.509 181.479 279.139 181.825C279.779 182.17 280.272 182.663 280.617 183.303C280.973 183.933 281.15 184.659 281.15 185.482ZM278.941 184.873C278.93 184.324 278.732 183.887 278.346 183.562C277.96 183.227 277.488 183.059 276.929 183.059C276.4 183.059 275.953 183.222 275.588 183.547C275.232 183.862 275.014 184.304 274.932 184.873H278.941ZM285.939 190.024C285.248 190.024 284.628 189.902 284.079 189.658C283.531 189.404 283.094 189.064 282.769 188.637C282.454 188.21 282.281 187.738 282.251 187.22H284.4C284.44 187.545 284.598 187.814 284.872 188.028C285.156 188.241 285.507 188.348 285.924 188.348C286.33 188.348 286.645 188.266 286.869 188.104C287.102 187.941 287.219 187.733 287.219 187.479C287.219 187.205 287.077 187.001 286.792 186.869C286.518 186.727 286.076 186.575 285.466 186.412C284.836 186.26 284.318 186.102 283.912 185.94C283.516 185.777 283.17 185.528 282.875 185.193C282.591 184.857 282.449 184.405 282.449 183.836C282.449 183.369 282.581 182.942 282.845 182.556C283.119 182.17 283.505 181.865 284.003 181.642C284.511 181.418 285.106 181.306 285.786 181.306C286.792 181.306 287.595 181.56 288.194 182.068C288.794 182.566 289.124 183.242 289.185 184.095H287.143C287.112 183.76 286.97 183.496 286.716 183.303C286.472 183.1 286.142 182.998 285.725 182.998C285.339 182.998 285.04 183.069 284.826 183.211C284.623 183.354 284.521 183.552 284.521 183.806C284.521 184.09 284.664 184.309 284.948 184.461C285.233 184.603 285.675 184.751 286.274 184.903C286.884 185.056 287.387 185.213 287.783 185.376C288.179 185.538 288.52 185.792 288.804 186.138C289.099 186.473 289.251 186.92 289.261 187.479C289.261 187.967 289.124 188.403 288.85 188.79C288.586 189.176 288.2 189.48 287.692 189.704C287.194 189.917 286.609 190.024 285.939 190.024ZM298.984 181.444V189.887H296.835V188.82C296.56 189.186 296.2 189.475 295.753 189.689C295.316 189.892 294.838 189.994 294.32 189.994C293.66 189.994 293.075 189.856 292.567 189.582C292.059 189.298 291.658 188.886 291.363 188.348C291.079 187.799 290.937 187.149 290.937 186.397V181.444H293.07V186.092C293.07 186.763 293.238 187.281 293.573 187.646C293.909 188.002 294.366 188.18 294.945 188.18C295.534 188.18 295.996 188.002 296.332 187.646C296.667 187.281 296.835 186.763 296.835 186.092V181.444H298.984ZM303.223 178.609V189.887H301.089V178.609H303.223ZM307.815 183.196V187.281C307.815 187.565 307.881 187.773 308.013 187.906C308.155 188.028 308.389 188.088 308.714 188.088H309.705V189.887H308.364C306.565 189.887 305.666 189.013 305.666 187.265V183.196H304.66V181.444H305.666V179.356H307.815V181.444H309.705V183.196H307.815Z" fill="black"/>
<path d="M440.902 179.247V185.831C440.902 186.553 441.09 187.106 441.466 187.493C441.842 187.868 442.371 188.056 443.051 188.056C443.742 188.056 444.276 187.868 444.652 187.493C445.028 187.106 445.215 186.553 445.215 185.831V179.247H447.364V185.816C447.364 186.72 447.166 187.487 446.77 188.117C446.384 188.737 445.861 189.205 445.2 189.52C444.55 189.834 443.823 189.992 443.021 189.992C442.228 189.992 441.507 189.834 440.857 189.52C440.217 189.205 439.709 188.737 439.333 188.117C438.957 187.487 438.769 186.72 438.769 185.816V179.247H440.902ZM454.105 181.32C455.111 181.32 455.924 181.64 456.543 182.28C457.163 182.91 457.473 183.794 457.473 184.932V189.885H455.339V185.222C455.339 184.551 455.172 184.038 454.836 183.682C454.501 183.317 454.044 183.134 453.465 183.134C452.875 183.134 452.408 183.317 452.063 183.682C451.727 184.038 451.56 184.551 451.56 185.222V189.885H449.426V181.442H451.56V182.494C451.844 182.128 452.205 181.843 452.642 181.64C453.089 181.427 453.576 181.32 454.105 181.32ZM460.584 180.436C460.208 180.436 459.893 180.319 459.639 180.086C459.395 179.842 459.273 179.542 459.273 179.186C459.273 178.831 459.395 178.536 459.639 178.302C459.893 178.059 460.208 177.937 460.584 177.937C460.96 177.937 461.27 178.059 461.514 178.302C461.768 178.536 461.895 178.831 461.895 179.186C461.895 179.542 461.768 179.842 461.514 180.086C461.27 180.319 460.96 180.436 460.584 180.436ZM461.636 181.442V189.885H459.502V181.442H461.636ZM466.228 183.195V187.279C466.228 187.564 466.294 187.772 466.426 187.904C466.568 188.026 466.802 188.087 467.127 188.087H468.118V189.885H466.777C464.978 189.885 464.079 189.011 464.079 187.264V183.195H463.073V181.442H464.079V179.354H466.228V181.442H468.118V183.195H466.228Z" fill="black"/>
<rect x="66.4238" y="244.035" width="38.0056" height="12.9775" fill="#DCE2EC"/>
<rect x="66.4238" y="281.114" width="38.0056" height="12.9775" fill="#DCE2EC"/>
<rect x="66.4238" y="318.193" width="38.0056" height="12.9775" fill="#DCE2EC"/>
<rect x="66.4238" y="355.271" width="38.0056" height="12.9775" fill="#DCE2EC"/>
<rect x="66.4238" y="392.35" width="38.0056" height="12.9775" fill="#DCE2EC"/>
<rect x="66.4238" y="429.429" width="38.0056" height="12.9775" fill="#DCE2EC"/>
<rect x="66.4238" y="466.507" width="38.0056" height="12.9775" fill="#DCE2EC"/>
<rect x="66.4238" y="503.586" width="11.1236" height="12.9775" fill="#DCE2EC"/>
<rect x="66.4238" y="540.665" width="11.1236" height="12.9775" fill="#DCE2EC"/>
<rect x="66.4238" y="577.743" width="11.1236" height="12.9775" fill="#DCE2EC"/>
<rect x="66.4238" y="614.822" width="65.8146" height="12.9775" fill="#DCE2EC"/>
<rect x="66.4238" y="651.9" width="31.5169" height="12.9775" fill="#DCE2EC"/>
<rect x="66.4238" y="688.979" width="38.0056" height="12.9775" fill="#DCE2EC"/>
<rect x="216.885" y="245.281" width="123.287" height="12.9775" fill="#DCE2EC"/>
<rect x="216.885" y="282.36" width="142.753" height="12.9775" fill="#DCE2EC"/>
<rect x="216.885" y="319.439" width="131.629" height="12.9775" fill="#DCE2EC"/>
<rect x="216.885" y="356.517" width="60.2528" height="12.9775" fill="#DCE2EC"/>
<rect x="216.885" y="393.596" width="109.226" height="12.7007" fill="#DCE2EC"/>
<rect x="216.885" y="430.398" width="109.226" height="12.7007" fill="#DCE2EC"/>
<rect x="216.885" y="467.199" width="109.226" height="12.7007" fill="#DCE2EC"/>
<rect x="216.885" y="504.001" width="109.226" height="12.7007" fill="#DCE2EC"/>
<rect x="216.885" y="540.803" width="109.226" height="12.7007" fill="#DCE2EC"/>
<rect x="216.885" y="577.605" width="109.226" height="12.7007" fill="#DCE2EC"/>
<rect x="216.885" y="614.407" width="109.226" height="12.7007" fill="#DCE2EC"/>
<rect x="216.885" y="651.208" width="109.226" height="12.7007" fill="#DCE2EC"/>
<rect x="216.885" y="688.01" width="109.226" height="12.7007" fill="#DCE2EC"/>
<rect x="409.598" y="239.498" width="108.253" height="13.9681" fill="#DCE2EC"/>
<rect x="409.598" y="277.567" width="109.226" height="12.7007" fill="#DCE2EC"/>
<rect x="409.598" y="314.369" width="109.226" height="12.7007" fill="#DCE2EC"/>
<rect x="409.598" y="351.171" width="109.226" height="12.7007" fill="#DCE2EC"/>
<rect x="409.598" y="387.972" width="87.3005" height="13.9681" fill="#DCE2EC"/>
<rect x="409.598" y="426.042" width="87.3005" height="13.9681" fill="#DCE2EC"/>
<rect x="409.598" y="464.111" width="87.3005" height="13.9681" fill="#DCE2EC"/>
<rect x="409.598" y="502.18" width="76.8244" height="13.9681" fill="#DCE2EC"/>
<rect x="409.598" y="540.249" width="94.2845" height="13.9681" fill="#DCE2EC"/>
<rect x="409.598" y="578.319" width="76.8244" height="13.9681" fill="#DCE2EC"/>
<rect x="409.598" y="616.388" width="90.4253" height="13.9681" fill="#DCE2EC"/>
<rect x="409.598" y="654.457" width="76.8244" height="13.9681" fill="#DCE2EC"/>
<rect x="409.598" y="692.526" width="76.8244" height="13.9681" fill="#DCE2EC"/>
</svg>
