<svg width="346" height="490" viewBox="0 0 346 490" fill="none" xmlns="http://www.w3.org/2000/svg">
<mask id="path-1-inside-1_406_6731" fill="white">
<rect x="0.850342" y="0.218796" width="344.771" height="489.143" rx="3"/>
</mask>
<rect x="0.850342" y="0.218796" width="344.771" height="489.143" rx="3" fill="#F5F5F5" stroke="black" stroke-width="6.46445" mask="url(#path-1-inside-1_406_6731)"/>
<rect x="4" y="85" width="338" height="14" fill="#DBDEE6"/>
<line x1="91.7943" y1="42.0594" x2="91.7943" y2="50.7063" stroke="#51535A" stroke-width="3.23222"/>
<line x1="155.865" y1="42.0594" x2="155.865" y2="50.7063" stroke="#51535A" stroke-width="3.23222"/>
<path d="M30.0859 27.4447C30.0859 27.9982 29.9525 28.517 29.6856 29.0012C29.4287 29.4855 29.0186 29.8758 28.4553 30.1723C27.9019 30.4688 27.2002 30.617 26.3503 30.617H24.616V34.5897H22.5407V24.2428H26.3503C27.1508 24.2428 27.8327 24.3812 28.396 24.6579C28.9593 24.9346 29.3793 25.3151 29.656 25.7993C29.9426 26.2836 30.0859 26.832 30.0859 27.4447ZM26.2614 28.9419C26.8346 28.9419 27.2595 28.8135 27.5362 28.5565C27.8129 28.2897 27.9513 27.9191 27.9513 27.4447C27.9513 26.4367 27.388 25.9327 26.2614 25.9327H24.616V28.9419H26.2614ZM37.9038 32.6182H33.7829L33.101 34.5897H30.9219L34.6426 24.228H37.0589L40.7796 34.5897H38.5857L37.9038 32.6182ZM37.3405 30.9579L35.8433 26.6295L34.3462 30.9579H37.3405ZM49.2116 24.2428V25.9179H46.4544V34.5897H44.3791V25.9179H41.6219V24.2428H49.2116ZM59.3087 24.2428V34.5897H57.2334V30.1871H52.8011V34.5897H50.7258V24.2428H52.8011V28.4972H57.2334V24.2428H59.3087ZM66.1542 34.6935C65.1857 34.6935 64.2963 34.4662 63.4859 34.0116C62.6756 33.557 62.0332 32.9295 61.5589 32.129C61.0845 31.3187 60.8473 30.4045 60.8473 29.3866C60.8473 28.3786 61.0845 27.4744 61.5589 26.6739C62.0332 25.8636 62.6756 25.2311 63.4859 24.7765C64.2963 24.3219 65.1857 24.0946 66.1542 24.0946C67.1325 24.0946 68.022 24.3219 68.8224 24.7765C69.6328 25.2311 70.2702 25.8636 70.7347 26.6739C71.209 27.4744 71.4462 28.3786 71.4462 29.3866C71.4462 30.4045 71.209 31.3187 70.7347 32.129C70.2702 32.9295 69.6328 33.557 68.8224 34.0116C68.0121 34.4662 67.1227 34.6935 66.1542 34.6935ZM66.1542 32.8405C66.7768 32.8405 67.3252 32.7022 67.7996 32.4255C68.274 32.1389 68.6445 31.7337 68.9114 31.2099C69.1782 30.6862 69.3116 30.0784 69.3116 29.3866C69.3116 28.6949 69.1782 28.092 68.9114 27.5782C68.6445 27.0544 68.274 26.6542 67.7996 26.3774C67.3252 26.1007 66.7768 25.9624 66.1542 25.9624C65.5316 25.9624 64.9782 26.1007 64.4939 26.3774C64.0196 26.6542 63.649 27.0544 63.3822 27.5782C63.1153 28.092 62.9819 28.6949 62.9819 29.3866C62.9819 30.0784 63.1153 30.6862 63.3822 31.2099C63.649 31.7337 64.0196 32.1389 64.4939 32.4255C64.9782 32.7022 65.5316 32.8405 66.1542 32.8405ZM75.0655 32.9443H78.4749V34.5897H72.9902V24.2428H75.0655V32.9443ZM84.5968 34.6935C83.6284 34.6935 82.739 34.4662 81.9286 34.0116C81.1182 33.557 80.4759 32.9295 80.0015 32.129C79.5272 31.3187 79.29 30.4045 79.29 29.3866C79.29 28.3786 79.5272 27.4744 80.0015 26.6739C80.4759 25.8636 81.1182 25.2311 81.9286 24.7765C82.739 24.3219 83.6284 24.0946 84.5968 24.0946C85.5752 24.0946 86.4646 24.3219 87.2651 24.7765C88.0755 25.2311 88.7129 25.8636 89.1773 26.6739C89.6517 27.4744 89.8889 28.3786 89.8889 29.3866C89.8889 30.4045 89.6517 31.3187 89.1773 32.129C88.7129 32.9295 88.0755 33.557 87.2651 34.0116C86.4547 34.4662 85.5653 34.6935 84.5968 34.6935ZM84.5968 32.8405C85.2194 32.8405 85.7679 32.7022 86.2423 32.4255C86.7166 32.1389 87.0872 31.7337 87.354 31.2099C87.6209 30.6862 87.7543 30.0784 87.7543 29.3866C87.7543 28.6949 87.6209 28.092 87.354 27.5782C87.0872 27.0544 86.7166 26.6542 86.2423 26.3774C85.7679 26.1007 85.2194 25.9624 84.5968 25.9624C83.9743 25.9624 83.4208 26.1007 82.9366 26.3774C82.4622 26.6542 82.0917 27.0544 81.8248 27.5782C81.558 28.092 81.4246 28.6949 81.4246 29.3866C81.4246 30.0784 81.558 30.6862 81.8248 31.2099C82.0917 31.7337 82.4622 32.1389 82.9366 32.4255C83.4208 32.7022 83.9743 32.8405 84.5968 32.8405ZM98.6371 27.3558C98.4 26.921 98.0738 26.5899 97.6588 26.3626C97.2437 26.1353 96.7595 26.0217 96.2061 26.0217C95.5933 26.0217 95.0498 26.16 94.5755 26.4367C94.1011 26.7135 93.7305 27.1087 93.4637 27.6226C93.1969 28.1365 93.0634 28.7295 93.0634 29.4015C93.0634 30.0932 93.1969 30.6961 93.4637 31.2099C93.7404 31.7238 94.1209 32.1191 94.6051 32.3958C95.0893 32.6725 95.6526 32.8109 96.295 32.8109C97.0856 32.8109 97.7329 32.6034 98.2369 32.1883C98.7409 31.7634 99.072 31.1754 99.2301 30.4243H95.6724V28.8382H101.276V30.6467C101.137 31.3681 100.841 32.0351 100.386 32.6478C99.9317 33.2606 99.3437 33.7547 98.6223 34.1302C97.9108 34.4959 97.1103 34.6787 96.2209 34.6787C95.2228 34.6787 94.3185 34.4563 93.5082 34.0116C92.7077 33.557 92.0752 32.9295 91.6107 32.129C91.1561 31.3285 90.9288 30.4194 90.9288 29.4015C90.9288 28.3836 91.1561 27.4744 91.6107 26.6739C92.0752 25.8636 92.7077 25.236 93.5082 24.7913C94.3185 24.3367 95.2178 24.1094 96.2061 24.1094C97.3722 24.1094 98.3851 24.396 99.2449 24.9692C100.105 25.5325 100.698 26.328 101.024 27.3558H98.6371ZM111.038 24.2428L107.54 30.9876V34.5897H105.465V30.9876L101.951 24.2428H104.293L106.517 28.9716L108.726 24.2428H111.038ZM117.843 32.9443H121.252V34.5897H115.767V24.2428H117.843V32.9443ZM128.916 32.6182H124.795L124.113 34.5897H121.934L125.654 24.228H128.071L131.791 34.5897H129.598L128.916 32.6182ZM128.352 30.9579L126.855 26.6295L125.358 30.9579H128.352ZM139.052 29.2829C139.635 29.3916 140.115 29.6831 140.49 30.1575C140.866 30.6318 141.054 31.1754 141.054 31.7881C141.054 32.3415 140.915 32.8307 140.638 33.2556C140.372 33.6707 139.981 33.9968 139.467 34.234C138.954 34.4711 138.346 34.5897 137.644 34.5897H133.182V24.2428H137.451C138.153 24.2428 138.756 24.3565 139.26 24.5838C139.774 24.8111 140.159 25.1273 140.416 25.5325C140.683 25.9377 140.816 26.3972 140.816 26.9111C140.816 27.5139 140.653 28.0179 140.327 28.4231C140.011 28.8283 139.586 29.1149 139.052 29.2829ZM135.257 28.5121H137.155C137.649 28.5121 138.03 28.4033 138.296 28.1859C138.563 27.9586 138.697 27.6375 138.697 27.2224C138.697 26.8073 138.563 26.4862 138.296 26.2589C138.03 26.0316 137.649 25.9179 137.155 25.9179H135.257V28.5121ZM137.348 32.8998C137.852 32.8998 138.242 32.7813 138.519 32.5441C138.805 32.3069 138.949 31.9709 138.949 31.5361C138.949 31.0914 138.8 30.7455 138.504 30.4984C138.207 30.2415 137.807 30.113 137.303 30.113H135.257V32.8998H137.348ZM144.976 32.4107L143.241 36.5761H141.907L142.871 32.4107H144.976ZM152.079 24.2428V34.5897H150.004V24.2428H152.079ZM162.979 34.5897H160.904L156.205 27.4892V34.5897H154.129V24.228H156.205L160.904 31.3434V24.228H162.979V34.5897ZM164.526 29.4015C164.526 28.3836 164.753 27.4744 165.208 26.6739C165.672 25.8636 166.3 25.236 167.09 24.7913C167.891 24.3367 168.785 24.1094 169.773 24.1094C170.93 24.1094 171.943 24.4059 172.812 24.9989C173.682 25.5918 174.29 26.412 174.636 27.4596H172.249C172.012 26.9655 171.676 26.5949 171.241 26.3478C170.816 26.1007 170.322 25.9772 169.759 25.9772C169.156 25.9772 168.617 26.1205 168.143 26.4071C167.678 26.6838 167.313 27.0791 167.046 27.593C166.789 28.1069 166.66 28.7097 166.66 29.4015C166.66 30.0834 166.789 30.6862 167.046 31.2099C167.313 31.7238 167.678 32.1241 168.143 32.4107C168.617 32.6874 169.156 32.8257 169.759 32.8257C170.322 32.8257 170.816 32.7022 171.241 32.4551C171.676 32.1982 172.012 31.8227 172.249 31.3285H174.636C174.29 32.386 173.682 33.2111 172.812 33.8041C171.952 34.3871 170.94 34.6787 169.773 34.6787C168.785 34.6787 167.891 34.4563 167.09 34.0116C166.3 33.557 165.672 32.9295 165.208 32.129C164.753 31.3285 164.526 30.4194 164.526 29.4015Z" fill="black"/>
<path d="M26.4333 48.0433H23.686L23.2314 49.3577H21.7787L24.2592 42.4499H25.87L28.3505 49.3577H26.8879L26.4333 48.0433ZM26.0578 46.9365L25.0596 44.0509L24.0615 46.9365H26.0578ZM28.9219 46.6203C28.9219 46.0537 29.0372 45.5596 29.2678 45.1379C29.4984 44.7097 29.8179 44.3803 30.2264 44.1497C30.6348 43.9125 31.1026 43.7939 31.6297 43.7939C32.3083 43.7939 32.8683 43.9652 33.3097 44.3078C33.7577 44.6438 34.0574 45.1182 34.209 45.7309H32.7167C32.6377 45.4937 32.5026 45.3092 32.3115 45.1774C32.1271 45.0391 31.8965 44.9699 31.6198 44.9699C31.2245 44.9699 30.9115 45.1149 30.6809 45.4047C30.4504 45.688 30.3351 46.0932 30.3351 46.6203C30.3351 47.1408 30.4504 47.5459 30.6809 47.8358C30.9115 48.1191 31.2245 48.2608 31.6198 48.2608C32.1798 48.2608 32.5454 48.0104 32.7167 47.5097H34.209C34.0574 48.1026 33.7577 48.5737 33.3097 48.9229C32.8617 49.2721 32.3017 49.4466 31.6297 49.4466C31.1026 49.4466 30.6348 49.3314 30.2264 49.1008C29.8179 48.8636 29.4984 48.5342 29.2678 48.1125C29.0372 47.6843 28.9219 47.1869 28.9219 46.6203ZM34.8668 46.6203C34.8668 46.0537 34.9821 45.5596 35.2127 45.1379C35.4432 44.7097 35.7628 44.3803 36.1712 44.1497C36.5797 43.9125 37.0475 43.7939 37.5745 43.7939C38.2531 43.7939 38.8131 43.9652 39.2546 44.3078C39.7026 44.6438 40.0023 45.1182 40.1539 45.7309H38.6616C38.5826 45.4937 38.4475 45.3092 38.2564 45.1774C38.072 45.0391 37.8414 44.9699 37.5647 44.9699C37.1694 44.9699 36.8564 45.1149 36.6258 45.4047C36.3952 45.688 36.28 46.0932 36.28 46.6203C36.28 47.1408 36.3952 47.5459 36.6258 47.8358C36.8564 48.1191 37.1694 48.2608 37.5647 48.2608C38.1247 48.2608 38.4903 48.0104 38.6616 47.5097H40.1539C40.0023 48.1026 39.7026 48.5737 39.2546 48.9229C38.8066 49.2721 38.2466 49.4466 37.5745 49.4466C37.0475 49.4466 36.5797 49.3314 36.1712 49.1008C35.7628 48.8636 35.4432 48.5342 35.2127 48.1125C34.9821 47.6843 34.8668 47.1869 34.8668 46.6203ZM46.3359 43.8829V49.3577H44.9425V48.6659C44.7646 48.9031 44.5307 49.0909 44.2409 49.2292C43.9576 49.361 43.6479 49.4269 43.3119 49.4269C42.8837 49.4269 42.5048 49.3379 42.1754 49.1601C41.846 48.9756 41.5858 48.7088 41.3947 48.3596C41.2102 48.0038 41.118 47.5822 41.118 47.0946V43.8829H42.5015V46.897C42.5015 47.3318 42.6103 47.6678 42.8277 47.905C43.0451 48.1356 43.3416 48.2509 43.7171 48.2509C44.0992 48.2509 44.399 48.1356 44.6164 47.905C44.8338 47.6678 44.9425 47.3318 44.9425 46.897V43.8829H46.3359ZM49.0845 44.7327C49.2624 44.4429 49.493 44.2156 49.7763 44.0509C50.0662 43.8861 50.3956 43.8038 50.7646 43.8038V45.2565H50.3989C49.9641 45.2565 49.6347 45.3586 49.4107 45.5629C49.1933 45.7671 49.0845 46.1229 49.0845 46.6302V49.3577H47.701V43.8829H49.0845V44.7327ZM51.3407 46.6005C51.3407 46.0471 51.4494 45.5563 51.6668 45.128C51.8908 44.6998 52.1906 44.3704 52.5661 44.1398C52.9482 43.9092 53.3732 43.7939 53.8409 43.7939C54.2494 43.7939 54.6052 43.8763 54.9082 44.041C55.2179 44.2057 55.4649 44.4132 55.6494 44.6636V43.8829H57.0428V49.3577H55.6494V48.5572C55.4715 48.8142 55.2245 49.0283 54.9082 49.1996C54.5986 49.3643 54.2395 49.4466 53.831 49.4466C53.3699 49.4466 52.9482 49.3281 52.5661 49.0909C52.1906 48.8537 51.8908 48.521 51.6668 48.0928C51.4494 47.6579 51.3407 47.1605 51.3407 46.6005ZM55.6494 46.6203C55.6494 46.2843 55.5835 45.9977 55.4518 45.7605C55.32 45.5167 55.1421 45.3323 54.9181 45.2071C54.6941 45.0753 54.4536 45.0094 54.1967 45.0094C53.9397 45.0094 53.7026 45.072 53.4852 45.1972C53.2677 45.3224 53.0899 45.5069 52.9515 45.7506C52.8197 45.9878 52.7539 46.2711 52.7539 46.6005C52.7539 46.9299 52.8197 47.2198 52.9515 47.4702C53.0899 47.7139 53.2677 47.9017 53.4852 48.0335C53.7092 48.1652 53.9463 48.2311 54.1967 48.2311C54.4536 48.2311 54.6941 48.1685 54.9181 48.0433C55.1421 47.9116 55.32 47.7271 55.4518 47.4899C55.5835 47.2462 55.6494 46.9563 55.6494 46.6203ZM60.0049 45.0193V47.6678C60.0049 47.8523 60.0477 47.9873 60.1334 48.073C60.2256 48.1521 60.3772 48.1916 60.588 48.1916H61.2303V49.3577H60.3607C59.1946 49.3577 58.6115 48.7911 58.6115 47.6579V45.0193H57.9593V43.8829H58.6115V42.529H60.0049V43.8829H61.2303V45.0193H60.0049ZM67.3149 46.5017C67.3149 46.6993 67.3017 46.8772 67.2754 47.0353H63.273C63.3059 47.4306 63.4443 47.7403 63.6881 47.9643C63.9318 48.1883 64.2316 48.3003 64.5874 48.3003C65.1012 48.3003 65.4669 48.0796 65.6843 47.6382H67.1765C67.0184 48.1652 66.7154 48.6001 66.2674 48.9426C65.8194 49.2786 65.2692 49.4466 64.617 49.4466C64.0899 49.4466 63.6156 49.3314 63.1939 49.1008C62.7789 48.8636 62.4527 48.5309 62.2156 48.1026C61.985 47.6744 61.8697 47.1803 61.8697 46.6203C61.8697 46.0537 61.985 45.5563 62.2156 45.128C62.4462 44.6998 62.769 44.3704 63.184 44.1398C63.5991 43.9092 64.0768 43.7939 64.617 43.7939C65.1375 43.7939 65.6019 43.9059 66.0104 44.1299C66.4255 44.3539 66.745 44.6734 66.969 45.0885C67.1996 45.497 67.3149 45.968 67.3149 46.5017ZM65.8819 46.1064C65.8754 45.7506 65.7469 45.4673 65.4965 45.2565C65.2462 45.0391 64.9398 44.9304 64.5775 44.9304C64.2349 44.9304 63.945 45.0358 63.7078 45.2466C63.4772 45.4509 63.3356 45.7375 63.2829 46.1064H65.8819Z" fill="#51535A"/>
<path d="M101.188 45.8989C101.188 45.2203 101.34 44.6142 101.643 44.0805C101.952 43.5403 102.371 43.1219 102.898 42.8254C103.431 42.5224 104.028 42.3708 104.687 42.3708C105.457 42.3708 106.133 42.5685 106.712 42.9638C107.292 43.3591 107.697 43.9059 107.928 44.6043H106.337C106.179 44.2749 105.955 44.0278 105.665 43.8631C105.382 43.6984 105.052 43.616 104.677 43.616C104.275 43.616 103.916 43.7116 103.599 43.9026C103.29 44.0871 103.046 44.3506 102.868 44.6932C102.697 45.0358 102.611 45.4377 102.611 45.8989C102.611 46.3535 102.697 46.7553 102.868 47.1045C103.046 47.4471 103.29 47.7139 103.599 47.905C103.916 48.0895 104.275 48.1817 104.677 48.1817C105.052 48.1817 105.382 48.0994 105.665 47.9346C105.955 47.7633 106.179 47.513 106.337 47.1836H107.928C107.697 47.8885 107.292 48.4386 106.712 48.8339C106.139 49.2227 105.464 49.417 104.687 49.417C104.028 49.417 103.431 49.2688 102.898 48.9723C102.371 48.6692 101.952 48.2509 101.643 47.7172C101.34 47.1836 101.188 46.5775 101.188 45.8989ZM108.754 46.6005C108.754 46.0471 108.863 45.5563 109.08 45.128C109.304 44.6998 109.604 44.3704 109.979 44.1398C110.361 43.9092 110.786 43.7939 111.254 43.7939C111.663 43.7939 112.018 43.8763 112.321 44.041C112.631 44.2057 112.878 44.4132 113.063 44.6636V43.8829H114.456V49.3577H113.063V48.5572C112.885 48.8142 112.638 49.0283 112.321 49.1996C112.012 49.3643 111.653 49.4467 111.244 49.4467C110.783 49.4467 110.361 49.3281 109.979 49.0909C109.604 48.8537 109.304 48.521 109.08 48.0928C108.863 47.6579 108.754 47.1605 108.754 46.6005ZM113.063 46.6203C113.063 46.2843 112.997 45.9977 112.865 45.7605C112.733 45.5167 112.555 45.3323 112.331 45.2071C112.107 45.0753 111.867 45.0095 111.61 45.0095C111.353 45.0095 111.116 45.072 110.898 45.1972C110.681 45.3224 110.503 45.5069 110.365 45.7506C110.233 45.9878 110.167 46.2711 110.167 46.6005C110.167 46.9299 110.233 47.2198 110.365 47.4702C110.503 47.7139 110.681 47.9017 110.898 48.0335C111.122 48.1652 111.36 48.2311 111.61 48.2311C111.867 48.2311 112.107 48.1685 112.331 48.0434C112.555 47.9116 112.733 47.7271 112.865 47.4899C112.997 47.2462 113.063 46.9563 113.063 46.6203ZM117.191 44.7327C117.369 44.4429 117.599 44.2156 117.883 44.0509C118.173 43.8861 118.502 43.8038 118.871 43.8038V45.2565H118.505C118.07 45.2565 117.741 45.3586 117.517 45.5629C117.3 45.7671 117.191 46.1229 117.191 46.6302V49.3577H115.807V43.8829H117.191V44.7327ZM120.504 43.2306C120.261 43.2306 120.056 43.1549 119.892 43.0033C119.734 42.8452 119.655 42.6508 119.655 42.4203C119.655 42.1897 119.734 41.9986 119.892 41.8471C120.056 41.689 120.261 41.6099 120.504 41.6099C120.748 41.6099 120.949 41.689 121.107 41.8471C121.272 41.9986 121.354 42.1897 121.354 42.4203C121.354 42.6508 121.272 42.8452 121.107 43.0033C120.949 43.1549 120.748 43.2306 120.504 43.2306ZM121.186 43.8829V49.3577H119.803V43.8829H121.186ZM125.587 43.8038C126.239 43.8038 126.766 44.0113 127.168 44.4264C127.57 44.8349 127.771 45.408 127.771 46.1459V49.3577H126.388V46.3337C126.388 45.8989 126.279 45.5662 126.062 45.3356C125.844 45.0984 125.548 44.9798 125.172 44.9798C124.79 44.9798 124.487 45.0984 124.263 45.3356C124.045 45.5662 123.937 45.8989 123.937 46.3337V49.3577H122.553V43.8829H123.937V44.5647C124.121 44.3276 124.355 44.1431 124.638 44.0113C124.928 43.873 125.245 43.8038 125.587 43.8038ZM131.231 43.7939C131.64 43.7939 131.999 43.8763 132.309 44.041C132.618 44.1991 132.862 44.4066 133.04 44.6636V43.8829H134.433V49.3972C134.433 49.9045 134.331 50.3558 134.127 50.7511C133.923 51.153 133.616 51.4693 133.208 51.6998C132.799 51.937 132.305 52.0556 131.725 52.0556C130.948 52.0556 130.309 51.8744 129.808 51.5121C129.314 51.1497 129.034 50.6556 128.968 50.0297H130.342C130.414 50.2801 130.569 50.4777 130.806 50.6227C131.05 50.7742 131.343 50.85 131.686 50.85C132.088 50.85 132.414 50.7281 132.664 50.4843C132.915 50.2471 133.04 49.8848 133.04 49.3972V48.5474C132.862 48.8043 132.615 49.0184 132.299 49.1897C131.989 49.361 131.633 49.4467 131.231 49.4467C130.77 49.4467 130.348 49.3281 129.966 49.0909C129.584 48.8537 129.281 48.521 129.057 48.0928C128.84 47.6579 128.731 47.1605 128.731 46.6005C128.731 46.0471 128.84 45.5563 129.057 45.128C129.281 44.6998 129.581 44.3704 129.956 44.1398C130.339 43.9092 130.764 43.7939 131.231 43.7939ZM133.04 46.6203C133.04 46.2843 132.974 45.9977 132.842 45.7605C132.71 45.5167 132.533 45.3323 132.309 45.2071C132.085 45.0753 131.844 45.0095 131.587 45.0095C131.33 45.0095 131.093 45.072 130.876 45.1972C130.658 45.3224 130.48 45.5069 130.342 45.7506C130.21 45.9878 130.144 46.2711 130.144 46.6005C130.144 46.9299 130.21 47.2198 130.342 47.4702C130.48 47.7139 130.658 47.9017 130.876 48.0335C131.1 48.1652 131.337 48.2311 131.587 48.2311C131.844 48.2311 132.085 48.1685 132.309 48.0434C132.533 47.9116 132.71 47.7271 132.842 47.4899C132.974 47.2462 133.04 46.9563 133.04 46.6203Z" fill="#51535A"/>
<path d="M166.99 42.4598V49.3577H165.606V42.4598H166.99ZM171.391 43.8038C172.043 43.8038 172.57 44.0113 172.972 44.4264C173.374 44.8349 173.575 45.408 173.575 46.1459V49.3577H172.191V46.3337C172.191 45.8989 172.082 45.5662 171.865 45.3356C171.648 45.0984 171.351 44.9798 170.976 44.9798C170.593 44.9798 170.29 45.0984 170.066 45.3356C169.849 45.5662 169.74 45.8989 169.74 46.3337V49.3577H168.357V43.8829H169.74V44.5647C169.925 44.3276 170.159 44.1431 170.442 44.0113C170.732 43.873 171.048 43.8038 171.391 43.8038ZM176.985 49.4467C176.537 49.4467 176.135 49.3676 175.78 49.2095C175.424 49.0448 175.141 48.8241 174.93 48.5474C174.726 48.2707 174.614 47.9643 174.594 47.6283H175.987C176.014 47.8391 176.116 48.0137 176.294 48.1521C176.478 48.2904 176.705 48.3596 176.975 48.3596C177.239 48.3596 177.443 48.3069 177.588 48.2015C177.74 48.0961 177.815 47.961 177.815 47.7963C177.815 47.6184 177.723 47.4866 177.539 47.401C177.361 47.3088 177.074 47.2099 176.679 47.1045C176.271 47.0057 175.935 46.9036 175.671 46.7982C175.414 46.6928 175.19 46.5313 174.999 46.3139C174.815 46.0965 174.722 45.8033 174.722 45.4344C174.722 45.1313 174.808 44.8546 174.979 44.6043C175.157 44.3539 175.407 44.1563 175.73 44.0113C176.06 43.8664 176.445 43.7939 176.887 43.7939C177.539 43.7939 178.059 43.9586 178.448 44.288C178.837 44.6109 179.051 45.049 179.09 45.6024H177.766C177.746 45.385 177.654 45.2137 177.489 45.0885C177.331 44.9567 177.117 44.8909 176.847 44.8909C176.597 44.8909 176.402 44.937 176.264 45.0292C176.132 45.1215 176.066 45.2499 176.066 45.4146C176.066 45.5991 176.159 45.7408 176.343 45.8396C176.527 45.9318 176.814 46.0273 177.203 46.1262C177.598 46.225 177.924 46.3271 178.181 46.4325C178.438 46.5379 178.659 46.7026 178.843 46.9266C179.034 47.1441 179.133 47.4339 179.14 47.7963C179.14 48.1125 179.051 48.3958 178.873 48.6462C178.702 48.8965 178.451 49.0942 178.122 49.2391C177.799 49.3775 177.42 49.4467 176.985 49.4467ZM181.886 45.0193V47.6678C181.886 47.8523 181.929 47.9874 182.015 48.073C182.107 48.1521 182.258 48.1916 182.469 48.1916H183.112V49.3577H182.242C181.076 49.3577 180.493 48.7911 180.493 47.6579V45.0193H179.841V43.8829H180.493V42.529H181.886V43.8829H183.112V45.0193H181.886ZM183.751 46.6005C183.751 46.0471 183.86 45.5563 184.077 45.128C184.301 44.6998 184.601 44.3704 184.976 44.1398C185.359 43.9092 185.783 43.7939 186.251 43.7939C186.66 43.7939 187.015 43.8763 187.319 44.041C187.628 44.2057 187.875 44.4132 188.06 44.6636V43.8829H189.453V49.3577H188.06V48.5572C187.882 48.8142 187.635 49.0283 187.319 49.1996C187.009 49.3643 186.65 49.4467 186.241 49.4467C185.78 49.4467 185.359 49.3281 184.976 49.0909C184.601 48.8537 184.301 48.521 184.077 48.0928C183.86 47.6579 183.751 47.1605 183.751 46.6005ZM188.06 46.6203C188.06 46.2843 187.994 45.9977 187.862 45.7605C187.73 45.5168 187.552 45.3323 187.328 45.2071C187.104 45.0753 186.864 45.0095 186.607 45.0095C186.35 45.0095 186.113 45.072 185.895 45.1972C185.678 45.3224 185.5 45.5069 185.362 45.7506C185.23 45.9878 185.164 46.2711 185.164 46.6005C185.164 46.9299 185.23 47.2198 185.362 47.4702C185.5 47.7139 185.678 47.9017 185.895 48.0335C186.119 48.1652 186.357 48.2311 186.607 48.2311C186.864 48.2311 187.104 48.1685 187.328 48.0434C187.552 47.9116 187.73 47.7271 187.862 47.4899C187.994 47.2462 188.06 46.9563 188.06 46.6203ZM193.838 43.8038C194.491 43.8038 195.018 44.0113 195.42 44.4264C195.821 44.8349 196.022 45.408 196.022 46.1459V49.3577H194.639V46.3337C194.639 45.8989 194.53 45.5662 194.313 45.3356C194.095 45.0984 193.799 44.9798 193.423 44.9798C193.041 44.9798 192.738 45.0984 192.514 45.3356C192.297 45.5662 192.188 45.8989 192.188 46.3337V49.3577H190.804V43.8829H192.188V44.5647C192.372 44.3276 192.606 44.1431 192.89 44.0113C193.179 43.873 193.496 43.8038 193.838 43.8038ZM198.949 45.0193V47.6678C198.949 47.8523 198.992 47.9874 199.077 48.073C199.17 48.1521 199.321 48.1916 199.532 48.1916H200.174V49.3577H199.305C198.138 49.3577 197.555 48.7911 197.555 47.6579V45.0193H196.903V43.8829H197.555V42.529H198.949V43.8829H200.174V45.0193H198.949Z" fill="#51535A"/>
<path d="M25.1503 60.0295H22.8971L22.482 61.1784H21.7705L23.6382 56.042H24.4165L26.2768 61.1784H25.5653L25.1503 60.0295ZM24.9575 59.4811L24.0237 56.8721L23.0898 59.4811H24.9575ZM28.6029 60.5558L29.8629 57.1167H30.5818L28.9883 61.1784H28.2026L26.6091 57.1167H27.3355L28.6029 60.5558ZM31.5939 56.4571C31.4654 56.4571 31.3567 56.4126 31.2678 56.3236C31.1788 56.2347 31.1344 56.126 31.1344 55.9975C31.1344 55.8691 31.1788 55.7603 31.2678 55.6714C31.3567 55.5825 31.4654 55.538 31.5939 55.538C31.7174 55.538 31.8212 55.5825 31.9052 55.6714C31.9941 55.7603 32.0386 55.8691 32.0386 55.9975C32.0386 56.126 31.9941 56.2347 31.9052 56.3236C31.8212 56.4126 31.7174 56.4571 31.5939 56.4571ZM31.92 57.1167V61.1784H31.2455V57.1167H31.92ZM32.8175 59.1327C32.8175 58.7177 32.9015 58.3545 33.0695 58.0432C33.2375 57.7269 33.4673 57.4824 33.7588 57.3094C34.0553 57.1365 34.3839 57.05 34.7446 57.05C35.1004 57.05 35.4092 57.1266 35.6711 57.2798C35.933 57.4329 36.1281 57.6256 36.2566 57.8579V57.1167H36.9385V61.1784H36.2566V60.4224C36.1232 60.6596 35.9231 60.8572 35.6563 61.0153C35.3944 61.1685 35.088 61.2451 34.7372 61.2451C34.3765 61.2451 34.0504 61.1561 33.7588 60.9783C33.4673 60.8004 33.2375 60.5508 33.0695 60.2297C32.9015 59.9085 32.8175 59.5428 32.8175 59.1327ZM36.2566 59.1401C36.2566 58.8338 36.1949 58.5669 36.0713 58.3397C35.9478 58.1124 35.7798 57.9394 35.5673 57.8208C35.3598 57.6973 35.13 57.6355 34.878 57.6355C34.626 57.6355 34.3963 57.6948 34.1887 57.8134C33.9812 57.932 33.8157 58.1049 33.6921 58.3322C33.5686 58.5595 33.5068 58.8264 33.5068 59.1327C33.5068 59.444 33.5686 59.7158 33.6921 59.948C33.8157 60.1753 33.9812 60.3507 34.1887 60.4743C34.3963 60.5928 34.626 60.6521 34.878 60.6521C35.13 60.6521 35.3598 60.5928 35.5673 60.4743C35.7798 60.3507 35.9478 60.1753 36.0713 59.948C36.1949 59.7158 36.2566 59.4465 36.2566 59.1401ZM38.901 57.6726V60.0666C38.901 60.2643 38.943 60.4051 39.027 60.4891C39.111 60.5681 39.2568 60.6077 39.4643 60.6077H39.9609V61.1784H39.3531C38.9776 61.1784 38.696 61.0919 38.5082 60.919C38.3204 60.746 38.2265 60.4619 38.2265 60.0666V57.6726H37.7003V57.1167H38.2265V56.0939H38.901V57.1167H39.9609V57.6726H38.901ZM41.1265 56.4571C40.998 56.4571 40.8893 56.4126 40.8003 56.3236C40.7114 56.2347 40.6669 56.126 40.6669 55.9975C40.6669 55.8691 40.7114 55.7603 40.8003 55.6714C40.8893 55.5825 40.998 55.538 41.1265 55.538C41.25 55.538 41.3538 55.5825 41.4378 55.6714C41.5267 55.7603 41.5712 55.8691 41.5712 55.9975C41.5712 56.126 41.5267 56.2347 41.4378 56.3236C41.3538 56.4126 41.25 56.4571 41.1265 56.4571ZM41.4526 57.1167V61.1784H40.7781V57.1167H41.4526ZM44.3735 61.2451C43.9931 61.2451 43.6472 61.1586 43.3359 60.9857C43.0295 60.8127 42.7874 60.5681 42.6095 60.2519C42.4366 59.9307 42.3501 59.5601 42.3501 59.1401C42.3501 58.7251 42.4391 58.3594 42.6169 58.0432C42.7998 57.722 43.0468 57.4774 43.3581 57.3094C43.6694 57.1365 44.0178 57.05 44.4032 57.05C44.7886 57.05 45.137 57.1365 45.4483 57.3094C45.7595 57.4774 46.0041 57.7195 46.182 58.0358C46.3648 58.352 46.4563 58.7201 46.4563 59.1401C46.4563 59.5601 46.3624 59.9307 46.1746 60.2519C45.9918 60.5681 45.7423 60.8127 45.426 60.9857C45.1098 61.1586 44.759 61.2451 44.3735 61.2451ZM44.3735 60.6521C44.6157 60.6521 44.843 60.5953 45.0554 60.4817C45.2679 60.368 45.4384 60.1975 45.5668 59.9703C45.7003 59.743 45.767 59.4662 45.767 59.1401C45.767 58.814 45.7027 58.5373 45.5743 58.31C45.4458 58.0827 45.2778 57.9147 45.0702 57.806C44.8627 57.6924 44.6379 57.6355 44.3958 57.6355C44.1487 57.6355 43.9214 57.6924 43.7139 57.806C43.5113 57.9147 43.3482 58.0827 43.2247 58.31C43.1012 58.5373 43.0394 58.814 43.0394 59.1401C43.0394 59.4712 43.0987 59.7504 43.2173 59.9777C43.3408 60.205 43.5039 60.3754 43.7065 60.4891C43.9091 60.5978 44.1314 60.6521 44.3735 60.6521ZM49.322 57.0426C49.8161 57.0426 50.2164 57.1933 50.5227 57.4947C50.8291 57.7912 50.9823 58.2211 50.9823 58.7844V61.1784H50.3152V58.8807C50.3152 58.4755 50.2139 58.1667 50.0113 57.9542C49.8087 57.7368 49.532 57.6281 49.1812 57.6281C48.8254 57.6281 48.5413 57.7393 48.3288 57.9617C48.1213 58.184 48.0175 58.5077 48.0175 58.9326V61.1784H47.3431V57.1167H48.0175V57.6948C48.151 57.4873 48.3313 57.3267 48.5586 57.2131C48.7908 57.0994 49.0453 57.0426 49.322 57.0426ZM58.0402 56.0123V61.1784H57.3657V58.8362H54.7345V61.1784H54.06V56.0123H54.7345V58.2804H57.3657V56.0123H58.0402ZM60.9633 61.2451C60.5828 61.2451 60.2369 61.1586 59.9256 60.9857C59.6192 60.8127 59.3771 60.5681 59.1992 60.2519C59.0263 59.9307 58.9398 59.5601 58.9398 59.1401C58.9398 58.7251 59.0288 58.3594 59.2067 58.0432C59.3895 57.722 59.6365 57.4774 59.9478 57.3094C60.2591 57.1365 60.6075 57.05 60.9929 57.05C61.3783 57.05 61.7267 57.1365 62.038 57.3094C62.3493 57.4774 62.5939 57.7195 62.7717 58.0358C62.9546 58.352 63.046 58.7201 63.046 59.1401C63.046 59.5601 62.9521 59.9307 62.7643 60.2519C62.5815 60.5681 62.332 60.8127 62.0157 60.9857C61.6995 61.1586 61.3487 61.2451 60.9633 61.2451ZM60.9633 60.6521C61.2054 60.6521 61.4327 60.5953 61.6451 60.4817C61.8576 60.368 62.0281 60.1975 62.1566 59.9703C62.29 59.743 62.3567 59.4662 62.3567 59.1401C62.3567 58.814 62.2924 58.5373 62.164 58.31C62.0355 58.0827 61.8675 57.9147 61.66 57.806C61.4524 57.6924 61.2276 57.6355 60.9855 57.6355C60.7384 57.6355 60.5111 57.6924 60.3036 57.806C60.101 57.9147 59.938 58.0827 59.8144 58.31C59.6909 58.5373 59.6291 58.814 59.6291 59.1401C59.6291 59.4712 59.6884 59.7504 59.807 59.9777C59.9305 60.205 60.0936 60.3754 60.2962 60.4891C60.4988 60.5978 60.7211 60.6521 60.9633 60.6521ZM67.5349 57.1167V61.1784H66.8605V60.578C66.732 60.7856 66.5516 60.9486 66.3194 61.0672C66.0921 61.1808 65.8401 61.2377 65.5634 61.2377C65.2471 61.2377 64.963 61.1734 64.711 61.045C64.459 60.9116 64.2589 60.7139 64.1107 60.452C63.9674 60.1901 63.8957 59.8714 63.8957 59.4959V57.1167H64.5628V59.407C64.5628 59.8072 64.6641 60.116 64.8667 60.3334C65.0693 60.5459 65.346 60.6521 65.6968 60.6521C66.0575 60.6521 66.3416 60.541 66.5492 60.3186C66.7567 60.0963 66.8605 59.7726 66.8605 59.3477V57.1167H67.5349ZM70.1116 61.2451C69.8003 61.2451 69.5212 61.1932 69.2741 61.0894C69.027 60.9807 68.8319 60.8325 68.6886 60.6447C68.5453 60.452 68.4662 60.2321 68.4514 59.9851H69.1481C69.1679 60.1877 69.2617 60.3532 69.4297 60.4817C69.6027 60.6101 69.8275 60.6744 70.1042 60.6744C70.3612 60.6744 70.5637 60.6176 70.712 60.5039C70.8602 60.3903 70.9343 60.247 70.9343 60.074C70.9343 59.8961 70.8553 59.7652 70.6972 59.6812C70.539 59.5922 70.2945 59.5058 69.9634 59.4218C69.662 59.3427 69.4149 59.2637 69.2222 59.1846C69.0344 59.1006 68.8714 58.9795 68.733 58.8214C68.5996 58.6584 68.5329 58.4459 68.5329 58.184C68.5329 57.9765 68.5947 57.7862 68.7182 57.6133C68.8417 57.4404 69.0172 57.3045 69.2444 57.2056C69.4717 57.1019 69.7312 57.05 70.0227 57.05C70.4723 57.05 70.8355 57.1636 71.1122 57.3909C71.3889 57.6182 71.5372 57.9295 71.5569 58.3248H70.8825C70.8676 58.1124 70.7812 57.9419 70.623 57.8134C70.4699 57.6849 70.2623 57.6207 70.0005 57.6207C69.7583 57.6207 69.5656 57.6726 69.4223 57.7764C69.279 57.8801 69.2074 58.016 69.2074 58.184C69.2074 58.3174 69.2494 58.4286 69.3334 58.5175C69.4223 58.6015 69.531 58.6707 69.6595 58.7251C69.7929 58.7745 69.9757 58.8313 70.208 58.8955C70.4995 58.9746 70.7367 59.0537 70.9195 59.1327C71.1023 59.2068 71.258 59.3205 71.3865 59.4737C71.5199 59.6268 71.589 59.827 71.594 60.074C71.594 60.2964 71.5322 60.4965 71.4087 60.6744C71.2852 60.8523 71.1098 60.9931 70.8825 61.0968C70.6601 61.1957 70.4032 61.2451 70.1116 61.2451ZM76.252 58.9919C76.252 59.1204 76.2446 59.2562 76.2298 59.3995H72.9834C73.0081 59.7998 73.144 60.1135 73.3911 60.3408C73.6431 60.5632 73.947 60.6744 74.3027 60.6744C74.5943 60.6744 74.8364 60.6077 75.0291 60.4743C75.2267 60.3359 75.3651 60.1531 75.4441 59.9258H76.1705C76.0618 60.3161 75.8444 60.6348 75.5183 60.8819C75.1921 61.124 74.787 61.2451 74.3027 61.2451C73.9173 61.2451 73.5714 61.1586 73.2651 60.9857C72.9637 60.8127 72.7265 60.5681 72.5535 60.2519C72.3806 59.9307 72.2941 59.5601 72.2941 59.1401C72.2941 58.7201 72.3781 58.352 72.5461 58.0358C72.7141 57.7195 72.9488 57.4774 73.2502 57.3094C73.5566 57.1365 73.9074 57.05 74.3027 57.05C74.6881 57.05 75.0291 57.134 75.3255 57.302C75.622 57.47 75.8493 57.7022 76.0074 57.9987C76.1705 58.2902 76.252 58.6213 76.252 58.9919ZM75.5553 58.8511C75.5553 58.5941 75.4985 58.3742 75.3848 58.1914C75.2712 58.0037 75.1155 57.8628 74.9179 57.7689C74.7252 57.6701 74.5102 57.6207 74.2731 57.6207C73.9321 57.6207 73.6406 57.7294 73.3985 57.9468C73.1613 58.1642 73.0254 58.4657 72.9908 58.8511H75.5553ZM77.839 60.2445L77.0089 62.2383H76.5568L77.0978 60.2445H77.839ZM80.2986 56.4348V55.8196H81.692V61.1784H81.0101V56.4348H80.2986ZM82.769 60.6373C83.3966 60.1333 83.8882 59.7207 84.244 59.3995C84.5997 59.0734 84.8987 58.735 85.1408 58.3841C85.3879 58.0284 85.5114 57.68 85.5114 57.3391C85.5114 57.0179 85.4323 56.7659 85.2742 56.5831C85.121 56.3953 84.8715 56.3014 84.5256 56.3014C84.1896 56.3014 83.9277 56.4076 83.74 56.6201C83.5572 56.8276 83.4583 57.1068 83.4435 57.4576H82.7913C82.811 56.9042 82.979 56.4768 83.2953 56.1754C83.6115 55.874 84.0192 55.7233 84.5182 55.7233C85.0272 55.7233 85.4299 55.8641 85.7263 56.1458C86.0278 56.4274 86.1785 56.8153 86.1785 57.3094C86.1785 57.7195 86.0549 58.1198 85.8079 58.5101C85.5658 58.8955 85.289 59.2365 84.9778 59.533C84.6665 59.8245 84.2687 60.1654 83.7844 60.5558H86.3341V61.1191H82.769V60.6373ZM90.5306 56.4052H87.9291V58.0951C88.0427 57.9369 88.2107 57.8085 88.4331 57.7096C88.6555 57.6059 88.8951 57.554 89.152 57.554C89.5622 57.554 89.8957 57.6405 90.1526 57.8134C90.4096 57.9814 90.5924 58.2013 90.7011 58.4731C90.8148 58.7399 90.8716 59.024 90.8716 59.3254C90.8716 59.6812 90.8049 59.9999 90.6715 60.2815C90.5381 60.5632 90.333 60.7856 90.0563 60.9486C89.7845 61.1117 89.446 61.1932 89.0409 61.1932C88.522 61.1932 88.102 61.0598 87.7809 60.793C87.4597 60.5261 87.2645 60.1704 87.1953 59.7257H87.855C87.9192 60.0073 88.0551 60.2272 88.2626 60.3853C88.4702 60.5434 88.732 60.6225 89.0483 60.6225C89.4386 60.6225 89.7326 60.5064 89.9303 60.2741C90.1279 60.037 90.2268 59.7257 90.2268 59.3402C90.2268 58.9548 90.1279 58.6584 89.9303 58.4508C89.7326 58.2384 89.4411 58.1321 89.0557 58.1321C88.7938 58.1321 88.564 58.1964 88.3664 58.3248C88.1737 58.4484 88.0329 58.6188 87.9439 58.8362H87.3065V55.8122H90.5306V56.4052ZM96.6567 61.1784L94.5295 58.8214V61.1784H93.8551V56.0123H94.5295V58.4064L96.6641 56.0123H97.5165L95.1744 58.5991L97.5387 61.1784H96.6567ZM98.6404 56.4571C98.5119 56.4571 98.4032 56.4126 98.3143 56.3236C98.2253 56.2347 98.1808 56.126 98.1808 55.9975C98.1808 55.8691 98.2253 55.7603 98.3143 55.6714C98.4032 55.5825 98.5119 55.538 98.6404 55.538C98.7639 55.538 98.8677 55.5825 98.9517 55.6714C99.0406 55.7603 99.0851 55.8691 99.0851 55.9975C99.0851 56.126 99.0406 56.2347 98.9517 56.3236C98.8677 56.4126 98.7639 56.4571 98.6404 56.4571ZM98.9665 57.1167V61.1784H98.292V57.1167H98.9665ZM102.095 57.0426C102.589 57.0426 102.989 57.1933 103.296 57.4947C103.602 57.7912 103.755 58.2211 103.755 58.7844V61.1784H103.088V58.8807C103.088 58.4755 102.987 58.1667 102.784 57.9542C102.582 57.7368 102.305 57.6281 101.954 57.6281C101.598 57.6281 101.314 57.7393 101.102 57.9617C100.894 58.184 100.791 58.5077 100.791 58.9326V61.1784H100.116V57.1167H100.791V57.6948C100.924 57.4873 101.104 57.3267 101.332 57.2131C101.564 57.0994 101.818 57.0426 102.095 57.0426ZM106.532 57.05C106.883 57.05 107.189 57.1266 107.451 57.2798C107.718 57.4329 107.916 57.6256 108.044 57.8579V57.1167H108.726V61.2673C108.726 61.6379 108.647 61.9665 108.489 62.2531C108.331 62.5446 108.103 62.7719 107.807 62.935C107.515 63.098 107.174 63.1796 106.784 63.1796C106.25 63.1796 105.806 63.0536 105.45 62.8016C105.094 62.5496 104.884 62.2061 104.82 61.7713H105.487C105.561 62.0184 105.714 62.216 105.947 62.3643C106.179 62.5174 106.458 62.594 106.784 62.594C107.155 62.594 107.456 62.4779 107.688 62.2457C107.925 62.0134 108.044 61.6873 108.044 61.2673V60.415C107.911 60.6521 107.713 60.8498 107.451 61.0079C107.189 61.166 106.883 61.2451 106.532 61.2451C106.171 61.2451 105.843 61.1561 105.546 60.9783C105.255 60.8004 105.025 60.5508 104.857 60.2297C104.689 59.9085 104.605 59.5428 104.605 59.1327C104.605 58.7177 104.689 58.3545 104.857 58.0432C105.025 57.7269 105.255 57.4824 105.546 57.3094C105.843 57.1365 106.171 57.05 106.532 57.05ZM108.044 59.1401C108.044 58.8338 107.982 58.5669 107.859 58.3397C107.735 58.1124 107.567 57.9394 107.355 57.8208C107.147 57.6973 106.917 57.6355 106.665 57.6355C106.413 57.6355 106.184 57.6948 105.976 57.8134C105.769 57.932 105.603 58.1049 105.48 58.3322C105.356 58.5595 105.294 58.8264 105.294 59.1327C105.294 59.444 105.356 59.7158 105.48 59.948C105.603 60.1753 105.769 60.3507 105.976 60.4743C106.184 60.5928 106.413 60.6521 106.665 60.6521C106.917 60.6521 107.147 60.5928 107.355 60.4743C107.567 60.3507 107.735 60.1753 107.859 59.948C107.982 59.7158 108.044 59.4465 108.044 59.1401ZM111.304 61.2451C110.992 61.2451 110.713 61.1932 110.466 61.0894C110.219 60.9807 110.024 60.8325 109.881 60.6447C109.737 60.452 109.658 60.2321 109.643 59.9851H110.34C110.36 60.1877 110.454 60.3532 110.622 60.4817C110.795 60.6101 111.02 60.6744 111.296 60.6744C111.553 60.6744 111.756 60.6176 111.904 60.5039C112.052 60.3903 112.126 60.247 112.126 60.074C112.126 59.8961 112.047 59.7652 111.889 59.6812C111.731 59.5922 111.486 59.5058 111.155 59.4218C110.854 59.3427 110.607 59.2637 110.414 59.1846C110.226 59.1006 110.063 58.9795 109.925 58.8214C109.792 58.6584 109.725 58.4459 109.725 58.184C109.725 57.9765 109.787 57.7862 109.91 57.6133C110.034 57.4404 110.209 57.3045 110.436 57.2056C110.664 57.1019 110.923 57.05 111.215 57.05C111.664 57.05 112.028 57.1636 112.304 57.3909C112.581 57.6182 112.729 57.9295 112.749 58.3248H112.074C112.06 58.1124 111.973 57.9419 111.815 57.8134C111.662 57.6849 111.454 57.6207 111.192 57.6207C110.95 57.6207 110.758 57.6726 110.614 57.7764C110.471 57.8801 110.399 58.016 110.399 58.184C110.399 58.3174 110.441 58.4286 110.525 58.5175C110.614 58.6015 110.723 58.6707 110.852 58.7251C110.985 58.7745 111.168 58.8313 111.4 58.8955C111.692 58.9746 111.929 59.0537 112.112 59.1327C112.294 59.2068 112.45 59.3205 112.578 59.4737C112.712 59.6268 112.781 59.827 112.786 60.074C112.786 60.2964 112.724 60.4965 112.601 60.6744C112.477 60.8523 112.302 60.9931 112.074 61.0968C111.852 61.1957 111.595 61.2451 111.304 61.2451ZM119.149 57.1167L117.881 61.1784H117.185L116.206 57.9542L115.228 61.1784H114.531L113.256 57.1167H113.946L114.88 60.5261L115.888 57.1167H116.577L117.563 60.5335L118.482 57.1167H119.149ZM119.566 59.1327C119.566 58.7177 119.65 58.3545 119.818 58.0432C119.986 57.7269 120.216 57.4824 120.507 57.3094C120.804 57.1365 121.132 57.05 121.493 57.05C121.849 57.05 122.158 57.1266 122.42 57.2798C122.682 57.4329 122.877 57.6256 123.005 57.8579V57.1167H123.687V61.1784H123.005V60.4224C122.872 60.6596 122.672 60.8572 122.405 61.0153C122.143 61.1685 121.837 61.2451 121.486 61.2451C121.125 61.2451 120.799 61.1561 120.507 60.9783C120.216 60.8004 119.986 60.5508 119.818 60.2297C119.65 59.9085 119.566 59.5428 119.566 59.1327ZM123.005 59.1401C123.005 58.8338 122.943 58.5669 122.82 58.3397C122.696 58.1124 122.528 57.9394 122.316 57.8208C122.108 57.6973 121.879 57.6355 121.627 57.6355C121.375 57.6355 121.145 57.6948 120.937 57.8134C120.73 57.932 120.564 58.1049 120.441 58.3322C120.317 58.5595 120.255 58.8264 120.255 59.1327C120.255 59.444 120.317 59.7158 120.441 59.948C120.564 60.1753 120.73 60.3507 120.937 60.4743C121.145 60.5928 121.375 60.6521 121.627 60.6521C121.879 60.6521 122.108 60.5928 122.316 60.4743C122.528 60.3507 122.696 60.1753 122.82 59.948C122.943 59.7158 123.005 59.4465 123.005 59.1401ZM128.325 57.1167L125.879 63.0906H125.183L125.983 61.1339L124.345 57.1167H125.094L126.369 60.4075L127.629 57.1167H128.325ZM129.7 60.2445L128.87 62.2383H128.418L128.959 60.2445H129.7ZM138.941 56.0123L137.444 61.1784H136.688L135.487 57.0204L134.242 61.1784L133.494 61.1858L132.048 56.0123H132.767L133.894 60.3927L135.139 56.0123H135.895L137.081 60.3779L138.215 56.0123H138.941ZM139.427 58.5917C139.427 58.0877 139.541 57.6355 139.768 57.2353C139.996 56.8301 140.305 56.5139 140.695 56.2866C141.09 56.0593 141.527 55.9456 142.007 55.9456C142.57 55.9456 143.062 56.0815 143.482 56.3533C143.902 56.6251 144.208 57.0105 144.401 57.5095H143.593C143.45 57.1982 143.242 56.9586 142.97 56.7906C142.703 56.6226 142.382 56.5386 142.007 56.5386C141.646 56.5386 141.322 56.6226 141.036 56.7906C140.749 56.9586 140.524 57.1982 140.361 57.5095C140.198 57.8159 140.117 58.1766 140.117 58.5917C140.117 59.0018 140.198 59.3625 140.361 59.6738C140.524 59.9801 140.749 60.2173 141.036 60.3853C141.322 60.5533 141.646 60.6373 142.007 60.6373C142.382 60.6373 142.703 60.5558 142.97 60.3927C143.242 60.2247 143.45 59.9851 143.593 59.6738H144.401C144.208 60.1679 143.902 60.5508 143.482 60.8226C143.062 61.0894 142.57 61.2228 142.007 61.2228C141.527 61.2228 141.09 61.1117 140.695 60.8893C140.305 60.662 139.996 60.3483 139.768 59.948C139.541 59.5478 139.427 59.0957 139.427 58.5917ZM145.212 60.6373C145.84 60.1333 146.331 59.7207 146.687 59.3995C147.043 59.0734 147.342 58.735 147.584 58.3841C147.831 58.0284 147.954 57.68 147.954 57.3391C147.954 57.0179 147.875 56.7659 147.717 56.5831C147.564 56.3953 147.315 56.3014 146.969 56.3014C146.633 56.3014 146.371 56.4076 146.183 56.6201C146 56.8276 145.901 57.1068 145.887 57.4576H145.234C145.254 56.9042 145.422 56.4768 145.738 56.1754C146.055 55.874 146.462 55.7233 146.961 55.7233C147.47 55.7233 147.873 55.8641 148.169 56.1458C148.471 56.4274 148.622 56.8153 148.622 57.3094C148.622 57.7195 148.498 58.1198 148.251 58.5101C148.009 58.8955 147.732 59.2365 147.421 59.533C147.11 59.8245 146.712 60.1654 146.228 60.5558H148.777V61.1191H145.212V60.6373ZM152.255 58.5175C152.443 58.5472 152.613 58.6238 152.766 58.7473C152.924 58.8708 153.048 59.024 153.137 59.2068C153.231 59.3897 153.278 59.5848 153.278 59.7924C153.278 60.0543 153.211 60.2914 153.077 60.5039C152.944 60.7114 152.749 60.877 152.492 61.0005C152.24 61.1191 151.941 61.1784 151.595 61.1784H149.668V56.0123H151.521C151.872 56.0123 152.171 56.0716 152.418 56.1902C152.665 56.3039 152.85 56.4595 152.974 56.6572C153.097 56.8548 153.159 57.0772 153.159 57.3242C153.159 57.6306 153.075 57.8851 152.907 58.0877C152.744 58.2853 152.527 58.4286 152.255 58.5175ZM150.343 58.2433H151.477C151.793 58.2433 152.037 58.1692 152.21 58.0209C152.383 57.8727 152.47 57.6676 152.47 57.4058C152.47 57.1439 152.383 56.9388 152.21 56.7906C152.037 56.6423 151.788 56.5682 151.462 56.5682H150.343V58.2433ZM151.536 60.6225C151.872 60.6225 152.134 60.5434 152.321 60.3853C152.509 60.2272 152.603 60.0073 152.603 59.7257C152.603 59.4391 152.504 59.2142 152.307 59.0512C152.109 58.8832 151.845 58.7992 151.514 58.7992H150.343V60.6225H151.536ZM159.065 57.0945C158.957 56.546 158.618 56.2718 158.05 56.2718C157.61 56.2718 157.282 56.4422 157.064 56.7832C156.847 57.1192 156.741 57.6751 156.745 58.4508C156.859 58.1939 157.047 57.9938 157.309 57.8505C157.576 57.7022 157.872 57.6281 158.198 57.6281C158.707 57.6281 159.112 57.7862 159.414 58.1025C159.72 58.4187 159.873 58.856 159.873 59.4144C159.873 59.7504 159.807 60.0518 159.673 60.3186C159.545 60.5854 159.347 60.7979 159.08 60.956C158.818 61.1141 158.5 61.1932 158.124 61.1932C157.615 61.1932 157.217 61.0796 156.931 60.8523C156.644 60.625 156.444 60.3112 156.33 59.911C156.217 59.5107 156.16 59.0166 156.16 58.4286C156.16 56.6152 156.792 55.7085 158.057 55.7085C158.542 55.7085 158.922 55.8394 159.199 56.1013C159.475 56.3632 159.639 56.6942 159.688 57.0945H159.065ZM158.057 58.1988C157.845 58.1988 157.645 58.2433 157.457 58.3322C157.269 58.4162 157.116 58.5472 156.997 58.7251C156.884 58.898 156.827 59.1105 156.827 59.3625C156.827 59.738 156.936 60.0444 157.153 60.2815C157.371 60.5138 157.682 60.6299 158.087 60.6299C158.433 60.6299 158.707 60.5237 158.91 60.3112C159.117 60.0938 159.221 59.8023 159.221 59.4366C159.221 59.0512 159.122 58.7498 158.925 58.5324C158.727 58.31 158.438 58.1988 158.057 58.1988ZM164.956 61.1784H164.282L161.569 57.0648V61.1784H160.894V56.0049H161.569L164.282 60.1111V56.0049H164.956V61.1784ZM170.086 56.0123V61.1784H169.411V58.8362H166.78V61.1784H166.106V56.0123H166.78V58.2804H169.411V56.0123H170.086Z" fill="#51535A"/>
<line x1="37.4675" y1="166.602" x2="307.487" y2="166.602" stroke="#DBDEE6" stroke-width="3.23222"/>
<line x1="37.4675" y1="123.371" x2="307.487" y2="123.371" stroke="#DBDEE6" stroke-width="3.23222"/>
<line x1="37.4636" y1="199.959" x2="307.483" y2="199.959" stroke="#DBDEE6" stroke-width="3.23222"/>
<line x1="37.4675" y1="225.899" x2="307.487" y2="225.899" stroke="#DBDEE6" stroke-width="3.23222"/>
<line x1="219.092" y1="124.985" x2="219.092" y2="168.22" stroke="#DBDEE6" stroke-width="3.23222"/>
<line x1="127.564" y1="124.987" x2="127.564" y2="168.222" stroke="#DBDEE6" stroke-width="3.23222"/>
<path d="M44.1905 136.939H42.13L41.7891 137.925H40.6995L42.5599 132.744H43.768L45.6284 137.925H44.5314L44.1905 136.939ZM43.9089 136.109L43.1603 133.945L42.4117 136.109H43.9089ZM47.3614 132.44V137.925H46.3238V132.44H47.3614ZM52.2037 135.783C52.2037 135.931 52.1938 136.065 52.1741 136.183H49.1723C49.197 136.48 49.3008 136.712 49.4836 136.88C49.6664 137.048 49.8912 137.132 50.1581 137.132C50.5435 137.132 50.8177 136.966 50.9808 136.635H52.0999C51.9814 137.031 51.7541 137.357 51.4181 137.614C51.0821 137.866 50.6695 137.992 50.1803 137.992C49.785 137.992 49.4292 137.905 49.113 137.732C48.8017 137.554 48.5571 137.305 48.3792 136.984C48.2063 136.662 48.1198 136.292 48.1198 135.872C48.1198 135.447 48.2063 135.074 48.3792 134.753C48.5522 134.431 48.7943 134.184 49.1056 134.011C49.4169 133.839 49.7751 133.752 50.1803 133.752C50.5706 133.752 50.919 133.836 51.2254 134.004C51.5367 134.172 51.7763 134.412 51.9443 134.723C52.1172 135.029 52.2037 135.383 52.2037 135.783ZM51.129 135.486C51.1241 135.22 51.0277 135.007 50.8399 134.849C50.6522 134.686 50.4224 134.604 50.1506 134.604C49.8937 134.604 49.6763 134.683 49.4984 134.842C49.3255 134.995 49.2192 135.21 49.1797 135.486H51.129ZM55.2291 137.925L54.3842 136.65L53.6356 137.925H52.5238L53.8654 135.864L52.509 133.819H53.6801L54.5176 135.086L55.2736 133.819H56.3854L55.0364 135.864L56.4002 137.925H55.2291ZM63.3771 132.751L61.4797 137.925H60.2196L58.3222 132.751H59.434L60.8571 136.865L62.2727 132.751H63.3771ZM64.4587 137.977C64.271 137.977 64.1153 137.92 63.9918 137.806C63.8732 137.688 63.8139 137.542 63.8139 137.369C63.8139 137.196 63.8732 137.053 63.9918 136.939C64.1153 136.821 64.271 136.761 64.4587 136.761C64.6416 136.761 64.7923 136.821 64.9109 136.939C65.0294 137.053 65.0887 137.196 65.0887 137.369C65.0887 137.542 65.0294 137.688 64.9109 137.806C64.7923 137.92 64.6416 137.977 64.4587 137.977Z" fill="black"/>
<path d="M137.394 137.977C137.034 137.977 136.708 137.915 136.416 137.791C136.129 137.668 135.902 137.49 135.734 137.258C135.566 137.026 135.48 136.751 135.475 136.435H136.586C136.601 136.648 136.675 136.816 136.809 136.939C136.947 137.063 137.135 137.124 137.372 137.124C137.614 137.124 137.804 137.068 137.943 136.954C138.081 136.835 138.15 136.682 138.15 136.494C138.15 136.341 138.103 136.215 138.01 136.116C137.916 136.018 137.797 135.941 137.654 135.887C137.515 135.827 137.323 135.763 137.076 135.694C136.74 135.595 136.465 135.499 136.253 135.405C136.045 135.306 135.865 135.16 135.712 134.968C135.564 134.77 135.49 134.508 135.49 134.182C135.49 133.876 135.566 133.609 135.719 133.381C135.872 133.154 136.087 132.981 136.364 132.863C136.641 132.739 136.957 132.677 137.313 132.677C137.846 132.677 138.279 132.808 138.61 133.07C138.946 133.327 139.131 133.688 139.166 134.152H138.024C138.014 133.974 137.938 133.829 137.795 133.715C137.656 133.596 137.471 133.537 137.239 133.537C137.036 133.537 136.873 133.589 136.75 133.693C136.631 133.797 136.572 133.947 136.572 134.145C136.572 134.283 136.616 134.399 136.705 134.493C136.799 134.582 136.913 134.656 137.046 134.716C137.184 134.77 137.377 134.834 137.624 134.908C137.96 135.007 138.234 135.106 138.447 135.205C138.659 135.304 138.842 135.452 138.995 135.649C139.148 135.847 139.225 136.107 139.225 136.428C139.225 136.704 139.153 136.961 139.01 137.199C138.867 137.436 138.657 137.626 138.38 137.769C138.103 137.908 137.775 137.977 137.394 137.977ZM139.858 135.857C139.858 135.442 139.939 135.074 140.102 134.753C140.27 134.431 140.495 134.184 140.777 134.011C141.063 133.839 141.382 133.752 141.733 133.752C142.039 133.752 142.306 133.814 142.534 133.937C142.766 134.061 142.951 134.217 143.089 134.404V133.819H144.134V137.925H143.089V137.325C142.956 137.517 142.771 137.678 142.534 137.806C142.301 137.93 142.032 137.992 141.726 137.992C141.38 137.992 141.063 137.903 140.777 137.725C140.495 137.547 140.27 137.297 140.102 136.976C139.939 136.65 139.858 136.277 139.858 135.857ZM143.089 135.872C143.089 135.62 143.04 135.405 142.941 135.227C142.842 135.044 142.709 134.906 142.541 134.812C142.373 134.713 142.193 134.664 142 134.664C141.807 134.664 141.629 134.711 141.466 134.805C141.303 134.898 141.17 135.037 141.066 135.22C140.967 135.397 140.918 135.61 140.918 135.857C140.918 136.104 140.967 136.321 141.066 136.509C141.17 136.692 141.303 136.833 141.466 136.932C141.634 137.031 141.812 137.08 142 137.08C142.193 137.08 142.373 137.033 142.541 136.939C142.709 136.84 142.842 136.702 142.941 136.524C143.04 136.341 143.089 136.124 143.089 135.872ZM150.247 133.759C150.751 133.759 151.156 133.915 151.463 134.226C151.774 134.533 151.93 134.963 151.93 135.516V137.925H150.892V135.657C150.892 135.336 150.811 135.091 150.647 134.923C150.484 134.75 150.262 134.664 149.98 134.664C149.699 134.664 149.474 134.75 149.306 134.923C149.143 135.091 149.061 135.336 149.061 135.657V137.925H148.024V135.657C148.024 135.336 147.942 135.091 147.779 134.923C147.616 134.75 147.394 134.664 147.112 134.664C146.825 134.664 146.598 134.75 146.43 134.923C146.267 135.091 146.186 135.336 146.186 135.657V137.925H145.148V133.819H146.186V134.315C146.319 134.142 146.489 134.007 146.697 133.908C146.909 133.809 147.142 133.759 147.394 133.759C147.715 133.759 148.001 133.829 148.253 133.967C148.505 134.1 148.701 134.293 148.839 134.545C148.972 134.308 149.165 134.118 149.417 133.974C149.674 133.831 149.951 133.759 150.247 133.759ZM153.952 134.412C154.085 134.224 154.268 134.068 154.501 133.945C154.738 133.816 155.007 133.752 155.308 133.752C155.659 133.752 155.975 133.839 156.257 134.011C156.544 134.184 156.769 134.431 156.932 134.753C157.1 135.069 157.184 135.437 157.184 135.857C157.184 136.277 157.1 136.65 156.932 136.976C156.769 137.297 156.544 137.547 156.257 137.725C155.975 137.903 155.659 137.992 155.308 137.992C155.007 137.992 154.74 137.93 154.508 137.806C154.281 137.683 154.095 137.527 153.952 137.339V139.882H152.914V133.819H153.952V134.412ZM156.124 135.857C156.124 135.61 156.072 135.397 155.968 135.22C155.869 135.037 155.736 134.898 155.568 134.805C155.405 134.711 155.227 134.664 155.034 134.664C154.846 134.664 154.669 134.713 154.501 134.812C154.337 134.906 154.204 135.044 154.1 135.227C154.001 135.41 153.952 135.625 153.952 135.872C153.952 136.119 154.001 136.334 154.1 136.517C154.204 136.699 154.337 136.84 154.501 136.939C154.669 137.033 154.846 137.08 155.034 137.08C155.227 137.08 155.405 137.031 155.568 136.932C155.736 136.833 155.869 136.692 155.968 136.509C156.072 136.326 156.124 136.109 156.124 135.857ZM158.975 132.44V137.925H157.938V132.44H158.975ZM163.818 135.783C163.818 135.931 163.808 136.065 163.788 136.183H160.786C160.811 136.48 160.915 136.712 161.097 136.88C161.28 137.048 161.505 137.132 161.772 137.132C162.157 137.132 162.432 136.966 162.595 136.635H163.714C163.595 137.031 163.368 137.357 163.032 137.614C162.696 137.866 162.283 137.992 161.794 137.992C161.399 137.992 161.043 137.905 160.727 137.732C160.416 137.554 160.171 137.305 159.993 136.984C159.82 136.662 159.734 136.292 159.734 135.872C159.734 135.447 159.82 135.074 159.993 134.753C160.166 134.431 160.408 134.184 160.719 134.011C161.031 133.839 161.389 133.752 161.794 133.752C162.184 133.752 162.533 133.836 162.839 134.004C163.15 134.172 163.39 134.412 163.558 134.723C163.731 135.029 163.818 135.383 163.818 135.783ZM162.743 135.486C162.738 135.22 162.642 135.007 162.454 134.849C162.266 134.686 162.036 134.604 161.764 134.604C161.508 134.604 161.29 134.683 161.112 134.842C160.939 134.995 160.833 135.21 160.794 135.486H162.743ZM165.034 137.977C164.847 137.977 164.691 137.92 164.568 137.806C164.449 137.688 164.39 137.542 164.39 137.369C164.39 137.196 164.449 137.053 164.568 136.939C164.691 136.821 164.847 136.761 165.034 136.761C165.217 136.761 165.368 136.821 165.487 136.939C165.605 137.053 165.664 137.196 165.664 137.369C165.664 137.542 165.605 137.688 165.487 137.806C165.368 137.92 165.217 137.977 165.034 137.977ZM165.034 134.908C164.847 134.908 164.691 134.851 164.568 134.738C164.449 134.619 164.39 134.473 164.39 134.301C164.39 134.128 164.449 133.984 164.568 133.871C164.691 133.752 164.847 133.693 165.034 133.693C165.217 133.693 165.368 133.752 165.487 133.871C165.605 133.984 165.664 134.128 165.664 134.301C165.664 134.473 165.605 134.619 165.487 134.738C165.368 134.851 165.217 134.908 165.034 134.908Z" fill="black"/>
<path d="M42.0635 211.812V216.985H41.0258V211.812H42.0635ZM45.3641 212.82C45.8533 212.82 46.2486 212.976 46.55 213.287C46.8514 213.593 47.0021 214.023 47.0021 214.577V216.985H45.9645V214.717C45.9645 214.391 45.8829 214.142 45.7199 213.969C45.5568 213.791 45.3345 213.702 45.0528 213.702C44.7662 213.702 44.5389 213.791 44.3709 213.969C44.2079 214.142 44.1263 214.391 44.1263 214.717V216.985H43.0887V212.879H44.1263V213.391C44.2647 213.213 44.4401 213.075 44.6526 212.976C44.87 212.872 45.1072 212.82 45.3641 212.82ZM49.701 216.029L50.7386 212.879H51.843L50.3236 216.985H49.0636L47.5516 212.879H48.6633L49.701 216.029ZM56.2429 214.843C56.2429 214.992 56.233 215.125 56.2133 215.244H53.2115C53.2362 215.54 53.3399 215.772 53.5228 215.94C53.7056 216.108 53.9304 216.192 54.1972 216.192C54.5827 216.192 54.8569 216.027 55.02 215.696H56.1391C56.0205 216.091 55.7933 216.417 55.4573 216.674C55.1212 216.926 54.7087 217.052 54.2195 217.052C53.8242 217.052 53.4684 216.966 53.1522 216.793C52.8409 216.615 52.5963 216.365 52.4184 216.044C52.2455 215.723 52.159 215.352 52.159 214.932C52.159 214.507 52.2455 214.134 52.4184 213.813C52.5914 213.492 52.8335 213.245 53.1448 213.072C53.4561 212.899 53.8143 212.813 54.2195 212.813C54.6098 212.813 54.9582 212.897 55.2645 213.065C55.5758 213.233 55.8155 213.472 55.9835 213.784C56.1564 214.09 56.2429 214.443 56.2429 214.843ZM55.1682 214.547C55.1632 214.28 55.0669 214.068 54.8791 213.91C54.6914 213.747 54.4616 213.665 54.1898 213.665C53.9329 213.665 53.7155 213.744 53.5376 213.902C53.3647 214.055 53.2584 214.27 53.2189 214.547H55.1682ZM58.5716 217.052C58.2356 217.052 57.9342 216.993 57.6674 216.874C57.4005 216.751 57.1881 216.585 57.0299 216.378C56.8768 216.17 56.7928 215.94 56.7779 215.688H57.823C57.8428 215.847 57.9194 215.977 58.0528 216.081C58.1911 216.185 58.3616 216.237 58.5642 216.237C58.7618 216.237 58.915 216.197 59.0237 216.118C59.1374 216.039 59.1942 215.938 59.1942 215.814C59.1942 215.681 59.125 215.582 58.9867 215.518C58.8532 215.449 58.6383 215.375 58.3418 215.296C58.0355 215.221 57.7835 215.145 57.5858 215.066C57.3931 214.987 57.2251 214.866 57.0818 214.703C56.9435 214.54 56.8743 214.32 56.8743 214.043C56.8743 213.816 56.9385 213.608 57.067 213.42C57.2004 213.233 57.3882 213.084 57.6303 212.976C57.8774 212.867 58.1664 212.813 58.4975 212.813C58.9867 212.813 59.377 212.936 59.6685 213.183C59.9601 213.425 60.1207 213.754 60.1503 214.169H59.1571C59.1423 214.006 59.0731 213.877 58.9496 213.784C58.831 213.685 58.6704 213.635 58.4678 213.635C58.2801 213.635 58.1343 213.67 58.0305 213.739C57.9317 213.808 57.8823 213.905 57.8823 214.028C57.8823 214.167 57.9515 214.273 58.0898 214.347C58.2282 214.416 58.4431 214.488 58.7347 214.562C59.0311 214.636 59.2757 214.713 59.4684 214.792C59.6611 214.871 59.8267 214.994 59.965 215.162C60.1083 215.325 60.1824 215.543 60.1874 215.814C60.1874 216.052 60.1207 216.264 59.9873 216.452C59.8588 216.64 59.671 216.788 59.424 216.897C59.1818 217 58.8977 217.052 58.5716 217.052ZM62.2473 213.732V215.718C62.2473 215.856 62.2794 215.958 62.3436 216.022C62.4128 216.081 62.5265 216.111 62.6846 216.111H63.1663V216.985H62.5141C61.6395 216.985 61.2022 216.561 61.2022 215.711V213.732H60.713V212.879H61.2022V211.864H62.2473V212.879H63.1663V213.732H62.2473ZM64.4389 212.39C64.2561 212.39 64.1029 212.333 63.9794 212.22C63.8608 212.101 63.8015 211.955 63.8015 211.782C63.8015 211.609 63.8608 211.466 63.9794 211.352C64.1029 211.234 64.2561 211.175 64.4389 211.175C64.6217 211.175 64.7724 211.234 64.891 211.352C65.0146 211.466 65.0763 211.609 65.0763 211.782C65.0763 211.955 65.0146 212.101 64.891 212.22C64.7724 212.333 64.6217 212.39 64.4389 212.39ZM64.9503 212.879V216.985H63.9127V212.879H64.9503ZM67.5839 212.813C67.8903 212.813 68.1595 212.874 68.3918 212.998C68.624 213.117 68.8068 213.272 68.9403 213.465V212.879H69.9853V217.015C69.9853 217.396 69.9087 217.734 69.7556 218.031C69.6024 218.332 69.3726 218.569 69.0663 218.742C68.7599 218.92 68.3893 219.009 67.9545 219.009C67.3714 219.009 66.8921 218.873 66.5166 218.601C66.146 218.329 65.936 217.959 65.8866 217.489H66.9168C66.9712 217.677 67.0873 217.825 67.2652 217.934C67.448 218.048 67.6679 218.105 67.9248 218.105C68.2263 218.105 68.4708 218.013 68.6586 217.83C68.8464 217.653 68.9403 217.381 68.9403 217.015V216.378C68.8068 216.57 68.6216 216.731 68.3844 216.859C68.1521 216.988 67.8853 217.052 67.5839 217.052C67.238 217.052 66.9218 216.963 66.6352 216.785C66.3486 216.607 66.1213 216.358 65.9533 216.037C65.7902 215.711 65.7087 215.338 65.7087 214.918C65.7087 214.503 65.7902 214.134 65.9533 213.813C66.1213 213.492 66.3461 213.245 66.6278 213.072C66.9144 212.899 67.2331 212.813 67.5839 212.813ZM68.9403 214.932C68.9403 214.68 68.8908 214.465 68.792 214.288C68.6932 214.105 68.5598 213.966 68.3918 213.873C68.2238 213.774 68.0434 213.724 67.8507 213.724C67.658 213.724 67.4801 213.771 67.3171 213.865C67.154 213.959 67.0206 214.097 66.9168 214.28C66.818 214.458 66.7686 214.671 66.7686 214.918C66.7686 215.165 66.818 215.382 66.9168 215.57C67.0206 215.753 67.154 215.893 67.3171 215.992C67.4851 216.091 67.663 216.141 67.8507 216.141C68.0434 216.141 68.2238 216.094 68.3918 216C68.5598 215.901 68.6932 215.763 68.792 215.585C68.8908 215.402 68.9403 215.184 68.9403 214.932ZM70.7319 214.918C70.7319 214.503 70.8135 214.134 70.9765 213.813C71.1445 213.492 71.3694 213.245 71.651 213.072C71.9376 212.899 72.2563 212.813 72.6071 212.813C72.9135 212.813 73.1803 212.874 73.4076 212.998C73.6399 213.121 73.8251 213.277 73.9635 213.465V212.879H75.0086V216.985H73.9635V216.385C73.8301 216.578 73.6448 216.738 73.4076 216.867C73.1754 216.99 72.9061 217.052 72.5997 217.052C72.2538 217.052 71.9376 216.963 71.651 216.785C71.3694 216.607 71.1445 216.358 70.9765 216.037C70.8135 215.711 70.7319 215.338 70.7319 214.918ZM73.9635 214.932C73.9635 214.68 73.9141 214.465 73.8153 214.288C73.7164 214.105 73.583 213.966 73.415 213.873C73.247 213.774 73.0667 213.724 72.874 213.724C72.6813 213.724 72.5034 213.771 72.3403 213.865C72.1773 213.959 72.0438 214.097 71.9401 214.28C71.8413 214.458 71.7918 214.671 71.7918 214.918C71.7918 215.165 71.8413 215.382 71.9401 215.57C72.0438 215.753 72.1773 215.893 72.3403 215.992C72.5083 216.091 72.6862 216.141 72.874 216.141C73.0667 216.141 73.247 216.094 73.415 216C73.583 215.901 73.7164 215.763 73.8153 215.585C73.9141 215.402 73.9635 215.184 73.9635 214.932ZM77.2301 213.732V215.718C77.2301 215.856 77.2623 215.958 77.3265 216.022C77.3957 216.081 77.5093 216.111 77.6674 216.111H78.1492V216.985H77.497C76.6224 216.985 76.1851 216.561 76.1851 215.711V213.732H75.6959V212.879H76.1851V211.864H77.2301V212.879H78.1492V213.732H77.2301ZM79.4218 212.39C79.239 212.39 79.0858 212.333 78.9622 212.22C78.8437 212.101 78.7844 211.955 78.7844 211.782C78.7844 211.609 78.8437 211.466 78.9622 211.352C79.0858 211.234 79.239 211.175 79.4218 211.175C79.6046 211.175 79.7553 211.234 79.8739 211.352C79.9974 211.466 80.0592 211.609 80.0592 211.782C80.0592 211.955 79.9974 212.101 79.8739 212.22C79.7553 212.333 79.6046 212.39 79.4218 212.39ZM79.9332 212.879V216.985H78.8955V212.879H79.9332ZM82.7817 217.052C82.3864 217.052 82.0306 216.966 81.7144 216.793C81.3982 216.615 81.1486 216.365 80.9658 216.044C80.7879 215.723 80.699 215.352 80.699 214.932C80.699 214.512 80.7904 214.142 80.9732 213.821C81.161 213.499 81.4155 213.252 81.7366 213.079C82.0578 212.902 82.4161 212.813 82.8113 212.813C83.2066 212.813 83.5649 212.902 83.8861 213.079C84.2072 213.252 84.4592 213.499 84.6421 213.821C84.8298 214.142 84.9237 214.512 84.9237 214.932C84.9237 215.352 84.8274 215.723 84.6347 216.044C84.4469 216.365 84.1899 216.615 83.8638 216.793C83.5426 216.966 83.1819 217.052 82.7817 217.052ZM82.7817 216.148C82.9695 216.148 83.1449 216.103 83.3079 216.015C83.4759 215.921 83.6094 215.782 83.7082 215.599C83.807 215.417 83.8564 215.194 83.8564 214.932C83.8564 214.542 83.7526 214.243 83.5451 214.036C83.3425 213.823 83.093 213.717 82.7965 213.717C82.5001 213.717 82.2505 213.823 82.0479 214.036C81.8503 214.243 81.7515 214.542 81.7515 214.932C81.7515 215.323 81.8478 215.624 82.0405 215.837C82.2382 216.044 82.4852 216.148 82.7817 216.148ZM87.9603 212.82C88.4495 212.82 88.8448 212.976 89.1462 213.287C89.4476 213.593 89.5983 214.023 89.5983 214.577V216.985H88.5607V214.717C88.5607 214.391 88.4791 214.142 88.3161 213.969C88.153 213.791 87.9307 213.702 87.649 213.702C87.3624 213.702 87.1351 213.791 86.9671 213.969C86.8041 214.142 86.7225 214.391 86.7225 214.717V216.985H85.6849V212.879H86.7225V213.391C86.8609 213.213 87.0363 213.075 87.2488 212.976C87.4662 212.872 87.7034 212.82 87.9603 212.82Z" fill="black"/>
<path d="M42.8084 245.451C42.4477 245.451 42.1216 245.389 41.83 245.265C41.5435 245.142 41.3162 244.964 41.1482 244.732C40.9802 244.499 40.8937 244.225 40.8887 243.909H42.0005C42.0153 244.121 42.0895 244.289 42.2229 244.413C42.3612 244.536 42.549 244.598 42.7862 244.598C43.0283 244.598 43.2185 244.541 43.3569 244.428C43.4952 244.309 43.5644 244.156 43.5644 243.968C43.5644 243.815 43.5175 243.689 43.4236 243.59C43.3297 243.491 43.2111 243.415 43.0678 243.36C42.9295 243.301 42.7368 243.237 42.4897 243.168C42.1537 243.069 41.8795 242.973 41.667 242.879C41.4595 242.78 41.2791 242.634 41.1259 242.441C40.9777 242.244 40.9036 241.982 40.9036 241.656C40.9036 241.349 40.9802 241.082 41.1333 240.855C41.2865 240.628 41.5015 240.455 41.7782 240.336C42.0549 240.213 42.3711 240.151 42.7269 240.151C43.2605 240.151 43.6929 240.282 44.0239 240.544C44.3599 240.801 44.5452 241.162 44.5798 241.626H43.4384C43.4285 241.448 43.3519 241.302 43.2086 241.189C43.0703 241.07 42.885 241.011 42.6528 241.011C42.4502 241.011 42.2871 241.063 42.1636 241.166C42.045 241.27 41.9857 241.421 41.9857 241.619C41.9857 241.757 42.0302 241.873 42.1191 241.967C42.213 242.056 42.3266 242.13 42.46 242.189C42.5984 242.244 42.7911 242.308 43.0382 242.382C43.3742 242.481 43.6484 242.58 43.8609 242.679C44.0734 242.777 44.2562 242.926 44.4094 243.123C44.5625 243.321 44.6391 243.58 44.6391 243.901C44.6391 244.178 44.5675 244.435 44.4242 244.672C44.2809 244.909 44.0709 245.1 43.7942 245.243C43.5175 245.381 43.1889 245.451 42.8084 245.451ZM45.2719 243.331C45.2719 242.916 45.3534 242.548 45.5165 242.226C45.6845 241.905 45.9093 241.658 46.191 241.485C46.4776 241.312 46.7963 241.226 47.1471 241.226C47.4534 241.226 47.7203 241.288 47.9476 241.411C48.1798 241.535 48.3651 241.69 48.5035 241.878V241.292H49.5485V245.399H48.5035V244.798C48.37 244.991 48.1847 245.152 47.9476 245.28C47.7153 245.404 47.446 245.465 47.1397 245.465C46.7938 245.465 46.4776 245.376 46.191 245.199C45.9093 245.021 45.6845 244.771 45.5165 244.45C45.3534 244.124 45.2719 243.751 45.2719 243.331ZM48.5035 243.346C48.5035 243.094 48.454 242.879 48.3552 242.701C48.2564 242.518 48.123 242.38 47.955 242.286C47.787 242.187 47.6066 242.137 47.4139 242.137C47.2212 242.137 47.0433 242.184 46.8803 242.278C46.7172 242.372 46.5838 242.511 46.48 242.693C46.3812 242.871 46.3318 243.084 46.3318 243.331C46.3318 243.578 46.3812 243.795 46.48 243.983C46.5838 244.166 46.7172 244.307 46.8803 244.405C47.0483 244.504 47.2262 244.554 47.4139 244.554C47.6066 244.554 47.787 244.507 47.955 244.413C48.123 244.314 48.2564 244.176 48.3552 243.998C48.454 243.815 48.5035 243.598 48.5035 243.346ZM55.6613 241.233C56.1653 241.233 56.5705 241.389 56.8768 241.7C57.1881 242.006 57.3438 242.436 57.3438 242.99V245.399H56.3061V243.131C56.3061 242.809 56.2246 242.565 56.0615 242.397C55.8985 242.224 55.6761 242.137 55.3945 242.137C55.1128 242.137 54.888 242.224 54.72 242.397C54.5569 242.565 54.4754 242.809 54.4754 243.131V245.399H53.4377V243.131C53.4377 242.809 53.3562 242.565 53.1932 242.397C53.0301 242.224 52.8077 242.137 52.5261 242.137C52.2395 242.137 52.0122 242.224 51.8442 242.397C51.6812 242.565 51.5996 242.809 51.5996 243.131V245.399H50.562V241.292H51.5996V241.789C51.733 241.616 51.9035 241.48 52.111 241.381C52.3235 241.283 52.5557 241.233 52.8077 241.233C53.1289 241.233 53.4155 241.302 53.6675 241.441C53.9195 241.574 54.1147 241.767 54.253 242.019C54.3865 241.782 54.5792 241.591 54.8312 241.448C55.0881 241.305 55.3648 241.233 55.6613 241.233ZM59.3661 241.885C59.4995 241.698 59.6823 241.542 59.9146 241.418C60.1518 241.29 60.421 241.226 60.7225 241.226C61.0733 241.226 61.3895 241.312 61.6712 241.485C61.9578 241.658 62.1826 241.905 62.3456 242.226C62.5136 242.543 62.5976 242.911 62.5976 243.331C62.5976 243.751 62.5136 244.124 62.3456 244.45C62.1826 244.771 61.9578 245.021 61.6712 245.199C61.3895 245.376 61.0733 245.465 60.7225 245.465C60.421 245.465 60.1542 245.404 59.922 245.28C59.6947 245.157 59.5094 245.001 59.3661 244.813V247.355H58.3284V241.292H59.3661V241.885ZM61.5378 243.331C61.5378 243.084 61.4859 242.871 61.3821 242.693C61.2833 242.511 61.1499 242.372 60.9819 242.278C60.8188 242.184 60.6409 242.137 60.4482 242.137C60.2605 242.137 60.0826 242.187 59.9146 242.286C59.7515 242.38 59.6181 242.518 59.5143 242.701C59.4155 242.884 59.3661 243.099 59.3661 243.346C59.3661 243.593 59.4155 243.808 59.5143 243.99C59.6181 244.173 59.7515 244.314 59.9146 244.413C60.0826 244.507 60.2605 244.554 60.4482 244.554C60.6409 244.554 60.8188 244.504 60.9819 244.405C61.1499 244.307 61.2833 244.166 61.3821 243.983C61.4859 243.8 61.5378 243.583 61.5378 243.331ZM64.3893 239.914V245.399H63.3517V239.914H64.3893ZM69.2316 243.257C69.2316 243.405 69.2217 243.538 69.202 243.657H66.2002C66.2249 243.953 66.3287 244.186 66.5115 244.354C66.6943 244.522 66.9191 244.606 67.186 244.606C67.5714 244.606 67.8456 244.44 68.0087 244.109H69.1279C69.0093 244.504 68.782 244.83 68.446 245.087C68.11 245.339 67.6974 245.465 67.2082 245.465C66.8129 245.465 66.4571 245.379 66.1409 245.206C65.8296 245.028 65.585 244.779 65.4071 244.457C65.2342 244.136 65.1477 243.766 65.1477 243.346C65.1477 242.921 65.2342 242.548 65.4071 242.226C65.5801 241.905 65.8222 241.658 66.1335 241.485C66.4448 241.312 66.803 241.226 67.2082 241.226C67.5986 241.226 67.9469 241.31 68.2533 241.478C68.5646 241.646 68.8042 241.885 68.9722 242.197C69.1452 242.503 69.2316 242.856 69.2316 243.257ZM68.1569 242.96C68.152 242.693 68.0556 242.481 67.8678 242.323C67.6801 242.16 67.4503 242.078 67.1786 242.078C66.9216 242.078 66.7042 242.157 66.5263 242.315C66.3534 242.469 66.2471 242.683 66.2076 242.96H68.1569ZM75.2757 240.225V241.063H73.8971V245.399H72.8595V241.063H71.4809V240.225H75.2757ZM79.9611 241.292L77.4188 247.341H76.3145L77.2039 245.295L75.5585 241.292H76.7221L77.782 244.161L78.8567 241.292H79.9611ZM81.5581 241.885C81.6915 241.698 81.8743 241.542 82.1066 241.418C82.3438 241.29 82.613 241.226 82.9145 241.226C83.2653 241.226 83.5815 241.312 83.8632 241.485C84.1498 241.658 84.3746 241.905 84.5376 242.226C84.7057 242.543 84.7897 242.911 84.7897 243.331C84.7897 243.751 84.7057 244.124 84.5376 244.45C84.3746 244.771 84.1498 245.021 83.8632 245.199C83.5815 245.376 83.2653 245.465 82.9145 245.465C82.613 245.465 82.3462 245.404 82.114 245.28C81.8867 245.157 81.7014 245.001 81.5581 244.813V247.355H80.5204V241.292H81.5581V241.885ZM83.7298 243.331C83.7298 243.084 83.6779 242.871 83.5741 242.693C83.4753 242.511 83.3419 242.372 83.1739 242.278C83.0108 242.184 82.8329 242.137 82.6402 242.137C82.4525 242.137 82.2746 242.187 82.1066 242.286C81.9435 242.38 81.8101 242.518 81.7063 242.701C81.6075 242.884 81.5581 243.099 81.5581 243.346C81.5581 243.593 81.6075 243.808 81.7063 243.99C81.8101 244.173 81.9435 244.314 82.1066 244.413C82.2746 244.507 82.4525 244.554 82.6402 244.554C82.8329 244.554 83.0108 244.504 83.1739 244.405C83.3419 244.307 83.4753 244.166 83.5741 243.983C83.6779 243.8 83.7298 243.583 83.7298 243.331ZM89.3608 243.257C89.3608 243.405 89.3509 243.538 89.3311 243.657H86.3293C86.354 243.953 86.4578 244.186 86.6406 244.354C86.8235 244.522 87.0483 244.606 87.3151 244.606C87.7005 244.606 87.9748 244.44 88.1378 244.109H89.257C89.1384 244.504 88.9111 244.83 88.5751 245.087C88.2391 245.339 87.8265 245.465 87.3373 245.465C86.942 245.465 86.5863 245.379 86.27 245.206C85.9587 245.028 85.7142 244.779 85.5363 244.457C85.3633 244.136 85.2769 243.766 85.2769 243.346C85.2769 242.921 85.3633 242.548 85.5363 242.226C85.7092 241.905 85.9513 241.658 86.2626 241.485C86.5739 241.312 86.9322 241.226 87.3373 241.226C87.7277 241.226 88.0761 241.31 88.3824 241.478C88.6937 241.646 88.9334 241.885 89.1014 242.197C89.2743 242.503 89.3608 242.856 89.3608 243.257ZM88.2861 242.96C88.2811 242.693 88.1848 242.481 87.997 242.323C87.8092 242.16 87.5795 242.078 87.3077 242.078C87.0508 242.078 86.8333 242.157 86.6555 242.315C86.4825 242.469 86.3763 242.683 86.3368 242.96H88.2861Z" fill="black"/>
<path d="M43.9533 258.802C44.2449 258.857 44.4845 259.003 44.6723 259.24C44.86 259.477 44.9539 259.749 44.9539 260.055C44.9539 260.332 44.8847 260.576 44.7464 260.789C44.613 260.996 44.4178 261.159 44.1609 261.278C43.9039 261.397 43.6 261.456 43.2492 261.456H41.0183V256.282H43.1529C43.5037 256.282 43.8051 256.339 44.0571 256.453C44.314 256.567 44.5067 256.725 44.6352 256.927C44.7686 257.13 44.8353 257.36 44.8353 257.617C44.8353 257.918 44.7538 258.17 44.5907 258.373C44.4326 258.575 44.2202 258.718 43.9533 258.802ZM42.0559 258.417H43.0046C43.2517 258.417 43.4419 258.363 43.5753 258.254C43.7087 258.14 43.7754 257.98 43.7754 257.772C43.7754 257.565 43.7087 257.404 43.5753 257.29C43.4419 257.177 43.2517 257.12 43.0046 257.12H42.0559V258.417ZM43.101 260.611C43.353 260.611 43.5481 260.552 43.6865 260.433C43.8298 260.314 43.9014 260.146 43.9014 259.929C43.9014 259.707 43.8273 259.534 43.6791 259.41C43.5309 259.282 43.3307 259.217 43.0787 259.217H42.0559V260.611H43.101ZM46.8186 255.971V261.456H45.7809V255.971H46.8186ZM49.6671 261.523C49.2718 261.523 48.916 261.436 48.5998 261.263C48.2835 261.085 48.034 260.836 47.8512 260.515C47.6733 260.193 47.5844 259.823 47.5844 259.403C47.5844 258.983 47.6758 258.612 47.8586 258.291C48.0464 257.97 48.3008 257.723 48.622 257.55C48.9432 257.372 49.3014 257.283 49.6967 257.283C50.092 257.283 50.4503 257.372 50.7714 257.55C51.0926 257.723 51.3446 257.97 51.5274 258.291C51.7152 258.612 51.8091 258.983 51.8091 259.403C51.8091 259.823 51.7127 260.193 51.52 260.515C51.3323 260.836 51.0753 261.085 50.7492 261.263C50.428 261.436 50.0673 261.523 49.6671 261.523ZM49.6671 260.618C49.8548 260.618 50.0303 260.574 50.1933 260.485C50.3613 260.391 50.4947 260.253 50.5936 260.07C50.6924 259.887 50.7418 259.665 50.7418 259.403C50.7418 259.012 50.638 258.713 50.4305 258.506C50.2279 258.293 49.9784 258.187 49.6819 258.187C49.3854 258.187 49.1359 258.293 48.9333 258.506C48.7357 258.713 48.6368 259.012 48.6368 259.403C48.6368 259.793 48.7332 260.095 48.9259 260.307C49.1235 260.515 49.3706 260.618 49.6671 260.618ZM54.3936 261.523C53.9983 261.523 53.6425 261.436 53.3263 261.263C53.01 261.085 52.7605 260.836 52.5777 260.515C52.3998 260.193 52.3108 259.823 52.3108 259.403C52.3108 258.983 52.4023 258.612 52.5851 258.291C52.7728 257.97 53.0273 257.723 53.3485 257.55C53.6697 257.372 54.0279 257.283 54.4232 257.283C54.8185 257.283 55.1767 257.372 55.4979 257.55C55.8191 257.723 56.0711 257.97 56.2539 258.291C56.4417 258.612 56.5356 258.983 56.5356 259.403C56.5356 259.823 56.4392 260.193 56.2465 260.515C56.0587 260.836 55.8018 261.085 55.4757 261.263C55.1545 261.436 54.7938 261.523 54.3936 261.523ZM54.3936 260.618C54.5813 260.618 54.7567 260.574 54.9198 260.485C55.0878 260.391 55.2212 260.253 55.32 260.07C55.4189 259.887 55.4683 259.665 55.4683 259.403C55.4683 259.012 55.3645 258.713 55.157 258.506C54.9544 258.293 54.7049 258.187 54.4084 258.187C54.1119 258.187 53.8624 258.293 53.6598 258.506C53.4621 258.713 53.3633 259.012 53.3633 259.403C53.3633 259.793 53.4597 260.095 53.6524 260.307C53.85 260.515 54.0971 260.618 54.3936 260.618ZM57.0299 259.388C57.0299 258.973 57.1114 258.605 57.2745 258.284C57.4425 257.962 57.6698 257.715 57.9564 257.542C58.243 257.369 58.5617 257.283 58.9125 257.283C59.1793 257.283 59.4338 257.342 59.6759 257.461C59.918 257.575 60.1107 257.728 60.254 257.92V255.971H61.3065V261.456H60.254V260.848C60.1256 261.051 59.9452 261.214 59.713 261.337C59.4807 261.461 59.2114 261.523 58.9051 261.523C58.5592 261.523 58.243 261.434 57.9564 261.256C57.6698 261.078 57.4425 260.828 57.2745 260.507C57.1114 260.181 57.0299 259.808 57.0299 259.388ZM60.2615 259.403C60.2615 259.151 60.212 258.936 60.1132 258.758C60.0144 258.575 59.881 258.437 59.713 258.343C59.545 258.244 59.3646 258.195 59.1719 258.195C58.9792 258.195 58.8013 258.242 58.6383 258.335C58.4752 258.429 58.3418 258.568 58.238 258.751C58.1392 258.928 58.0898 259.141 58.0898 259.388C58.0898 259.635 58.1392 259.852 58.238 260.04C58.3418 260.223 58.4752 260.364 58.6383 260.463C58.8063 260.561 58.9842 260.611 59.1719 260.611C59.3646 260.611 59.545 260.564 59.713 260.47C59.881 260.371 60.0144 260.233 60.1132 260.055C60.212 259.872 60.2615 259.655 60.2615 259.403ZM67.6882 257.839C67.5696 257.621 67.4066 257.456 67.199 257.342C66.9915 257.229 66.7494 257.172 66.4727 257.172C66.1663 257.172 65.8945 257.241 65.6574 257.379C65.4202 257.518 65.2349 257.715 65.1015 257.972C64.9681 258.229 64.9014 258.526 64.9014 258.862C64.9014 259.208 64.9681 259.509 65.1015 259.766C65.2398 260.023 65.4301 260.221 65.6722 260.359C65.9143 260.497 66.196 260.566 66.5171 260.566C66.9124 260.566 67.2361 260.463 67.4881 260.255C67.7401 260.043 67.9056 259.749 67.9847 259.373H66.2058V258.58H69.0075V259.484C68.9383 259.845 68.7901 260.179 68.5628 260.485C68.3355 260.791 68.0415 261.038 67.6808 261.226C67.325 261.409 66.9248 261.5 66.4801 261.5C65.981 261.5 65.5289 261.389 65.1237 261.167C64.7235 260.94 64.4072 260.626 64.175 260.225C63.9477 259.825 63.8341 259.371 63.8341 258.862C63.8341 258.353 63.9477 257.898 64.175 257.498C64.4072 257.093 64.7235 256.779 65.1237 256.557C65.5289 256.329 65.9785 256.216 66.4727 256.216C67.0557 256.216 67.5622 256.359 67.9921 256.646C68.422 256.927 68.7184 257.325 68.8815 257.839H67.6882ZM70.8129 257.987C70.9463 257.77 71.1192 257.599 71.3317 257.476C71.5491 257.352 71.7962 257.29 72.0729 257.29V258.38H71.7986C71.4725 258.38 71.2255 258.457 71.0575 258.61C70.8944 258.763 70.8129 259.03 70.8129 259.41V261.456H69.7752V257.35H70.8129V257.987ZM74.5951 261.523C74.1998 261.523 73.844 261.436 73.5278 261.263C73.2115 261.085 72.962 260.836 72.7792 260.515C72.6013 260.193 72.5124 259.823 72.5124 259.403C72.5124 258.983 72.6038 258.612 72.7866 258.291C72.9744 257.97 73.2288 257.723 73.55 257.55C73.8712 257.372 74.2294 257.283 74.6247 257.283C75.02 257.283 75.3783 257.372 75.6994 257.55C76.0206 257.723 76.2726 257.97 76.4554 258.291C76.6432 258.612 76.7371 258.983 76.7371 259.403C76.7371 259.823 76.6407 260.193 76.448 260.515C76.2603 260.836 76.0033 261.085 75.6772 261.263C75.356 261.436 74.9953 261.523 74.5951 261.523ZM74.5951 260.618C74.7828 260.618 74.9583 260.574 75.1213 260.485C75.2893 260.391 75.4227 260.253 75.5216 260.07C75.6204 259.887 75.6698 259.665 75.6698 259.403C75.6698 259.012 75.566 258.713 75.3585 258.506C75.1559 258.293 74.9064 258.187 74.6099 258.187C74.3134 258.187 74.0639 258.293 73.8613 258.506C73.6637 258.713 73.5648 259.012 73.5648 259.403C73.5648 259.793 73.6612 260.095 73.8539 260.307C74.0516 260.515 74.2986 260.618 74.5951 260.618ZM81.3746 257.35V261.456H80.3296V260.937C80.1962 261.115 80.0207 261.256 79.8033 261.36C79.5909 261.458 79.3586 261.508 79.1066 261.508C78.7854 261.508 78.5013 261.441 78.2543 261.308C78.0072 261.169 77.812 260.969 77.6687 260.707C77.5304 260.44 77.4612 260.124 77.4612 259.759V257.35H78.4988V259.61C78.4988 259.936 78.5804 260.188 78.7434 260.366C78.9065 260.539 79.1289 260.626 79.4105 260.626C79.6971 260.626 79.9219 260.539 80.085 260.366C80.248 260.188 80.3296 259.936 80.3296 259.61V257.35H81.3746ZM83.4361 257.943C83.5695 257.755 83.7523 257.599 83.9846 257.476C84.2218 257.347 84.491 257.283 84.7925 257.283C85.1433 257.283 85.4595 257.369 85.7412 257.542C86.0278 257.715 86.2526 257.962 86.4156 258.284C86.5836 258.6 86.6676 258.968 86.6676 259.388C86.6676 259.808 86.5836 260.181 86.4156 260.507C86.2526 260.828 86.0278 261.078 85.7412 261.256C85.4595 261.434 85.1433 261.523 84.7925 261.523C84.491 261.523 84.2242 261.461 83.992 261.337C83.7647 261.214 83.5794 261.058 83.4361 260.87V263.413H82.3984V257.35H83.4361V257.943ZM85.6078 259.388C85.6078 259.141 85.5559 258.928 85.4521 258.751C85.3533 258.568 85.2199 258.429 85.0519 258.335C84.8888 258.242 84.7109 258.195 84.5182 258.195C84.3305 258.195 84.1526 258.244 83.9846 258.343C83.8215 258.437 83.6881 258.575 83.5843 258.758C83.4855 258.941 83.4361 259.156 83.4361 259.403C83.4361 259.65 83.4855 259.865 83.5843 260.048C83.6881 260.23 83.8215 260.371 83.9846 260.47C84.1526 260.564 84.3305 260.611 84.5182 260.611C84.7109 260.611 84.8888 260.561 85.0519 260.463C85.2199 260.364 85.3533 260.223 85.4521 260.04C85.5559 259.857 85.6078 259.64 85.6078 259.388ZM88.5557 260.366L87.6885 262.449H87.0214L87.5032 260.366H88.5557ZM94.2419 260.47H92.1815L91.8405 261.456H90.751L92.6113 256.275H93.8195L95.6798 261.456H94.5829L94.2419 260.47ZM93.9603 259.64L93.2117 257.476L92.4631 259.64H93.9603ZM99.3103 258.802C99.6018 258.857 99.8415 259.003 100.029 259.24C100.217 259.477 100.311 259.749 100.311 260.055C100.311 260.332 100.242 260.576 100.103 260.789C99.9699 260.996 99.7748 261.159 99.5178 261.278C99.2609 261.397 98.957 261.456 98.6062 261.456H96.3752V256.282H98.5098C98.8606 256.282 99.162 256.339 99.414 256.453C99.671 256.567 99.8637 256.725 99.9922 256.927C100.126 257.13 100.192 257.36 100.192 257.617C100.192 257.918 100.111 258.17 99.9477 258.373C99.7896 258.575 99.5771 258.718 99.3103 258.802ZM97.4129 258.417H98.3616C98.6086 258.417 98.7989 258.363 98.9323 258.254C99.0657 258.14 99.1324 257.98 99.1324 257.772C99.1324 257.565 99.0657 257.404 98.9323 257.29C98.7989 257.177 98.6086 257.12 98.3616 257.12H97.4129V258.417ZM98.4579 260.611C98.7099 260.611 98.9051 260.552 99.0435 260.433C99.1868 260.314 99.2584 260.146 99.2584 259.929C99.2584 259.707 99.1843 259.534 99.036 259.41C98.8878 259.282 98.6877 259.217 98.4357 259.217H97.4129V260.611H98.4579ZM103.539 261.508C103.055 261.508 102.61 261.394 102.205 261.167C101.8 260.94 101.479 260.626 101.242 260.225C101.004 259.82 100.886 259.363 100.886 258.854C100.886 258.35 101.004 257.898 101.242 257.498C101.479 257.093 101.8 256.777 102.205 256.549C102.61 256.322 103.055 256.208 103.539 256.208C104.028 256.208 104.473 256.322 104.873 256.549C105.279 256.777 105.597 257.093 105.83 257.498C106.067 257.898 106.185 258.35 106.185 258.854C106.185 259.363 106.067 259.82 105.83 260.225C105.597 260.626 105.279 260.94 104.873 261.167C104.468 261.394 104.024 261.508 103.539 261.508ZM103.539 260.581C103.851 260.581 104.125 260.512 104.362 260.374C104.599 260.23 104.784 260.028 104.918 259.766C105.051 259.504 105.118 259.2 105.118 258.854C105.118 258.508 105.051 258.207 104.918 257.95C104.784 257.688 104.599 257.488 104.362 257.35C104.125 257.211 103.851 257.142 103.539 257.142C103.228 257.142 102.951 257.211 102.709 257.35C102.472 257.488 102.287 257.688 102.153 257.95C102.02 258.207 101.953 258.508 101.953 258.854C101.953 259.2 102.02 259.504 102.153 259.766C102.287 260.028 102.472 260.23 102.709 260.374C102.951 260.512 103.228 260.581 103.539 260.581Z" fill="black"/>
<path d="M161.163 216.985L160.022 214.969H159.532V216.985H158.495V211.812H160.437C160.837 211.812 161.178 211.884 161.46 212.027C161.741 212.165 161.951 212.356 162.09 212.598C162.233 212.835 162.304 213.102 162.304 213.398C162.304 213.739 162.206 214.048 162.008 214.325C161.81 214.596 161.516 214.784 161.126 214.888L162.364 216.985H161.163ZM159.532 214.191H160.4C160.681 214.191 160.891 214.125 161.03 213.991C161.168 213.853 161.237 213.663 161.237 213.42C161.237 213.183 161.168 213 161.03 212.872C160.891 212.739 160.681 212.672 160.4 212.672H159.532V214.191ZM167.06 214.843C167.06 214.992 167.05 215.125 167.03 215.244H164.029C164.053 215.54 164.157 215.772 164.34 215.94C164.523 216.108 164.748 216.192 165.014 216.192C165.4 216.192 165.674 216.027 165.837 215.696H166.956C166.838 216.091 166.61 216.417 166.274 216.674C165.938 216.926 165.526 217.052 165.037 217.052C164.641 217.052 164.286 216.966 163.969 216.793C163.658 216.615 163.413 216.365 163.236 216.044C163.063 215.723 162.976 215.352 162.976 214.932C162.976 214.507 163.063 214.134 163.236 213.813C163.409 213.492 163.651 213.245 163.962 213.072C164.273 212.899 164.631 212.813 165.037 212.813C165.427 212.813 165.775 212.897 166.082 213.065C166.393 213.233 166.633 213.472 166.801 213.784C166.974 214.09 167.06 214.443 167.06 214.843ZM165.985 214.547C165.98 214.28 165.884 214.068 165.696 213.91C165.509 213.747 165.279 213.665 165.007 213.665C164.75 213.665 164.533 213.744 164.355 213.902C164.182 214.055 164.076 214.27 164.036 214.547H165.985ZM169.389 217.052C169.053 217.052 168.751 216.993 168.485 216.874C168.218 216.751 168.005 216.585 167.847 216.378C167.694 216.17 167.61 215.94 167.595 215.688H168.64C168.66 215.847 168.737 215.977 168.87 216.081C169.008 216.185 169.179 216.237 169.381 216.237C169.579 216.237 169.732 216.197 169.841 216.118C169.955 216.039 170.011 215.938 170.011 215.814C170.011 215.681 169.942 215.582 169.804 215.518C169.67 215.449 169.455 215.375 169.159 215.296C168.853 215.221 168.601 215.145 168.403 215.066C168.21 214.987 168.042 214.866 167.899 214.703C167.761 214.54 167.691 214.32 167.691 214.043C167.691 213.816 167.756 213.608 167.884 213.42C168.018 213.233 168.205 213.084 168.447 212.976C168.695 212.867 168.984 212.813 169.315 212.813C169.804 212.813 170.194 212.936 170.486 213.183C170.777 213.425 170.938 213.754 170.968 214.169H169.974C169.959 214.006 169.89 213.877 169.767 213.784C169.648 213.685 169.488 213.635 169.285 213.635C169.097 213.635 168.951 213.67 168.848 213.739C168.749 213.808 168.699 213.905 168.699 214.028C168.699 214.167 168.769 214.273 168.907 214.347C169.045 214.416 169.26 214.488 169.552 214.562C169.848 214.636 170.093 214.713 170.286 214.792C170.478 214.871 170.644 214.994 170.782 215.162C170.926 215.325 171 215.543 171.005 215.814C171.005 216.052 170.938 216.264 170.804 216.452C170.676 216.64 170.488 216.788 170.241 216.897C169.999 217 169.715 217.052 169.389 217.052ZM175.733 212.879V216.985H174.688V216.467C174.554 216.645 174.379 216.785 174.161 216.889C173.949 216.988 173.717 217.037 173.465 217.037C173.144 217.037 172.859 216.971 172.612 216.837C172.365 216.699 172.17 216.499 172.027 216.237C171.888 215.97 171.819 215.654 171.819 215.288V212.879H172.857V215.14C172.857 215.466 172.938 215.718 173.102 215.896C173.265 216.069 173.487 216.155 173.769 216.155C174.055 216.155 174.28 216.069 174.443 215.896C174.606 215.718 174.688 215.466 174.688 215.14V212.879H175.733ZM177.794 211.501V216.985H176.757V211.501H177.794ZM180.028 213.732V215.718C180.028 215.856 180.06 215.958 180.124 216.022C180.193 216.081 180.307 216.111 180.465 216.111H180.947V216.985H180.294C179.42 216.985 178.982 216.561 178.982 215.711V213.732H178.493V212.879H178.982V211.864H180.028V212.879H180.947V213.732H180.028Z" fill="black"/>
<path d="M264.78 211.812V215.014C264.78 215.365 264.871 215.634 265.054 215.822C265.237 216.005 265.494 216.096 265.825 216.096C266.161 216.096 266.42 216.005 266.603 215.822C266.786 215.634 266.877 215.365 266.877 215.014V211.812H267.922V215.007C267.922 215.446 267.826 215.819 267.633 216.126C267.445 216.427 267.191 216.654 266.87 216.808C266.553 216.961 266.2 217.037 265.81 217.037C265.424 217.037 265.074 216.961 264.757 216.808C264.446 216.654 264.199 216.427 264.016 216.126C263.833 215.819 263.742 215.446 263.742 215.007V211.812H264.78ZM271.2 212.82C271.689 212.82 272.085 212.976 272.386 213.287C272.688 213.593 272.838 214.023 272.838 214.577V216.985H271.801V214.717C271.801 214.391 271.719 214.142 271.556 213.969C271.393 213.791 271.171 213.702 270.889 213.702C270.602 213.702 270.375 213.791 270.207 213.969C270.044 214.142 269.962 214.391 269.962 214.717V216.985H268.925V212.879H269.962V213.391C270.101 213.213 270.276 213.075 270.489 212.976C270.706 212.872 270.943 212.82 271.2 212.82ZM274.351 212.39C274.168 212.39 274.015 212.333 273.892 212.22C273.773 212.101 273.714 211.955 273.714 211.782C273.714 211.609 273.773 211.466 273.892 211.353C274.015 211.234 274.168 211.175 274.351 211.175C274.534 211.175 274.685 211.234 274.803 211.353C274.927 211.466 274.989 211.609 274.989 211.782C274.989 211.955 274.927 212.101 274.803 212.22C274.685 212.333 274.534 212.39 274.351 212.39ZM274.863 212.879V216.985H273.825V212.879H274.863ZM277.096 213.732V215.718C277.096 215.856 277.128 215.958 277.192 216.022C277.261 216.081 277.375 216.111 277.533 216.111H278.015V216.985H277.363C276.488 216.985 276.051 216.561 276.051 215.711V213.732H275.562V212.879H276.051V211.864H277.096V212.879H278.015V213.732H277.096Z" fill="black"/>
<path d="M138.165 184.329C138.554 184.402 138.873 184.596 139.123 184.912C139.374 185.229 139.499 185.591 139.499 185.999C139.499 186.368 139.407 186.695 139.222 186.978C139.044 187.255 138.784 187.472 138.442 187.63C138.099 187.788 137.694 187.867 137.226 187.867H134.251V180.969H137.098C137.565 180.969 137.967 181.045 138.303 181.197C138.646 181.348 138.903 181.559 139.074 181.829C139.252 182.099 139.341 182.406 139.341 182.748C139.341 183.15 139.232 183.486 139.015 183.756C138.804 184.026 138.521 184.217 138.165 184.329ZM135.635 183.815H136.9C137.229 183.815 137.483 183.743 137.661 183.598C137.839 183.446 137.928 183.232 137.928 182.956C137.928 182.679 137.839 182.465 137.661 182.313C137.483 182.162 137.229 182.086 136.9 182.086H135.635V183.815ZM137.028 186.741C137.364 186.741 137.625 186.662 137.809 186.503C138 186.345 138.096 186.121 138.096 185.831C138.096 185.535 137.997 185.304 137.799 185.14C137.602 184.968 137.335 184.883 136.999 184.883H135.635V186.741H137.028ZM141.985 186.77H144.258V187.867H140.602V180.969H141.985V186.77ZM148.339 187.936C147.694 187.936 147.101 187.785 146.561 187.482C146.02 187.179 145.592 186.76 145.276 186.227C144.96 185.686 144.802 185.077 144.802 184.398C144.802 183.726 144.96 183.124 145.276 182.59C145.592 182.05 146.02 181.628 146.561 181.325C147.101 181.022 147.694 180.87 148.339 180.87C148.992 180.87 149.585 181.022 150.118 181.325C150.659 181.628 151.083 182.05 151.393 182.59C151.709 183.124 151.867 183.726 151.867 184.398C151.867 185.077 151.709 185.686 151.393 186.227C151.083 186.76 150.659 187.179 150.118 187.482C149.578 187.785 148.985 187.936 148.339 187.936ZM148.339 186.701C148.755 186.701 149.12 186.609 149.436 186.424C149.753 186.233 150 185.963 150.178 185.614C150.355 185.265 150.444 184.86 150.444 184.398C150.444 183.937 150.355 183.535 150.178 183.193C150 182.844 149.753 182.577 149.436 182.392C149.12 182.208 148.755 182.116 148.339 182.116C147.924 182.116 147.555 182.208 147.233 182.392C146.916 182.577 146.669 182.844 146.491 183.193C146.314 183.535 146.225 183.937 146.225 184.398C146.225 184.86 146.314 185.265 146.491 185.614C146.669 185.963 146.916 186.233 147.233 186.424C147.555 186.609 147.924 186.701 148.339 186.701ZM156.099 187.936C155.453 187.936 154.86 187.785 154.32 187.482C153.78 187.179 153.351 186.76 153.035 186.227C152.719 185.686 152.561 185.077 152.561 184.398C152.561 183.726 152.719 183.124 153.035 182.59C153.351 182.05 153.78 181.628 154.32 181.325C154.86 181.022 155.453 180.87 156.099 180.87C156.751 180.87 157.344 181.022 157.878 181.325C158.418 181.628 158.843 182.05 159.152 182.59C159.469 183.124 159.627 183.726 159.627 184.398C159.627 185.077 159.469 185.686 159.152 186.227C158.843 186.76 158.418 187.179 157.878 187.482C157.337 187.785 156.744 187.936 156.099 187.936ZM156.099 186.701C156.514 186.701 156.879 186.609 157.196 186.424C157.512 186.233 157.759 185.963 157.937 185.614C158.115 185.265 158.204 184.86 158.204 184.398C158.204 183.937 158.115 183.535 157.937 183.193C157.759 182.844 157.512 182.577 157.196 182.392C156.879 182.208 156.514 182.116 156.099 182.116C155.684 182.116 155.315 182.208 154.992 182.392C154.676 182.577 154.429 182.844 154.251 183.193C154.073 183.535 153.984 183.937 153.984 184.398C153.984 184.86 154.073 185.265 154.251 185.614C154.429 185.963 154.676 186.233 154.992 186.424C155.315 186.609 155.684 186.701 156.099 186.701ZM163.067 180.969C163.792 180.969 164.428 181.111 164.975 181.394C165.528 181.678 165.953 182.083 166.249 182.61C166.553 183.13 166.704 183.736 166.704 184.428C166.704 185.12 166.553 185.726 166.249 186.247C165.953 186.76 165.528 187.159 164.975 187.442C164.428 187.726 163.792 187.867 163.067 187.867H160.656V180.969H163.067ZM163.018 186.691C163.743 186.691 164.303 186.494 164.698 186.098C165.093 185.703 165.291 185.146 165.291 184.428C165.291 183.71 165.093 183.15 164.698 182.748C164.303 182.34 163.743 182.135 163.018 182.135H162.04V186.691H163.018ZM174.897 183.045C174.739 182.755 174.522 182.534 174.245 182.382C173.968 182.231 173.646 182.155 173.277 182.155C172.868 182.155 172.506 182.247 172.19 182.432C171.873 182.616 171.626 182.88 171.448 183.222C171.271 183.565 171.182 183.96 171.182 184.408C171.182 184.87 171.271 185.271 171.448 185.614C171.633 185.957 171.887 186.22 172.209 186.405C172.532 186.589 172.908 186.681 173.336 186.681C173.863 186.681 174.295 186.543 174.631 186.266C174.967 185.983 175.187 185.591 175.293 185.09H172.921V184.033H176.656V185.238C176.564 185.719 176.367 186.164 176.063 186.573C175.76 186.981 175.368 187.311 174.887 187.561C174.413 187.805 173.879 187.927 173.287 187.927C172.621 187.927 172.018 187.778 171.478 187.482C170.944 187.179 170.523 186.76 170.213 186.227C169.91 185.693 169.759 185.087 169.759 184.408C169.759 183.73 169.91 183.124 170.213 182.59C170.523 182.05 170.944 181.631 171.478 181.335C172.018 181.032 172.618 180.88 173.277 180.88C174.054 180.88 174.729 181.071 175.303 181.454C175.876 181.829 176.271 182.359 176.488 183.045H174.897ZM181.238 187.867L179.716 185.179H179.064V187.867H177.68V180.969H180.269C180.803 180.969 181.257 181.065 181.633 181.256C182.009 181.44 182.289 181.694 182.473 182.017C182.664 182.333 182.76 182.689 182.76 183.084C182.76 183.539 182.628 183.95 182.364 184.319C182.101 184.682 181.709 184.932 181.188 185.07L182.839 187.867H181.238ZM179.064 184.142H180.22C180.595 184.142 180.875 184.053 181.06 183.875C181.244 183.69 181.337 183.437 181.337 183.114C181.337 182.798 181.244 182.554 181.06 182.382C180.875 182.205 180.595 182.116 180.22 182.116H179.064V184.142ZM187.213 187.936C186.567 187.936 185.974 187.785 185.434 187.482C184.894 187.179 184.466 186.76 184.149 186.227C183.833 185.686 183.675 185.077 183.675 184.398C183.675 183.726 183.833 183.124 184.149 182.59C184.466 182.05 184.894 181.628 185.434 181.325C185.974 181.022 186.567 180.87 187.213 180.87C187.865 180.87 188.458 181.022 188.992 181.325C189.532 181.628 189.957 182.05 190.267 182.59C190.583 183.124 190.741 183.726 190.741 184.398C190.741 185.077 190.583 185.686 190.267 186.227C189.957 186.76 189.532 187.179 188.992 187.482C188.451 187.785 187.859 187.936 187.213 187.936ZM187.213 186.701C187.628 186.701 187.994 186.609 188.31 186.424C188.626 186.233 188.873 185.963 189.051 185.614C189.229 185.265 189.318 184.86 189.318 184.398C189.318 183.937 189.229 183.535 189.051 183.193C188.873 182.844 188.626 182.577 188.31 182.392C187.994 182.208 187.628 182.116 187.213 182.116C186.798 182.116 186.429 182.208 186.106 182.392C185.79 182.577 185.543 182.844 185.365 183.193C185.187 183.535 185.098 183.937 185.098 184.398C185.098 184.86 185.187 185.265 185.365 185.614C185.543 185.963 185.79 186.233 186.106 186.424C186.429 186.609 186.798 186.701 187.213 186.701ZM193.134 180.969V185.238C193.134 185.706 193.256 186.065 193.5 186.316C193.743 186.559 194.086 186.681 194.527 186.681C194.975 186.681 195.321 186.559 195.565 186.316C195.809 186.065 195.931 185.706 195.931 185.238V180.969H197.324V185.229C197.324 185.815 197.196 186.312 196.939 186.721C196.688 187.123 196.349 187.426 195.921 187.63C195.499 187.834 195.028 187.936 194.508 187.936C193.994 187.936 193.526 187.834 193.104 187.63C192.689 187.426 192.36 187.123 192.116 186.721C191.872 186.312 191.75 185.815 191.75 185.229V180.969H193.134ZM203.691 183.104C203.691 183.473 203.602 183.819 203.424 184.142C203.253 184.464 202.979 184.725 202.604 184.922C202.235 185.12 201.767 185.219 201.201 185.219H200.044V187.867H198.661V180.969H201.201C201.734 180.969 202.189 181.062 202.564 181.246C202.94 181.43 203.22 181.684 203.404 182.007C203.595 182.33 203.691 182.695 203.691 183.104ZM201.141 184.102C201.523 184.102 201.807 184.016 201.991 183.845C202.176 183.667 202.268 183.42 202.268 183.104C202.268 182.432 201.892 182.096 201.141 182.096H200.044V184.102H201.141Z" fill="black"/>
<rect x="40.5144" y="144.749" width="39.6634" height="4.94113" rx="2.47056" fill="#EAEDF5"/>
<rect x="135.097" y="144.749" width="73.2248" height="4.94113" rx="2.47056" fill="#EAEDF5"/>
<rect x="229.683" y="154.633" width="73.2248" height="4.94113" rx="2.47056" fill="#EAEDF5"/>
<rect x="40.5107" y="153.398" width="32.0359" height="4.94113" rx="2.47056" fill="#EAEDF5"/>
<rect x="40.5068" y="274.455" width="262.011" height="6.17641" fill="#DCE2EC"/>
<rect x="40.5068" y="292.719" width="65.5972" height="6.17641" fill="#DCE2EC"/>
<rect x="40.5068" y="310.983" width="142.099" height="6.17641" fill="#DCE2EC"/>
<rect x="40.5068" y="329.247" width="122.01" height="6.17641" fill="#DCE2EC"/>
<rect x="40.5068" y="347.511" width="65.5972" height="6.17641" fill="#DCE2EC"/>
<rect x="135.097" y="153.394" width="32.0359" height="4.94113" rx="2.47056" fill="#EAEDF5"/>
</svg>
