<svg width="410" height="467" viewBox="0 0 410 467" fill="none" xmlns="http://www.w3.org/2000/svg">
<mask id="path-1-inside-1_406_6770" fill="white">
<rect x="0.924805" y="0.24118" width="408.338" height="466.155" rx="3"/>
</mask>
<rect x="0.924805" y="0.24118" width="408.338" height="466.155" rx="3" fill="white" stroke="black" stroke-width="6.46445" mask="url(#path-1-inside-1_406_6770)"/>
<path d="M52.0264 104.063L49.5331 108.865V111.597H48.2972V108.865L45.793 104.063H47.1698L48.9151 107.759L50.6605 104.063H52.0264ZM55.5982 111.695C55.0344 111.695 54.5249 111.568 54.0696 111.315C53.6143 111.055 53.2565 110.694 52.9964 110.231C52.7362 109.761 52.6061 109.219 52.6061 108.605C52.6061 107.998 52.7398 107.46 53.0072 106.99C53.2746 106.52 53.6396 106.159 54.1021 105.906C54.5647 105.653 55.0814 105.526 55.6524 105.526C56.2233 105.526 56.74 105.653 57.2026 105.906C57.6651 106.159 58.0301 106.52 58.2975 106.99C58.5649 107.46 58.6986 107.998 58.6986 108.605C58.6986 109.212 58.5613 109.751 58.2867 110.22C58.012 110.69 57.6362 111.055 57.1592 111.315C56.6895 111.568 56.1691 111.695 55.5982 111.695ZM55.5982 110.621C55.9161 110.621 56.2125 110.546 56.4871 110.394C56.769 110.242 56.9966 110.014 57.1701 109.711C57.3435 109.407 57.4302 109.039 57.4302 108.605C57.4302 108.171 57.3471 107.806 57.1809 107.51C57.0147 107.207 56.7943 106.979 56.5196 106.827C56.245 106.675 55.9487 106.599 55.6307 106.599C55.3127 106.599 55.0164 106.675 54.7417 106.827C54.4743 106.979 54.2611 107.207 54.1021 107.51C53.9431 107.806 53.8636 108.171 53.8636 108.605C53.8636 109.248 54.0262 109.747 54.3515 110.101C54.6839 110.448 55.0995 110.621 55.5982 110.621ZM65.3299 105.624V111.597H64.094V110.892C63.8989 111.138 63.6423 111.333 63.3243 111.478C63.0136 111.615 62.6811 111.684 62.327 111.684C61.8572 111.684 61.4344 111.586 61.0586 111.391C60.69 111.196 60.3973 110.907 60.1805 110.524C59.9709 110.141 59.8661 109.678 59.8661 109.136V105.624H61.0911V108.952C61.0911 109.487 61.2248 109.899 61.4922 110.188C61.7597 110.47 62.1246 110.611 62.5872 110.611C63.0497 110.611 63.4147 110.47 63.6821 110.188C63.9567 109.899 64.094 109.487 64.094 108.952V105.624H65.3299ZM68.1963 106.491C68.377 106.188 68.6155 105.953 68.9118 105.786C69.2154 105.613 69.5731 105.526 69.9851 105.526V106.805H69.6707C69.1865 106.805 68.8179 106.928 68.5649 107.174C68.3192 107.42 68.1963 107.846 68.1963 108.453V111.597H66.9605V105.624H68.1963V106.491ZM75.173 106.513C75.3826 106.224 75.6681 105.989 76.0294 105.808C76.398 105.62 76.8063 105.526 77.2544 105.526C77.782 105.526 78.259 105.653 78.6854 105.906C79.1118 106.159 79.4479 106.52 79.6936 106.99C79.9393 107.452 80.0622 107.983 80.0622 108.583C80.0622 109.183 79.9393 109.722 79.6936 110.199C79.4479 110.668 79.1082 111.037 78.6746 111.304C78.2482 111.565 77.7748 111.695 77.2544 111.695C76.7919 111.695 76.3799 111.604 76.0186 111.424C75.6644 111.243 75.3826 111.012 75.173 110.73V111.597H73.9371V103.575H75.173V106.513ZM78.8047 108.583C78.8047 108.171 78.7179 107.817 78.5445 107.521C78.3783 107.217 78.1542 106.99 77.8724 106.838C77.5977 106.679 77.3014 106.599 76.9834 106.599C76.6726 106.599 76.3763 106.679 76.0945 106.838C75.8198 106.997 75.5958 107.228 75.4223 107.532C75.2561 107.835 75.173 108.193 75.173 108.605C75.173 109.017 75.2561 109.378 75.4223 109.689C75.5958 109.993 75.8198 110.224 76.0945 110.383C76.3763 110.542 76.6726 110.621 76.9834 110.621C77.3014 110.621 77.5977 110.542 77.8724 110.383C78.1542 110.217 78.3783 109.978 78.5445 109.667C78.7179 109.357 78.8047 108.995 78.8047 108.583ZM82.5202 103.575V111.597H81.2843V103.575H82.5202ZM86.7337 111.695C86.17 111.695 85.6605 111.568 85.2051 111.315C84.7498 111.055 84.3921 110.694 84.1319 110.231C83.8717 109.761 83.7416 109.219 83.7416 108.605C83.7416 107.998 83.8753 107.46 84.1427 106.99C84.4102 106.52 84.7751 106.159 85.2377 105.906C85.7002 105.653 86.217 105.526 86.7879 105.526C87.3589 105.526 87.8756 105.653 88.3381 105.906C88.8007 106.159 89.1657 106.52 89.4331 106.99C89.7005 107.46 89.8342 107.998 89.8342 108.605C89.8342 109.212 89.6969 109.751 89.4222 110.22C89.1476 110.69 88.7718 111.055 88.2948 111.315C87.825 111.568 87.3046 111.695 86.7337 111.695ZM86.7337 110.621C87.0517 110.621 87.348 110.546 87.6226 110.394C87.9045 110.242 88.1322 110.014 88.3056 109.711C88.4791 109.407 88.5658 109.039 88.5658 108.605C88.5658 108.171 88.4827 107.806 88.3165 107.51C88.1502 107.207 87.9298 106.979 87.6552 106.827C87.3805 106.675 87.0842 106.599 86.7662 106.599C86.4482 106.599 86.1519 106.675 85.8773 106.827C85.6099 106.979 85.3967 107.207 85.2377 107.51C85.0787 107.806 84.9992 108.171 84.9992 108.605C84.9992 109.248 85.1618 109.747 85.487 110.101C85.8195 110.448 86.235 110.621 86.7337 110.621ZM93.6468 111.695C93.0831 111.695 92.5736 111.568 92.1183 111.315C91.663 111.055 91.3052 110.694 91.045 110.231C90.7849 109.761 90.6548 109.219 90.6548 108.605C90.6548 107.998 90.7885 107.46 91.0559 106.99C91.3233 106.52 91.6883 106.159 92.1508 105.906C92.6133 105.653 93.1301 105.526 93.701 105.526C94.272 105.526 94.7887 105.653 95.2513 105.906C95.7138 106.159 96.0788 106.52 96.3462 106.99C96.6136 107.46 96.7473 107.998 96.7473 108.605C96.7473 109.212 96.61 109.751 96.3353 110.22C96.0607 110.69 95.6849 111.055 95.2079 111.315C94.7381 111.568 94.2178 111.695 93.6468 111.695ZM93.6468 110.621C93.9648 110.621 94.2611 110.546 94.5358 110.394C94.8176 110.242 95.0453 110.014 95.2187 109.711C95.3922 109.407 95.4789 109.039 95.4789 108.605C95.4789 108.171 95.3958 107.806 95.2296 107.51C95.0634 107.207 94.8429 106.979 94.5683 106.827C94.2937 106.675 93.9973 106.599 93.6793 106.599C93.3614 106.599 93.065 106.675 92.7904 106.827C92.523 106.979 92.3098 107.207 92.1508 107.51C91.9918 107.806 91.9123 108.171 91.9123 108.605C91.9123 109.248 92.0749 109.747 92.4001 110.101C92.7326 110.448 93.1481 110.621 93.6468 110.621ZM97.5571 108.583C97.5571 107.983 97.6799 107.452 97.9256 106.99C98.1786 106.527 98.5183 106.169 98.9447 105.917C99.3783 105.656 99.8589 105.526 100.387 105.526C100.777 105.526 101.16 105.613 101.536 105.786C101.919 105.953 102.222 106.177 102.446 106.459V103.575H103.693V111.597H102.446V110.697C102.244 110.986 101.962 111.225 101.601 111.413C101.247 111.601 100.838 111.695 100.376 111.695C99.8553 111.695 99.3783 111.565 98.9447 111.304C98.5183 111.037 98.1786 110.668 97.9256 110.199C97.6799 109.722 97.5571 109.183 97.5571 108.583ZM102.446 108.605C102.446 108.193 102.36 107.835 102.186 107.532C102.02 107.228 101.799 106.997 101.525 106.838C101.25 106.679 100.954 106.599 100.636 106.599C100.318 106.599 100.022 106.679 99.7469 106.838C99.4723 106.99 99.2482 107.217 99.0748 107.521C98.9085 107.817 98.8254 108.171 98.8254 108.583C98.8254 108.995 98.9085 109.357 99.0748 109.667C99.2482 109.978 99.4723 110.217 99.7469 110.383C100.029 110.542 100.325 110.621 100.636 110.621C100.954 110.621 101.25 110.542 101.525 110.383C101.799 110.224 102.02 109.993 102.186 109.689C102.36 109.378 102.446 109.017 102.446 108.605ZM109.368 106.491C109.549 106.188 109.787 105.953 110.084 105.786C110.387 105.613 110.745 105.526 111.157 105.526V106.805H110.842C110.358 106.805 109.99 106.928 109.737 107.174C109.491 107.42 109.368 107.846 109.368 108.453V111.597H108.132V105.624H109.368V106.491ZM117.767 108.464C117.767 108.688 117.753 108.891 117.724 109.071H113.16C113.196 109.548 113.373 109.931 113.691 110.22C114.009 110.509 114.4 110.654 114.862 110.654C115.527 110.654 115.997 110.376 116.271 109.819H117.605C117.424 110.368 117.095 110.82 116.618 111.174C116.149 111.521 115.563 111.695 114.862 111.695C114.291 111.695 113.778 111.568 113.323 111.315C112.875 111.055 112.52 110.694 112.26 110.231C112.007 109.761 111.881 109.219 111.881 108.605C111.881 107.991 112.004 107.452 112.249 106.99C112.502 106.52 112.853 106.159 113.301 105.906C113.756 105.653 114.277 105.526 114.862 105.526C115.426 105.526 115.928 105.649 116.369 105.895C116.81 106.141 117.153 106.487 117.399 106.936C117.645 107.376 117.767 107.886 117.767 108.464ZM116.477 108.074C116.47 107.619 116.308 107.254 115.99 106.979C115.672 106.704 115.278 106.567 114.808 106.567C114.381 106.567 114.017 106.704 113.713 106.979C113.409 107.246 113.229 107.611 113.171 108.074H116.477ZM121.152 111.695C120.682 111.695 120.259 111.612 119.883 111.445C119.515 111.272 119.222 111.041 119.005 110.752C118.789 110.455 118.673 110.126 118.658 109.765H119.938C119.959 110.018 120.079 110.231 120.295 110.405C120.519 110.571 120.798 110.654 121.13 110.654C121.477 110.654 121.744 110.589 121.932 110.459C122.127 110.321 122.225 110.148 122.225 109.938C122.225 109.714 122.117 109.548 121.9 109.44C121.69 109.331 121.354 109.212 120.892 109.082C120.444 108.959 120.079 108.84 119.797 108.724C119.515 108.609 119.269 108.432 119.06 108.193C118.857 107.955 118.756 107.64 118.756 107.25C118.756 106.932 118.85 106.643 119.038 106.383C119.226 106.115 119.493 105.906 119.84 105.754C120.194 105.602 120.599 105.526 121.054 105.526C121.734 105.526 122.279 105.7 122.691 106.047C123.11 106.386 123.334 106.852 123.363 107.445H122.127C122.106 107.178 121.997 106.964 121.802 106.805C121.607 106.646 121.343 106.567 121.011 106.567C120.686 106.567 120.436 106.628 120.263 106.751C120.089 106.874 120.003 107.037 120.003 107.239C120.003 107.398 120.06 107.532 120.176 107.64C120.292 107.749 120.433 107.835 120.599 107.9C120.765 107.958 121.011 108.034 121.336 108.128C121.77 108.244 122.124 108.363 122.398 108.486C122.68 108.601 122.922 108.775 123.125 109.006C123.327 109.237 123.432 109.545 123.439 109.928C123.439 110.267 123.345 110.571 123.157 110.838C122.969 111.106 122.702 111.315 122.355 111.467C122.015 111.619 121.614 111.695 121.152 111.695ZM130.184 105.624V111.597H128.948V110.892C128.753 111.138 128.497 111.333 128.179 111.478C127.868 111.615 127.535 111.684 127.181 111.684C126.711 111.684 126.289 111.586 125.913 111.391C125.544 111.196 125.252 110.907 125.035 110.524C124.825 110.141 124.72 109.678 124.72 109.136V105.624H125.945V108.952C125.945 109.487 126.079 109.899 126.346 110.188C126.614 110.47 126.979 110.611 127.441 110.611C127.904 110.611 128.269 110.47 128.536 110.188C128.811 109.899 128.948 109.487 128.948 108.952V105.624H130.184ZM133.051 103.575V111.597H131.815V103.575H133.051ZM136.115 106.632V109.938C136.115 110.162 136.166 110.325 136.267 110.426C136.375 110.52 136.556 110.567 136.809 110.567H137.568V111.597H136.592C136.035 111.597 135.609 111.467 135.313 111.207C135.016 110.947 134.868 110.524 134.868 109.938V106.632H134.164V105.624H134.868V104.139H136.115V105.624H137.568V106.632H136.115ZM140.875 111.695C140.405 111.695 139.982 111.612 139.606 111.445C139.238 111.272 138.945 111.041 138.728 110.752C138.512 110.455 138.396 110.126 138.381 109.765H139.661C139.682 110.018 139.802 110.231 140.018 110.405C140.242 110.571 140.521 110.654 140.853 110.654C141.2 110.654 141.467 110.589 141.655 110.459C141.851 110.321 141.948 110.148 141.948 109.938C141.948 109.714 141.84 109.548 141.623 109.44C141.413 109.331 141.077 109.212 140.615 109.082C140.167 108.959 139.802 108.84 139.52 108.724C139.238 108.609 138.992 108.432 138.783 108.193C138.58 107.955 138.479 107.64 138.479 107.25C138.479 106.932 138.573 106.643 138.761 106.383C138.949 106.115 139.216 105.906 139.563 105.754C139.917 105.602 140.322 105.526 140.777 105.526C141.457 105.526 142.002 105.7 142.414 106.047C142.833 106.386 143.057 106.852 143.086 107.445H141.851C141.829 107.178 141.72 106.964 141.525 106.805C141.33 106.646 141.066 106.567 140.734 106.567C140.409 106.567 140.159 106.628 139.986 106.751C139.812 106.874 139.726 107.037 139.726 107.239C139.726 107.398 139.784 107.532 139.899 107.64C140.015 107.749 140.156 107.835 140.322 107.9C140.488 107.958 140.734 108.034 141.059 108.128C141.493 108.244 141.847 108.363 142.122 108.486C142.403 108.601 142.646 108.775 142.848 109.006C143.05 109.237 143.155 109.545 143.162 109.928C143.162 110.267 143.068 110.571 142.88 110.838C142.693 111.106 142.425 111.315 142.078 111.467C141.739 111.619 141.337 111.695 140.875 111.695ZM148.55 106.491C148.73 106.188 148.969 105.953 149.265 105.786C149.569 105.613 149.926 105.526 150.338 105.526V106.805H150.024C149.54 106.805 149.171 106.928 148.918 107.174C148.672 107.42 148.55 107.846 148.55 108.453V111.597H147.314V105.624H148.55V106.491ZM156.949 108.464C156.949 108.688 156.934 108.891 156.906 109.071H152.342C152.378 109.548 152.555 109.931 152.873 110.22C153.191 110.509 153.581 110.654 154.044 110.654C154.708 110.654 155.178 110.376 155.453 109.819H156.786C156.606 110.368 156.277 110.82 155.8 111.174C155.33 111.521 154.745 111.695 154.044 111.695C153.473 111.695 152.959 111.568 152.504 111.315C152.056 111.055 151.702 110.694 151.442 110.231C151.189 109.761 151.062 109.219 151.062 108.605C151.062 107.991 151.185 107.452 151.431 106.99C151.684 106.52 152.034 106.159 152.482 105.906C152.938 105.653 153.458 105.526 154.044 105.526C154.607 105.526 155.11 105.649 155.55 105.895C155.991 106.141 156.335 106.487 156.58 106.936C156.826 107.376 156.949 107.886 156.949 108.464ZM155.659 108.074C155.652 107.619 155.489 107.254 155.171 106.979C154.853 106.704 154.459 106.567 153.989 106.567C153.563 106.567 153.198 106.704 152.894 106.979C152.591 107.246 152.41 107.611 152.352 108.074H155.659ZM160.474 110.491L162.165 105.624H163.477L161.201 111.597H159.726L157.46 105.624H158.783L160.474 110.491ZM169.886 108.464C169.886 108.688 169.871 108.891 169.843 109.071H165.279C165.315 109.548 165.492 109.931 165.81 110.22C166.128 110.509 166.518 110.654 166.981 110.654C167.645 110.654 168.115 110.376 168.39 109.819H169.723C169.543 110.368 169.214 110.82 168.737 111.174C168.267 111.521 167.682 111.695 166.981 111.695C166.41 111.695 165.896 111.568 165.441 111.315C164.993 111.055 164.639 110.694 164.379 110.231C164.126 109.761 163.999 109.219 163.999 108.605C163.999 107.991 164.122 107.452 164.368 106.99C164.621 106.52 164.971 106.159 165.419 105.906C165.875 105.653 166.395 105.526 166.981 105.526C167.544 105.526 168.047 105.649 168.487 105.895C168.928 106.141 169.272 106.487 169.517 106.936C169.763 107.376 169.886 107.886 169.886 108.464ZM168.596 108.074C168.589 107.619 168.426 107.254 168.108 106.979C167.79 106.704 167.396 106.567 166.926 106.567C166.5 106.567 166.135 106.704 165.831 106.979C165.528 107.246 165.347 107.611 165.289 108.074H168.596ZM170.69 108.583C170.69 107.983 170.813 107.452 171.059 106.99C171.312 106.527 171.651 106.169 172.078 105.917C172.511 105.656 172.988 105.526 173.509 105.526C173.978 105.526 174.387 105.62 174.734 105.808C175.088 105.989 175.37 106.216 175.579 106.491V105.624H176.826V111.597H175.579V110.708C175.37 110.99 175.084 111.225 174.723 111.413C174.362 111.601 173.95 111.695 173.487 111.695C172.974 111.695 172.504 111.565 172.078 111.304C171.651 111.037 171.312 110.668 171.059 110.199C170.813 109.722 170.69 109.183 170.69 108.583ZM175.579 108.605C175.579 108.193 175.493 107.835 175.319 107.532C175.153 107.228 174.932 106.997 174.658 106.838C174.383 106.679 174.087 106.599 173.769 106.599C173.451 106.599 173.155 106.679 172.88 106.838C172.605 106.99 172.381 107.217 172.208 107.521C172.042 107.817 171.958 108.171 171.958 108.583C171.958 108.995 172.042 109.357 172.208 109.667C172.381 109.978 172.605 110.217 172.88 110.383C173.162 110.542 173.458 110.621 173.769 110.621C174.087 110.621 174.383 110.542 174.658 110.383C174.932 110.224 175.153 109.993 175.319 109.689C175.493 109.378 175.579 109.017 175.579 108.605ZM179.685 103.575V111.597H178.449V103.575H179.685ZM187.213 105.526C187.669 105.526 188.073 105.624 188.428 105.819C188.789 106.014 189.071 106.303 189.273 106.686C189.483 107.069 189.587 107.532 189.587 108.074V111.597H188.362V108.258C188.362 107.723 188.229 107.315 187.961 107.033C187.694 106.744 187.329 106.599 186.866 106.599C186.404 106.599 186.035 106.744 185.761 107.033C185.493 107.315 185.36 107.723 185.36 108.258V111.597H184.124V103.575H185.36V106.318C185.569 106.065 185.833 105.87 186.151 105.732C186.476 105.595 186.83 105.526 187.213 105.526ZM191.793 104.832C191.569 104.832 191.381 104.757 191.229 104.605C191.077 104.453 191.001 104.265 191.001 104.041C191.001 103.817 191.077 103.629 191.229 103.477C191.381 103.326 191.569 103.25 191.793 103.25C192.009 103.25 192.194 103.326 192.346 103.477C192.497 103.629 192.573 103.817 192.573 104.041C192.573 104.265 192.497 104.453 192.346 104.605C192.194 104.757 192.009 104.832 191.793 104.832ZM192.4 105.624V111.597H191.164V105.624H192.4ZM193.61 108.583C193.61 107.983 193.733 107.452 193.979 106.99C194.232 106.527 194.572 106.169 194.998 105.917C195.432 105.656 195.912 105.526 196.44 105.526C196.83 105.526 197.213 105.613 197.589 105.786C197.972 105.953 198.276 106.177 198.5 106.459V103.575H199.746V111.597H198.5V110.697C198.297 110.986 198.015 111.225 197.654 111.413C197.3 111.601 196.892 111.695 196.429 111.695C195.909 111.695 195.432 111.565 194.998 111.304C194.572 111.037 194.232 110.668 193.979 110.199C193.733 109.722 193.61 109.183 193.61 108.583ZM198.5 108.605C198.5 108.193 198.413 107.835 198.239 107.532C198.073 107.228 197.853 106.997 197.578 106.838C197.303 106.679 197.007 106.599 196.689 106.599C196.371 106.599 196.075 106.679 195.8 106.838C195.526 106.99 195.302 107.217 195.128 107.521C194.962 107.817 194.879 108.171 194.879 108.583C194.879 108.995 194.962 109.357 195.128 109.667C195.302 109.978 195.526 110.217 195.8 110.383C196.082 110.542 196.378 110.621 196.689 110.621C197.007 110.621 197.303 110.542 197.578 110.383C197.853 110.224 198.073 109.993 198.239 109.689C198.413 109.378 198.5 109.017 198.5 108.605ZM200.958 108.583C200.958 107.983 201.08 107.452 201.326 106.99C201.579 106.527 201.919 106.169 202.345 105.917C202.779 105.656 203.259 105.526 203.787 105.526C204.177 105.526 204.56 105.613 204.936 105.786C205.319 105.953 205.623 106.177 205.847 106.459V103.575H207.093V111.597H205.847V110.697C205.644 110.986 205.363 111.225 205.001 111.413C204.647 111.601 204.239 111.695 203.776 111.695C203.256 111.695 202.779 111.565 202.345 111.304C201.919 111.037 201.579 110.668 201.326 110.199C201.08 109.722 200.958 109.183 200.958 108.583ZM205.847 108.605C205.847 108.193 205.76 107.835 205.587 107.532C205.42 107.228 205.2 106.997 204.925 106.838C204.651 106.679 204.354 106.599 204.036 106.599C203.718 106.599 203.422 106.679 203.147 106.838C202.873 106.99 202.649 107.217 202.475 107.521C202.309 107.817 202.226 108.171 202.226 108.583C202.226 108.995 202.309 109.357 202.475 109.667C202.649 109.978 202.873 110.217 203.147 110.383C203.429 110.542 203.726 110.621 204.036 110.621C204.354 110.621 204.651 110.542 204.925 110.383C205.2 110.224 205.42 109.993 205.587 109.689C205.76 109.378 205.847 109.017 205.847 108.605ZM214.191 108.464C214.191 108.688 214.177 108.891 214.148 109.071H209.584C209.62 109.548 209.797 109.931 210.115 110.22C210.433 110.509 210.823 110.654 211.286 110.654C211.951 110.654 212.421 110.376 212.695 109.819H214.029C213.848 110.368 213.519 110.82 213.042 111.174C212.572 111.521 211.987 111.695 211.286 111.695C210.715 111.695 210.202 111.568 209.747 111.315C209.298 111.055 208.944 110.694 208.684 110.231C208.431 109.761 208.305 109.219 208.305 108.605C208.305 107.991 208.428 107.452 208.673 106.99C208.926 106.52 209.277 106.159 209.725 105.906C210.18 105.653 210.701 105.526 211.286 105.526C211.85 105.526 212.352 105.649 212.793 105.895C213.234 106.141 213.577 106.487 213.823 106.936C214.068 107.376 214.191 107.886 214.191 108.464ZM212.901 108.074C212.894 107.619 212.731 107.254 212.413 106.979C212.095 106.704 211.702 106.567 211.232 106.567C210.805 106.567 210.44 106.704 210.137 106.979C209.833 107.246 209.653 107.611 209.595 108.074H212.901ZM218.421 105.526C218.891 105.526 219.31 105.624 219.679 105.819C220.055 106.014 220.347 106.303 220.557 106.686C220.766 107.069 220.871 107.532 220.871 108.074V111.597H219.646V108.258C219.646 107.723 219.513 107.315 219.245 107.033C218.978 106.744 218.613 106.599 218.15 106.599C217.688 106.599 217.319 106.744 217.044 107.033C216.777 107.315 216.643 107.723 216.643 108.258V111.597H215.407V105.624H216.643V106.307C216.846 106.061 217.102 105.87 217.413 105.732C217.731 105.595 218.067 105.526 218.421 105.526ZM225.892 104.832C225.668 104.832 225.481 104.757 225.329 104.605C225.177 104.453 225.101 104.265 225.101 104.041C225.101 103.817 225.177 103.629 225.329 103.477C225.481 103.326 225.668 103.25 225.892 103.25C226.109 103.25 226.294 103.326 226.445 103.477C226.597 103.629 226.673 103.817 226.673 104.041C226.673 104.265 226.597 104.453 226.445 104.605C226.294 104.757 226.109 104.832 225.892 104.832ZM226.5 105.624V111.597H225.264V105.624H226.5ZM231.136 105.526C231.606 105.526 232.025 105.624 232.393 105.819C232.769 106.014 233.062 106.303 233.272 106.686C233.481 107.069 233.586 107.532 233.586 108.074V111.597H232.361V108.258C232.361 107.723 232.227 107.315 231.96 107.033C231.692 106.744 231.327 106.599 230.865 106.599C230.402 106.599 230.034 106.744 229.759 107.033C229.492 107.315 229.358 107.723 229.358 108.258V111.597H228.122V105.624H229.358V106.307C229.56 106.061 229.817 105.87 230.128 105.732C230.446 105.595 230.782 105.526 231.136 105.526ZM237.33 111.695C236.861 111.695 236.438 111.612 236.062 111.445C235.694 111.272 235.401 111.041 235.184 110.752C234.967 110.455 234.852 110.126 234.837 109.765H236.116C236.138 110.018 236.257 110.231 236.474 110.405C236.698 110.571 236.976 110.654 237.309 110.654C237.656 110.654 237.923 110.589 238.111 110.459C238.306 110.321 238.404 110.148 238.404 109.938C238.404 109.714 238.295 109.548 238.078 109.44C237.869 109.331 237.533 109.212 237.07 109.082C236.622 108.959 236.257 108.84 235.975 108.724C235.694 108.609 235.448 108.432 235.238 108.193C235.036 107.955 234.935 107.64 234.935 107.25C234.935 106.932 235.029 106.643 235.217 106.383C235.404 106.115 235.672 105.906 236.019 105.754C236.373 105.602 236.778 105.526 237.233 105.526C237.912 105.526 238.458 105.7 238.87 106.047C239.289 106.386 239.513 106.852 239.542 107.445H238.306C238.284 107.178 238.176 106.964 237.981 106.805C237.786 106.646 237.522 106.567 237.19 106.567C236.864 106.567 236.615 106.628 236.442 106.751C236.268 106.874 236.181 107.037 236.181 107.239C236.181 107.398 236.239 107.532 236.355 107.64C236.47 107.749 236.611 107.835 236.778 107.9C236.944 107.958 237.19 108.034 237.515 108.128C237.948 108.244 238.303 108.363 238.577 108.486C238.859 108.601 239.101 108.775 239.304 109.006C239.506 109.237 239.611 109.545 239.618 109.928C239.618 110.267 239.524 110.571 239.336 110.838C239.148 111.106 238.881 111.315 238.534 111.467C238.194 111.619 237.793 111.695 237.33 111.695ZM241.582 104.832C241.358 104.832 241.17 104.757 241.018 104.605C240.867 104.453 240.791 104.265 240.791 104.041C240.791 103.817 240.867 103.629 241.018 103.477C241.17 103.326 241.358 103.25 241.582 103.25C241.799 103.25 241.983 103.326 242.135 103.477C242.287 103.629 242.363 103.817 242.363 104.041C242.363 104.265 242.287 104.453 242.135 104.605C241.983 104.757 241.799 104.832 241.582 104.832ZM242.189 105.624V111.597H240.953V105.624H242.189ZM246.218 105.526C246.681 105.526 247.089 105.62 247.443 105.808C247.805 105.989 248.087 106.216 248.289 106.491V105.624H249.536V111.695C249.536 112.244 249.42 112.732 249.189 113.158C248.957 113.592 248.621 113.931 248.181 114.177C247.747 114.423 247.227 114.546 246.619 114.546C245.81 114.546 245.138 114.354 244.603 113.971C244.068 113.595 243.765 113.082 243.692 112.432H244.917C245.011 112.743 245.21 112.992 245.514 113.18C245.824 113.375 246.193 113.473 246.619 113.473C247.118 113.473 247.519 113.321 247.823 113.017C248.134 112.714 248.289 112.273 248.289 111.695V110.697C248.079 110.979 247.794 111.218 247.432 111.413C247.078 111.601 246.674 111.695 246.218 111.695C245.698 111.695 245.221 111.565 244.787 111.304C244.361 111.037 244.021 110.668 243.768 110.199C243.523 109.722 243.4 109.183 243.4 108.583C243.4 107.983 243.523 107.452 243.768 106.99C244.021 106.527 244.361 106.169 244.787 105.917C245.221 105.656 245.698 105.526 246.218 105.526ZM248.289 108.605C248.289 108.193 248.202 107.835 248.029 107.532C247.863 107.228 247.642 106.997 247.367 106.838C247.093 106.679 246.797 106.599 246.479 106.599C246.161 106.599 245.864 106.679 245.59 106.838C245.315 106.99 245.091 107.217 244.917 107.521C244.751 107.817 244.668 108.171 244.668 108.583C244.668 108.995 244.751 109.357 244.917 109.667C245.091 109.978 245.315 110.217 245.59 110.383C245.871 110.542 246.168 110.621 246.479 110.621C246.797 110.621 247.093 110.542 247.367 110.383C247.642 110.224 247.863 109.993 248.029 109.689C248.202 109.378 248.289 109.017 248.289 108.605ZM254.248 105.526C254.704 105.526 255.109 105.624 255.463 105.819C255.824 106.014 256.106 106.303 256.308 106.686C256.518 107.069 256.623 107.532 256.623 108.074V111.597H255.398V108.258C255.398 107.723 255.264 107.315 254.996 107.033C254.729 106.744 254.364 106.599 253.902 106.599C253.439 106.599 253.07 106.744 252.796 107.033C252.528 107.315 252.395 107.723 252.395 108.258V111.597H251.159V103.575H252.395V106.318C252.604 106.065 252.868 105.87 253.186 105.732C253.511 105.595 253.865 105.526 254.248 105.526ZM259.641 106.632V109.938C259.641 110.162 259.691 110.325 259.793 110.426C259.901 110.52 260.082 110.567 260.335 110.567H261.094V111.597H260.118C259.561 111.597 259.135 111.467 258.839 111.207C258.542 110.947 258.394 110.524 258.394 109.938V106.632H257.689V105.624H258.394V104.139H259.641V105.624H261.094V106.632H259.641ZM264.401 111.695C263.931 111.695 263.508 111.612 263.132 111.445C262.764 111.272 262.471 111.041 262.254 110.752C262.037 110.455 261.922 110.126 261.907 109.765H263.187C263.208 110.018 263.327 110.231 263.544 110.405C263.768 110.571 264.047 110.654 264.379 110.654C264.726 110.654 264.993 110.589 265.181 110.459C265.376 110.321 265.474 110.148 265.474 109.938C265.474 109.714 265.366 109.548 265.149 109.44C264.939 109.331 264.603 109.212 264.141 109.082C263.692 108.959 263.327 108.84 263.046 108.724C262.764 108.609 262.518 108.432 262.308 108.193C262.106 107.955 262.005 107.64 262.005 107.25C262.005 106.932 262.099 106.643 262.287 106.383C262.475 106.115 262.742 105.906 263.089 105.754C263.443 105.602 263.848 105.526 264.303 105.526C264.983 105.526 265.528 105.7 265.94 106.047C266.359 106.386 266.583 106.852 266.612 107.445H265.376C265.355 107.178 265.246 106.964 265.051 106.805C264.856 106.646 264.592 106.567 264.26 106.567C263.935 106.567 263.685 106.628 263.512 106.751C263.338 106.874 263.252 107.037 263.252 107.239C263.252 107.398 263.309 107.532 263.425 107.64C263.541 107.749 263.682 107.835 263.848 107.9C264.014 107.958 264.26 108.034 264.585 108.128C265.019 108.244 265.373 108.363 265.647 108.486C265.929 108.601 266.171 108.775 266.374 109.006C266.576 109.237 266.681 109.545 266.688 109.928C266.688 110.267 266.594 110.571 266.406 110.838C266.218 111.106 265.951 111.315 265.604 111.467C265.264 111.619 264.863 111.695 264.401 111.695ZM270.428 108.583C270.428 107.983 270.55 107.452 270.796 106.99C271.049 106.527 271.389 106.169 271.815 105.917C272.249 105.656 272.726 105.526 273.246 105.526C273.716 105.526 274.124 105.62 274.471 105.808C274.825 105.989 275.107 106.216 275.317 106.491V105.624H276.564V111.597H275.317V110.708C275.107 110.99 274.822 111.225 274.46 111.413C274.099 111.601 273.687 111.695 273.225 111.695C272.711 111.695 272.242 111.565 271.815 111.304C271.389 111.037 271.049 110.668 270.796 110.199C270.55 109.722 270.428 109.183 270.428 108.583ZM275.317 108.605C275.317 108.193 275.23 107.835 275.057 107.532C274.89 107.228 274.67 106.997 274.395 106.838C274.121 106.679 273.824 106.599 273.506 106.599C273.188 106.599 272.892 106.679 272.617 106.838C272.343 106.99 272.119 107.217 271.945 107.521C271.779 107.817 271.696 108.171 271.696 108.583C271.696 108.995 271.779 109.357 271.945 109.667C272.119 109.978 272.343 110.217 272.617 110.383C272.899 110.542 273.196 110.621 273.506 110.621C273.824 110.621 274.121 110.542 274.395 110.383C274.67 110.224 274.89 109.993 275.057 109.689C275.23 109.378 275.317 109.017 275.317 108.605ZM279.423 106.513C279.632 106.224 279.918 105.989 280.279 105.808C280.648 105.62 281.056 105.526 281.504 105.526C282.032 105.526 282.509 105.653 282.935 105.906C283.361 106.159 283.697 106.52 283.943 106.99C284.189 107.452 284.312 107.983 284.312 108.583C284.312 109.183 284.189 109.722 283.943 110.199C283.697 110.668 283.358 111.037 282.924 111.304C282.498 111.565 282.024 111.695 281.504 111.695C281.041 111.695 280.63 111.604 280.268 111.424C279.914 111.243 279.632 111.012 279.423 110.73V111.597H278.187V103.575H279.423V106.513ZM283.054 108.583C283.054 108.171 282.968 107.817 282.794 107.521C282.628 107.217 282.404 106.99 282.122 106.838C281.847 106.679 281.551 106.599 281.233 106.599C280.922 106.599 280.626 106.679 280.344 106.838C280.069 106.997 279.845 107.228 279.672 107.532C279.506 107.835 279.423 108.193 279.423 108.605C279.423 109.017 279.506 109.378 279.672 109.689C279.845 109.993 280.069 110.224 280.344 110.383C280.626 110.542 280.922 110.621 281.233 110.621C281.551 110.621 281.847 110.542 282.122 110.383C282.404 110.217 282.628 109.978 282.794 109.667C282.968 109.357 283.054 108.995 283.054 108.583ZM288.125 111.695C287.561 111.695 287.052 111.568 286.596 111.315C286.141 111.055 285.783 110.694 285.523 110.231C285.263 109.761 285.133 109.219 285.133 108.605C285.133 107.998 285.267 107.46 285.534 106.99C285.801 106.52 286.166 106.159 286.629 105.906C287.091 105.653 287.608 105.526 288.179 105.526C288.75 105.526 289.267 105.653 289.729 105.906C290.192 106.159 290.557 106.52 290.824 106.99C291.092 107.46 291.225 107.998 291.225 108.605C291.225 109.212 291.088 109.751 290.813 110.22C290.539 110.69 290.163 111.055 289.686 111.315C289.216 111.568 288.696 111.695 288.125 111.695ZM288.125 110.621C288.443 110.621 288.739 110.546 289.014 110.394C289.296 110.242 289.523 110.014 289.697 109.711C289.87 109.407 289.957 109.039 289.957 108.605C289.957 108.171 289.874 107.806 289.708 107.51C289.541 107.207 289.321 106.979 289.046 106.827C288.772 106.675 288.475 106.599 288.157 106.599C287.839 106.599 287.543 106.675 287.268 106.827C287.001 106.979 286.788 107.207 286.629 107.51C286.47 107.806 286.39 108.171 286.39 108.605C286.39 109.248 286.553 109.747 286.878 110.101C287.211 110.448 287.626 110.621 288.125 110.621ZM297.857 105.624V111.597H296.621V110.892C296.426 111.138 296.169 111.333 295.851 111.478C295.54 111.615 295.208 111.684 294.854 111.684C294.384 111.684 293.961 111.586 293.585 111.391C293.217 111.196 292.924 110.907 292.707 110.524C292.498 110.141 292.393 109.678 292.393 109.136V105.624H293.618V108.952C293.618 109.487 293.752 109.899 294.019 110.188C294.286 110.47 294.651 110.611 295.114 110.611C295.576 110.611 295.941 110.47 296.209 110.188C296.483 109.899 296.621 109.487 296.621 108.952V105.624H297.857ZM300.929 106.632V109.938C300.929 110.162 300.98 110.325 301.081 110.426C301.189 110.52 301.37 110.567 301.623 110.567H302.382V111.597H301.406C300.85 111.597 300.423 111.467 300.127 111.207C299.831 110.947 299.682 110.524 299.682 109.938V106.632H298.978V105.624H299.682V104.139H300.929V105.624H302.382V106.632H300.929ZM311.714 105.624L308.05 114.405H306.77L307.985 111.5L305.632 105.624H307.009L308.689 110.177L310.435 105.624L311.714 105.624ZM315.237 111.695C314.674 111.695 314.164 111.568 313.709 111.315C313.254 111.055 312.896 110.694 312.636 110.231C312.376 109.761 312.245 109.219 312.245 108.605C312.245 107.998 312.379 107.46 312.647 106.99C312.914 106.52 313.279 106.159 313.741 105.906C314.204 105.653 314.721 105.526 315.292 105.526C315.863 105.526 316.379 105.653 316.842 105.906C317.304 106.159 317.669 106.52 317.937 106.99C318.204 107.46 318.338 107.998 318.338 108.605C318.338 109.212 318.201 109.751 317.926 110.22C317.651 110.69 317.276 111.055 316.799 111.315C316.329 111.568 315.808 111.695 315.237 111.695ZM315.237 110.621C315.555 110.621 315.852 110.546 316.126 110.394C316.408 110.242 316.636 110.014 316.809 109.711C316.983 109.407 317.07 109.039 317.07 108.605C317.07 108.171 316.986 107.806 316.82 107.51C316.654 107.207 316.434 106.979 316.159 106.827C315.884 106.675 315.588 106.599 315.27 106.599C314.952 106.599 314.656 106.675 314.381 106.827C314.114 106.979 313.9 107.207 313.741 107.51C313.582 107.806 313.503 108.171 313.503 108.605C313.503 109.248 313.666 109.747 313.991 110.101C314.323 110.448 314.739 110.621 315.237 110.621ZM324.969 105.624V111.597H323.733V110.892C323.538 111.138 323.282 111.333 322.964 111.478C322.653 111.615 322.32 111.684 321.966 111.684C321.497 111.684 321.074 111.586 320.698 111.391C320.329 111.196 320.037 110.907 319.82 110.524C319.61 110.141 319.505 109.678 319.505 109.136V105.624H320.73V108.952C320.73 109.487 320.864 109.899 321.132 110.188C321.399 110.47 321.764 110.611 322.226 110.611C322.689 110.611 323.054 110.47 323.321 110.188C323.596 109.899 323.733 109.487 323.733 108.952V105.624H324.969ZM327.836 106.491C328.016 106.188 328.255 105.953 328.551 105.786C328.855 105.613 329.212 105.526 329.624 105.526V106.805H329.31C328.826 106.805 328.457 106.928 328.204 107.174C327.959 107.42 327.836 107.846 327.836 108.453V111.597H326.6V105.624H327.836V106.491ZM336.666 105.526C337.121 105.526 337.526 105.624 337.88 105.819C338.242 106.014 338.524 106.303 338.726 106.686C338.935 107.069 339.04 107.532 339.04 108.074V111.597H337.815V108.258C337.815 107.723 337.682 107.315 337.414 107.033C337.147 106.744 336.782 106.599 336.319 106.599C335.857 106.599 335.488 106.744 335.213 107.033C334.946 107.315 334.812 107.723 334.812 108.258V111.597H333.576V103.575H334.812V106.318C335.022 106.065 335.286 105.87 335.604 105.732C335.929 105.595 336.283 105.526 336.666 105.526ZM346.091 108.464C346.091 108.688 346.077 108.891 346.048 109.071H341.484C341.52 109.548 341.697 109.931 342.015 110.22C342.333 110.509 342.723 110.654 343.186 110.654C343.851 110.654 344.321 110.376 344.595 109.819H345.929C345.748 110.368 345.419 110.82 344.942 111.174C344.472 111.521 343.887 111.695 343.186 111.695C342.615 111.695 342.102 111.568 341.647 111.315C341.198 111.055 340.844 110.694 340.584 110.231C340.331 109.761 340.205 109.219 340.205 108.605C340.205 107.991 340.328 107.452 340.573 106.99C340.826 106.52 341.177 106.159 341.625 105.906C342.08 105.653 342.601 105.526 343.186 105.526C343.75 105.526 344.252 105.649 344.693 105.895C345.134 106.141 345.477 106.487 345.723 106.936C345.968 107.376 346.091 107.886 346.091 108.464ZM344.801 108.074C344.794 107.619 344.631 107.254 344.313 106.979C343.995 106.704 343.601 106.567 343.132 106.567C342.705 106.567 342.34 106.704 342.037 106.979C341.733 107.246 341.553 107.611 341.495 108.074H344.801ZM346.895 108.583C346.895 107.983 347.018 107.452 347.264 106.99C347.517 106.527 347.857 106.169 348.283 105.917C348.717 105.656 349.194 105.526 349.714 105.526C350.184 105.526 350.592 105.62 350.939 105.808C351.293 105.989 351.575 106.216 351.785 106.491V105.624H353.031V111.597H351.785V110.708C351.575 110.99 351.29 111.225 350.928 111.413C350.567 111.601 350.155 111.695 349.692 111.695C349.179 111.695 348.71 111.565 348.283 111.304C347.857 111.037 347.517 110.668 347.264 110.199C347.018 109.722 346.895 109.183 346.895 108.583ZM351.785 108.605C351.785 108.193 351.698 107.835 351.525 107.532C351.358 107.228 351.138 106.997 350.863 106.838C350.589 106.679 350.292 106.599 349.974 106.599C349.656 106.599 349.36 106.679 349.085 106.838C348.811 106.99 348.587 107.217 348.413 107.521C348.247 107.817 348.164 108.171 348.164 108.583C348.164 108.995 348.247 109.357 348.413 109.667C348.587 109.978 348.811 110.217 349.085 110.383C349.367 110.542 349.664 110.621 349.974 110.621C350.292 110.621 350.589 110.542 350.863 110.383C351.138 110.224 351.358 109.993 351.525 109.689C351.698 109.378 351.785 109.017 351.785 108.605ZM355.89 103.575V111.597H354.655V103.575H355.89ZM358.955 106.632V109.938C358.955 110.162 359.005 110.325 359.107 110.426C359.215 110.52 359.396 110.567 359.649 110.567H360.408V111.597H359.432C358.875 111.597 358.449 111.467 358.153 111.207C357.856 110.947 357.708 110.524 357.708 109.938V106.632H357.004V105.624H357.708V104.139H358.955V105.624H360.408V106.632H358.955ZM364.636 105.526C365.092 105.526 365.496 105.624 365.85 105.819C366.212 106.014 366.494 106.303 366.696 106.686C366.906 107.069 367.01 107.532 367.01 108.074V111.597H365.785V108.258C365.785 107.723 365.652 107.315 365.384 107.033C365.117 106.744 364.752 106.599 364.289 106.599C363.827 106.599 363.458 106.744 363.184 107.033C362.916 107.315 362.782 107.723 362.782 108.258V111.597H361.547V103.575H362.782V106.318C362.992 106.065 363.256 105.87 363.574 105.732C363.899 105.595 364.253 105.526 364.636 105.526ZM369.942 110.112L368.63 113.104H367.828L368.598 110.112H369.942ZM46.0315 124.605C46.0315 123.991 46.1543 123.452 46.4001 122.99C46.653 122.52 46.9999 122.159 47.4408 121.906C47.8816 121.653 48.3875 121.526 48.9585 121.526C49.6812 121.526 50.2775 121.7 50.7472 122.047C51.2242 122.386 51.5458 122.874 51.7121 123.51H50.3786C50.2702 123.214 50.0968 122.983 49.8583 122.816C49.6198 122.65 49.3199 122.567 48.9585 122.567C48.4526 122.567 48.0479 122.748 47.7443 123.109C47.448 123.463 47.2999 123.962 47.2999 124.605C47.2999 125.248 47.448 125.751 47.7443 126.112C48.0479 126.473 48.4526 126.654 48.9585 126.654C49.674 126.654 50.1474 126.34 50.3786 125.711H51.7121C51.5386 126.318 51.2134 126.802 50.7364 127.163C50.2594 127.518 49.6668 127.695 48.9585 127.695C48.3875 127.695 47.8816 127.568 47.4408 127.315C46.9999 127.055 46.653 126.694 46.4001 126.231C46.1543 125.761 46.0315 125.219 46.0315 124.605ZM52.5317 124.583C52.5317 123.983 52.6546 123.452 52.9003 122.99C53.1533 122.527 53.4929 122.169 53.9194 121.917C54.353 121.656 54.83 121.526 55.3503 121.526C55.8201 121.526 56.2284 121.62 56.5753 121.808C56.9295 121.989 57.2113 122.216 57.4209 122.491V121.624H58.6676V127.597H57.4209V126.708C57.2113 126.99 56.9259 127.225 56.5645 127.413C56.2031 127.601 55.7912 127.695 55.3287 127.695C54.8155 127.695 54.3458 127.565 53.9194 127.304C53.4929 127.037 53.1533 126.668 52.9003 126.199C52.6546 125.722 52.5317 125.183 52.5317 124.583ZM57.4209 124.605C57.4209 124.193 57.3342 123.835 57.1608 123.532C56.9945 123.228 56.7741 122.997 56.4995 122.838C56.2248 122.679 55.9285 122.599 55.6105 122.599C55.2925 122.599 54.9962 122.679 54.7216 122.838C54.4469 122.99 54.2229 123.217 54.0494 123.521C53.8832 123.817 53.8001 124.171 53.8001 124.583C53.8001 124.995 53.8832 125.357 54.0494 125.667C54.2229 125.978 54.4469 126.217 54.7216 126.383C55.0034 126.542 55.2997 126.621 55.6105 126.621C55.9285 126.621 56.2248 126.542 56.4995 126.383C56.7741 126.224 56.9945 125.993 57.1608 125.689C57.3342 125.378 57.4209 125.017 57.4209 124.605ZM61.7327 122.632V125.938C61.7327 126.162 61.7833 126.325 61.8845 126.426C61.9929 126.52 62.1735 126.567 62.4265 126.567H63.1854V127.597H62.2097C61.6532 127.597 61.2268 127.467 60.9305 127.207C60.6342 126.947 60.486 126.524 60.486 125.938V122.632H59.7813V121.624H60.486V120.139H61.7327V121.624H63.1854V122.632H61.7327ZM63.9125 124.605C63.9125 123.991 64.0353 123.452 64.281 122.99C64.534 122.52 64.8809 122.159 65.3218 121.906C65.7626 121.653 66.2685 121.526 66.8395 121.526C67.5622 121.526 68.1584 121.7 68.6282 122.047C69.1052 122.386 69.4268 122.874 69.593 123.51H68.2596C68.1512 123.214 67.9778 122.983 67.7393 122.816C67.5008 122.65 67.2008 122.567 66.8395 122.567C66.3336 122.567 65.9288 122.748 65.6253 123.109C65.329 123.463 65.1808 123.962 65.1808 124.605C65.1808 125.248 65.329 125.751 65.6253 126.112C65.9288 126.473 66.3336 126.654 66.8395 126.654C67.555 126.654 68.0283 126.34 68.2596 125.711H69.593C69.4196 126.318 69.0944 126.802 68.6174 127.163C68.1404 127.518 67.5477 127.695 66.8395 127.695C66.2685 127.695 65.7626 127.568 65.3218 127.315C64.8809 127.055 64.534 126.694 64.281 126.231C64.0353 125.761 63.9125 125.219 63.9125 124.605ZM73.9143 121.526C74.3696 121.526 74.7743 121.624 75.1284 121.819C75.4898 122.014 75.7717 122.303 75.974 122.686C76.1836 123.069 76.2884 123.532 76.2884 124.074V127.597H75.0634V124.258C75.0634 123.723 74.9297 123.315 74.6623 123.033C74.3949 122.744 74.0299 122.599 73.5674 122.599C73.1048 122.599 72.7362 122.744 72.4616 123.033C72.1942 123.315 72.0605 123.723 72.0605 124.258V127.597H70.8246V119.575H72.0605V122.318C72.2701 122.065 72.5339 121.87 72.8519 121.732C73.1771 121.595 73.5312 121.526 73.9143 121.526ZM78.4936 120.832C78.2695 120.832 78.0816 120.757 77.9299 120.605C77.7781 120.453 77.7022 120.265 77.7022 120.041C77.7022 119.817 77.7781 119.629 77.9299 119.477C78.0816 119.326 78.2695 119.25 78.4936 119.25C78.7104 119.25 78.8947 119.326 79.0465 119.477C79.1982 119.629 79.2741 119.817 79.2741 120.041C79.2741 120.265 79.1982 120.453 79.0465 120.605C78.8947 120.757 78.7104 120.832 78.4936 120.832ZM79.1007 121.624V127.597H77.8648V121.624H79.1007ZM83.737 121.526C84.2067 121.526 84.6259 121.624 84.9945 121.819C85.3703 122.014 85.663 122.303 85.8726 122.686C86.0822 123.069 86.187 123.532 86.187 124.074V127.597H84.962V124.258C84.962 123.723 84.8283 123.315 84.5609 123.033C84.2935 122.744 83.9285 122.599 83.466 122.599C83.0034 122.599 82.6348 122.744 82.3602 123.033C82.0928 123.315 81.9591 123.723 81.9591 124.258V127.597H80.7232V121.624H81.9591V122.307C82.1614 122.061 82.418 121.87 82.7288 121.732C83.0468 121.595 83.3828 121.526 83.737 121.526ZM90.1701 121.526C90.6326 121.526 91.0409 121.62 91.3951 121.808C91.7564 121.989 92.0383 122.216 92.2407 122.491V121.624H93.4873V127.695C93.4873 128.244 93.3717 128.732 93.1404 129.158C92.9092 129.592 92.5731 129.931 92.1322 130.177C91.6986 130.423 91.1783 130.546 90.5712 130.546C89.7617 130.546 89.0896 130.354 88.5548 129.971C88.02 129.595 87.7164 129.082 87.6442 128.432H88.8692C88.9631 128.743 89.1619 128.992 89.4654 129.18C89.7762 129.375 90.1448 129.473 90.5712 129.473C91.0698 129.473 91.471 129.321 91.7745 129.017C92.0853 128.714 92.2407 128.273 92.2407 127.695V126.697C92.0311 126.979 91.7456 127.218 91.3842 127.413C91.0301 127.601 90.6254 127.695 90.1701 127.695C89.6497 127.695 89.1727 127.565 88.7391 127.304C88.3127 127.037 87.973 126.668 87.72 126.199C87.4743 125.722 87.3514 125.183 87.3514 124.583C87.3514 123.983 87.4743 123.452 87.72 122.99C87.973 122.527 88.3127 122.169 88.7391 121.917C89.1727 121.656 89.6497 121.526 90.1701 121.526ZM92.2407 124.605C92.2407 124.193 92.1539 123.835 91.9805 123.532C91.8142 123.228 91.5938 122.997 91.3192 122.838C91.0446 122.679 90.7482 122.599 90.4302 122.599C90.1122 122.599 89.8159 122.679 89.5413 122.838C89.2667 122.99 89.0426 123.217 88.8692 123.521C88.7029 123.817 88.6198 124.171 88.6198 124.583C88.6198 124.995 88.7029 125.357 88.8692 125.667C89.0426 125.978 89.2667 126.217 89.5413 126.383C89.8232 126.542 90.1195 126.621 90.4302 126.621C90.7482 126.621 91.0446 126.542 91.3192 126.383C91.5938 126.224 91.8142 125.993 91.9805 125.689C92.1539 125.378 92.2407 125.017 92.2407 124.605ZM99.1625 122.502C99.3721 122.227 99.6576 121.996 100.019 121.808C100.38 121.62 100.789 121.526 101.244 121.526C101.764 121.526 102.238 121.656 102.664 121.917C103.098 122.169 103.437 122.527 103.683 122.99C103.929 123.452 104.052 123.983 104.052 124.583C104.052 125.183 103.929 125.722 103.683 126.199C103.437 126.668 103.098 127.037 102.664 127.304C102.238 127.565 101.764 127.695 101.244 127.695C100.789 127.695 100.384 127.604 100.03 127.424C99.6756 127.236 99.3865 127.004 99.1625 126.73V130.437H97.9267V121.624H99.1625V122.502ZM102.794 124.583C102.794 124.171 102.707 123.817 102.534 123.521C102.368 123.217 102.144 122.99 101.862 122.838C101.587 122.679 101.291 122.599 100.973 122.599C100.662 122.599 100.366 122.679 100.084 122.838C99.8093 122.997 99.5853 123.228 99.4118 123.532C99.2456 123.835 99.1625 124.193 99.1625 124.605C99.1625 125.017 99.2456 125.378 99.4118 125.689C99.5853 125.993 99.8093 126.224 100.084 126.383C100.366 126.542 100.662 126.621 100.973 126.621C101.291 126.621 101.587 126.542 101.862 126.383C102.144 126.217 102.368 125.978 102.534 125.667C102.707 125.357 102.794 124.995 102.794 124.583ZM107.865 127.695C107.301 127.695 106.792 127.568 106.336 127.315C105.881 127.055 105.523 126.694 105.263 126.231C105.003 125.761 104.873 125.219 104.873 124.605C104.873 123.998 105.006 123.46 105.274 122.99C105.541 122.52 105.906 122.159 106.369 121.906C106.831 121.653 107.348 121.526 107.919 121.526C108.49 121.526 109.007 121.653 109.469 121.906C109.932 122.159 110.297 122.52 110.564 122.99C110.832 123.46 110.965 123.998 110.965 124.605C110.965 125.212 110.828 125.751 110.553 126.22C110.279 126.69 109.903 127.055 109.426 127.315C108.956 127.568 108.436 127.695 107.865 127.695ZM107.865 126.621C108.183 126.621 108.479 126.546 108.754 126.394C109.036 126.242 109.263 126.014 109.437 125.711C109.61 125.407 109.697 125.039 109.697 124.605C109.697 124.171 109.614 123.806 109.448 123.51C109.281 123.207 109.061 122.979 108.786 122.827C108.512 122.675 108.215 122.599 107.897 122.599C107.579 122.599 107.283 122.675 107.008 122.827C106.741 122.979 106.528 123.207 106.369 123.51C106.21 123.806 106.13 124.171 106.13 124.605C106.13 125.248 106.293 125.747 106.618 126.101C106.951 126.448 107.366 126.621 107.865 126.621ZM113.629 122.632V125.938C113.629 126.162 113.679 126.325 113.781 126.426C113.889 126.52 114.07 126.567 114.323 126.567H115.081V127.597H114.106C113.549 127.597 113.123 127.467 112.827 127.207C112.53 126.947 112.382 126.524 112.382 125.938V122.632H111.677V121.624H112.382V120.139H113.629V121.624H115.081V122.632H113.629ZM121.695 124.464C121.695 124.688 121.681 124.891 121.652 125.071H117.088C117.124 125.548 117.301 125.931 117.619 126.22C117.937 126.509 118.327 126.654 118.79 126.654C119.455 126.654 119.924 126.376 120.199 125.819H121.533C121.352 126.368 121.023 126.82 120.546 127.174C120.076 127.521 119.491 127.695 118.79 127.695C118.219 127.695 117.706 127.568 117.25 127.315C116.802 127.055 116.448 126.694 116.188 126.231C115.935 125.761 115.809 125.219 115.809 124.605C115.809 123.991 115.931 123.452 116.177 122.99C116.43 122.52 116.781 122.159 117.229 121.906C117.684 121.653 118.204 121.526 118.79 121.526C119.353 121.526 119.856 121.649 120.297 121.895C120.738 122.141 121.081 122.487 121.327 122.936C121.572 123.376 121.695 123.886 121.695 124.464ZM120.405 124.074C120.398 123.619 120.235 123.254 119.917 122.979C119.599 122.704 119.205 122.567 118.736 122.567C118.309 122.567 117.944 122.704 117.641 122.979C117.337 123.246 117.156 123.611 117.099 124.074H120.405ZM125.925 121.526C126.395 121.526 126.814 121.624 127.183 121.819C127.558 122.014 127.851 122.303 128.061 122.686C128.27 123.069 128.375 123.532 128.375 124.074V127.597H127.15V124.258C127.15 123.723 127.016 123.315 126.749 123.033C126.482 122.744 126.117 122.599 125.654 122.599C125.192 122.599 124.823 122.744 124.548 123.033C124.281 123.315 124.147 123.723 124.147 124.258V127.597H122.911V121.624H124.147V122.307C124.35 122.061 124.606 121.87 124.917 121.732C125.235 121.595 125.571 121.526 125.925 121.526ZM131.393 122.632V125.938C131.393 126.162 131.444 126.325 131.545 126.426C131.653 126.52 131.834 126.567 132.087 126.567H132.846V127.597H131.87C131.314 127.597 130.887 127.467 130.591 127.207C130.295 126.947 130.147 126.524 130.147 125.938V122.632H129.442V121.624H130.147V120.139H131.393V121.624H132.846V122.632H131.393ZM134.614 120.832C134.39 120.832 134.202 120.757 134.05 120.605C133.898 120.453 133.822 120.265 133.822 120.041C133.822 119.817 133.898 119.629 134.05 119.477C134.202 119.326 134.39 119.25 134.614 119.25C134.831 119.25 135.015 119.326 135.167 119.477C135.318 119.629 135.394 119.817 135.394 120.041C135.394 120.265 135.318 120.453 135.167 120.605C135.015 120.757 134.831 120.832 134.614 120.832ZM135.221 121.624V127.597H133.985V121.624H135.221ZM136.431 124.583C136.431 123.983 136.554 123.452 136.8 122.99C137.053 122.527 137.393 122.169 137.819 121.917C138.253 121.656 138.73 121.526 139.25 121.526C139.72 121.526 140.128 121.62 140.475 121.808C140.829 121.989 141.111 122.216 141.321 122.491V121.624H142.567V127.597H141.321V126.708C141.111 126.99 140.826 127.225 140.464 127.413C140.103 127.601 139.691 127.695 139.228 127.695C138.715 127.695 138.246 127.565 137.819 127.304C137.393 127.037 137.053 126.668 136.8 126.199C136.554 125.722 136.431 125.183 136.431 124.583ZM141.321 124.605C141.321 124.193 141.234 123.835 141.061 123.532C140.894 123.228 140.674 122.997 140.399 122.838C140.125 122.679 139.828 122.599 139.51 122.599C139.192 122.599 138.896 122.679 138.621 122.838C138.347 122.99 138.123 123.217 137.949 123.521C137.783 123.817 137.7 124.171 137.7 124.583C137.7 124.995 137.783 125.357 137.949 125.667C138.123 125.978 138.347 126.217 138.621 126.383C138.903 126.542 139.2 126.621 139.51 126.621C139.828 126.621 140.125 126.542 140.399 126.383C140.674 126.224 140.894 125.993 141.061 125.689C141.234 125.378 141.321 125.017 141.321 124.605ZM145.426 119.575V127.597H144.191V119.575H145.426ZM150.494 120.832C150.27 120.832 150.082 120.757 149.93 120.605C149.778 120.453 149.702 120.265 149.702 120.041C149.702 119.817 149.778 119.629 149.93 119.477C150.082 119.326 150.27 119.25 150.494 119.25C150.711 119.25 150.895 119.326 151.047 119.477C151.199 119.629 151.274 119.817 151.274 120.041C151.274 120.265 151.199 120.453 151.047 120.605C150.895 120.757 150.711 120.832 150.494 120.832ZM151.101 121.624V127.597H149.865V121.624H151.101ZM154.892 127.695C154.422 127.695 153.999 127.612 153.623 127.445C153.255 127.272 152.962 127.041 152.745 126.752C152.528 126.455 152.413 126.126 152.398 125.765H153.678C153.699 126.018 153.818 126.231 154.035 126.405C154.259 126.571 154.538 126.654 154.87 126.654C155.217 126.654 155.484 126.589 155.672 126.459C155.867 126.321 155.965 126.148 155.965 125.938C155.965 125.714 155.857 125.548 155.64 125.44C155.43 125.331 155.094 125.212 154.632 125.082C154.183 124.959 153.818 124.84 153.537 124.724C153.255 124.609 153.009 124.432 152.799 124.193C152.597 123.955 152.496 123.64 152.496 123.25C152.496 122.932 152.59 122.643 152.778 122.383C152.966 122.115 153.233 121.906 153.58 121.754C153.934 121.602 154.339 121.526 154.794 121.526C155.473 121.526 156.019 121.7 156.431 122.047C156.85 122.386 157.074 122.852 157.103 123.445H155.867C155.846 123.178 155.737 122.964 155.542 122.805C155.347 122.646 155.083 122.567 154.751 122.567C154.426 122.567 154.176 122.628 154.003 122.751C153.829 122.874 153.743 123.037 153.743 123.239C153.743 123.398 153.8 123.532 153.916 123.64C154.032 123.749 154.173 123.835 154.339 123.9C154.505 123.958 154.751 124.034 155.076 124.128C155.51 124.244 155.864 124.363 156.138 124.486C156.42 124.601 156.662 124.775 156.865 125.006C157.067 125.237 157.172 125.545 157.179 125.928C157.179 126.267 157.085 126.571 156.897 126.838C156.709 127.106 156.442 127.315 156.095 127.467C155.755 127.619 155.354 127.695 154.892 127.695ZM160.683 127.695C160.213 127.695 159.79 127.612 159.414 127.445C159.046 127.272 158.753 127.041 158.536 126.752C158.319 126.455 158.204 126.126 158.189 125.765H159.468C159.49 126.018 159.609 126.231 159.826 126.405C160.05 126.571 160.328 126.654 160.661 126.654C161.008 126.654 161.275 126.589 161.463 126.459C161.658 126.321 161.756 126.148 161.756 125.938C161.756 125.714 161.647 125.548 161.431 125.44C161.221 125.331 160.885 125.212 160.422 125.082C159.974 124.959 159.609 124.84 159.328 124.724C159.046 124.609 158.8 124.432 158.59 124.193C158.388 123.955 158.287 123.64 158.287 123.25C158.287 122.932 158.381 122.643 158.569 122.383C158.757 122.115 159.024 121.906 159.371 121.754C159.725 121.602 160.13 121.526 160.585 121.526C161.264 121.526 161.81 121.7 162.222 122.047C162.641 122.386 162.865 122.852 162.894 123.445H161.658C161.637 123.178 161.528 122.964 161.333 122.805C161.138 122.646 160.874 122.567 160.542 122.567C160.216 122.567 159.967 122.628 159.794 122.751C159.62 122.874 159.533 123.037 159.533 123.239C159.533 123.398 159.591 123.532 159.707 123.64C159.823 123.749 159.964 123.835 160.13 123.9C160.296 123.958 160.542 124.034 160.867 124.128C161.301 124.244 161.655 124.363 161.929 124.486C162.211 124.601 162.453 124.775 162.656 125.006C162.858 125.237 162.963 125.545 162.97 125.928C162.97 126.267 162.876 126.571 162.688 126.838C162.5 127.106 162.233 127.315 161.886 127.467C161.546 127.619 161.145 127.695 160.683 127.695ZM169.715 121.624V127.597H168.479V126.892C168.284 127.138 168.027 127.333 167.709 127.478C167.399 127.615 167.066 127.684 166.712 127.684C166.242 127.684 165.819 127.586 165.444 127.391C165.075 127.196 164.782 126.907 164.566 126.524C164.356 126.141 164.251 125.678 164.251 125.136V121.624H165.476V124.952C165.476 125.487 165.61 125.899 165.877 126.188C166.145 126.47 166.51 126.611 166.972 126.611C167.435 126.611 167.8 126.47 168.067 126.188C168.342 125.899 168.479 125.487 168.479 124.952V121.624H169.715ZM176.82 124.464C176.82 124.688 176.806 124.891 176.777 125.071H172.213C172.249 125.548 172.426 125.931 172.744 126.22C173.062 126.509 173.452 126.654 173.915 126.654C174.58 126.654 175.05 126.376 175.324 125.819H176.658C176.477 126.368 176.148 126.82 175.671 127.174C175.201 127.521 174.616 127.695 173.915 127.695C173.344 127.695 172.831 127.568 172.375 127.315C171.927 127.055 171.573 126.694 171.313 126.231C171.06 125.761 170.934 125.219 170.934 124.605C170.934 123.991 171.056 123.452 171.302 122.99C171.555 122.52 171.906 122.159 172.354 121.906C172.809 121.653 173.329 121.526 173.915 121.526C174.479 121.526 174.981 121.649 175.422 121.895C175.863 122.141 176.206 122.487 176.452 122.936C176.697 123.376 176.82 123.886 176.82 124.464ZM175.53 124.074C175.523 123.619 175.36 123.254 175.042 122.979C174.724 122.704 174.33 122.567 173.861 122.567C173.434 122.567 173.069 122.704 172.766 122.979C172.462 123.246 172.281 123.611 172.224 124.074H175.53ZM180.205 127.695C179.735 127.695 179.312 127.612 178.936 127.445C178.568 127.272 178.275 127.041 178.058 126.752C177.841 126.455 177.726 126.126 177.711 125.765H178.99C179.012 126.018 179.131 126.231 179.348 126.405C179.572 126.571 179.85 126.654 180.183 126.654C180.53 126.654 180.797 126.589 180.985 126.459C181.18 126.321 181.278 126.148 181.278 125.938C181.278 125.714 181.169 125.548 180.953 125.44C180.743 125.331 180.407 125.212 179.944 125.082C179.496 124.959 179.131 124.84 178.849 124.724C178.568 124.609 178.322 124.432 178.112 124.193C177.91 123.955 177.809 123.64 177.809 123.25C177.809 122.932 177.903 122.643 178.091 122.383C178.278 122.115 178.546 121.906 178.893 121.754C179.247 121.602 179.652 121.526 180.107 121.526C180.786 121.526 181.332 121.7 181.744 122.047C182.163 122.386 182.387 122.852 182.416 123.445H181.18C181.159 123.178 181.05 122.964 180.855 122.805C180.66 122.646 180.396 122.567 180.064 122.567C179.738 122.567 179.489 122.628 179.316 122.751C179.142 122.874 179.055 123.037 179.055 123.239C179.055 123.398 179.113 123.532 179.229 123.64C179.344 123.749 179.485 123.835 179.652 123.9C179.818 123.958 180.064 124.034 180.389 124.128C180.822 124.244 181.177 124.363 181.451 124.486C181.733 124.601 181.975 124.775 182.178 125.006C182.38 125.237 182.485 125.545 182.492 125.928C182.492 126.267 182.398 126.571 182.21 126.838C182.022 127.106 181.755 127.315 181.408 127.467C181.068 127.619 180.667 127.695 180.205 127.695ZM187.879 122.513C188.089 122.224 188.374 121.989 188.736 121.808C189.104 121.62 189.513 121.526 189.961 121.526C190.488 121.526 190.965 121.653 191.392 121.906C191.818 122.159 192.154 122.52 192.4 122.99C192.646 123.452 192.768 123.983 192.768 124.583C192.768 125.183 192.646 125.722 192.4 126.199C192.154 126.668 191.814 127.037 191.381 127.304C190.954 127.565 190.481 127.695 189.961 127.695C189.498 127.695 189.086 127.604 188.725 127.424C188.371 127.243 188.089 127.012 187.879 126.73V127.597H186.643V119.575H187.879V122.513ZM191.511 124.583C191.511 124.171 191.424 123.817 191.251 123.521C191.084 123.217 190.86 122.99 190.579 122.838C190.304 122.679 190.008 122.599 189.69 122.599C189.379 122.599 189.083 122.679 188.801 122.838C188.526 122.997 188.302 123.228 188.129 123.532C187.962 123.835 187.879 124.193 187.879 124.605C187.879 125.017 187.962 125.378 188.129 125.689C188.302 125.993 188.526 126.224 188.801 126.383C189.083 126.542 189.379 126.621 189.69 126.621C190.008 126.621 190.304 126.542 190.579 126.383C190.86 126.217 191.084 125.978 191.251 125.667C191.424 125.357 191.511 124.995 191.511 124.583ZM199.465 124.464C199.465 124.688 199.451 124.891 199.422 125.071H194.858C194.894 125.548 195.071 125.931 195.389 126.22C195.707 126.509 196.097 126.654 196.56 126.654C197.225 126.654 197.695 126.376 197.969 125.819H199.303C199.122 126.368 198.793 126.82 198.316 127.174C197.846 127.521 197.261 127.695 196.56 127.695C195.989 127.695 195.476 127.568 195.02 127.315C194.572 127.055 194.218 126.694 193.958 126.231C193.705 125.761 193.579 125.219 193.579 124.605C193.579 123.991 193.701 123.452 193.947 122.99C194.2 122.52 194.551 122.159 194.999 121.906C195.454 121.653 195.974 121.526 196.56 121.526C197.124 121.526 197.626 121.649 198.067 121.895C198.508 122.141 198.851 122.487 199.097 122.936C199.342 123.376 199.465 123.886 199.465 124.464ZM198.175 124.074C198.168 123.619 198.005 123.254 197.687 122.979C197.369 122.704 196.975 122.567 196.506 122.567C196.079 122.567 195.714 122.704 195.411 122.979C195.107 123.246 194.926 123.611 194.869 124.074H198.175ZM203.186 122.632H202.08V127.597H200.833V122.632H200.128V121.624H200.833V121.201C200.833 120.514 201.014 120.016 201.375 119.705C201.744 119.387 202.318 119.228 203.099 119.228V120.258C202.723 120.258 202.459 120.33 202.307 120.475C202.156 120.612 202.08 120.854 202.08 121.201V121.624H203.186V122.632ZM206.872 127.695C206.308 127.695 205.799 127.568 205.343 127.315C204.888 127.055 204.53 126.694 204.27 126.231C204.01 125.761 203.88 125.219 203.88 124.605C203.88 123.998 204.013 123.46 204.281 122.99C204.548 122.52 204.913 122.159 205.376 121.906C205.838 121.653 206.355 121.526 206.926 121.526C207.497 121.526 208.014 121.653 208.476 121.906C208.939 122.159 209.304 122.52 209.571 122.99C209.839 123.46 209.972 123.998 209.972 124.605C209.972 125.212 209.835 125.751 209.56 126.22C209.286 126.69 208.91 127.055 208.433 127.315C207.963 127.568 207.443 127.695 206.872 127.695ZM206.872 126.621C207.19 126.621 207.486 126.546 207.761 126.394C208.043 126.242 208.27 126.014 208.444 125.711C208.617 125.407 208.704 125.039 208.704 124.605C208.704 124.171 208.621 123.806 208.455 123.51C208.288 123.207 208.068 122.979 207.793 122.827C207.519 122.675 207.222 122.599 206.904 122.599C206.586 122.599 206.29 122.675 206.015 122.827C205.748 122.979 205.535 123.207 205.376 123.51C205.217 123.806 205.137 124.171 205.137 124.605C205.137 125.248 205.3 125.747 205.625 126.101C205.958 126.448 206.373 126.621 206.872 126.621ZM212.43 122.491C212.611 122.188 212.849 121.953 213.145 121.786C213.449 121.613 213.807 121.526 214.219 121.526V122.805H213.904C213.42 122.805 213.051 122.928 212.798 123.174C212.553 123.42 212.43 123.846 212.43 124.453V127.597H211.194V121.624H212.43V122.491ZM220.829 124.464C220.829 124.688 220.815 124.891 220.786 125.071H216.222C216.258 125.548 216.435 125.931 216.753 126.22C217.071 126.509 217.461 126.654 217.924 126.654C218.589 126.654 219.059 126.376 219.333 125.819H220.667C220.486 126.368 220.157 126.82 219.68 127.174C219.21 127.521 218.625 127.695 217.924 127.695C217.353 127.695 216.84 127.568 216.384 127.315C215.936 127.055 215.582 126.694 215.322 126.231C215.069 125.761 214.943 125.219 214.943 124.605C214.943 123.991 215.065 123.452 215.311 122.99C215.564 122.52 215.915 122.159 216.363 121.906C216.818 121.653 217.338 121.526 217.924 121.526C218.488 121.526 218.99 121.649 219.431 121.895C219.872 122.141 220.215 122.487 220.461 122.936C220.706 123.376 220.829 123.886 220.829 124.464ZM219.539 124.074C219.532 123.619 219.369 123.254 219.051 122.979C218.733 122.704 218.339 122.567 217.87 122.567C217.443 122.567 217.078 122.704 216.775 122.979C216.471 123.246 216.29 123.611 216.233 124.074H219.539ZM226.303 122.632V125.938C226.303 126.162 226.354 126.325 226.455 126.426C226.563 126.52 226.744 126.567 226.997 126.567H227.756V127.597H226.78C226.224 127.597 225.797 127.467 225.501 127.207C225.205 126.947 225.057 126.524 225.057 125.938V122.632H224.352V121.624H225.057V120.139H226.303V121.624H227.756V122.632H226.303ZM231.985 121.526C232.44 121.526 232.845 121.624 233.199 121.819C233.56 122.014 233.842 122.303 234.044 122.686C234.254 123.069 234.359 123.532 234.359 124.074V127.597H233.134V124.258C233.134 123.723 233 123.315 232.733 123.033C232.465 122.744 232.1 122.599 231.638 122.599C231.175 122.599 230.807 122.744 230.532 123.033C230.265 123.315 230.131 123.723 230.131 124.258V127.597H228.895V119.575H230.131V122.318C230.34 122.065 230.604 121.87 230.922 121.732C231.247 121.595 231.602 121.526 231.985 121.526ZM241.41 124.464C241.41 124.688 241.395 124.891 241.366 125.071H236.802C236.839 125.548 237.016 125.931 237.334 126.22C237.652 126.509 238.042 126.654 238.504 126.654C239.169 126.654 239.639 126.376 239.914 125.819H241.247C241.066 126.368 240.738 126.82 240.261 127.174C239.791 127.521 239.205 127.695 238.504 127.695C237.933 127.695 237.42 127.568 236.965 127.315C236.517 127.055 236.163 126.694 235.903 126.231C235.65 125.761 235.523 125.219 235.523 124.605C235.523 123.991 235.646 123.452 235.892 122.99C236.145 122.52 236.495 122.159 236.943 121.906C237.399 121.653 237.919 121.526 238.504 121.526C239.068 121.526 239.57 121.649 240.011 121.895C240.452 122.141 240.795 122.487 241.041 122.936C241.287 123.376 241.41 123.886 241.41 124.464ZM240.12 124.074C240.112 123.619 239.95 123.254 239.632 122.979C239.314 122.704 238.92 122.567 238.45 122.567C238.024 122.567 237.659 122.704 237.355 122.979C237.052 123.246 236.871 123.611 236.813 124.074H240.12ZM248.003 121.624L244.339 130.405H243.06L244.274 127.5L241.921 121.624H243.298L244.978 126.177L246.724 121.624H248.003ZM252.988 122.513C253.197 122.224 253.483 121.989 253.844 121.808C254.213 121.62 254.621 121.526 255.069 121.526C255.597 121.526 256.074 121.653 256.5 121.906C256.926 122.159 257.262 122.52 257.508 122.99C257.754 123.452 257.877 123.983 257.877 124.583C257.877 125.183 257.754 125.722 257.508 126.199C257.262 126.668 256.923 127.037 256.489 127.304C256.063 127.565 255.589 127.695 255.069 127.695C254.606 127.695 254.194 127.604 253.833 127.424C253.479 127.243 253.197 127.012 252.988 126.73V127.597H251.752V119.575H252.988V122.513ZM256.619 124.583C256.619 124.171 256.532 123.817 256.359 123.521C256.193 123.217 255.969 122.99 255.687 122.838C255.412 122.679 255.116 122.599 254.798 122.599C254.487 122.599 254.191 122.679 253.909 122.838C253.634 122.997 253.41 123.228 253.237 123.532C253.071 123.835 252.988 124.193 252.988 124.605C252.988 125.017 253.071 125.378 253.237 125.689C253.41 125.993 253.634 126.224 253.909 126.383C254.191 126.542 254.487 126.621 254.798 126.621C255.116 126.621 255.412 126.542 255.687 126.383C255.969 126.217 256.193 125.978 256.359 125.667C256.532 125.357 256.619 124.995 256.619 124.583ZM264.573 124.464C264.573 124.688 264.559 124.891 264.53 125.071H259.966C260.002 125.548 260.179 125.931 260.497 126.22C260.815 126.509 261.206 126.654 261.668 126.654C262.333 126.654 262.803 126.376 263.077 125.819H264.411C264.23 126.368 263.901 126.82 263.424 127.174C262.955 127.521 262.369 127.695 261.668 127.695C261.097 127.695 260.584 127.568 260.129 127.315C259.681 127.055 259.327 126.694 259.066 126.231C258.813 125.761 258.687 125.219 258.687 124.605C258.687 123.991 258.81 123.452 259.056 122.99C259.308 122.52 259.659 122.159 260.107 121.906C260.562 121.653 261.083 121.526 261.668 121.526C262.232 121.526 262.734 121.649 263.175 121.895C263.616 122.141 263.959 122.487 264.205 122.936C264.451 123.376 264.573 123.886 264.573 124.464ZM263.283 124.074C263.276 123.619 263.114 123.254 262.796 122.979C262.478 122.704 262.084 122.567 261.614 122.567C261.188 122.567 260.823 122.704 260.519 122.979C260.215 123.246 260.035 123.611 259.977 124.074H263.283ZM265.378 124.605C265.378 123.991 265.501 123.452 265.746 122.99C265.999 122.52 266.346 122.159 266.787 121.906C267.228 121.653 267.734 121.526 268.305 121.526C269.027 121.526 269.624 121.7 270.093 122.047C270.57 122.386 270.892 122.874 271.058 123.51H269.725C269.617 123.214 269.443 122.983 269.205 122.816C268.966 122.65 268.666 122.567 268.305 122.567C267.799 122.567 267.394 122.748 267.091 123.109C266.794 123.463 266.646 123.962 266.646 124.605C266.646 125.248 266.794 125.751 267.091 126.112C267.394 126.473 267.799 126.654 268.305 126.654C269.02 126.654 269.494 126.34 269.725 125.711H271.058C270.885 126.318 270.56 126.802 270.083 127.163C269.606 127.518 269.013 127.695 268.305 127.695C267.734 127.695 267.228 127.568 266.787 127.315C266.346 127.055 265.999 126.694 265.746 126.231C265.501 125.761 265.378 125.219 265.378 124.605ZM274.881 127.695C274.317 127.695 273.808 127.568 273.352 127.315C272.897 127.055 272.539 126.694 272.279 126.231C272.019 125.761 271.889 125.219 271.889 124.605C271.889 123.998 272.023 123.46 272.29 122.99C272.557 122.52 272.922 122.159 273.385 121.906C273.847 121.653 274.364 121.526 274.935 121.526C275.506 121.526 276.023 121.653 276.485 121.906C276.948 122.159 277.313 122.52 277.58 122.99C277.848 123.46 277.981 123.998 277.981 124.605C277.981 125.212 277.844 125.751 277.569 126.22C277.295 126.69 276.919 127.055 276.442 127.315C275.972 127.568 275.452 127.695 274.881 127.695ZM274.881 126.621C275.199 126.621 275.495 126.546 275.77 126.394C276.052 126.242 276.279 126.014 276.453 125.711C276.626 125.407 276.713 125.039 276.713 124.605C276.713 124.171 276.63 123.806 276.464 123.51C276.297 123.207 276.077 122.979 275.802 122.827C275.528 122.675 275.231 122.599 274.913 122.599C274.595 122.599 274.299 122.675 274.024 122.827C273.757 122.979 273.544 123.207 273.385 123.51C273.226 123.806 273.146 124.171 273.146 124.605C273.146 125.248 273.309 125.747 273.634 126.101C273.967 126.448 274.382 126.621 274.881 126.621ZM286.434 121.526C286.904 121.526 287.323 121.624 287.691 121.819C288.067 122.014 288.36 122.303 288.57 122.686C288.786 123.069 288.895 123.532 288.895 124.074V127.597H287.67V124.258C287.67 123.723 287.536 123.315 287.269 123.033C287.001 122.744 286.636 122.599 286.174 122.599C285.711 122.599 285.343 122.744 285.068 123.033C284.801 123.315 284.667 123.723 284.667 124.258V127.597H283.442V124.258C283.442 123.723 283.308 123.315 283.041 123.033C282.773 122.744 282.408 122.599 281.946 122.599C281.483 122.599 281.115 122.744 280.84 123.033C280.573 123.315 280.439 123.723 280.439 124.258V127.597H279.203V121.624H280.439V122.307C280.641 122.061 280.898 121.87 281.209 121.732C281.519 121.595 281.852 121.526 282.206 121.526C282.683 121.526 283.109 121.627 283.485 121.83C283.861 122.032 284.15 122.325 284.352 122.708C284.533 122.347 284.815 122.061 285.198 121.851C285.581 121.635 285.993 121.526 286.434 121.526ZM295.942 124.464C295.942 124.688 295.927 124.891 295.899 125.071H291.335C291.371 125.548 291.548 125.931 291.866 126.22C292.184 126.509 292.574 126.654 293.037 126.654C293.702 126.654 294.171 126.376 294.446 125.819H295.779C295.599 126.368 295.27 126.82 294.793 127.174C294.323 127.521 293.738 127.695 293.037 127.695C292.466 127.695 291.953 127.568 291.497 127.315C291.049 127.055 290.695 126.694 290.435 126.231C290.182 125.761 290.055 125.219 290.055 124.605C290.055 123.991 290.178 123.452 290.424 122.99C290.677 122.52 291.027 122.159 291.476 121.906C291.931 121.653 292.451 121.526 293.037 121.526C293.6 121.526 294.103 121.649 294.543 121.895C294.984 122.141 295.328 122.487 295.573 122.936C295.819 123.376 295.942 123.886 295.942 124.464ZM294.652 124.074C294.645 123.619 294.482 123.254 294.164 122.979C293.846 122.704 293.452 122.567 292.982 122.567C292.556 122.567 292.191 122.704 291.887 122.979C291.584 123.246 291.403 123.611 291.345 124.074H294.652ZM301.21 122.502C301.42 122.227 301.705 121.996 302.066 121.808C302.428 121.62 302.836 121.526 303.292 121.526C303.812 121.526 304.285 121.656 304.712 121.917C305.145 122.169 305.485 122.527 305.731 122.99C305.976 123.452 306.099 123.983 306.099 124.583C306.099 125.183 305.976 125.722 305.731 126.199C305.485 126.668 305.145 127.037 304.712 127.304C304.285 127.565 303.812 127.695 303.292 127.695C302.836 127.695 302.431 127.604 302.077 127.424C301.723 127.236 301.434 127.004 301.21 126.73V130.437H299.974V121.624H301.21V122.502ZM304.842 124.583C304.842 124.171 304.755 123.817 304.582 123.521C304.415 123.217 304.191 122.99 303.909 122.838C303.635 122.679 303.338 122.599 303.02 122.599C302.71 122.599 302.413 122.679 302.132 122.838C301.857 122.997 301.633 123.228 301.459 123.532C301.293 123.835 301.21 124.193 301.21 124.605C301.21 125.017 301.293 125.378 301.459 125.689C301.633 125.993 301.857 126.224 302.132 126.383C302.413 126.542 302.71 126.621 303.02 126.621C303.338 126.621 303.635 126.542 303.909 126.383C304.191 126.217 304.415 125.978 304.582 125.667C304.755 125.357 304.842 124.995 304.842 124.583ZM308.557 122.491C308.738 122.188 308.976 121.953 309.273 121.786C309.576 121.613 309.934 121.526 310.346 121.526V122.805H310.032C309.547 122.805 309.179 122.928 308.926 123.174C308.68 123.42 308.557 123.846 308.557 124.453V127.597H307.321V121.624H308.557V122.491ZM314.073 127.695C313.509 127.695 313 127.568 312.544 127.315C312.089 127.055 311.731 126.694 311.471 126.231C311.211 125.761 311.081 125.219 311.081 124.605C311.081 123.998 311.215 123.46 311.482 122.99C311.749 122.52 312.114 122.159 312.577 121.906C313.039 121.653 313.556 121.526 314.127 121.526C314.698 121.526 315.215 121.653 315.677 121.906C316.14 122.159 316.505 122.52 316.772 122.99C317.04 123.46 317.173 123.998 317.173 124.605C317.173 125.212 317.036 125.751 316.761 126.22C316.487 126.69 316.111 127.055 315.634 127.315C315.164 127.568 314.644 127.695 314.073 127.695ZM314.073 126.621C314.391 126.621 314.687 126.546 314.962 126.394C315.244 126.242 315.471 126.014 315.645 125.711C315.818 125.407 315.905 125.039 315.905 124.605C315.905 124.171 315.822 123.806 315.656 123.51C315.489 123.207 315.269 122.979 314.994 122.827C314.72 122.675 314.423 122.599 314.105 122.599C313.787 122.599 313.491 122.675 313.217 122.827C312.949 122.979 312.736 123.207 312.577 123.51C312.418 123.806 312.338 124.171 312.338 124.605C312.338 125.248 312.501 125.747 312.826 126.101C313.159 126.448 313.574 126.621 314.073 126.621ZM319.631 122.513C319.841 122.224 320.126 121.989 320.487 121.808C320.856 121.62 321.264 121.526 321.712 121.526C322.24 121.526 322.717 121.653 323.143 121.906C323.57 122.159 323.906 122.52 324.152 122.99C324.397 123.452 324.52 123.983 324.52 124.583C324.52 125.183 324.397 125.722 324.152 126.199C323.906 126.668 323.566 127.037 323.133 127.304C322.706 127.565 322.233 127.695 321.712 127.695C321.25 127.695 320.838 127.604 320.477 127.424C320.122 127.243 319.841 127.012 319.631 126.73V127.597H318.395V119.575H319.631V122.513ZM323.263 124.583C323.263 124.171 323.176 123.817 323.002 123.521C322.836 123.217 322.612 122.99 322.33 122.838C322.056 122.679 321.759 122.599 321.441 122.599C321.131 122.599 320.834 122.679 320.552 122.838C320.278 122.997 320.054 123.228 319.88 123.532C319.714 123.835 319.631 124.193 319.631 124.605C319.631 125.017 319.714 125.378 319.88 125.689C320.054 125.993 320.278 126.224 320.552 126.383C320.834 126.542 321.131 126.621 321.441 126.621C321.759 126.621 322.056 126.542 322.33 126.383C322.612 126.217 322.836 125.978 323.002 125.667C323.176 125.357 323.263 124.995 323.263 124.583ZM326.978 119.575V127.597H325.742V119.575H326.978ZM334.075 124.464C334.075 124.688 334.061 124.891 334.032 125.071H329.468C329.504 125.548 329.681 125.931 329.999 126.22C330.317 126.509 330.707 126.654 331.17 126.654C331.835 126.654 332.305 126.376 332.579 125.819H333.913C333.732 126.368 333.403 126.82 332.926 127.174C332.456 127.521 331.871 127.695 331.17 127.695C330.599 127.695 330.086 127.568 329.631 127.315C329.183 127.055 328.828 126.694 328.568 126.231C328.315 125.761 328.189 125.219 328.189 124.605C328.189 123.991 328.312 123.452 328.557 122.99C328.81 122.52 329.161 122.159 329.609 121.906C330.064 121.653 330.585 121.526 331.17 121.526C331.734 121.526 332.236 121.649 332.677 121.895C333.118 122.141 333.461 122.487 333.707 122.936C333.952 123.376 334.075 123.886 334.075 124.464ZM332.785 124.074C332.778 123.619 332.615 123.254 332.297 122.979C331.979 122.704 331.586 122.567 331.116 122.567C330.689 122.567 330.324 122.704 330.021 122.979C329.717 123.246 329.537 123.611 329.479 124.074H332.785ZM342.522 121.526C342.992 121.526 343.411 121.624 343.78 121.819C344.156 122.014 344.448 122.303 344.658 122.686C344.875 123.069 344.983 123.532 344.983 124.074V127.597H343.758V124.258C343.758 123.723 343.624 123.315 343.357 123.033C343.09 122.744 342.725 122.599 342.262 122.599C341.8 122.599 341.431 122.744 341.156 123.033C340.889 123.315 340.755 123.723 340.755 124.258V127.597H339.53V124.258C339.53 123.723 339.397 123.315 339.129 123.033C338.862 122.744 338.497 122.599 338.034 122.599C337.572 122.599 337.203 122.744 336.928 123.033C336.661 123.315 336.527 123.723 336.527 124.258V127.597H335.292V121.624H336.527V122.307C336.73 122.061 336.986 121.87 337.297 121.732C337.608 121.595 337.94 121.526 338.294 121.526C338.771 121.526 339.198 121.627 339.574 121.83C339.949 122.032 340.239 122.325 340.441 122.708C340.622 122.347 340.903 122.061 341.286 121.851C341.67 121.635 342.081 121.526 342.522 121.526ZM348.724 127.695C348.254 127.695 347.831 127.612 347.456 127.445C347.087 127.272 346.794 127.041 346.577 126.752C346.361 126.455 346.245 126.126 346.231 125.765H347.51C347.531 126.018 347.651 126.231 347.868 126.405C348.092 126.571 348.37 126.654 348.702 126.654C349.049 126.654 349.317 126.589 349.504 126.459C349.7 126.321 349.797 126.148 349.797 125.938C349.797 125.714 349.689 125.548 349.472 125.44C349.262 125.331 348.926 125.212 348.464 125.082C348.016 124.959 347.651 124.84 347.369 124.724C347.087 124.609 346.841 124.432 346.632 124.193C346.429 123.955 346.328 123.64 346.328 123.25C346.328 122.932 346.422 122.643 346.61 122.383C346.798 122.115 347.065 121.906 347.412 121.754C347.766 121.602 348.171 121.526 348.626 121.526C349.306 121.526 349.851 121.7 350.263 122.047C350.683 122.386 350.907 122.852 350.935 123.445H349.7C349.678 123.178 349.57 122.964 349.374 122.805C349.179 122.646 348.915 122.567 348.583 122.567C348.258 122.567 348.008 122.628 347.835 122.751C347.662 122.874 347.575 123.037 347.575 123.239C347.575 123.398 347.633 123.532 347.748 123.64C347.864 123.749 348.005 123.835 348.171 123.9C348.337 123.958 348.583 124.034 348.908 124.128C349.342 124.244 349.696 124.363 349.971 124.486C350.253 124.601 350.495 124.775 350.697 125.006C350.899 125.237 351.004 125.545 351.011 125.928C351.011 126.267 350.917 126.571 350.73 126.838C350.542 127.106 350.274 127.315 349.927 127.467C349.588 127.619 349.186 127.695 348.724 127.695ZM352.845 127.673C352.621 127.673 352.433 127.597 352.282 127.445C352.13 127.294 352.054 127.106 352.054 126.882C352.054 126.658 352.13 126.47 352.282 126.318C352.433 126.166 352.621 126.09 352.845 126.09C353.062 126.09 353.247 126.166 353.398 126.318C353.55 126.47 353.626 126.658 353.626 126.882C353.626 127.106 353.55 127.294 353.398 127.445C353.247 127.597 353.062 127.673 352.845 127.673Z" fill="#120033"/>
<rect x="45.6384" y="158.507" width="27.0337" height="9.23102" fill="#DCE2EC"/>
<rect x="45.6384" y="184.882" width="27.0337" height="9.23102" fill="#DCE2EC"/>
<rect x="45.6384" y="211.256" width="62.0976" height="9.93561" fill="#DCE2EC"/>
<rect x="45.6384" y="238.335" width="7.91231" height="9.23102" fill="#DCE2EC"/>
<rect x="45.6384" y="264.709" width="7.91231" height="9.23102" fill="#DCE2EC"/>
<rect x="45.6384" y="291.084" width="54.6459" height="9.93561" fill="#DCE2EC"/>
<rect x="45.6384" y="318.163" width="46.8145" height="9.23102" fill="#DCE2EC"/>
<rect x="45.6384" y="344.537" width="22.4182" height="9.23102" fill="#DCE2EC"/>
<rect x="45.6384" y="370.911" width="27.0337" height="9.23102" fill="#DCE2EC"/>
<rect x="152.663" y="158.45" width="87.6947" height="9.23102" fill="#DCE2EC"/>
<rect x="152.663" y="184.825" width="62.0976" height="9.93561" fill="#DCE2EC"/>
<rect x="152.663" y="211.904" width="93.6289" height="9.23102" fill="#DCE2EC"/>
<rect x="152.663" y="238.278" width="42.8583" height="9.23102" fill="#DCE2EC"/>
<rect x="152.663" y="264.652" width="77.6931" height="9.03408" fill="#DCE2EC"/>
<rect x="152.663" y="290.83" width="42.2263" height="9.93561" fill="#DCE2EC"/>
<rect x="152.663" y="317.909" width="77.6931" height="9.03408" fill="#DCE2EC"/>
<rect x="152.663" y="344.086" width="77.6931" height="9.03408" fill="#DCE2EC"/>
<rect x="152.663" y="370.263" width="42.2263" height="9.93561" fill="#DCE2EC"/>
<rect x="289.741" y="158.635" width="77.001" height="9.93561" fill="#DCE2EC"/>
<rect x="289.741" y="185.714" width="77.6931" height="9.03408" fill="#DCE2EC"/>
<rect x="289.741" y="211.892" width="77.6931" height="9.03408" fill="#DCE2EC"/>
<rect x="289.741" y="238.069" width="77.6931" height="9.03408" fill="#DCE2EC"/>
<rect x="289.741" y="264.247" width="62.0976" height="9.93561" fill="#DCE2EC"/>
<rect x="289.741" y="291.326" width="62.0976" height="9.93561" fill="#DCE2EC"/>
<rect x="289.741" y="318.405" width="62.0976" height="9.93561" fill="#DCE2EC"/>
<rect x="289.741" y="345.483" width="54.6459" height="9.93561" fill="#DCE2EC"/>
<rect x="289.741" y="372.562" width="59.6137" height="7.45171" fill="#DCE2EC"/>
<g clip-path="url(#clip0_406_6770)">
<path fill-rule="evenodd" clip-rule="evenodd" d="M57.2693 36.0625C57.2693 34.5374 57.8752 33.0748 58.9536 31.9965C60.0319 30.9181 61.4945 30.3123 63.0196 30.3123C64.5446 30.3123 66.0072 30.9181 67.0856 31.9965C68.164 33.0748 68.7698 34.5374 68.7698 36.0625C68.7698 37.5876 68.164 39.0501 67.0856 40.1285C66.0072 41.2069 64.5446 41.8127 63.0196 41.8127C61.4945 41.8127 60.0319 41.2069 58.9536 40.1285C57.8752 39.0501 57.2693 37.5876 57.2693 36.0625ZM51.7079 45.4815C52.8784 44.3703 54.4308 43.7508 56.0448 43.7508C57.6587 43.7508 59.2111 44.3703 60.3817 45.4815L60.4065 45.5063L63.0196 48.1194L65.6351 45.5063L65.66 45.4815C66.8302 44.3717 68.3816 43.7531 69.9944 43.7531C71.6072 43.7531 73.1585 44.3717 74.3288 45.4815C74.9094 46.0331 75.3719 46.697 75.6882 47.4329C76.0045 48.1687 76.1679 48.9612 76.1686 49.7621C76.1693 50.563 76.0072 51.3558 75.6923 52.0922C75.3773 52.8286 74.9159 53.4933 74.3362 54.046L63.884 64.2051C63.6522 64.4304 63.3416 64.5565 63.0183 64.5565C62.6951 64.5565 62.3845 64.4304 62.1527 64.2051L51.7029 54.046C51.1235 53.4935 50.6623 52.829 50.3473 52.093C50.0323 51.3569 49.8701 50.5645 49.8706 49.7639C49.8711 48.9633 50.0342 48.1711 50.35 47.4353C50.6658 46.6996 51.1278 46.0333 51.7079 45.4815Z" fill="#31008A"/>
</g>
<path d="M104.394 38.9138V54.0476H101.359V47.6081H94.8759V54.0476H91.8405V38.9138H94.8759V45.1364H101.359V38.9138H104.394ZM118.548 47.7816C118.548 48.2152 118.519 48.6055 118.461 48.9524L109.68 48.9524C109.752 49.8197 110.056 50.499 110.591 50.9905C111.126 51.4819 111.783 51.7276 112.564 51.7276C113.691 51.7276 114.493 51.2434 114.97 50.275L118.244 50.275C117.897 51.4313 117.232 52.3853 116.25 53.1369C115.267 53.8741 114.06 54.2427 112.629 54.2427C111.472 54.2427 110.432 53.9898 109.507 53.4839C108.596 52.9635 107.88 52.2335 107.36 51.294C106.854 50.3545 106.601 49.2704 106.601 48.0418C106.601 46.7987 106.854 45.7074 107.36 44.7678C107.866 43.8283 108.574 43.1056 109.485 42.5997C110.396 42.0938 111.444 41.8408 112.629 41.8408C113.771 41.8408 114.79 42.0866 115.686 42.578C116.597 43.0695 117.298 43.7705 117.789 44.6811C118.295 45.5773 118.548 46.6108 118.548 47.7816ZM115.404 46.9143C115.39 46.1338 115.108 45.5123 114.558 45.0497C114.009 44.5727 113.337 44.3342 112.542 44.3342C111.79 44.3342 111.154 44.5655 110.634 45.028C110.128 45.4761 109.817 46.1049 109.702 46.9143L115.404 46.9143ZM135.68 41.8625C137.155 41.8625 138.34 42.3178 139.236 43.2285C140.147 44.1246 140.602 45.3822 140.602 47.0011V54.0476H137.567V47.413C137.567 46.4735 137.328 45.758 136.851 45.2665C136.374 44.7606 135.724 44.5077 134.9 44.5077C134.076 44.5077 133.418 44.7606 132.927 45.2665C132.45 45.758 132.211 46.4735 132.211 47.413V54.0476L129.176 54.0476V47.413C129.176 46.4735 128.937 45.758 128.46 45.2665C127.983 44.7606 127.333 44.5077 126.509 44.5077C125.671 44.5077 125.006 44.7606 124.514 45.2665C124.037 45.758 123.799 46.4735 123.799 47.413V54.0476H120.763V42.036H123.799V43.4886C124.189 42.9827 124.688 42.5852 125.295 42.2961C125.916 42.0071 126.596 41.8625 127.333 41.8625C128.272 41.8625 129.111 42.0649 129.848 42.4696C130.585 42.8599 131.156 43.4236 131.561 44.1608C131.951 43.467 132.515 42.9105 133.252 42.4913C134.004 42.0721 134.813 41.8625 135.68 41.8625ZM148.816 54.2427C147.66 54.2427 146.619 53.9898 145.694 53.4839C144.769 52.9635 144.039 52.2335 143.504 51.294C142.984 50.3545 142.724 49.2704 142.724 48.0418C142.724 46.8131 142.991 45.7291 143.526 44.7895C144.075 43.85 144.82 43.1273 145.759 42.6214C146.699 42.101 147.747 41.8408 148.903 41.8408C150.059 41.8408 151.107 42.101 152.047 42.6214C152.986 43.1273 153.723 43.85 154.258 44.7895C154.808 45.7291 155.082 46.8131 155.082 48.0418C155.082 49.2704 154.8 50.3545 154.237 51.294C153.687 52.2335 152.936 52.9635 151.982 53.4839C151.042 53.9898 149.987 54.2427 148.816 54.2427ZM148.816 51.5976C149.365 51.5976 149.879 51.4675 150.356 51.2073C150.847 50.9327 151.237 50.5279 151.526 49.9931C151.816 49.4583 151.96 48.8079 151.96 48.0418C151.96 46.8999 151.657 46.0254 151.049 45.4183C150.457 44.7968 149.727 44.486 148.86 44.486C147.992 44.486 147.262 44.7968 146.67 45.4183C146.092 46.0254 145.802 46.8999 145.802 48.0418C145.802 49.1837 146.084 50.0654 146.648 50.6869C147.226 51.294 147.949 51.5976 148.816 51.5976ZM162.014 41.8408C162.91 41.8408 163.698 42.0215 164.377 42.3829C165.056 42.7298 165.591 43.1851 165.981 43.7488V42.036H169.039V54.1343C169.039 55.2473 168.815 56.2374 168.366 57.1047C167.918 57.9864 167.246 58.6802 166.35 59.1861C165.454 59.7065 164.37 59.9667 163.098 59.9667C161.392 59.9667 159.99 59.5692 158.892 58.7742C157.807 57.9792 157.193 56.8951 157.049 55.5219H160.062C160.221 56.0712 160.561 56.5048 161.081 56.8228C161.616 57.1553 162.259 57.3215 163.011 57.3215C163.893 57.3215 164.608 57.0541 165.158 56.5193C165.707 55.9989 165.981 55.2039 165.981 54.1343V52.2697C165.591 52.8334 165.049 53.3032 164.355 53.679C163.676 54.0548 162.895 54.2427 162.014 54.2427C161.002 54.2427 160.077 53.9825 159.238 53.4622C158.4 52.9418 157.735 52.2119 157.244 51.2723C156.767 50.3183 156.528 49.227 156.528 47.9984C156.528 46.7842 156.767 45.7074 157.244 44.7678C157.735 43.8283 158.393 43.1056 159.217 42.5997C160.055 42.0938 160.987 41.8408 162.014 41.8408ZM165.981 48.0418C165.981 47.3046 165.837 46.6758 165.548 46.1555C165.259 45.6207 164.868 45.2159 164.377 44.9413C163.886 44.6522 163.358 44.5077 162.794 44.5077C162.231 44.5077 161.71 44.645 161.233 44.9196C160.756 45.1943 160.366 45.599 160.062 46.1338C159.773 46.6541 159.629 47.2757 159.629 47.9984C159.629 48.7211 159.773 49.3571 160.062 49.9064C160.366 50.4412 160.756 50.8532 161.233 51.1422C161.725 51.4313 162.245 51.5759 162.794 51.5759C163.358 51.5759 163.886 51.4386 164.377 51.1639C164.868 50.8748 165.259 50.4701 165.548 49.9498C165.837 49.4149 165.981 48.7789 165.981 48.0418ZM183.169 47.7816C183.169 48.2152 183.14 48.6055 183.082 48.9524L174.301 48.9524C174.374 49.8197 174.677 50.499 175.212 50.9905C175.747 51.4819 176.405 51.7276 177.185 51.7276C178.313 51.7276 179.115 51.2434 179.592 50.275L182.866 50.275C182.519 51.4313 181.854 52.3853 180.871 53.1369C179.888 53.8741 178.681 54.2427 177.25 54.2427C176.094 54.2427 175.053 53.9898 174.128 53.4839C173.217 52.9635 172.502 52.2335 171.981 51.294C171.476 50.3545 171.223 49.2704 171.223 48.0418C171.223 46.7987 171.476 45.7074 171.981 44.7678C172.487 43.8283 173.196 43.1056 174.106 42.5997C175.017 42.0938 176.065 41.8408 177.25 41.8408C178.392 41.8408 179.411 42.0866 180.307 42.578C181.218 43.0695 181.919 43.7705 182.41 44.6811C182.916 45.5773 183.169 46.6108 183.169 47.7816ZM180.025 46.9143C180.011 46.1338 179.729 45.5123 179.18 45.0497C178.631 44.5727 177.958 44.3342 177.163 44.3342C176.412 44.3342 175.776 44.5655 175.255 45.028C174.75 45.4761 174.439 46.1049 174.323 46.9143H180.025ZM192.041 41.8625C193.472 41.8625 194.628 42.3178 195.51 43.2285C196.392 44.1246 196.833 45.3822 196.833 47.0011V54.0476H193.797V47.413C193.797 46.459 193.559 45.7291 193.082 45.2232C192.605 44.7028 191.954 44.4426 191.13 44.4426C190.292 44.4426 189.627 44.7028 189.136 45.2232C188.659 45.7291 188.42 46.459 188.42 47.413V54.0476H185.385V42.036H188.42V43.532C188.825 43.0116 189.338 42.6069 189.96 42.3178C190.596 42.0143 191.289 41.8625 192.041 41.8625ZM206.354 54.0476L203.882 50.3183L201.692 54.0476H198.44L202.364 48.0201L198.397 42.036L201.822 42.036L204.272 45.7435L206.484 42.036H209.736L205.79 48.0201L209.779 54.0476H206.354Z" fill="#31008A"/>
<defs>
<clipPath id="clip0_406_6770">
<rect width="34.7746" height="34.7746" fill="white" transform="translate(45.6343 30.0476)"/>
</clipPath>
</defs>
</svg>
