<svg width="355" height="270" viewBox="0 0 355 270" fill="none" xmlns="http://www.w3.org/2000/svg">
<rect x="254.475" y="2.82651" width="64.8371" height="56.5981" rx="4.80703" fill="black"/>
<rect x="254.475" y="2.82651" width="64.8371" height="56.5981" rx="4.80703" stroke="black" stroke-width="0.720412"/>
<rect x="256.636" y="0.665382" width="64.8371" height="57.2224" rx="4.80703" fill="white"/>
<rect x="256.636" y="0.665382" width="64.8371" height="57.2224" rx="4.80703" stroke="black" stroke-width="0.720412"/>
<path d="M264.568 14.8209V19.8315H263.66V14.8209H264.568ZM265.512 19.8315V16.0736H266.37V16.6999H266.409C266.478 16.483 266.595 16.3158 266.762 16.1983C266.93 16.0793 267.121 16.0197 267.337 16.0197C267.386 16.0197 267.44 16.0222 267.501 16.0271C267.563 16.0303 267.614 16.036 267.655 16.0442V16.8589C267.617 16.8459 267.558 16.8344 267.476 16.8247C267.396 16.8132 267.319 16.8075 267.244 16.8075C267.082 16.8075 266.937 16.8426 266.808 16.9127C266.681 16.9812 266.581 17.0767 266.507 17.199C266.434 17.3213 266.397 17.4624 266.397 17.6223V19.8315H265.512ZM269.728 19.9049C269.361 19.9049 269.043 19.8242 268.774 19.6627C268.504 19.5013 268.296 19.2753 268.147 18.985C268 18.6947 267.927 18.3554 267.927 17.9672C267.927 17.579 268 17.239 268.147 16.947C268.296 16.655 268.504 16.4283 268.774 16.2668C269.043 16.1054 269.361 16.0246 269.728 16.0246C270.095 16.0246 270.413 16.1054 270.682 16.2668C270.951 16.4283 271.159 16.655 271.306 16.947C271.454 17.239 271.528 17.579 271.528 17.9672C271.528 18.3554 271.454 18.6947 271.306 18.985C271.159 19.2753 270.951 19.5013 270.682 19.6627C270.413 19.8242 270.095 19.9049 269.728 19.9049ZM269.733 19.1954C269.932 19.1954 270.098 19.1408 270.232 19.0315C270.365 18.9206 270.465 18.7722 270.53 18.5862C270.597 18.4003 270.63 18.1931 270.63 17.9648C270.63 17.7348 270.597 17.5268 270.53 17.3409C270.465 17.1533 270.365 17.0041 270.232 16.8932C270.098 16.7823 269.932 16.7268 269.733 16.7268C269.529 16.7268 269.359 16.7823 269.224 16.8932C269.09 17.0041 268.99 17.1533 268.923 17.3409C268.858 17.5268 268.825 17.7348 268.825 17.9648C268.825 18.1931 268.858 18.4003 268.923 18.5862C268.99 18.7722 269.09 18.9206 269.224 19.0315C269.359 19.1408 269.529 19.1954 269.733 19.1954ZM273.166 17.6296V19.8315H272.28V16.0736H273.127V16.7121H273.171C273.257 16.5017 273.395 16.3345 273.584 16.2106C273.775 16.0866 274.011 16.0246 274.291 16.0246C274.551 16.0246 274.776 16.0801 274.969 16.191C275.163 16.3019 275.313 16.4626 275.419 16.673C275.527 16.8834 275.58 17.1386 275.578 17.4388V19.8315H274.692V17.5758C274.692 17.3246 274.627 17.128 274.497 16.9861C274.368 16.8442 274.189 16.7733 273.961 16.7733C273.806 16.7733 273.668 16.8075 273.547 16.876C273.428 16.9429 273.335 17.04 273.266 17.1672C273.199 17.2944 273.166 17.4485 273.166 17.6296Z" fill="#263238"/>
<rect x="294.653" y="11.8315" width="20.2906" height="10.6453" rx="1.08943" fill="#FFE6EA"/>
<path d="M298.691 18.6543V14.6776H299.411V16.3611H301.254V14.6776H301.976V18.6543H301.254V16.965H299.411V18.6543H298.691ZM302.684 18.6543V15.6718H303.387V18.6543H302.684ZM303.037 15.2485C302.926 15.2485 302.83 15.2116 302.75 15.1378C302.67 15.0627 302.629 14.9728 302.629 14.8679C302.629 14.7618 302.67 14.6718 302.75 14.598C302.83 14.5229 302.926 14.4854 303.037 14.4854C303.15 14.4854 303.246 14.5229 303.325 14.598C303.405 14.6718 303.445 14.7618 303.445 14.8679C303.445 14.9728 303.405 15.0627 303.325 15.1378C303.246 15.2116 303.15 15.2485 303.037 15.2485ZM305.362 19.8349C305.109 19.8349 304.892 19.8006 304.711 19.732C304.53 19.6646 304.384 19.574 304.274 19.4601C304.164 19.3462 304.088 19.22 304.045 19.0815L304.678 18.9281C304.707 18.9863 304.748 19.0439 304.802 19.1009C304.857 19.1591 304.93 19.207 305.022 19.2446C305.115 19.2834 305.232 19.3028 305.373 19.3028C305.573 19.3028 305.738 19.2543 305.869 19.1572C305.999 19.0614 306.065 18.9035 306.065 18.6834V18.1184H306.03C305.993 18.1909 305.94 18.2653 305.87 18.3417C305.802 18.4181 305.711 18.4821 305.597 18.5339C305.484 18.5857 305.342 18.6116 305.171 18.6116C304.942 18.6116 304.735 18.5579 304.548 18.4504C304.363 18.3417 304.215 18.1799 304.105 17.965C303.997 17.7488 303.942 17.4782 303.942 17.1533C303.942 16.8258 303.997 16.5494 304.105 16.3242C304.215 16.0977 304.364 15.9262 304.55 15.8096C304.736 15.6918 304.944 15.6329 305.173 15.6329C305.348 15.6329 305.492 15.6627 305.604 15.7223C305.718 15.7805 305.809 15.8511 305.876 15.9339C305.944 16.0155 305.995 16.0925 306.03 16.165H306.069V15.6718H306.762V18.7028C306.762 18.9579 306.701 19.1689 306.579 19.3358C306.458 19.5028 306.291 19.6278 306.08 19.7106C305.869 19.7935 305.63 19.8349 305.362 19.8349ZM305.368 18.0601C305.516 18.0601 305.643 18.0239 305.748 17.9514C305.853 17.8789 305.933 17.7747 305.987 17.6388C306.041 17.5028 306.069 17.3397 306.069 17.1494C306.069 16.9617 306.041 16.7973 305.987 16.6562C305.934 16.5151 305.855 16.4058 305.75 16.3281C305.647 16.2491 305.519 16.2096 305.368 16.2096C305.211 16.2096 305.08 16.2504 304.975 16.332C304.87 16.4135 304.791 16.5255 304.738 16.6679C304.685 16.809 304.659 16.9695 304.659 17.1494C304.659 17.332 304.685 17.4918 304.738 17.6291C304.793 17.765 304.872 17.8711 304.977 17.9475C305.083 18.0226 305.213 18.0601 305.368 18.0601ZM308.14 16.9067V18.6543H307.437V14.6776H308.125V16.1786H308.159C308.229 16.0103 308.337 15.8776 308.484 15.7805C308.631 15.6821 308.819 15.6329 309.047 15.6329C309.254 15.6329 309.435 15.6763 309.589 15.763C309.743 15.8498 309.862 15.9766 309.946 16.1436C310.031 16.3106 310.074 16.5145 310.074 16.7553V18.6543H309.371V16.864C309.371 16.6634 309.319 16.5074 309.216 16.3961C309.114 16.2834 308.97 16.2271 308.785 16.2271C308.66 16.2271 308.549 16.2543 308.451 16.3087C308.354 16.3617 308.277 16.4388 308.222 16.5397C308.167 16.6407 308.14 16.763 308.14 16.9067Z" fill="#FF3058"/>
<path d="M270.18 34.867H265.995V37.076C266.176 36.8521 266.434 36.6712 266.77 36.5334C267.106 36.387 267.463 36.3138 267.842 36.3138C268.531 36.3138 269.095 36.4645 269.535 36.766C269.974 37.0674 270.292 37.4549 270.49 37.9286C270.689 38.3936 270.788 38.8931 270.788 39.4271C270.788 40.4175 270.503 41.2141 269.935 41.8169C269.375 42.4198 268.574 42.7212 267.532 42.7212C266.55 42.7212 265.767 42.4757 265.181 41.9849C264.595 41.494 264.264 40.8524 264.186 40.0601H265.943C266.021 40.4045 266.193 40.6801 266.46 40.8868C266.736 41.0935 267.084 41.1969 267.506 41.1969C268.014 41.1969 268.398 41.0375 268.656 40.7189C268.914 40.4002 269.044 39.9783 269.044 39.4529C269.044 38.919 268.91 38.5142 268.643 38.2386C268.385 37.9544 268.002 37.8123 267.493 37.8123C267.132 37.8123 266.83 37.9027 266.589 38.0836C266.348 38.2645 266.176 38.5056 266.072 38.807H264.341V33.2781H270.18V34.867ZM278.494 34.867H274.308V37.076C274.489 36.8521 274.748 36.6712 275.084 36.5334C275.419 36.387 275.777 36.3138 276.156 36.3138C276.845 36.3138 277.409 36.4645 277.848 36.766C278.287 37.0674 278.606 37.4549 278.804 37.9286C279.002 38.3936 279.101 38.8931 279.101 39.4271C279.101 40.4175 278.817 41.2141 278.248 41.8169C277.689 42.4198 276.888 42.7212 275.846 42.7212C274.864 42.7212 274.08 42.4757 273.495 41.9849C272.909 41.494 272.577 40.8524 272.5 40.0601H274.257C274.334 40.4045 274.507 40.6801 274.774 40.8868C275.049 41.0935 275.398 41.1969 275.82 41.1969C276.328 41.1969 276.711 41.0375 276.97 40.7189C277.228 40.4002 277.357 39.9783 277.357 39.4529C277.357 38.919 277.224 38.5142 276.957 38.2386C276.698 37.9544 276.315 37.8123 275.807 37.8123C275.445 37.8123 275.144 37.9027 274.903 38.0836C274.662 38.2645 274.489 38.5056 274.386 38.807H272.655V33.2781H278.494V34.867Z" fill="#263238"/>
<path d="M282.351 43.2319V38.7105H282.856V40.6544C282.856 40.8328 282.893 40.9898 282.967 41.1253C283.043 41.2595 283.149 41.3644 283.284 41.44C283.421 41.5157 283.581 41.5535 283.764 41.5535C283.946 41.5535 284.105 41.5157 284.241 41.44C284.378 41.363 284.484 41.2574 284.558 41.1232C284.634 40.9876 284.671 40.8313 284.671 40.6544V38.7105H285.177V41.9988H284.671V41.5107H284.646C284.557 41.6834 284.434 41.8154 284.275 41.9067C284.117 41.9966 283.946 42.0416 283.764 42.0416C283.581 42.0416 283.41 41.9966 283.252 41.9067C283.095 41.8154 282.972 41.6834 282.882 41.5107H282.856V43.2319H282.351ZM287.428 43.3004C287.184 43.3004 286.974 43.269 286.799 43.2062C286.623 43.1448 286.477 43.0635 286.36 42.9621C286.244 42.8622 286.152 42.7552 286.084 42.641L286.486 42.3584C286.532 42.4184 286.59 42.4869 286.66 42.5639C286.73 42.6424 286.825 42.7102 286.946 42.7673C287.069 42.8258 287.23 42.8551 287.428 42.8551C287.694 42.8551 287.913 42.7909 288.085 42.6624C288.258 42.534 288.344 42.3327 288.344 42.0587V41.3908H288.302C288.264 41.4507 288.212 41.525 288.143 41.6134C288.076 41.7005 287.979 41.7783 287.852 41.8468C287.726 41.9139 287.557 41.9474 287.342 41.9474C287.077 41.9474 286.839 41.8846 286.627 41.759C286.418 41.6334 286.251 41.4507 286.129 41.211C286.007 40.9712 285.947 40.6801 285.947 40.3375C285.947 40.0007 286.006 39.7074 286.124 39.4577C286.243 39.2065 286.408 39.0124 286.619 38.8754C286.83 38.7369 287.074 38.6677 287.351 38.6677C287.565 38.6677 287.735 38.7034 287.861 38.7748C287.988 38.8447 288.085 38.9246 288.152 39.0145C288.22 39.103 288.273 39.1758 288.31 39.2329H288.361V38.7105H288.85V42.093C288.85 42.3756 288.785 42.6053 288.657 42.7823C288.53 42.9607 288.359 43.0913 288.143 43.1741C287.929 43.2583 287.691 43.3004 287.428 43.3004ZM287.411 41.4936C287.614 41.4936 287.785 41.4472 287.925 41.3544C288.065 41.2616 288.171 41.1282 288.244 40.9541C288.317 40.78 288.353 40.5716 288.353 40.329C288.353 40.0921 288.317 39.883 288.246 39.7017C288.175 39.5205 288.069 39.3785 287.929 39.2757C287.789 39.1729 287.617 39.1216 287.411 39.1216C287.197 39.1216 287.019 39.1758 286.876 39.2843C286.734 39.3927 286.628 39.5383 286.557 39.721C286.487 39.9037 286.452 40.1063 286.452 40.329C286.452 40.5573 286.488 40.7593 286.559 40.9348C286.632 41.1089 286.739 41.2459 286.88 41.3458C287.023 41.4443 287.2 41.4936 287.411 41.4936ZM291.324 37.4089L289.911 42.6581H289.449L290.862 37.4089H291.324ZM293.165 42.0673C292.891 42.0673 292.649 41.9981 292.439 41.8596C292.229 41.7198 292.065 41.5228 291.947 41.2688C291.828 41.0133 291.769 40.7115 291.769 40.3632C291.769 40.0178 291.828 39.7181 291.947 39.4641C292.065 39.2101 292.23 39.0138 292.441 38.8754C292.653 38.7369 292.897 38.6677 293.173 38.6677C293.388 38.6677 293.557 38.7034 293.681 38.7748C293.806 38.8447 293.902 38.9246 293.968 39.0145C294.035 39.103 294.087 39.1758 294.124 39.2329H294.167V37.6145H294.672V41.9988H294.184V41.4936H294.124C294.087 41.5535 294.034 41.6291 293.966 41.7205C293.897 41.8104 293.799 41.891 293.672 41.9624C293.545 42.0323 293.376 42.0673 293.165 42.0673ZM293.233 41.6134C293.436 41.6134 293.607 41.5606 293.747 41.455C293.887 41.348 293.993 41.2003 294.066 41.0119C294.139 40.8221 294.175 40.603 294.175 40.3547C294.175 40.1092 294.14 39.8944 294.068 39.7103C293.997 39.5247 293.891 39.3806 293.751 39.2778C293.612 39.1737 293.439 39.1216 293.233 39.1216C293.019 39.1216 292.841 39.1765 292.698 39.2864C292.557 39.3949 292.451 39.5426 292.379 39.7296C292.309 39.9151 292.274 40.1235 292.274 40.3547C292.274 40.5887 292.31 40.8014 292.381 40.9926C292.454 41.1824 292.561 41.3337 292.702 41.4465C292.845 41.5578 293.022 41.6134 293.233 41.6134ZM295.736 41.9988V37.6145H296.267V41.5278H298.305V41.9988H295.736Z" fill="#263238"/>
<rect x="142.281" y="140.12" width="64.8371" height="56.5981" rx="4.80703" fill="black"/>
<rect x="142.281" y="140.12" width="64.8371" height="56.5981" rx="4.80703" stroke="black" stroke-width="0.720412"/>
<rect x="144.442" y="137.959" width="64.8371" height="57.2224" rx="4.80703" fill="white"/>
<rect x="144.442" y="137.959" width="64.8371" height="57.2224" rx="4.80703" stroke="black" stroke-width="0.720412"/>
<path d="M151.246 152.875V152.115H155.244V152.875H153.695V157.125H152.795V152.875H151.246ZM158.738 153.492C158.715 153.278 158.619 153.112 158.449 152.993C158.281 152.874 158.062 152.814 157.793 152.814C157.604 152.814 157.442 152.843 157.306 152.9C157.171 152.957 157.067 153.035 156.996 153.132C156.924 153.23 156.887 153.342 156.885 153.468C156.885 153.572 156.909 153.662 156.956 153.739C157.005 153.816 157.071 153.881 157.155 153.935C157.238 153.987 157.33 154.031 157.431 154.067C157.532 154.103 157.634 154.133 157.737 154.158L158.207 154.275C158.396 154.319 158.578 154.379 158.752 154.454C158.928 154.529 159.086 154.623 159.224 154.737C159.365 154.852 159.476 154.989 159.557 155.151C159.639 155.312 159.68 155.502 159.68 155.718C159.68 156.012 159.604 156.271 159.454 156.494C159.304 156.716 159.087 156.89 158.804 157.015C158.521 157.139 158.18 157.201 157.779 157.201C157.389 157.201 157.05 157.141 156.763 157.02C156.478 156.899 156.254 156.723 156.093 156.492C155.933 156.26 155.847 155.978 155.833 155.645H156.726C156.74 155.82 156.793 155.965 156.888 156.081C156.983 156.196 157.106 156.283 157.257 156.34C157.411 156.397 157.582 156.426 157.771 156.426C157.969 156.426 158.141 156.396 158.29 156.337C158.44 156.277 158.557 156.194 158.642 156.088C158.727 155.98 158.77 155.855 158.772 155.711C158.77 155.581 158.732 155.473 158.657 155.388C158.582 155.302 158.477 155.23 158.341 155.173C158.207 155.114 158.051 155.062 157.871 155.016L157.301 154.869C156.889 154.763 156.563 154.603 156.323 154.387C156.085 154.171 155.966 153.883 155.966 153.524C155.966 153.229 156.045 152.97 156.205 152.748C156.367 152.526 156.586 152.354 156.863 152.232C157.141 152.108 157.455 152.046 157.805 152.046C158.161 152.046 158.473 152.108 158.74 152.232C159.009 152.354 159.22 152.525 159.374 152.743C159.527 152.96 159.606 153.21 159.611 153.492H158.738ZM160.489 157.125V152.115H161.396V154.236H163.718V152.115H164.628V157.125H163.718V154.997H161.396V157.125H160.489Z" fill="#263238"/>
<rect x="172.46" y="149.125" width="30.2906" height="10.6453" rx="1.08943" fill="#FFE6EA"/>
<path d="M176.497 155.948V151.971H179.083V152.575H177.217V153.655H178.95V154.259H177.217V155.344H179.099V155.948H176.497ZM180.445 151.971V155.948H179.742V151.971H180.445ZM182.444 156.006C182.145 156.006 181.886 155.944 181.669 155.82C181.453 155.694 181.286 155.517 181.17 155.288C181.053 155.057 180.995 154.786 180.995 154.474C180.995 154.167 181.053 153.898 181.17 153.666C181.288 153.433 181.452 153.252 181.663 153.123C181.874 152.992 182.122 152.927 182.407 152.927C182.591 152.927 182.764 152.956 182.927 153.016C183.091 153.074 183.236 153.165 183.362 153.288C183.489 153.411 183.589 153.567 183.661 153.758C183.734 153.947 183.77 154.172 183.77 154.433V154.649H181.325V154.175H183.096C183.095 154.041 183.066 153.921 183.009 153.816C182.952 153.71 182.872 153.626 182.77 153.565C182.669 153.505 182.551 153.474 182.416 153.474C182.273 153.474 182.147 153.509 182.038 153.579C181.929 153.648 181.844 153.738 181.783 153.851C181.724 153.962 181.693 154.085 181.692 154.218V154.631C181.692 154.805 181.724 154.954 181.787 155.078C181.851 155.201 181.939 155.296 182.053 155.362C182.167 155.426 182.301 155.459 182.453 155.459C182.556 155.459 182.648 155.444 182.731 155.416C182.814 155.386 182.886 155.343 182.947 155.286C183.007 155.229 183.053 155.158 183.084 155.074L183.741 155.148C183.699 155.321 183.62 155.473 183.504 155.602C183.389 155.731 183.241 155.83 183.061 155.901C182.881 155.971 182.675 156.006 182.444 156.006ZM186.898 152.965L185.836 155.948H185.059L183.997 152.965H184.747L185.432 155.181H185.463L186.151 152.965H186.898ZM188.112 156.008C187.923 156.008 187.753 155.975 187.602 155.907C187.452 155.839 187.333 155.738 187.244 155.604C187.158 155.471 187.114 155.307 187.114 155.111C187.114 154.943 187.145 154.804 187.208 154.694C187.27 154.584 187.355 154.496 187.462 154.43C187.569 154.364 187.69 154.314 187.825 154.28C187.961 154.245 188.101 154.22 188.246 154.204C188.421 154.186 188.563 154.17 188.672 154.156C188.78 154.14 188.859 154.117 188.909 154.086C188.959 154.054 188.984 154.004 188.984 153.936V153.925C188.984 153.778 188.941 153.665 188.854 153.585C188.767 153.505 188.643 153.465 188.479 153.465C188.307 153.465 188.171 153.502 188.07 153.577C187.97 153.652 187.903 153.741 187.868 153.843L187.211 153.75C187.263 153.569 187.349 153.417 187.468 153.296C187.587 153.173 187.733 153.081 187.905 153.02C188.077 152.958 188.267 152.927 188.476 152.927C188.619 152.927 188.762 152.943 188.905 152.977C189.047 153.011 189.177 153.066 189.295 153.144C189.413 153.22 189.507 153.325 189.578 153.457C189.651 153.589 189.687 153.754 189.687 153.952V155.948H189.011V155.538H188.988C188.945 155.621 188.885 155.699 188.808 155.771C188.731 155.842 188.635 155.9 188.518 155.944C188.403 155.987 188.268 156.008 188.112 156.008ZM188.295 155.492C188.436 155.492 188.558 155.464 188.662 155.408C188.766 155.351 188.845 155.276 188.901 155.183C188.958 155.09 188.986 154.988 188.986 154.878V154.527C188.964 154.545 188.927 154.562 188.874 154.577C188.822 154.593 188.764 154.606 188.699 154.618C188.634 154.63 188.57 154.64 188.507 154.649C188.443 154.658 188.388 154.666 188.342 154.672C188.237 154.687 188.143 154.71 188.06 154.742C187.977 154.775 187.912 154.82 187.864 154.878C187.816 154.935 187.792 155.009 187.792 155.099C187.792 155.229 187.839 155.327 187.934 155.393C188.028 155.459 188.149 155.492 188.295 155.492ZM191.838 152.965V153.509H190.124V152.965H191.838ZM190.547 152.251H191.25V155.051C191.25 155.145 191.264 155.218 191.293 155.268C191.323 155.318 191.361 155.351 191.409 155.369C191.457 155.387 191.51 155.397 191.568 155.397C191.612 155.397 191.653 155.393 191.689 155.387C191.726 155.38 191.755 155.375 191.774 155.369L191.893 155.919C191.855 155.932 191.801 155.946 191.732 155.962C191.663 155.977 191.579 155.986 191.479 155.989C191.303 155.994 191.145 155.967 191.003 155.909C190.862 155.85 190.75 155.758 190.667 155.633C190.586 155.509 190.546 155.354 190.547 155.167V152.251ZM193.67 156.006C193.371 156.006 193.112 155.944 192.895 155.82C192.679 155.694 192.512 155.517 192.396 155.288C192.279 155.057 192.221 154.786 192.221 154.474C192.221 154.167 192.279 153.898 192.396 153.666C192.514 153.433 192.678 153.252 192.889 153.123C193.1 152.992 193.348 152.927 193.633 152.927C193.817 152.927 193.99 152.956 194.153 153.016C194.318 153.074 194.463 153.165 194.588 153.288C194.715 153.411 194.815 153.567 194.887 153.758C194.96 153.947 194.996 154.172 194.996 154.433V154.649H192.551V154.175H194.322C194.321 154.041 194.292 153.921 194.235 153.816C194.178 153.71 194.098 153.626 193.996 153.565C193.895 153.505 193.777 153.474 193.642 153.474C193.499 153.474 193.373 153.509 193.264 153.579C193.155 153.648 193.07 153.738 193.009 153.851C192.95 153.962 192.919 154.085 192.918 154.218V154.631C192.918 154.805 192.95 154.954 193.013 155.078C193.077 155.201 193.165 155.296 193.279 155.362C193.393 155.426 193.527 155.459 193.679 155.459C193.782 155.459 193.874 155.444 193.957 155.416C194.04 155.386 194.112 155.343 194.173 155.286C194.233 155.229 194.279 155.158 194.31 155.074L194.967 155.148C194.925 155.321 194.846 155.473 194.73 155.602C194.615 155.731 194.467 155.83 194.287 155.901C194.107 155.971 193.901 156.006 193.67 156.006ZM196.652 156C196.418 156 196.208 155.94 196.023 155.82C195.838 155.699 195.692 155.525 195.584 155.296C195.477 155.066 195.423 154.788 195.423 154.461C195.423 154.129 195.478 153.85 195.586 153.622C195.696 153.393 195.845 153.22 196.031 153.103C196.217 152.986 196.425 152.927 196.654 152.927C196.829 152.927 196.973 152.956 197.085 153.016C197.198 153.074 197.287 153.145 197.353 153.228C197.419 153.309 197.47 153.386 197.507 153.459H197.536V151.971H198.241V155.948H197.549V155.478H197.507C197.47 155.551 197.418 155.628 197.349 155.709C197.281 155.789 197.19 155.858 197.078 155.915C196.965 155.972 196.823 156 196.652 156ZM196.848 155.424C196.997 155.424 197.124 155.384 197.229 155.303C197.334 155.222 197.414 155.109 197.468 154.964C197.522 154.819 197.549 154.65 197.549 154.457C197.549 154.264 197.522 154.096 197.468 153.954C197.415 153.811 197.336 153.701 197.231 153.622C197.127 153.543 197 153.503 196.848 153.503C196.692 153.503 196.561 153.544 196.456 153.626C196.351 153.707 196.272 153.82 196.219 153.964C196.166 154.107 196.14 154.272 196.14 154.457C196.14 154.643 196.166 154.809 196.219 154.956C196.274 155.101 196.353 155.215 196.458 155.299C196.564 155.382 196.694 155.424 196.848 155.424Z" fill="#FF3058"/>
<path d="M157.987 172.161H153.801V174.37C153.982 174.146 154.24 173.965 154.576 173.827C154.912 173.681 155.269 173.608 155.648 173.608C156.337 173.608 156.901 173.758 157.341 174.06C157.78 174.361 158.099 174.749 158.297 175.222C158.495 175.687 158.594 176.187 158.594 176.721C158.594 177.711 158.31 178.508 157.741 179.111C157.181 179.713 156.38 180.015 155.338 180.015C154.357 180.015 153.573 179.769 152.987 179.279C152.402 178.788 152.07 178.146 151.993 177.354H153.749C153.827 177.698 153.999 177.974 154.266 178.181C154.542 178.387 154.891 178.491 155.313 178.491C155.821 178.491 156.204 178.331 156.462 178.013C156.721 177.694 156.85 177.272 156.85 176.747C156.85 176.213 156.716 175.808 156.449 175.532C156.191 175.248 155.808 175.106 155.3 175.106C154.938 175.106 154.636 175.196 154.395 175.377C154.154 175.558 153.982 175.799 153.879 176.101H152.148V170.572H157.987V172.161ZM160.978 180.105C160.651 180.105 160.379 180.006 160.164 179.808C159.957 179.602 159.854 179.347 159.854 179.046C159.854 178.745 159.957 178.495 160.164 178.297C160.379 178.09 160.651 177.987 160.978 177.987C161.296 177.987 161.559 178.09 161.766 178.297C161.973 178.495 162.076 178.745 162.076 179.046C162.076 179.347 161.973 179.602 161.766 179.808C161.559 180.006 161.296 180.105 160.978 180.105ZM163.326 175.184C163.326 173.694 163.593 172.527 164.127 171.683C164.669 170.839 165.565 170.417 166.814 170.417C168.063 170.417 168.954 170.839 169.488 171.683C170.03 172.527 170.302 173.694 170.302 175.184C170.302 176.682 170.03 177.858 169.488 178.71C168.954 179.563 168.063 179.989 166.814 179.989C165.565 179.989 164.669 179.563 164.127 178.71C163.593 177.858 163.326 176.682 163.326 175.184ZM168.519 175.184C168.519 174.546 168.476 174.012 168.39 173.582C168.312 173.142 168.149 172.785 167.899 172.509C167.658 172.234 167.296 172.096 166.814 172.096C166.331 172.096 165.965 172.234 165.716 172.509C165.475 172.785 165.311 173.142 165.225 173.582C165.147 174.012 165.109 174.546 165.109 175.184C165.109 175.838 165.147 176.389 165.225 176.837C165.302 177.276 165.466 177.634 165.716 177.909C165.965 178.176 166.331 178.31 166.814 178.31C167.296 178.31 167.662 178.176 167.912 177.909C168.162 177.634 168.325 177.276 168.403 176.837C168.48 176.389 168.519 175.838 168.519 175.184Z" fill="#263238"/>
<path d="M174.157 179.292V176.004H174.645V176.518H174.688C174.756 176.342 174.867 176.206 175.02 176.109C175.172 176.011 175.356 175.961 175.57 175.961C175.787 175.961 175.967 176.011 176.111 176.109C176.257 176.206 176.37 176.342 176.452 176.518H176.486C176.57 176.348 176.697 176.213 176.865 176.113C177.033 176.012 177.235 175.961 177.471 175.961C177.765 175.961 178.005 176.053 178.192 176.238C178.379 176.42 178.473 176.705 178.473 177.092V179.292H177.967V177.092C177.967 176.849 177.901 176.676 177.768 176.572C177.636 176.467 177.479 176.415 177.3 176.415C177.068 176.415 176.889 176.485 176.762 176.625C176.635 176.764 176.572 176.939 176.572 177.152V179.292H176.058V177.04C176.058 176.853 175.997 176.703 175.876 176.589C175.755 176.473 175.598 176.415 175.407 176.415C175.276 176.415 175.153 176.45 175.039 176.52C174.926 176.59 174.835 176.687 174.765 176.811C174.696 176.934 174.662 177.076 174.662 177.237V179.292H174.157ZM179.996 174.908V179.292H179.465V174.908H179.996ZM183.938 174.908H184.468V177.811C184.468 178.111 184.398 178.378 184.257 178.614C184.117 178.848 183.919 179.033 183.664 179.168C183.408 179.302 183.108 179.37 182.764 179.37C182.42 179.37 182.121 179.302 181.865 179.168C181.61 179.033 181.411 178.848 181.27 178.614C181.13 178.378 181.06 178.111 181.06 177.811V174.908H181.591V177.768C181.591 177.982 181.638 178.173 181.733 178.34C181.827 178.505 181.961 178.636 182.135 178.732C182.311 178.826 182.52 178.873 182.764 178.873C183.008 178.873 183.218 178.826 183.394 178.732C183.569 178.636 183.704 178.505 183.796 178.34C183.89 178.173 183.938 177.982 183.938 177.768V174.908ZM186.669 174.703L185.256 179.952H184.793L186.206 174.703H186.669ZM187.336 179.292V174.908H187.867V178.822H189.905V179.292H187.336Z" fill="#263238"/>
<rect x="0.360206" y="111.304" width="64.8371" height="56.5981" rx="4.80703" fill="black"/>
<rect x="0.360206" y="111.304" width="64.8371" height="56.5981" rx="4.80703" stroke="black" stroke-width="0.720412"/>
<rect x="2.52134" y="109.142" width="64.8371" height="57.2224" rx="4.80703" fill="white"/>
<rect x="2.52134" y="109.142" width="64.8371" height="57.2224" rx="4.80703" stroke="black" stroke-width="0.720412"/>
<path d="M10.1886 128.309H9.21972L10.9837 123.298H12.1043L13.8707 128.309H12.9019L11.5636 124.326H11.5244L10.1886 128.309ZM10.2204 126.344H12.8627V127.073H10.2204V126.344ZM16.0164 128.382C15.6412 128.382 15.3191 128.3 15.05 128.135C14.7825 127.97 14.5762 127.743 14.431 127.453C14.2875 127.161 14.2157 126.825 14.2157 126.445C14.2157 126.063 14.2891 125.726 14.4359 125.434C14.5827 125.14 14.7898 124.912 15.0573 124.749C15.3265 124.584 15.6445 124.502 16.0115 124.502C16.3165 124.502 16.5865 124.558 16.8213 124.671C17.0578 124.782 17.2462 124.939 17.3865 125.143C17.5268 125.345 17.6067 125.582 17.6263 125.852H16.7797C16.7455 125.671 16.6639 125.521 16.5351 125.4C16.4079 125.277 16.2374 125.216 16.0237 125.216C15.8427 125.216 15.6837 125.265 15.5466 125.363C15.4096 125.459 15.3028 125.598 15.2261 125.779C15.1511 125.96 15.1136 126.177 15.1136 126.43C15.1136 126.686 15.1511 126.906 15.2261 127.09C15.3012 127.273 15.4064 127.414 15.5418 127.514C15.6788 127.612 15.8394 127.66 16.0237 127.66C16.1542 127.66 16.2708 127.636 16.3736 127.587C16.478 127.537 16.5652 127.464 16.6354 127.369C16.7055 127.275 16.7536 127.16 16.7797 127.024H17.6263C17.6051 127.29 17.5268 127.526 17.3914 127.731C17.256 127.935 17.0717 128.095 16.8385 128.211C16.6052 128.325 16.3312 128.382 16.0164 128.382ZM20.2301 124.551V125.236H18.0697V124.551H20.2301ZM18.6031 123.65H19.4887V127.179C19.4887 127.298 19.5067 127.389 19.5426 127.453C19.5801 127.515 19.629 127.557 19.6894 127.58C19.7497 127.603 19.8166 127.614 19.89 127.614C19.9454 127.614 19.996 127.61 20.0417 127.602C20.089 127.594 20.1249 127.586 20.1493 127.58L20.2986 128.272C20.2513 128.288 20.1836 128.306 20.0955 128.326C20.0091 128.346 19.903 128.357 19.7774 128.36C19.5556 128.367 19.3558 128.333 19.178 128.26C19.0002 128.185 18.8591 128.069 18.7548 127.912C18.652 127.756 18.6014 127.56 18.6031 127.325V123.65ZM20.9708 128.309V124.551H21.8564V128.309H20.9708ZM21.4161 124.017C21.2758 124.017 21.1551 123.971 21.054 123.878C20.9528 123.783 20.9023 123.67 20.9023 123.538C20.9023 123.404 20.9528 123.291 21.054 123.198C21.1551 123.103 21.2758 123.056 21.4161 123.056C21.558 123.056 21.6787 123.103 21.7782 123.198C21.8793 123.291 21.9298 123.404 21.9298 123.538C21.9298 123.67 21.8793 123.783 21.7782 123.878C21.6787 123.971 21.558 124.017 21.4161 124.017ZM26.1239 124.551L24.7856 128.309H23.807L22.4687 124.551H23.4131L24.2768 127.342H24.3159L25.182 124.551H26.1239ZM26.7368 128.309V124.551H27.6225V128.309H26.7368ZM27.1821 124.017C27.0418 124.017 26.9211 123.971 26.82 123.878C26.7189 123.783 26.6683 123.67 26.6683 123.538C26.6683 123.404 26.7189 123.291 26.82 123.198C26.9211 123.103 27.0418 123.056 27.1821 123.056C27.324 123.056 27.4447 123.103 27.5442 123.198C27.6453 123.291 27.6959 123.404 27.6959 123.538C27.6959 123.67 27.6453 123.783 27.5442 123.878C27.4447 123.971 27.324 124.017 27.1821 124.017ZM30.4098 124.551V125.236H28.2494V124.551H30.4098ZM28.7828 123.65H29.6685V127.179C29.6685 127.298 29.6864 127.389 29.7223 127.453C29.7598 127.515 29.8087 127.557 29.8691 127.58C29.9294 127.603 29.9963 127.614 30.0697 127.614C30.1252 127.614 30.1757 127.61 30.2214 127.602C30.2687 127.594 30.3046 127.586 30.329 127.58L30.4783 128.272C30.431 128.288 30.3633 128.306 30.2752 128.326C30.1888 128.346 30.0828 128.357 29.9572 128.36C29.7353 128.367 29.5355 128.333 29.3577 128.26C29.18 128.185 29.0389 128.069 28.9345 127.912C28.8317 127.756 28.7812 127.56 28.7828 127.325V123.65ZM31.701 129.718C31.5803 129.718 31.4686 129.708 31.3658 129.689C31.2647 129.671 31.1839 129.65 31.1236 129.625L31.3291 128.935C31.458 128.973 31.5729 128.991 31.6741 128.989C31.7752 128.987 31.8641 128.956 31.9407 128.894C32.019 128.833 32.0851 128.732 32.1389 128.59L32.2148 128.387L30.852 124.551H31.7915L32.6576 127.389H32.6967L33.5653 124.551H34.5072L33.0026 128.764C32.9324 128.963 32.8395 129.133 32.7237 129.275C32.6079 129.419 32.466 129.528 32.298 129.603C32.1316 129.68 31.9326 129.718 31.701 129.718Z" fill="#263238"/>
<rect x="44.9395" y="120.309" width="15.8896" height="10.4448" rx="1.72241" fill="#E6F9EB"/>
<path d="M52.6147 125.839C52.6147 126.301 52.5312 126.701 52.3642 127.038C52.1973 127.374 51.9682 127.634 51.677 127.817C51.3859 128 51.0534 128.091 50.6794 128.091C50.3055 128.091 49.973 128 49.6818 127.817C49.3907 127.634 49.1616 127.374 48.9946 127.038C48.8277 126.701 48.7442 126.301 48.7442 125.839C48.7442 125.376 48.8277 124.977 48.9946 124.64C49.1616 124.303 49.3907 124.043 49.6818 123.861C49.973 123.678 50.3055 123.587 50.6794 123.587C51.0534 123.587 51.3859 123.678 51.677 123.861C51.9682 124.043 52.1973 124.303 52.3642 124.64C52.5312 124.977 52.6147 125.376 52.6147 125.839ZM52.1009 125.839C52.1009 125.459 52.0374 125.139 51.9104 124.878C51.7848 124.616 51.6142 124.419 51.3987 124.285C51.1847 124.15 50.9449 124.083 50.6794 124.083C50.414 124.083 50.1735 124.15 49.958 124.285C49.7439 124.419 49.5734 124.616 49.4463 124.878C49.3208 125.139 49.258 125.459 49.258 125.839C49.258 126.218 49.3208 126.539 49.4463 126.8C49.5734 127.061 49.7439 127.259 49.958 127.393C50.1735 127.527 50.414 127.594 50.6794 127.594C50.9449 127.594 51.1847 127.527 51.3987 127.393C51.6142 127.259 51.7848 127.061 51.9104 126.8C52.0374 126.539 52.1009 126.218 52.1009 125.839ZM53.4364 128.031V123.647H53.9673V125.822H54.0187L55.9882 123.647H56.6818L54.8407 125.625L56.6818 128.031H56.0396L54.5153 125.993L53.9673 126.61V128.031H53.4364Z" fill="#007B33"/>
<path d="M9.51595 143.448V141.781H12.6292V151.198H10.769V143.448H9.51595ZM14.9842 149.157C15.811 148.468 16.4698 147.896 16.9607 147.439C17.4516 146.974 17.8607 146.492 18.1879 145.992C18.5152 145.493 18.6788 145.002 18.6788 144.52C18.6788 144.081 18.5755 143.736 18.3688 143.486C18.1621 143.237 17.8434 143.112 17.4128 143.112C16.9822 143.112 16.6507 143.258 16.4181 143.551C16.1856 143.835 16.0651 144.227 16.0564 144.727H14.2996C14.334 143.693 14.6398 142.909 15.2168 142.375C15.8024 141.841 16.543 141.575 17.4387 141.575C18.4205 141.575 19.174 141.837 19.6993 142.363C20.2247 142.879 20.4873 143.564 20.4873 144.416C20.4873 145.088 20.3065 145.73 19.9448 146.341C19.5831 146.953 19.1697 147.487 18.7046 147.943C18.2396 148.391 17.6324 148.934 16.8832 149.571H20.694V151.069H14.3125V149.726L14.9842 149.157ZM26.2775 151.198L23.8489 148.15V151.198H22.0403V141.639H23.8489V147.078L26.2516 144.042H28.6027L25.4507 147.633L28.6286 151.198H26.2775Z" fill="#263238"/>
<path d="M33.5649 147.924L33.111 148.053C33.0825 147.977 33.0404 147.904 32.9847 147.832C32.9305 147.759 32.8563 147.699 32.7621 147.652C32.6679 147.605 32.5473 147.582 32.4003 147.582C32.1991 147.582 32.0314 147.628 31.8972 147.721C31.7645 147.812 31.6981 147.929 31.6981 148.07C31.6981 148.195 31.7438 148.295 31.8351 148.367C31.9265 148.44 32.0692 148.501 32.2633 148.549L32.7514 148.669C33.0454 148.741 33.2645 148.85 33.4086 148.997C33.5528 149.142 33.6248 149.33 33.6248 149.56C33.6248 149.748 33.5706 149.917 33.4621 150.065C33.3551 150.213 33.2052 150.331 33.0126 150.416C32.8199 150.502 32.5958 150.545 32.3404 150.545C32.005 150.545 31.7274 150.472 31.5076 150.326C31.2878 150.181 31.1487 149.968 31.0902 149.688L31.5697 149.568C31.6154 149.745 31.7017 149.878 31.8287 149.967C31.9572 150.055 32.1249 150.099 32.3318 150.099C32.5673 150.099 32.7543 150.049 32.8927 149.949C33.0326 149.848 33.1025 149.727 33.1025 149.586C33.1025 149.471 33.0625 149.376 32.9826 149.299C32.9027 149.22 32.7799 149.162 32.6144 149.123L32.0663 148.995C31.7652 148.923 31.544 148.813 31.4027 148.663C31.2628 148.512 31.1929 148.322 31.1929 148.096C31.1929 147.91 31.245 147.746 31.3492 147.603C31.4548 147.46 31.5982 147.348 31.7795 147.267C31.9622 147.186 32.1691 147.145 32.4003 147.145C32.7257 147.145 32.9812 147.216 33.1667 147.359C33.3537 147.502 33.4864 147.69 33.5649 147.924ZM35.8154 147.188V147.616H34.1113V147.188H35.8154ZM34.608 146.4H35.1132V149.534C35.1132 149.677 35.1339 149.784 35.1753 149.855C35.2181 149.925 35.2723 149.972 35.338 149.997C35.4051 150.019 35.4757 150.031 35.5499 150.031C35.6056 150.031 35.6513 150.028 35.6869 150.022C35.7226 150.015 35.7512 150.009 35.7726 150.005L35.8753 150.459C35.8411 150.472 35.7933 150.485 35.7319 150.497C35.6705 150.512 35.5927 150.519 35.4986 150.519C35.3558 150.519 35.216 150.488 35.079 150.427C34.9434 150.365 34.8306 150.272 34.7407 150.146C34.6522 150.021 34.608 149.862 34.608 149.671V146.4ZM37.9187 150.545C37.6019 150.545 37.3286 150.475 37.0988 150.335C36.8704 150.193 36.6942 149.997 36.57 149.744C36.4473 149.49 36.3859 149.194 36.3859 148.858C36.3859 148.521 36.4473 148.224 36.57 147.967C36.6942 147.709 36.8669 147.508 37.0881 147.363C37.3107 147.218 37.5705 147.145 37.8673 147.145C38.0386 147.145 38.2077 147.174 38.3747 147.231C38.5417 147.288 38.6937 147.381 38.8307 147.509C38.9677 147.636 39.0769 147.804 39.1582 148.014C39.2396 148.224 39.2802 148.482 39.2802 148.789V149.003H36.7456V148.566H38.7665C38.7665 148.381 38.7294 148.215 38.6551 148.07C38.5823 147.924 38.4782 147.809 38.3426 147.725C38.2084 147.641 38.05 147.599 37.8673 147.599C37.6661 147.599 37.492 147.649 37.345 147.749C37.1994 147.847 37.0874 147.976 37.0089 148.134C36.9304 148.292 36.8911 148.462 36.8911 148.644V148.935C36.8911 149.183 36.9339 149.394 37.0196 149.566C37.1066 149.738 37.2272 149.868 37.3814 149.958C37.5355 150.046 37.7146 150.091 37.9187 150.091C38.0514 150.091 38.1713 150.072 38.2784 150.035C38.3868 149.997 38.4803 149.939 38.5588 149.864C38.6373 149.787 38.698 149.691 38.7408 149.577L39.2289 149.714C39.1775 149.88 39.0911 150.025 38.9698 150.151C38.8485 150.275 38.6987 150.372 38.5203 150.442C38.3419 150.51 38.1413 150.545 37.9187 150.545ZM40.0488 151.709V147.188H40.5369V147.71H40.5968C40.6339 147.653 40.6853 147.58 40.751 147.492C40.818 147.402 40.9137 147.322 41.0378 147.252C41.1634 147.181 41.3333 147.145 41.5473 147.145C41.8242 147.145 42.0683 147.214 42.2795 147.353C42.4907 147.491 42.6555 147.687 42.774 147.941C42.8925 148.195 42.9517 148.495 42.9517 148.841C42.9517 149.189 42.8925 149.491 42.774 149.746C42.6555 150 42.4914 150.197 42.2816 150.337C42.0718 150.475 41.8299 150.545 41.5559 150.545C41.3447 150.545 41.1755 150.51 41.0485 150.44C40.9215 150.368 40.8237 150.288 40.7552 150.198C40.6867 150.106 40.6339 150.031 40.5968 149.971H40.554V151.709H40.0488ZM40.5454 148.832C40.5454 149.08 40.5818 149.299 40.6546 149.489C40.7274 149.678 40.8337 149.825 40.9736 149.932C41.1135 150.038 41.2847 150.091 41.4874 150.091C41.6986 150.091 41.8749 150.035 42.0162 149.924C42.1589 149.811 42.2659 149.66 42.3373 149.47C42.4101 149.279 42.4465 149.066 42.4465 148.832C42.4465 148.601 42.4108 148.392 42.3394 148.207C42.2695 148.02 42.1632 147.872 42.0204 147.764C41.8792 147.654 41.7015 147.599 41.4874 147.599C41.2819 147.599 41.1092 147.651 40.9693 147.755C40.8295 147.858 40.7238 148.002 40.6525 148.188C40.5811 148.372 40.5454 148.586 40.5454 148.832ZM46.0515 147.924L45.5977 148.053C45.5691 147.977 45.527 147.904 45.4714 147.832C45.4172 147.759 45.3429 147.699 45.2487 147.652C45.1545 147.605 45.034 147.582 44.887 147.582C44.6857 147.582 44.518 147.628 44.3839 147.721C44.2511 147.812 44.1848 147.929 44.1848 148.07C44.1848 148.195 44.2304 148.295 44.3218 148.367C44.4131 148.44 44.5558 148.501 44.7499 148.549L45.238 148.669C45.532 148.741 45.7511 148.85 45.8953 148.997C46.0394 149.142 46.1115 149.33 46.1115 149.56C46.1115 149.748 46.0572 149.917 45.9488 150.065C45.8417 150.213 45.6919 150.331 45.4992 150.416C45.3065 150.502 45.0825 150.545 44.827 150.545C44.4916 150.545 44.214 150.472 43.9942 150.326C43.7745 150.181 43.6353 149.968 43.5768 149.688L44.0563 149.568C44.102 149.745 44.1883 149.878 44.3154 149.967C44.4438 150.055 44.6115 150.099 44.8184 150.099C45.0539 150.099 45.2409 150.049 45.3793 149.949C45.5192 149.848 45.5891 149.727 45.5891 149.586C45.5891 149.471 45.5492 149.376 45.4692 149.299C45.3893 149.22 45.2666 149.162 45.101 149.123L44.553 148.995C44.2519 148.923 44.0306 148.813 43.8893 148.663C43.7495 148.512 43.6795 148.322 43.6795 148.096C43.6795 147.91 43.7316 147.746 43.8358 147.603C43.9414 147.46 44.0849 147.348 44.2661 147.267C44.4488 147.186 44.6557 147.145 44.887 147.145C45.2123 147.145 45.4678 147.216 45.6533 147.359C45.8403 147.502 45.973 147.69 46.0515 147.924Z" fill="#263238"/>
<rect x="31.3377" y="2.52134" width="64.8371" height="56.5981" rx="4.80703" fill="black"/>
<rect x="31.3377" y="2.52134" width="64.8371" height="56.5981" rx="4.80703" stroke="black" stroke-width="0.720412"/>
<rect x="33.4991" y="0.360206" width="64.8371" height="57.2224" rx="4.80703" fill="white"/>
<rect x="33.4991" y="0.360206" width="64.8371" height="57.2224" rx="4.80703" stroke="black" stroke-width="0.720412"/>
<path d="M41.1662 19.5264H40.1974L41.9614 14.5157H43.0819L44.8484 19.5264H43.8795L42.5412 15.5433H42.5021L41.1662 19.5264ZM41.198 17.5617H43.8404V18.2908H41.198V17.5617ZM48.1507 15.8932C48.1279 15.6795 48.0316 15.5131 47.862 15.394C47.694 15.275 47.4754 15.2154 47.2063 15.2154C47.0171 15.2154 46.8548 15.244 46.7194 15.3011C46.584 15.3582 46.4805 15.4356 46.4087 15.5335C46.3369 15.6314 46.3002 15.7431 46.2986 15.8687C46.2986 15.9731 46.3223 16.0636 46.3696 16.1403C46.4185 16.2169 46.4845 16.2822 46.5677 16.336C46.6509 16.3882 46.7431 16.4322 46.8442 16.4681C46.9453 16.504 47.0473 16.5342 47.15 16.5586L47.6198 16.6761C47.809 16.7201 47.9908 16.7796 48.1654 16.8547C48.3415 16.9297 48.4989 17.0243 48.6376 17.1385C48.7778 17.2527 48.8887 17.3905 48.9703 17.552C49.0519 17.7134 49.0926 17.9026 49.0926 18.1196C49.0926 18.4132 49.0176 18.6717 48.8675 18.8951C48.7175 19.117 48.5006 19.2907 48.2167 19.4163C47.9346 19.5402 47.5929 19.6022 47.1916 19.6022C46.8018 19.6022 46.4633 19.5419 46.1763 19.4212C45.8908 19.3005 45.6674 19.1243 45.5059 18.8927C45.3461 18.6611 45.2596 18.3789 45.2466 18.0462H46.1396C46.1526 18.2207 46.2065 18.3659 46.3011 18.4817C46.3957 18.5975 46.5188 18.6839 46.6705 18.741C46.8238 18.7981 46.9951 18.8266 47.1843 18.8266C47.3816 18.8266 47.5545 18.7973 47.703 18.7386C47.853 18.6782 47.9705 18.595 48.0553 18.489C48.1401 18.3814 48.1833 18.2558 48.1849 18.1122C48.1833 17.9817 48.145 17.8741 48.07 17.7893C47.9949 17.7028 47.8897 17.6311 47.7543 17.574C47.6206 17.5153 47.464 17.4631 47.2846 17.4174L46.7145 17.2706C46.3019 17.1646 45.9757 17.0039 45.7359 16.7886C45.4978 16.5717 45.3787 16.2838 45.3787 15.925C45.3787 15.6297 45.4586 15.3712 45.6185 15.1494C45.7799 14.9276 45.9993 14.7555 46.2766 14.6332C46.5539 14.5092 46.8679 14.4472 47.2185 14.4472C47.5741 14.4472 47.8856 14.5092 48.1531 14.6332C48.4223 14.7555 48.6335 14.9259 48.7868 15.1445C48.9401 15.3614 49.0192 15.611 49.0241 15.8932H48.1507ZM49.6817 15.2766V14.5157H53.6794V15.2766H52.1307V19.5264H51.2304V15.2766H49.6817Z" fill="#263238"/>
<rect x="75.9171" y="11.5264" width="15.8896" height="10.4448" rx="1.72241" fill="#E6F9EB"/>
<path d="M83.5922 17.0569C83.5922 17.5193 83.5088 17.9189 83.3418 18.2557C83.1748 18.5925 82.9457 18.8523 82.6546 19.0349C82.3634 19.2176 82.0309 19.309 81.657 19.309C81.2831 19.309 80.9505 19.2176 80.6594 19.0349C80.3682 18.8523 80.1392 18.5925 79.9722 18.2557C79.8052 17.9189 79.7217 17.5193 79.7217 17.0569C79.7217 16.5945 79.8052 16.1948 79.9722 15.858C80.1392 15.5212 80.3682 15.2615 80.6594 15.0788C80.9505 14.8961 81.2831 14.8048 81.657 14.8048C82.0309 14.8048 82.3634 14.8961 82.6546 15.0788C82.9457 15.2615 83.1748 15.5212 83.3418 15.858C83.5088 16.1948 83.5922 16.5945 83.5922 17.0569ZM83.0785 17.0569C83.0785 16.6772 83.0149 16.3568 82.8879 16.0957C82.7623 15.8345 82.5918 15.6368 82.3763 15.5027C82.1622 15.3685 81.9224 15.3014 81.657 15.3014C81.3915 15.3014 81.151 15.3685 80.9355 15.5027C80.7215 15.6368 80.5509 15.8345 80.4239 16.0957C80.2983 16.3568 80.2355 16.6772 80.2355 17.0569C80.2355 17.4365 80.2983 17.7569 80.4239 18.0181C80.5509 18.2792 80.7215 18.4769 80.9355 18.6111C81.151 18.7452 81.3915 18.8123 81.657 18.8123C81.9224 18.8123 82.1622 18.7452 82.3763 18.6111C82.5918 18.4769 82.7623 18.2792 82.8879 18.0181C83.0149 17.7569 83.0785 17.4365 83.0785 17.0569ZM84.4139 19.249V14.8647H84.9448V17.0397H84.9962L86.9657 14.8647H87.6593L85.8183 16.8428L87.6593 19.249H87.0171L85.4929 17.211L84.9448 17.8275V19.249H84.4139Z" fill="#007B33"/>
<path d="M40.6357 40.5816V39.1607L44.8599 33.115H46.9656V39.0056H48.1024V40.5816H46.9656V42.416H45.157V40.5816H40.6357ZM45.2733 35.0527L42.6251 39.0056H45.2733V35.0527ZM55.5837 34.5618H51.3982V36.7708C51.579 36.5469 51.8374 36.366 52.1733 36.2283C52.5092 36.0818 52.8666 36.0086 53.2455 36.0086C53.9344 36.0086 54.4985 36.1594 54.9378 36.4608C55.377 36.7622 55.6956 37.1497 55.8937 37.6234C56.0918 38.0885 56.1908 38.588 56.1908 39.1219C56.1908 40.1123 55.9066 40.9089 55.3382 41.5117C54.7784 42.1146 53.9775 42.416 52.9354 42.416C51.9537 42.416 51.17 42.1706 50.5844 41.6797C49.9987 41.1888 49.6672 40.5472 49.5897 39.7549H51.3465C51.424 40.0994 51.5963 40.375 51.8632 40.5816C52.1388 40.7883 52.4876 40.8917 52.9096 40.8917C53.4177 40.8917 53.801 40.7324 54.0593 40.4137C54.3177 40.0951 54.4469 39.6731 54.4469 39.1477C54.4469 38.6138 54.3134 38.209 54.0464 37.9334C53.788 37.6492 53.4048 37.5071 52.8967 37.5071C52.535 37.5071 52.2336 37.5976 51.9924 37.7784C51.7513 37.9593 51.579 38.2004 51.4757 38.5018H49.7447V32.9729H55.5837V34.5618Z" fill="#263238"/>
<path d="M62.1591 37.3093H62.69V40.2122C62.69 40.5119 62.6194 40.7795 62.4781 41.015C62.3382 41.249 62.1405 41.4339 61.8851 41.5694C61.6296 41.7036 61.3299 41.7707 60.986 41.7707C60.642 41.7707 60.3423 41.7036 60.0868 41.5694C59.8314 41.4339 59.633 41.249 59.4917 41.015C59.3518 40.7795 59.2819 40.5119 59.2819 40.2122V37.3093H59.8128V40.1694C59.8128 40.3834 59.8599 40.574 59.9541 40.741C60.0483 40.9065 60.1824 41.0371 60.3566 41.1327C60.5321 41.2269 60.7419 41.274 60.986 41.274C61.23 41.274 61.4398 41.2269 61.6153 41.1327C61.7909 41.0371 61.925 40.9065 62.0178 40.741C62.112 40.574 62.1591 40.3834 62.1591 40.1694V37.3093ZM64.8902 37.1038L63.4773 42.353H63.0149L64.4278 37.1038H64.8902ZM65.5576 41.6936V37.3093H66.0885V41.2226H68.1265V41.6936H65.5576Z" fill="#263238"/>
<rect x="142.091" y="38.1266" width="64.8371" height="56.5981" rx="4.80703" fill="black"/>
<rect x="142.091" y="38.1266" width="64.8371" height="56.5981" rx="4.80703" stroke="black" stroke-width="0.720412"/>
<rect x="144.252" y="35.9652" width="64.8371" height="57.2224" rx="4.80703" fill="white"/>
<rect x="144.252" y="35.9652" width="64.8371" height="57.2224" rx="4.80703" stroke="black" stroke-width="0.720412"/>
<path d="M153.999 51.4984C153.976 51.2847 153.88 51.1183 153.71 50.9993C153.542 50.8802 153.324 50.8207 153.055 50.8207C152.865 50.8207 152.703 50.8492 152.568 50.9063C152.432 50.9634 152.329 51.0409 152.257 51.1387C152.185 51.2366 152.148 51.3483 152.147 51.4739C152.147 51.5783 152.17 51.6688 152.218 51.7455C152.267 51.8221 152.333 51.8874 152.416 51.9412C152.499 51.9934 152.591 52.0374 152.692 52.0733C152.794 52.1092 152.895 52.1394 152.998 52.1639L153.468 52.2813C153.657 52.3253 153.839 52.3849 154.014 52.4599C154.19 52.5349 154.347 52.6295 154.486 52.7437C154.626 52.8579 154.737 52.9957 154.819 53.1572C154.9 53.3187 154.941 53.5079 154.941 53.7248C154.941 54.0184 154.866 54.2769 154.716 54.5004C154.566 54.7222 154.349 54.8959 154.065 55.0215C153.783 55.1455 153.441 55.2074 153.04 55.2074C152.65 55.2074 152.312 55.1471 152.024 55.0264C151.739 54.9057 151.516 54.7295 151.354 54.4979C151.194 54.2663 151.108 53.9841 151.095 53.6514H151.988C152.001 53.8259 152.055 53.9711 152.149 54.0869C152.244 54.2027 152.367 54.2891 152.519 54.3462C152.672 54.4033 152.843 54.4319 153.032 54.4319C153.23 54.4319 153.403 54.4025 153.551 54.3438C153.701 54.2834 153.819 54.2003 153.903 54.0942C153.988 53.9866 154.032 53.861 154.033 53.7175C154.032 53.587 153.993 53.4793 153.918 53.3945C153.843 53.3081 153.738 53.2363 153.603 53.1792C153.469 53.1205 153.312 53.0683 153.133 53.0226L152.563 52.8758C152.15 52.7698 151.824 52.6091 151.584 52.3938C151.346 52.1769 151.227 51.889 151.227 51.5302C151.227 51.235 151.307 50.9764 151.467 50.7546C151.628 50.5328 151.848 50.3607 152.125 50.2384C152.402 50.1144 152.716 50.0524 153.067 50.0524C153.422 50.0524 153.734 50.1144 154.001 50.2384C154.27 50.3607 154.482 50.5312 154.635 50.7497C154.788 50.9667 154.867 51.2162 154.872 51.4984H153.999ZM156.597 50.1209V55.1316H155.711V50.1209H156.597ZM159.171 55.205C158.794 55.205 158.469 55.1267 158.195 54.9701C157.922 54.8119 157.713 54.5884 157.566 54.2997C157.419 54.0094 157.346 53.6677 157.346 53.2746C157.346 52.8881 157.419 52.5488 157.566 52.2568C157.714 51.9632 157.922 51.7349 158.187 51.5718C158.453 51.407 158.766 51.3247 159.125 51.3247C159.356 51.3247 159.575 51.3622 159.78 51.4372C159.987 51.5106 160.17 51.6248 160.328 51.7797C160.488 51.9347 160.614 52.1321 160.705 52.3718C160.796 52.61 160.842 52.8938 160.842 53.2232V53.4948H157.762V52.8978H159.993C159.991 52.7282 159.955 52.5773 159.883 52.4452C159.811 52.3115 159.711 52.2063 159.582 52.1296C159.455 52.0529 159.306 52.0146 159.137 52.0146C158.956 52.0146 158.797 52.0587 158.66 52.1467C158.523 52.2332 158.416 52.3474 158.339 52.4893C158.264 52.6295 158.226 52.7837 158.224 52.9517V53.4728C158.224 53.6914 158.264 53.8789 158.344 54.0355C158.424 54.1905 158.536 54.3095 158.679 54.3927C158.823 54.4743 158.991 54.515 159.183 54.515C159.312 54.515 159.429 54.4971 159.533 54.4612C159.638 54.4237 159.728 54.3691 159.805 54.2973C159.881 54.2255 159.939 54.1366 159.978 54.0306L160.805 54.1236C160.753 54.3422 160.654 54.533 160.507 54.6961C160.362 54.8576 160.176 54.9832 159.949 55.0729C159.722 55.161 159.463 55.205 159.171 55.205ZM163.255 55.205C162.878 55.205 162.553 55.1267 162.279 54.9701C162.006 54.8119 161.797 54.5884 161.65 54.2997C161.503 54.0094 161.43 53.6677 161.43 53.2746C161.43 52.8881 161.503 52.5488 161.65 52.2568C161.798 51.9632 162.006 51.7349 162.271 51.5718C162.537 51.407 162.85 51.3247 163.209 51.3247C163.44 51.3247 163.659 51.3622 163.864 51.4372C164.071 51.5106 164.254 51.6248 164.412 51.7797C164.572 51.9347 164.698 52.1321 164.789 52.3718C164.88 52.61 164.926 52.8938 164.926 53.2232V53.4948H161.846V52.8978H164.077C164.075 52.7282 164.039 52.5773 163.967 52.4452C163.895 52.3115 163.795 52.2063 163.666 52.1296C163.539 52.0529 163.39 52.0146 163.221 52.0146C163.04 52.0146 162.881 52.0587 162.744 52.1467C162.607 52.2332 162.5 52.3474 162.423 52.4893C162.348 52.6295 162.31 52.7837 162.308 52.9517V53.4728C162.308 53.6914 162.348 53.8789 162.428 54.0355C162.508 54.1905 162.62 54.3095 162.763 54.3927C162.907 54.4743 163.075 54.515 163.267 54.515C163.396 54.515 163.513 54.4971 163.617 54.4612C163.722 54.4237 163.812 54.3691 163.889 54.2973C163.965 54.2255 164.023 54.1366 164.062 54.0306L164.889 54.1236C164.837 54.3422 164.738 54.533 164.591 54.6961C164.446 54.8576 164.26 54.9832 164.033 55.0729C163.806 55.161 163.547 55.205 163.255 55.205ZM165.675 56.5408V51.3736H166.546V51.995H166.598C166.643 51.9037 166.708 51.8067 166.791 51.7039C166.874 51.5995 166.987 51.5106 167.129 51.4372C167.271 51.3622 167.452 51.3247 167.672 51.3247C167.962 51.3247 168.224 51.3989 168.457 51.5473C168.692 51.6941 168.878 51.9119 169.015 52.2006C169.154 52.4876 169.223 52.8399 169.223 53.2575C169.223 53.6702 169.155 54.0208 169.02 54.3095C168.884 54.5982 168.7 54.8184 168.467 54.9701C168.234 55.1218 167.969 55.1977 167.674 55.1977C167.459 55.1977 167.28 55.1618 167.138 55.09C166.997 55.0182 166.882 54.9318 166.796 54.8307C166.711 54.7279 166.645 54.6309 166.598 54.5395H166.561V56.5408H165.675ZM166.544 53.2526C166.544 53.4956 166.578 53.7085 166.647 53.8912C166.717 54.0738 166.817 54.2166 166.948 54.3193C167.08 54.4204 167.24 54.471 167.427 54.471C167.623 54.471 167.787 54.4188 167.919 54.3144C168.051 54.2084 168.15 54.0641 168.217 53.8814C168.286 53.6971 168.32 53.4875 168.32 53.2526C168.32 53.0194 168.287 52.8122 168.22 52.6312C168.153 52.4501 168.053 52.3082 167.921 52.2054C167.789 52.1027 167.624 52.0513 167.427 52.0513C167.238 52.0513 167.077 52.1011 166.945 52.2006C166.813 52.3001 166.713 52.4395 166.644 52.6189C166.577 52.7983 166.544 53.0096 166.544 53.2526Z" fill="#263238"/>
<rect x="186.67" y="47.1316" width="15.8896" height="10.4448" rx="1.72241" fill="#E6F9EB"/>
<path d="M194.345 52.6618C194.345 53.1243 194.262 53.5239 194.095 53.8607C193.928 54.1975 193.699 54.4572 193.408 54.6399C193.116 54.8226 192.784 54.9139 192.41 54.9139C192.036 54.9139 191.703 54.8226 191.412 54.6399C191.121 54.4572 190.892 54.1975 190.725 53.8607C190.558 53.5239 190.475 53.1243 190.475 52.6618C190.475 52.1994 190.558 51.7998 190.725 51.463C190.892 51.1262 191.121 50.8664 191.412 50.6838C191.703 50.5011 192.036 50.4097 192.41 50.4097C192.784 50.4097 193.116 50.5011 193.408 50.6838C193.699 50.8664 193.928 51.1262 194.095 51.463C194.262 51.7998 194.345 52.1994 194.345 52.6618ZM193.831 52.6618C193.831 52.2822 193.768 51.9618 193.641 51.7006C193.515 51.4395 193.345 51.2418 193.129 51.1076C192.915 50.9735 192.675 50.9064 192.41 50.9064C192.144 50.9064 191.904 50.9735 191.688 51.1076C191.474 51.2418 191.304 51.4395 191.177 51.7006C191.051 51.9618 190.988 52.2822 190.988 52.6618C190.988 53.0415 191.051 53.3619 191.177 53.6231C191.304 53.8842 191.474 54.0819 191.688 54.2161C191.904 54.3502 192.144 54.4173 192.41 54.4173C192.675 54.4173 192.915 54.3502 193.129 54.2161C193.345 54.0819 193.515 53.8842 193.641 53.6231C193.768 53.3619 193.831 53.0415 193.831 52.6618ZM195.167 54.854V50.4697H195.698V52.6447H195.749L197.719 50.4697H198.412L196.571 52.4478L198.412 54.854H197.77L196.246 52.816L195.698 53.4325V54.854H195.167Z" fill="#007B33"/>
<path d="M156.349 70.955C156.263 70.5933 156.112 70.3221 155.897 70.1412C155.69 69.9604 155.389 69.8699 154.993 69.8699C154.399 69.8699 153.959 70.1111 153.675 70.5933C153.4 71.067 153.258 71.8421 153.249 72.9186C153.456 72.5741 153.757 72.3071 154.153 72.1177C154.549 71.9196 154.98 71.8206 155.445 71.8206C156.005 71.8206 156.5 71.9411 156.931 72.1823C157.361 72.4234 157.697 72.7765 157.938 73.2415C158.179 73.698 158.3 74.2492 158.3 74.8951C158.3 75.5065 158.175 76.0534 157.925 76.5357C157.684 77.0093 157.327 77.3796 156.853 77.6466C156.379 77.9136 155.815 78.0471 155.161 78.0471C154.265 78.0471 153.559 77.849 153.042 77.4528C152.534 77.0567 152.177 76.5055 151.97 75.7993C151.772 75.0845 151.673 74.2061 151.673 73.164C151.673 71.588 151.944 70.3996 152.487 69.5986C153.029 68.7891 153.886 68.3843 155.058 68.3843C155.962 68.3843 156.664 68.6298 157.163 69.1207C157.663 69.6116 157.951 70.223 158.029 70.955H156.349ZM155.032 73.3061C154.575 73.3061 154.192 73.4396 153.882 73.7066C153.572 73.9736 153.417 74.3611 153.417 74.8692C153.417 75.3773 153.559 75.7778 153.843 76.0706C154.136 76.3634 154.545 76.5098 155.07 76.5098C155.535 76.5098 155.901 76.3677 156.168 76.0835C156.444 75.7993 156.582 75.4161 156.582 74.9338C156.582 74.4343 156.448 74.0382 156.181 73.7454C155.923 73.4525 155.54 73.3061 155.032 73.3061ZM160.737 78.1117C160.41 78.1117 160.138 78.0126 159.923 77.8146C159.716 77.6079 159.613 77.3538 159.613 77.0524C159.613 76.751 159.716 76.5012 159.923 76.3031C160.138 76.0964 160.41 75.9931 160.737 75.9931C161.056 75.9931 161.318 76.0964 161.525 76.3031C161.732 76.5012 161.835 76.751 161.835 77.0524C161.835 77.3538 161.732 77.6079 161.525 77.8146C161.318 78.0126 161.056 78.1117 160.737 78.1117ZM160.737 72.7636C160.41 72.7636 160.138 72.6645 159.923 72.4665C159.716 72.2598 159.613 72.0057 159.613 71.7043C159.613 71.4029 159.716 71.1531 159.923 70.955C160.138 70.7484 160.41 70.645 160.737 70.645C161.056 70.645 161.318 70.7484 161.525 70.955C161.732 71.1531 161.835 71.4029 161.835 71.7043C161.835 72.0057 161.732 72.2598 161.525 72.4665C161.318 72.6645 161.056 72.7636 160.737 72.7636ZM169.453 70.167H165.267V72.376C165.448 72.1521 165.706 71.9713 166.042 71.8335C166.378 71.6871 166.736 71.6139 167.115 71.6139C167.803 71.6139 168.368 71.7646 168.807 72.066C169.246 72.3674 169.565 72.755 169.763 73.2286C169.961 73.6937 170.06 74.1932 170.06 74.7271C170.06 75.7175 169.776 76.5141 169.207 77.117C168.647 77.7198 167.847 78.0212 166.804 78.0212C165.823 78.0212 165.039 77.7758 164.453 77.2849C163.868 76.794 163.536 76.1524 163.459 75.3601H165.216C165.293 75.7046 165.465 75.9802 165.732 76.1869C166.008 76.3936 166.357 76.4969 166.779 76.4969C167.287 76.4969 167.67 76.3376 167.928 76.0189C168.187 75.7003 168.316 75.2783 168.316 74.753C168.316 74.219 168.182 73.8142 167.915 73.5387C167.657 73.2545 167.274 73.1124 166.766 73.1124C166.404 73.1124 166.103 73.2028 165.861 73.3836C165.62 73.5645 165.448 73.8056 165.345 74.1071H163.614V68.5781H169.453V70.167ZM176.319 70.955C176.233 70.5933 176.083 70.3221 175.867 70.1412C175.661 69.9604 175.359 69.8699 174.963 69.8699C174.369 69.8699 173.93 70.1111 173.645 70.5933C173.37 71.067 173.228 71.8421 173.219 72.9186C173.426 72.5741 173.727 72.3071 174.123 72.1177C174.519 71.9196 174.95 71.8206 175.415 71.8206C175.975 71.8206 176.47 71.9411 176.901 72.1823C177.331 72.4234 177.667 72.7765 177.908 73.2415C178.149 73.698 178.27 74.2492 178.27 74.8951C178.27 75.5065 178.145 76.0534 177.895 76.5357C177.654 77.0093 177.297 77.3796 176.823 77.6466C176.35 77.9136 175.785 78.0471 175.131 78.0471C174.235 78.0471 173.529 77.849 173.012 77.4528C172.504 77.0567 172.147 76.5055 171.94 75.7993C171.742 75.0845 171.643 74.2061 171.643 73.164C171.643 71.588 171.914 70.3996 172.457 69.5986C172.999 68.7891 173.856 68.3843 175.028 68.3843C175.932 68.3843 176.634 68.6298 177.133 69.1207C177.633 69.6116 177.921 70.223 177.999 70.955H176.319ZM175.002 73.3061C174.545 73.3061 174.162 73.4396 173.852 73.7066C173.542 73.9736 173.387 74.3611 173.387 74.8692C173.387 75.3773 173.529 75.7778 173.813 76.0706C174.106 76.3634 174.515 76.5098 175.04 76.5098C175.506 76.5098 175.872 76.3677 176.139 76.0835C176.414 75.7993 176.552 75.4161 176.552 74.9338C176.552 74.4343 176.418 74.0382 176.151 73.7454C175.893 73.4525 175.51 73.3061 175.002 73.3061Z" fill="#263238"/>
<path d="M182.472 75.3207V77.2988H181.966V72.9145H182.472V74.5244H182.514C182.592 74.3545 182.707 74.2197 182.861 74.1198C183.017 74.0184 183.224 73.9678 183.482 73.9678C183.706 73.9678 183.902 74.0127 184.071 74.1026C184.239 74.1911 184.37 74.3274 184.463 74.5115C184.557 74.6942 184.604 74.9268 184.604 75.2094V77.2988H184.099V75.2437C184.099 74.9825 184.031 74.7806 183.895 74.6378C183.761 74.4937 183.575 74.4216 183.337 74.4216C183.171 74.4216 183.023 74.4566 182.891 74.5265C182.761 74.5964 182.659 74.6985 182.583 74.8326C182.509 74.9668 182.472 75.1295 182.472 75.3207Z" fill="#263238"/>
<rect x="287.084" y="112.744" width="64.8371" height="56.5981" rx="4.80703" fill="black"/>
<rect x="287.084" y="112.744" width="64.8371" height="56.5981" rx="4.80703" stroke="black" stroke-width="0.720412"/>
<rect x="289.245" y="109.142" width="64.8371" height="58.4336" rx="4.80703" fill="white"/>
<rect x="289.245" y="109.142" width="64.8371" height="58.4336" rx="4.80703" stroke="black" stroke-width="0.720412"/>
<path d="M296.269 128.309V123.298H298.148C298.533 123.298 298.856 123.365 299.117 123.499C299.379 123.633 299.578 123.82 299.711 124.062C299.847 124.301 299.914 124.581 299.914 124.901C299.914 125.222 299.846 125.501 299.709 125.737C299.573 125.972 299.374 126.154 299.109 126.283C298.845 126.41 298.521 126.474 298.136 126.474H296.797V125.72H298.013C298.238 125.72 298.423 125.689 298.566 125.627C298.71 125.564 298.816 125.472 298.884 125.351C298.954 125.229 298.99 125.079 298.99 124.901C298.99 124.723 298.954 124.571 298.884 124.446C298.814 124.318 298.707 124.222 298.564 124.157C298.42 124.09 298.235 124.057 298.008 124.057H297.177V128.309H296.269ZM298.857 126.038L300.098 128.309H299.085L297.867 126.038H298.857ZM300.75 128.309V123.298H301.658V125.419H303.979V123.298H304.889V128.309H303.979V126.18H301.658V128.309H300.75ZM305.877 128.309V123.298H307.756C308.141 123.298 308.464 123.365 308.725 123.499C308.987 123.633 309.185 123.82 309.319 124.062C309.454 124.301 309.522 124.581 309.522 124.901C309.522 125.222 309.454 125.501 309.317 125.737C309.181 125.972 308.981 126.154 308.717 126.283C308.453 126.41 308.128 126.474 307.743 126.474H306.405V125.72H307.621C307.846 125.72 308.031 125.689 308.174 125.627C308.318 125.564 308.424 125.472 308.492 125.351C308.562 125.229 308.597 125.079 308.597 124.901C308.597 124.723 308.562 124.571 308.492 124.446C308.422 124.318 308.315 124.222 308.172 124.157C308.028 124.09 307.843 124.057 307.616 124.057H306.784V128.309H305.877ZM308.465 126.038L309.706 128.309H308.693L307.474 126.038H308.465Z" fill="#263238"/>
<rect x="329.13" y="120.309" width="18.4223" height="12.2112" rx="1.25855" fill="#FFE8E0"/>
<path d="M337.9 126.117C337.9 126.612 337.807 127.036 337.622 127.389C337.438 127.741 337.186 128.01 336.868 128.197C336.551 128.384 336.191 128.477 335.789 128.477C335.387 128.477 335.026 128.384 334.708 128.197C334.391 128.008 334.139 127.738 333.954 127.387C333.77 127.034 333.678 126.611 333.678 126.117C333.678 125.622 333.77 125.199 333.954 124.848C334.139 124.495 334.391 124.225 334.708 124.038C335.026 123.851 335.387 123.757 335.789 123.757C336.191 123.757 336.551 123.851 336.868 124.038C337.186 124.225 337.438 124.495 337.622 124.848C337.807 125.199 337.9 125.622 337.9 126.117ZM337.063 126.117C337.063 125.769 337.009 125.475 336.899 125.236C336.792 124.995 336.642 124.813 336.451 124.691C336.259 124.567 336.039 124.504 335.789 124.504C335.539 124.504 335.319 124.567 335.127 124.691C334.936 124.813 334.786 124.995 334.676 125.236C334.569 125.475 334.515 125.769 334.515 126.117C334.515 126.466 334.569 126.76 334.676 127.001C334.786 127.24 334.936 127.422 335.127 127.546C335.319 127.669 335.539 127.73 335.789 127.73C336.039 127.73 336.259 127.669 336.451 127.546C336.642 127.422 336.792 127.24 336.899 127.001C337.009 126.76 337.063 126.466 337.063 126.117ZM338.635 128.414V123.82H339.467V125.931H339.523L341.315 123.82H342.331L340.555 125.882L342.347 128.414H341.347L339.976 126.445L339.467 127.046V128.414H338.635Z" fill="#FF815A"/>
<path d="M302.789 144.555H298.604V146.764C298.785 146.541 299.043 146.36 299.379 146.222C299.715 146.075 300.072 146.002 300.451 146.002C301.14 146.002 301.704 146.153 302.143 146.454C302.582 146.756 302.901 147.143 303.099 147.617C303.297 148.082 303.396 148.582 303.396 149.116C303.396 150.106 303.112 150.903 302.544 151.505C301.984 152.108 301.183 152.41 300.141 152.41C299.159 152.41 298.375 152.164 297.79 151.673C297.204 151.182 296.873 150.541 296.795 149.749H298.552C298.63 150.093 298.802 150.369 299.069 150.575C299.344 150.782 299.693 150.885 300.115 150.885C300.623 150.885 301.006 150.726 301.265 150.407C301.523 150.089 301.652 149.667 301.652 149.141C301.652 148.607 301.519 148.203 301.252 147.927C300.994 147.643 300.61 147.501 300.102 147.501C299.741 147.501 299.439 147.591 299.198 147.772C298.957 147.953 298.785 148.194 298.681 148.495H296.95V142.967H302.789V144.555ZM305.341 150.369C306.168 149.68 306.827 149.107 307.318 148.651C307.809 148.185 308.218 147.703 308.545 147.204C308.872 146.704 309.036 146.213 309.036 145.731C309.036 145.292 308.932 144.947 308.726 144.698C308.519 144.448 308.2 144.323 307.77 144.323C307.339 144.323 307.008 144.469 306.775 144.762C306.543 145.046 306.422 145.438 306.413 145.938H304.657C304.691 144.904 304.997 144.121 305.574 143.587C306.159 143.053 306.9 142.786 307.796 142.786C308.777 142.786 309.531 143.048 310.056 143.574C310.582 144.09 310.844 144.775 310.844 145.628C310.844 146.299 310.663 146.941 310.302 147.552C309.94 148.164 309.527 148.698 309.062 149.154C308.597 149.602 307.989 150.145 307.24 150.782H311.051V152.28H304.669V150.937L305.341 150.369Z" fill="#263238"/>
<path d="M313.959 152.92V148.399H314.465V150.343C314.465 150.521 314.502 150.678 314.576 150.814C314.652 150.948 314.757 151.053 314.893 151.129C315.03 151.204 315.19 151.242 315.372 151.242C315.555 151.242 315.714 151.204 315.85 151.129C315.987 151.051 316.092 150.946 316.167 150.812C316.242 150.676 316.28 150.52 316.28 150.343V148.399H316.785V151.687H316.28V151.199H316.254C316.166 151.372 316.042 151.504 315.884 151.595C315.726 151.685 315.555 151.73 315.372 151.73C315.19 151.73 315.019 151.685 314.861 151.595C314.704 151.504 314.58 151.372 314.49 151.199H314.465V152.92H313.959ZM319.037 152.989C318.793 152.989 318.583 152.957 318.407 152.895C318.232 152.833 318.086 152.752 317.969 152.651C317.853 152.551 317.761 152.444 317.692 152.329L318.095 152.047C318.141 152.107 318.198 152.175 318.268 152.252C318.338 152.331 318.434 152.399 318.555 152.456C318.678 152.514 318.838 152.544 319.037 152.544C319.302 152.544 319.521 152.479 319.694 152.351C319.867 152.222 319.953 152.021 319.953 151.747V151.079H319.91C319.873 151.139 319.82 151.213 319.752 151.302C319.685 151.389 319.588 151.467 319.461 151.535C319.335 151.602 319.165 151.636 318.951 151.636C318.686 151.636 318.447 151.573 318.236 151.447C318.026 151.322 317.86 151.139 317.737 150.899C317.616 150.66 317.555 150.369 317.555 150.026C317.555 149.689 317.615 149.396 317.733 149.146C317.852 148.895 318.016 148.701 318.228 148.564C318.439 148.425 318.683 148.356 318.96 148.356C319.174 148.356 319.344 148.392 319.469 148.463C319.596 148.533 319.693 148.613 319.76 148.703C319.829 148.791 319.882 148.864 319.919 148.921H319.97V148.399H320.458V151.781C320.458 152.064 320.394 152.294 320.266 152.471C320.139 152.649 319.967 152.78 319.752 152.863C319.538 152.947 319.299 152.989 319.037 152.989ZM319.02 151.182C319.222 151.182 319.394 151.136 319.534 151.043C319.673 150.95 319.78 150.817 319.853 150.643C319.925 150.468 319.962 150.26 319.962 150.017C319.962 149.781 319.926 149.571 319.855 149.39C319.783 149.209 319.678 149.067 319.538 148.964C319.398 148.861 319.225 148.81 319.02 148.81C318.806 148.81 318.627 148.864 318.485 148.973C318.343 149.081 318.237 149.227 318.166 149.409C318.096 149.592 318.061 149.795 318.061 150.017C318.061 150.246 318.096 150.448 318.168 150.623C318.241 150.797 318.348 150.934 318.489 151.034C318.632 151.133 318.809 151.182 319.02 151.182ZM322.933 147.097L321.52 152.347H321.058L322.471 147.097H322.933ZM324.774 151.756C324.5 151.756 324.258 151.687 324.048 151.548C323.838 151.408 323.674 151.211 323.556 150.957C323.437 150.702 323.378 150.4 323.378 150.052C323.378 149.706 323.437 149.407 323.556 149.153C323.674 148.899 323.839 148.702 324.05 148.564C324.261 148.425 324.505 148.356 324.782 148.356C324.996 148.356 325.165 148.392 325.29 148.463C325.415 148.533 325.511 148.613 325.576 148.703C325.644 148.791 325.696 148.864 325.733 148.921H325.776V147.303H326.281V151.687H325.793V151.182H325.733C325.696 151.242 325.643 151.318 325.574 151.409C325.506 151.499 325.408 151.58 325.281 151.651C325.154 151.721 324.985 151.756 324.774 151.756ZM324.842 151.302C325.045 151.302 325.216 151.249 325.356 151.143C325.496 151.036 325.602 150.889 325.675 150.7C325.748 150.511 325.784 150.291 325.784 150.043C325.784 149.798 325.748 149.583 325.677 149.399C325.606 149.213 325.5 149.069 325.36 148.966C325.22 148.862 325.048 148.81 324.842 148.81C324.628 148.81 324.45 148.865 324.307 148.975C324.166 149.083 324.059 149.231 323.988 149.418C323.918 149.604 323.883 149.812 323.883 150.043C323.883 150.277 323.919 150.49 323.99 150.681C324.063 150.871 324.17 151.022 324.311 151.135C324.454 151.246 324.631 151.302 324.842 151.302ZM327.345 151.687V147.303H327.876V151.216H329.914V151.687H327.345Z" fill="#263238"/>
<rect x="50.0687" y="212.881" width="64.8371" height="56.5981" rx="4.80703" fill="black"/>
<rect x="50.0687" y="212.881" width="64.8371" height="56.5981" rx="4.80703" stroke="black" stroke-width="0.720412"/>
<rect x="52.2298" y="210.72" width="64.8371" height="57.2224" rx="4.80703" fill="white"/>
<rect x="52.2298" y="210.72" width="64.8371" height="57.2224" rx="4.80703" stroke="black" stroke-width="0.720412"/>
<path d="M61.9766 226.253C61.9537 226.04 61.8575 225.873 61.6879 225.754C61.5199 225.635 61.3013 225.576 61.0322 225.576C60.843 225.576 60.6807 225.604 60.5453 225.661C60.4099 225.718 60.3063 225.796 60.2346 225.894C60.1628 225.991 60.1261 226.103 60.1245 226.229C60.1245 226.333 60.1481 226.424 60.1954 226.5C60.2444 226.577 60.3104 226.642 60.3936 226.696C60.4768 226.748 60.569 226.792 60.6701 226.828C60.7712 226.864 60.8731 226.894 60.9759 226.919L61.4457 227.036C61.6349 227.08 61.8167 227.14 61.9912 227.215C62.1674 227.29 62.3248 227.384 62.4634 227.499C62.6037 227.613 62.7146 227.751 62.7962 227.912C62.8777 228.074 62.9185 228.263 62.9185 228.48C62.9185 228.773 62.8435 229.032 62.6934 229.255C62.5434 229.477 62.3264 229.651 62.0426 229.776C61.7604 229.9 61.4187 229.962 61.0175 229.962C60.6277 229.962 60.2892 229.902 60.0022 229.781C59.7167 229.661 59.4933 229.484 59.3318 229.253C59.1719 229.021 59.0855 228.739 59.0724 228.406H59.9655C59.9785 228.581 60.0323 228.726 60.1269 228.842C60.2215 228.958 60.3447 229.044 60.4964 229.101C60.6497 229.158 60.821 229.187 61.0102 229.187C61.2075 229.187 61.3804 229.157 61.5288 229.099C61.6789 229.038 61.7963 228.955 61.8811 228.849C61.966 228.741 62.0092 228.616 62.0108 228.472C62.0092 228.342 61.9709 228.234 61.8958 228.149C61.8208 228.063 61.7156 227.991 61.5802 227.934C61.4465 227.875 61.2899 227.823 61.1105 227.777L60.5404 227.631C60.1277 227.525 59.8015 227.364 59.5618 227.149C59.3236 226.932 59.2046 226.644 59.2046 226.285C59.2046 225.99 59.2845 225.731 59.4443 225.509C59.6058 225.288 59.8252 225.116 60.1025 224.993C60.3797 224.869 60.6937 224.807 61.0444 224.807C61.4 224.807 61.7115 224.869 61.979 224.993C62.2481 225.116 62.4594 225.286 62.6127 225.505C62.766 225.722 62.8451 225.971 62.85 226.253H61.9766ZM64.5743 224.876V229.886H63.6886V224.876H64.5743ZM67.1487 229.96C66.7719 229.96 66.4465 229.882 66.1725 229.725C65.9001 229.567 65.6905 229.343 65.5437 229.055C65.3969 228.764 65.3235 228.423 65.3235 228.029C65.3235 227.643 65.3969 227.304 65.5437 227.012C65.6921 226.718 65.8993 226.49 66.1652 226.327C66.431 226.162 66.7434 226.08 67.1022 226.08C67.3338 226.08 67.5524 226.117 67.7579 226.192C67.965 226.265 68.1477 226.38 68.3059 226.535C68.4658 226.69 68.5914 226.887 68.6827 227.127C68.7741 227.365 68.8197 227.649 68.8197 227.978V228.25H65.7394V227.653H67.9708C67.9691 227.483 67.9324 227.332 67.8607 227.2C67.7889 227.066 67.6886 226.961 67.5597 226.884C67.4325 226.808 67.2841 226.769 67.1144 226.769C66.9334 226.769 66.7744 226.814 66.6374 226.902C66.5003 226.988 66.3935 227.102 66.3168 227.244C66.2418 227.384 66.2035 227.539 66.2019 227.707V228.228C66.2019 228.446 66.2418 228.634 66.3217 228.79C66.4017 228.945 66.5134 229.064 66.6569 229.148C66.8005 229.229 66.9685 229.27 67.1609 229.27C67.2898 229.27 67.4064 229.252 67.5108 229.216C67.6152 229.179 67.7057 229.124 67.7824 229.052C67.859 228.98 67.9169 228.892 67.9561 228.786L68.783 228.878C68.7308 229.097 68.6313 229.288 68.4845 229.451C68.3394 229.612 68.1534 229.738 67.9267 229.828C67.7 229.916 67.4407 229.96 67.1487 229.96ZM71.2327 229.96C70.8559 229.96 70.5305 229.882 70.2565 229.725C69.9841 229.567 69.7745 229.343 69.6277 229.055C69.4809 228.764 69.4075 228.423 69.4075 228.029C69.4075 227.643 69.4809 227.304 69.6277 227.012C69.7761 226.718 69.9833 226.49 70.2492 226.327C70.515 226.162 70.8274 226.08 71.1862 226.08C71.4178 226.08 71.6364 226.117 71.8419 226.192C72.049 226.265 72.2317 226.38 72.3899 226.535C72.5498 226.69 72.6754 226.887 72.7667 227.127C72.8581 227.365 72.9037 227.649 72.9037 227.978V228.25H69.8234V227.653H72.0548C72.0531 227.483 72.0164 227.332 71.9447 227.2C71.8729 227.066 71.7726 226.961 71.6437 226.884C71.5165 226.808 71.3681 226.769 71.1984 226.769C71.0174 226.769 70.8584 226.814 70.7214 226.902C70.5843 226.988 70.4775 227.102 70.4008 227.244C70.3258 227.384 70.2875 227.539 70.2859 227.707V228.228C70.2859 228.446 70.3258 228.634 70.4057 228.79C70.4857 228.945 70.5974 229.064 70.7409 229.148C70.8845 229.229 71.0525 229.27 71.2449 229.27C71.3738 229.27 71.4904 229.252 71.5948 229.216C71.6992 229.179 71.7897 229.124 71.8664 229.052C71.943 228.98 72.0009 228.892 72.0401 228.786L72.867 228.878C72.8148 229.097 72.7153 229.288 72.5685 229.451C72.4234 229.612 72.2374 229.738 72.0107 229.828C71.784 229.916 71.5247 229.96 71.2327 229.96ZM73.653 231.296V226.128H74.524V226.75H74.5754C74.621 226.659 74.6855 226.562 74.7687 226.459C74.8518 226.354 74.9644 226.265 75.1063 226.192C75.2482 226.117 75.4292 226.08 75.6494 226.08C75.9398 226.08 76.2015 226.154 76.4348 226.302C76.6697 226.449 76.8556 226.667 76.9926 226.955C77.1313 227.243 77.2006 227.595 77.2006 228.012C77.2006 228.425 77.1329 228.776 76.9975 229.064C76.8621 229.353 76.6778 229.573 76.4446 229.725C76.2113 229.877 75.9471 229.953 75.6519 229.953C75.4366 229.953 75.258 229.917 75.1161 229.845C74.9742 229.773 74.86 229.687 74.7735 229.586C74.6887 229.483 74.6227 229.386 74.5754 229.294H74.5387V231.296H73.653ZM74.5215 228.007C74.5215 228.251 74.5558 228.463 74.6243 228.646C74.6944 228.829 74.7947 228.971 74.9252 229.074C75.0573 229.175 75.2172 229.226 75.4048 229.226C75.6005 229.226 75.7644 229.174 75.8965 229.069C76.0287 228.963 76.1281 228.819 76.195 228.636C76.2635 228.452 76.2978 228.242 76.2978 228.007C76.2978 227.774 76.2643 227.567 76.1975 227.386C76.1306 227.205 76.0311 227.063 75.899 226.96C75.7669 226.858 75.6021 226.806 75.4048 226.806C75.2156 226.806 75.0549 226.856 74.9228 226.955C74.7907 227.055 74.6904 227.194 74.6219 227.374C74.555 227.553 74.5215 227.764 74.5215 228.007Z" fill="#263238"/>
<rect x="94.6478" y="221.886" width="15.8896" height="10.4448" rx="1.72241" fill="#E6F9EB"/>
<path d="M102.323 227.417C102.323 227.879 102.239 228.279 102.072 228.616C101.906 228.952 101.676 229.212 101.385 229.395C101.094 229.577 100.762 229.669 100.388 229.669C100.014 229.669 99.6812 229.577 99.3901 229.395C99.0989 229.212 98.8699 228.952 98.7029 228.616C98.5359 228.279 98.4524 227.879 98.4524 227.417C98.4524 226.954 98.5359 226.555 98.7029 226.218C98.8699 225.881 99.0989 225.621 99.3901 225.439C99.6812 225.256 100.014 225.165 100.388 225.165C100.762 225.165 101.094 225.256 101.385 225.439C101.676 225.621 101.906 225.881 102.072 226.218C102.239 226.555 102.323 226.954 102.323 227.417ZM101.809 227.417C101.809 227.037 101.746 226.717 101.619 226.456C101.493 226.194 101.322 225.997 101.107 225.863C100.893 225.728 100.653 225.661 100.388 225.661C100.122 225.661 99.8818 225.728 99.6662 225.863C99.4522 225.997 99.2816 226.194 99.1546 226.456C99.029 226.717 98.9662 227.037 98.9662 227.417C98.9662 227.796 99.029 228.117 99.1546 228.378C99.2816 228.639 99.4522 228.837 99.6662 228.971C99.8818 229.105 100.122 229.172 100.388 229.172C100.653 229.172 100.893 229.105 101.107 228.971C101.322 228.837 101.493 228.639 101.619 228.378C101.746 228.117 101.809 227.796 101.809 227.417ZM103.145 229.609V225.225H103.676V227.4H103.727L105.696 225.225H106.39L104.549 227.203L106.39 229.609H105.748L104.224 227.571L103.676 228.187V229.609H103.145Z" fill="#007B33"/>
<path d="M64.327 245.71C64.2409 245.348 64.0901 245.077 63.8748 244.896C63.6682 244.715 63.3667 244.625 62.9706 244.625C62.3763 244.625 61.9371 244.866 61.6529 245.348C61.3773 245.822 61.2352 246.597 61.2266 247.673C61.4333 247.329 61.7347 247.062 62.1309 246.873C62.5271 246.674 62.9577 246.575 63.4227 246.575C63.9825 246.575 64.4777 246.696 64.9083 246.937C65.3389 247.178 65.6748 247.531 65.9159 247.996C66.157 248.453 66.2776 249.004 66.2776 249.65C66.2776 250.261 66.1527 250.808 65.903 251.291C65.6618 251.764 65.3044 252.135 64.8308 252.401C64.3571 252.668 63.793 252.802 63.1385 252.802C62.2429 252.802 61.5367 252.604 61.0199 252.208C60.5118 251.812 60.1544 251.26 59.9477 250.554C59.7497 249.839 59.6506 248.961 59.6506 247.919C59.6506 246.343 59.9219 245.154 60.4645 244.354C61.007 243.544 61.8639 243.139 63.0352 243.139C63.9394 243.139 64.6413 243.385 65.1408 243.876C65.6403 244.366 65.9288 244.978 66.0063 245.71H64.327ZM63.0093 248.061C62.5529 248.061 62.1697 248.195 61.8596 248.461C61.5496 248.728 61.3946 249.116 61.3946 249.624C61.3946 250.132 61.5367 250.533 61.8209 250.825C62.1137 251.118 62.5227 251.265 63.0481 251.265C63.5131 251.265 63.8791 251.123 64.1461 250.838C64.4217 250.554 64.5595 250.171 64.5595 249.689C64.5595 249.189 64.426 248.793 64.159 248.5C63.9007 248.207 63.5174 248.061 63.0093 248.061ZM68.7146 252.867C68.3873 252.867 68.116 252.768 67.9007 252.569C67.6941 252.363 67.5907 252.109 67.5907 251.807C67.5907 251.506 67.6941 251.256 67.9007 251.058C68.116 250.851 68.3873 250.748 68.7146 250.748C69.0332 250.748 69.2959 250.851 69.5026 251.058C69.7093 251.256 69.8126 251.506 69.8126 251.807C69.8126 252.109 69.7093 252.363 69.5026 252.569C69.2959 252.768 69.0332 252.867 68.7146 252.867ZM68.7146 247.518C68.3873 247.518 68.116 247.419 67.9007 247.221C67.6941 247.015 67.5907 246.761 67.5907 246.459C67.5907 246.158 67.6941 245.908 67.9007 245.71C68.116 245.503 68.3873 245.4 68.7146 245.4C69.0332 245.4 69.2959 245.503 69.5026 245.71C69.7093 245.908 69.8126 246.158 69.8126 246.459C69.8126 246.761 69.7093 247.015 69.5026 247.221C69.2959 247.419 69.0332 247.518 68.7146 247.518ZM77.4304 244.922H73.2449V247.131C73.4257 246.907 73.6841 246.726 74.02 246.588C74.3558 246.442 74.7132 246.369 75.0922 246.369C75.7811 246.369 76.3452 246.519 76.7844 246.821C77.2237 247.122 77.5423 247.51 77.7404 247.984C77.9385 248.449 78.0375 248.948 78.0375 249.482C78.0375 250.472 77.7533 251.269 77.1849 251.872C76.6251 252.475 75.8242 252.776 74.7821 252.776C73.8004 252.776 73.0167 252.531 72.4311 252.04C71.8454 251.549 71.5139 250.907 71.4364 250.115H73.1932C73.2707 250.459 73.443 250.735 73.7099 250.942C73.9855 251.148 74.3343 251.252 74.7563 251.252C75.2644 251.252 75.6477 251.092 75.906 250.774C76.1644 250.455 76.2936 250.033 76.2936 249.508C76.2936 248.974 76.1601 248.569 75.8931 248.294C75.6347 248.009 75.2515 247.867 74.7434 247.867C74.3817 247.867 74.0803 247.958 73.8391 248.139C73.598 248.319 73.4257 248.561 73.3224 248.862H71.5914V243.333H77.4304V244.922ZM84.297 245.71C84.2109 245.348 84.0602 245.077 83.8449 244.896C83.6382 244.715 83.3368 244.625 82.9406 244.625C82.3464 244.625 81.9072 244.866 81.623 245.348C81.3474 245.822 81.2053 246.597 81.1967 247.673C81.4034 247.329 81.7048 247.062 82.1009 246.873C82.4971 246.674 82.9277 246.575 83.3928 246.575C83.9525 246.575 84.4477 246.696 84.8783 246.937C85.3089 247.178 85.6448 247.531 85.8859 247.996C86.1271 248.453 86.2477 249.004 86.2477 249.65C86.2477 250.261 86.1228 250.808 85.873 251.291C85.6319 251.764 85.2745 252.135 84.8008 252.401C84.3272 252.668 83.7631 252.802 83.1086 252.802C82.2129 252.802 81.5067 252.604 80.99 252.208C80.4819 251.812 80.1245 251.26 79.9178 250.554C79.7197 249.839 79.6207 248.961 79.6207 247.919C79.6207 246.343 79.892 245.154 80.4345 244.354C80.9771 243.544 81.834 243.139 83.0052 243.139C83.9095 243.139 84.6114 243.385 85.1109 243.876C85.6104 244.366 85.8989 244.978 85.9764 245.71H84.297ZM82.9794 248.061C82.5229 248.061 82.1397 248.195 81.8297 248.461C81.5196 248.728 81.3646 249.116 81.3646 249.624C81.3646 250.132 81.5067 250.533 81.7909 250.825C82.0837 251.118 82.4928 251.265 83.0181 251.265C83.4832 251.265 83.8492 251.123 84.1162 250.838C84.3918 250.554 84.5295 250.171 84.5295 249.689C84.5295 249.189 84.3961 248.793 84.1291 248.5C83.8707 248.207 83.4875 248.061 82.9794 248.061Z" fill="#263238"/>
<path d="M90.4493 250.076V252.054H89.9441V247.669H90.4493V249.279H90.4921C90.5692 249.109 90.6848 248.975 90.8389 248.875C90.9945 248.773 91.2015 248.723 91.4598 248.723C91.6838 248.723 91.8801 248.768 92.0485 248.858C92.2169 248.946 92.3475 249.082 92.4402 249.266C92.5344 249.449 92.5815 249.682 92.5815 249.964V252.054H92.0763V249.999C92.0763 249.737 92.0085 249.535 91.8729 249.393C91.7388 249.249 91.5525 249.177 91.3142 249.177C91.1486 249.177 91.0002 249.211 90.8689 249.281C90.739 249.351 90.6363 249.453 90.5606 249.588C90.4864 249.722 90.4493 249.884 90.4493 250.076Z" fill="#263238"/>
</svg>
